<svg width="448" height="456" viewBox="0 0 448 456" fill="none" xmlns="http://www.w3.org/2000/svg">
<g clip-path="url(#clip0_130_500)">
<path opacity="0.03" d="M170.794 291.179L388.312 253.078V296.711L170.794 335.461V291.179Z" fill="#0097FE"/>
<g filter="url(#filter0_d_130_500)">
<path d="M288.226 105.449H78.222C74.5862 105.449 71.6388 108.4 71.6388 112.04V370.391C71.6388 374.031 74.5862 376.982 78.222 376.982H288.226C291.862 376.982 294.81 374.031 294.81 370.391V112.04C294.81 108.4 291.862 105.449 288.226 105.449Z" fill="white"/>
</g>
<path d="M136.665 136.104C135.698 136.104 134.853 135.884 134.131 135.445C133.408 135.005 132.847 134.394 132.447 133.612C132.046 132.82 131.846 131.901 131.846 130.856C131.846 129.8 132.052 128.871 132.462 128.07C132.881 127.258 133.472 126.628 134.233 126.178C135.005 125.719 135.918 125.49 136.972 125.49C138.173 125.49 139.169 125.778 139.96 126.354C140.751 126.931 141.264 127.728 141.497 128.745H139.403C139.247 128.265 138.964 127.894 138.554 127.63C138.144 127.357 137.616 127.22 136.972 127.22C135.947 127.22 135.156 127.547 134.6 128.202C134.043 128.847 133.765 129.736 133.765 130.87C133.765 132.004 134.038 132.883 134.585 133.509C135.142 134.125 135.894 134.433 136.84 134.433C137.768 134.433 138.466 134.184 138.934 133.685C139.413 133.177 139.701 132.512 139.799 131.691H137.206V130.283H141.688V135.928H139.96L139.813 134.579C139.481 135.068 139.067 135.445 138.568 135.708C138.071 135.972 137.436 136.104 136.665 136.104ZM143.173 135.928V125.372H145.048V135.928H143.173ZM150.156 136.104C149.453 136.104 148.818 135.943 148.252 135.621C147.696 135.298 147.252 134.853 146.92 134.287C146.597 133.71 146.436 133.045 146.436 132.292C146.436 131.54 146.603 130.88 146.934 130.313C147.266 129.736 147.71 129.287 148.267 128.964C148.833 128.642 149.468 128.48 150.171 128.48C150.864 128.48 151.489 128.642 152.046 128.964C152.612 129.287 153.056 129.736 153.378 130.313C153.71 130.88 153.876 131.54 153.876 132.292C153.876 133.045 153.71 133.71 153.378 134.287C153.056 134.853 152.612 135.298 152.046 135.621C151.479 135.943 150.849 136.104 150.156 136.104ZM150.156 134.477C150.644 134.477 151.069 134.296 151.43 133.935C151.791 133.563 151.972 133.016 151.972 132.292C151.972 131.569 151.791 131.026 151.43 130.665C151.069 130.293 150.649 130.108 150.171 130.108C149.673 130.108 149.243 130.293 148.882 130.665C148.531 131.026 148.355 131.569 148.355 132.292C148.355 133.016 148.531 133.563 148.882 133.935C149.243 134.296 149.668 134.477 150.156 134.477ZM159.565 136.104C159.018 136.104 158.54 136.001 158.13 135.797C157.72 135.591 157.388 135.303 157.134 134.931L156.929 135.928H155.259V125.372H157.134V129.698C157.368 129.375 157.675 129.091 158.056 128.847C158.447 128.602 158.949 128.48 159.565 128.48C160.248 128.48 160.858 128.646 161.396 128.979C161.932 129.311 162.357 129.765 162.67 130.342C162.982 130.919 163.138 131.574 163.138 132.307C163.138 133.04 162.982 133.695 162.67 134.271C162.357 134.838 161.932 135.288 161.396 135.621C160.858 135.943 160.248 136.104 159.565 136.104ZM159.169 134.462C159.765 134.462 160.258 134.262 160.648 133.861C161.039 133.46 161.234 132.942 161.234 132.307C161.234 131.671 161.039 131.149 160.648 130.738C160.258 130.328 159.765 130.123 159.169 130.123C158.564 130.123 158.066 130.328 157.675 130.738C157.295 131.139 157.104 131.657 157.104 132.292C157.104 132.928 157.295 133.451 157.675 133.861C158.066 134.262 158.564 134.462 159.169 134.462ZM167.024 136.104C166.4 136.104 165.887 136.007 165.486 135.811C165.086 135.606 164.789 135.337 164.593 135.005C164.398 134.672 164.3 134.306 164.3 133.905C164.3 133.231 164.563 132.683 165.091 132.263C165.618 131.843 166.409 131.633 167.463 131.633H169.309V131.457C169.309 130.958 169.167 130.592 168.884 130.357C168.601 130.123 168.249 130.005 167.829 130.005C167.449 130.005 167.117 130.098 166.834 130.283C166.55 130.459 166.375 130.724 166.307 131.076H164.476C164.525 130.548 164.7 130.088 165.003 129.698C165.315 129.306 165.716 129.008 166.204 128.803C166.692 128.588 167.239 128.48 167.845 128.48C168.879 128.48 169.694 128.739 170.29 129.257C170.885 129.775 171.184 130.508 171.184 131.457V135.928H169.587L169.411 134.755C169.197 135.147 168.894 135.469 168.504 135.723C168.122 135.977 167.629 136.104 167.024 136.104ZM167.449 134.638C167.986 134.638 168.401 134.462 168.694 134.111C168.997 133.759 169.187 133.324 169.265 132.806H167.669C167.17 132.806 166.814 132.899 166.6 133.084C166.384 133.26 166.277 133.48 166.277 133.744C166.277 134.028 166.384 134.247 166.6 134.404C166.814 134.56 167.097 134.638 167.449 134.638ZM172.679 135.928V125.372H174.554V135.928H172.679ZM182.917 136.104C182.166 136.104 181.501 135.977 180.925 135.723C180.349 135.459 179.895 135.088 179.563 134.609C179.232 134.12 179.06 133.529 179.051 132.835H181.028C181.048 133.314 181.218 133.719 181.54 134.052C181.873 134.374 182.326 134.536 182.902 134.536C183.401 134.536 183.796 134.418 184.089 134.184C184.382 133.939 184.528 133.617 184.528 133.216C184.528 132.796 184.396 132.468 184.133 132.234C183.879 131.999 183.537 131.809 183.108 131.662C182.678 131.515 182.219 131.359 181.731 131.193C180.94 130.919 180.335 130.567 179.915 130.137C179.505 129.707 179.3 129.135 179.3 128.422C179.29 127.816 179.432 127.298 179.725 126.868C180.027 126.428 180.438 126.091 180.955 125.856C181.472 125.611 182.068 125.49 182.742 125.49C183.425 125.49 184.025 125.611 184.543 125.856C185.07 126.1 185.48 126.443 185.773 126.882C186.075 127.322 186.237 127.845 186.256 128.451H184.25C184.24 128.089 184.099 127.772 183.825 127.498C183.561 127.215 183.191 127.073 182.712 127.073C182.302 127.063 181.956 127.165 181.673 127.381C181.399 127.586 181.262 127.889 181.262 128.29C181.262 128.632 181.37 128.905 181.584 129.111C181.799 129.306 182.092 129.472 182.463 129.609C182.835 129.746 183.259 129.893 183.737 130.049C184.245 130.225 184.709 130.43 185.129 130.665C185.548 130.9 185.885 131.212 186.139 131.603C186.393 131.985 186.52 132.478 186.52 133.084C186.52 133.622 186.384 134.12 186.11 134.579C185.836 135.039 185.432 135.41 184.894 135.694C184.357 135.967 183.698 136.104 182.917 136.104ZM191.055 135.928C190.294 135.928 189.684 135.742 189.225 135.371C188.765 135 188.536 134.34 188.536 133.392V130.225H187.291V128.656H188.536L188.756 126.706H190.41V128.656H192.373V130.225H190.41V133.407C190.41 133.759 190.484 134.003 190.63 134.14C190.786 134.267 191.05 134.33 191.421 134.33H192.33V135.928H191.055ZM196.194 136.104C195.569 136.104 195.057 136.007 194.657 135.811C194.256 135.606 193.958 135.337 193.763 135.005C193.568 134.672 193.47 134.306 193.47 133.905C193.47 133.231 193.734 132.683 194.261 132.263C194.788 131.843 195.579 131.633 196.634 131.633H198.479V131.457C198.479 130.958 198.337 130.592 198.054 130.357C197.771 130.123 197.42 130.005 197 130.005C196.619 130.005 196.287 130.098 196.004 130.283C195.721 130.459 195.545 130.724 195.476 131.076H193.646C193.695 130.548 193.871 130.088 194.173 129.698C194.485 129.306 194.886 129.008 195.374 128.803C195.862 128.588 196.409 128.48 197.014 128.48C198.049 128.48 198.865 128.739 199.46 129.257C200.056 129.775 200.353 130.508 200.353 131.457V135.928H198.757L198.582 134.755C198.366 135.147 198.063 135.469 197.673 135.723C197.293 135.977 196.799 136.104 196.194 136.104ZM196.619 134.638C197.156 134.638 197.571 134.462 197.863 134.111C198.166 133.759 198.356 133.324 198.435 132.806H196.838C196.341 132.806 195.985 132.899 195.769 133.084C195.555 133.26 195.447 133.48 195.447 133.744C195.447 134.028 195.555 134.247 195.769 134.404C195.985 134.56 196.268 134.638 196.619 134.638ZM204.986 135.928C204.224 135.928 203.614 135.742 203.155 135.371C202.696 135 202.467 134.34 202.467 133.392V130.225H201.222V128.656H202.467L202.686 126.706H204.341V128.656H206.304V130.225H204.341V133.407C204.341 133.759 204.414 134.003 204.561 134.14C204.717 134.267 204.981 134.33 205.352 134.33H206.26V135.928H204.986ZM208.631 127.527C208.289 127.527 208.006 127.424 207.782 127.22C207.567 127.014 207.459 126.755 207.459 126.442C207.459 126.129 207.567 125.876 207.782 125.68C208.006 125.475 208.289 125.372 208.631 125.372C208.973 125.372 209.251 125.475 209.466 125.68C209.69 125.876 209.803 126.129 209.803 126.442C209.803 126.755 209.69 127.014 209.466 127.22C209.251 127.424 208.973 127.527 208.631 127.527ZM207.693 135.928V128.656H209.568V135.928H207.693ZM214.234 136.104C213.59 136.104 213.023 136.001 212.535 135.797C212.047 135.582 211.656 135.288 211.364 134.917C211.071 134.546 210.895 134.115 210.836 133.626H212.726C212.784 133.91 212.94 134.154 213.194 134.36C213.458 134.555 213.795 134.653 214.205 134.653C214.615 134.653 214.913 134.57 215.098 134.404C215.294 134.237 215.391 134.047 215.391 133.832C215.391 133.519 215.254 133.309 214.981 133.201C214.708 133.084 214.327 132.972 213.839 132.864C213.526 132.796 213.209 132.713 212.887 132.615C212.564 132.517 212.267 132.395 211.994 132.248C211.73 132.092 211.515 131.896 211.349 131.662C211.183 131.418 211.1 131.119 211.1 130.767C211.1 130.123 211.354 129.58 211.862 129.14C212.379 128.7 213.102 128.48 214.029 128.48C214.888 128.48 215.572 128.681 216.079 129.081C216.597 129.482 216.905 130.034 217.002 130.738H215.23C215.123 130.2 214.718 129.932 214.015 129.932C213.663 129.932 213.39 130 213.194 130.137C213.009 130.274 212.916 130.445 212.916 130.651C212.916 130.865 213.057 131.036 213.34 131.163C213.624 131.291 213.999 131.408 214.468 131.515C214.976 131.633 215.44 131.764 215.86 131.911C216.289 132.048 216.631 132.258 216.885 132.541C217.139 132.816 217.265 133.211 217.265 133.729C217.275 134.179 217.158 134.585 216.914 134.946C216.67 135.307 216.319 135.591 215.86 135.797C215.401 136.001 214.859 136.104 214.234 136.104ZM221.641 135.928C220.88 135.928 220.269 135.742 219.81 135.371C219.352 135 219.122 134.34 219.122 133.392V130.225H217.877V128.656H219.122L219.342 126.706H220.997V128.656H222.959V130.225H220.997V133.407C220.997 133.759 221.07 134.003 221.217 134.14C221.373 134.267 221.636 134.33 222.007 134.33H222.915V135.928H221.641ZM225.286 127.527C224.945 127.527 224.662 127.424 224.436 127.22C224.222 127.014 224.115 126.755 224.115 126.442C224.115 126.129 224.222 125.876 224.436 125.68C224.662 125.475 224.945 125.372 225.286 125.372C225.628 125.372 225.906 125.475 226.121 125.68C226.346 125.876 226.458 126.129 226.458 126.442C226.458 126.755 226.346 127.014 226.121 127.22C225.906 127.424 225.628 127.527 225.286 127.527ZM224.349 135.928V128.656H226.223V135.928H224.349ZM231.446 136.104C230.704 136.104 230.05 135.943 229.484 135.621C228.917 135.298 228.468 134.848 228.136 134.271C227.814 133.695 227.653 133.035 227.653 132.292C227.653 131.55 227.814 130.89 228.136 130.313C228.468 129.736 228.917 129.287 229.484 128.964C230.05 128.642 230.704 128.48 231.446 128.48C232.373 128.48 233.155 128.725 233.789 129.213C234.424 129.692 234.829 130.357 235.005 131.207H233.028C232.93 130.856 232.735 130.582 232.442 130.386C232.159 130.181 231.822 130.079 231.431 130.079C230.914 130.079 230.475 130.274 230.113 130.665C229.752 131.056 229.571 131.598 229.571 132.292C229.571 132.986 229.752 133.529 230.113 133.92C230.475 134.311 230.914 134.506 231.431 134.506C231.822 134.506 232.159 134.409 232.442 134.213C232.735 134.018 232.93 133.739 233.028 133.377H235.005C234.829 134.198 234.424 134.858 233.789 135.356C233.155 135.855 232.373 136.104 231.446 136.104Z" fill="#03133D"/>
<path d="M183.451 306.262C173.633 306.262 163.911 304.326 154.84 300.564C145.769 296.802 137.527 291.289 130.584 284.339C123.642 277.389 118.135 269.137 114.377 260.056C110.62 250.975 108.686 241.242 108.686 231.412C108.686 221.583 110.62 211.85 114.377 202.769C118.135 193.688 123.642 185.436 130.584 178.486C137.527 171.535 145.769 166.022 154.84 162.261C163.911 158.499 173.633 156.563 183.451 156.563C193.27 156.563 202.992 158.499 212.063 162.261C221.134 166.022 229.376 171.535 236.319 178.486C243.262 185.436 248.77 193.688 252.526 202.769C256.284 211.85 258.218 221.583 258.218 231.412C258.218 241.242 256.284 250.975 252.526 260.056C248.767 269.137 243.262 277.389 236.319 284.339C229.376 291.289 221.134 296.802 212.063 300.564C202.992 304.326 193.27 306.262 183.451 306.262Z" stroke="#F0F3FF" stroke-width="4.70511" stroke-linecap="round"/>
<path d="M183.451 306.262C172.376 306.262 161.44 303.798 151.432 299.05C141.424 294.301 132.594 287.386 125.582 278.804C118.569 270.222 113.549 260.188 110.883 249.426C108.218 238.664 107.974 227.444 110.169 216.577C112.365 205.709 116.944 195.466 123.576 186.586C130.21 177.707 138.73 170.413 148.522 165.233C158.315 160.054 169.134 157.116 180.199 156.634C191.263 156.151 202.296 158.136 212.502 162.444" stroke="#0097FE" stroke-width="4.70511" stroke-linecap="round"/>
<path d="M183.233 288.685C175.667 288.685 168.176 287.193 161.186 284.294C154.196 281.396 147.845 277.147 142.495 271.792C137.146 266.436 132.902 260.078 130.007 253.08C127.112 246.083 125.621 238.583 125.621 231.009C125.621 223.435 127.112 215.934 130.007 208.937C132.902 201.939 137.146 195.581 142.495 190.225C147.845 184.87 154.196 180.621 161.186 177.723C168.176 174.825 175.667 173.333 183.233 173.333C190.799 173.333 198.29 174.825 205.28 177.723C212.269 180.621 218.621 184.87 223.97 190.225C229.321 195.581 233.564 201.939 236.458 208.937C239.354 215.935 240.844 223.434 240.844 231.009C240.844 238.583 239.354 246.083 236.458 253.08C233.563 260.078 229.321 266.436 223.97 271.792C218.621 277.147 212.269 281.396 205.28 284.294C198.29 287.193 190.799 288.685 183.233 288.685Z" stroke="#F0F3FF" stroke-width="4.70511" stroke-linecap="round"/>
<path d="M183.233 288.685C173.507 288.685 163.939 286.219 155.42 281.518C146.903 276.818 139.712 270.034 134.519 261.801C129.326 253.567 126.301 244.152 125.723 234.432C125.146 224.711 127.036 215.004 131.218 206.212C135.399 197.42 141.737 189.832 149.638 184.154C157.54 178.476 166.748 174.893 176.407 173.739C186.064 172.585 195.857 173.898 204.871 177.555C213.886 181.212 221.828 187.095 227.959 194.654" stroke="#A5BF5C" stroke-width="4.70511" stroke-linecap="round"/>
<path d="M183.745 273.892C178.187 273.892 172.683 272.796 167.548 270.667C162.413 268.537 157.748 265.416 153.818 261.482C149.888 257.548 146.77 252.877 144.643 247.736C142.516 242.595 141.421 237.085 141.421 231.521C141.421 225.957 142.516 220.447 144.643 215.307C146.77 210.166 149.888 205.495 153.818 201.56C157.748 197.625 162.413 194.505 167.548 192.375C172.683 190.246 178.187 189.15 183.745 189.15C189.303 189.15 194.807 190.246 199.942 192.375C205.077 194.505 209.742 197.625 213.672 201.56C217.602 205.495 220.72 210.166 222.847 215.307C224.974 220.447 226.068 225.957 226.068 231.521C226.068 237.085 224.974 242.595 222.847 247.736C220.72 252.877 217.602 257.548 213.672 261.482C209.742 265.416 205.077 268.537 199.942 270.667C194.807 272.796 189.303 273.892 183.745 273.892Z" stroke="#EDF1FC" stroke-width="4.70511" stroke-linecap="round"/>
<path d="M183.745 273.892C174.394 273.892 165.306 270.792 157.901 265.075C150.496 259.359 145.19 251.349 142.812 242.295C140.435 233.241 141.119 223.654 144.758 215.03C148.398 206.407 154.787 199.233 162.929 194.629C171.071 190.024 180.507 188.25 189.763 189.58C199.019 190.912 207.574 195.274 214.092 201.986C220.61 208.699 224.724 217.383 225.792 226.684C226.859 235.984 224.82 245.377 219.993 253.394" stroke="#FFAE00" stroke-width="4.70511" stroke-linecap="round"/>
<path d="M183.431 227.41C188.895 227.41 193.324 222.977 193.324 217.507C193.324 212.038 188.895 207.604 183.431 207.604C177.968 207.604 173.539 212.038 173.539 217.507C173.539 222.977 177.968 227.41 183.431 227.41Z" fill="#EBF7FF"/>
<path fill-rule="evenodd" clip-rule="evenodd" d="M187.688 214.914C187.687 214.879 187.676 214.845 187.667 214.812C187.66 214.783 187.657 214.754 187.644 214.728C187.633 214.703 187.614 214.682 187.597 214.659C187.577 214.63 187.559 214.599 187.532 214.575C187.528 214.571 187.526 214.565 187.521 214.561C187.503 214.546 187.482 214.541 187.463 214.528C187.434 214.509 187.405 214.49 187.372 214.477C187.339 214.466 187.307 214.462 187.273 214.458C187.25 214.454 187.229 214.443 187.204 214.443H184.763C184.494 214.443 184.276 214.662 184.276 214.931C184.276 215.202 184.494 215.421 184.763 215.421H186.143L184.173 217.721L182.086 216.467C181.88 216.343 181.615 216.388 181.46 216.573L179.02 219.505C178.848 219.712 178.875 220.02 179.083 220.193C179.174 220.269 179.285 220.306 179.395 220.306C179.535 220.306 179.673 220.246 179.77 220.13L181.943 217.52L184.024 218.771C184.229 218.894 184.492 218.85 184.646 218.67L186.716 216.252V217.375C186.716 217.644 186.934 217.863 187.204 217.863C187.474 217.863 187.692 217.644 187.692 217.375V214.931C187.692 214.926 187.688 214.92 187.688 214.914Z" fill="#231F20"/>
<mask id="mask0_130_500" style="mask-type:alpha" maskUnits="userSpaceOnUse" x="178" y="214" width="10" height="7">
<path fill-rule="evenodd" clip-rule="evenodd" d="M187.688 214.914C187.687 214.879 187.676 214.845 187.667 214.812C187.66 214.783 187.657 214.754 187.644 214.728C187.633 214.703 187.614 214.682 187.597 214.659C187.577 214.63 187.559 214.599 187.532 214.575C187.528 214.571 187.526 214.565 187.521 214.561C187.503 214.546 187.482 214.541 187.463 214.528C187.434 214.509 187.405 214.49 187.372 214.477C187.339 214.466 187.307 214.462 187.273 214.458C187.25 214.454 187.229 214.443 187.204 214.443H184.763C184.494 214.443 184.276 214.662 184.276 214.931C184.276 215.202 184.494 215.421 184.763 215.421H186.143L184.173 217.721L182.086 216.467C181.88 216.343 181.615 216.388 181.46 216.573L179.02 219.505C178.848 219.712 178.875 220.02 179.083 220.193C179.174 220.269 179.285 220.306 179.395 220.306C179.535 220.306 179.673 220.246 179.77 220.13L181.943 217.52L184.024 218.771C184.229 218.894 184.492 218.85 184.646 218.67L186.716 216.252V217.375C186.716 217.644 186.934 217.863 187.204 217.863C187.474 217.863 187.692 217.644 187.692 217.375V214.931C187.692 214.926 187.688 214.92 187.688 214.914Z" fill="white"/>
</mask>
<g mask="url(#mask0_130_500)">
<path d="M189.156 211.512H177.444V223.237H189.156V211.512Z" fill="#0097FE"/>
</g>
<path d="M166.162 236.9V233.201H164.939V232.796H167.878V233.201H166.654V236.9H166.162ZM168.001 236.9V233.992H168.446L168.487 234.549C168.577 234.357 168.713 234.205 168.896 234.092C169.08 233.978 169.307 233.922 169.576 233.922V234.438H169.442C169.27 234.438 169.112 234.469 168.967 234.531C168.823 234.59 168.708 234.691 168.621 234.836C168.536 234.981 168.493 235.18 168.493 235.434V236.9H168.001ZM170.977 236.97C170.735 236.97 170.534 236.929 170.374 236.847C170.214 236.765 170.095 236.655 170.017 236.519C169.939 236.382 169.9 236.234 169.9 236.073C169.9 235.776 170.013 235.547 170.239 235.387C170.466 235.227 170.775 235.147 171.165 235.147H171.95V235.112C171.95 234.857 171.883 234.666 171.75 234.537C171.617 234.404 171.44 234.337 171.218 234.337C171.026 234.337 170.86 234.387 170.719 234.484C170.583 234.578 170.497 234.717 170.462 234.9H169.958C169.978 234.689 170.048 234.511 170.169 234.367C170.294 234.222 170.448 234.113 170.632 234.039C170.815 233.96 171.01 233.922 171.218 233.922C171.623 233.922 171.928 234.031 172.131 234.25C172.338 234.465 172.442 234.752 172.442 235.112V236.9H172.002L171.973 236.378C171.891 236.542 171.77 236.683 171.61 236.8C171.453 236.914 171.243 236.97 170.977 236.97ZM171.054 236.554C171.241 236.554 171.401 236.505 171.534 236.408C171.671 236.309 171.774 236.183 171.844 236.026C171.914 235.87 171.95 235.706 171.95 235.534V235.528H171.206C170.917 235.528 170.712 235.578 170.591 235.68C170.474 235.778 170.415 235.901 170.415 236.05C170.415 236.202 170.47 236.325 170.579 236.419C170.692 236.509 170.85 236.554 171.054 236.554ZM173.22 236.9V234.408H172.781V233.992H173.22V233.488C173.22 233.206 173.291 233.001 173.431 232.872C173.572 232.743 173.777 232.679 174.046 232.679H174.339V233.1H174.122C173.974 233.1 173.869 233.132 173.806 233.195C173.744 233.253 173.712 233.355 173.712 233.499V233.992H174.427V234.408H173.712V236.9H173.22ZM175.053 236.9V234.408H174.614V233.992H175.053V233.488C175.053 233.206 175.124 233.001 175.264 232.872C175.405 232.743 175.61 232.679 175.879 232.679H176.172V233.1H175.955C175.807 233.1 175.702 233.132 175.639 233.195C175.576 233.253 175.546 233.355 175.546 233.499V233.992H177.349V236.9H176.857V234.408H175.546V236.9H175.053ZM177.109 233.435C177.016 233.435 176.935 233.404 176.869 233.341C176.802 233.274 176.769 233.193 176.769 233.095C176.769 233.001 176.802 232.923 176.869 232.86C176.935 232.798 177.016 232.766 177.109 232.766C177.206 232.766 177.287 232.798 177.349 232.86C177.415 232.923 177.449 233.001 177.449 233.095C177.449 233.193 177.415 233.274 177.349 233.341C177.287 233.404 177.206 233.435 177.109 233.435ZM179.436 236.97C179.159 236.97 178.909 236.908 178.686 236.783C178.468 236.653 178.294 236.475 178.165 236.249C178.041 236.018 177.978 235.75 177.978 235.446C177.978 235.141 178.041 234.875 178.165 234.649C178.294 234.418 178.468 234.24 178.686 234.115C178.909 233.986 179.159 233.922 179.436 233.922C179.78 233.922 180.069 234.011 180.303 234.191C180.541 234.371 180.691 234.612 180.754 234.912H180.25C180.211 234.732 180.116 234.594 179.963 234.496C179.811 234.394 179.633 234.343 179.43 234.343C179.266 234.343 179.112 234.385 178.967 234.467C178.823 234.549 178.706 234.672 178.616 234.836C178.526 235 178.482 235.203 178.482 235.446C178.482 235.688 178.526 235.891 178.616 236.056C178.706 236.22 178.823 236.345 178.967 236.431C179.112 236.513 179.266 236.554 179.43 236.554C179.633 236.554 179.811 236.505 179.963 236.408C180.116 236.305 180.211 236.163 180.25 235.979H180.754C180.695 236.272 180.547 236.511 180.308 236.694C180.071 236.878 179.78 236.97 179.436 236.97ZM184.548 236.97C184.166 236.97 183.83 236.882 183.541 236.706C183.252 236.526 183.027 236.278 182.867 235.961C182.707 235.641 182.628 235.272 182.628 234.853C182.628 234.436 182.707 234.066 182.867 233.746C183.031 233.425 183.262 233.175 183.559 232.995C183.859 232.815 184.212 232.725 184.619 232.725C185.079 232.725 185.462 232.837 185.767 233.06C186.075 233.282 186.274 233.589 186.364 233.98H185.796C185.741 233.734 185.61 233.539 185.403 233.394C185.2 233.249 184.938 233.177 184.619 233.177C184.318 233.177 184.056 233.245 183.834 233.382C183.611 233.515 183.437 233.707 183.312 233.957C183.192 234.207 183.131 234.505 183.131 234.853C183.131 235.201 183.192 235.501 183.312 235.75C183.434 236.001 183.601 236.194 183.816 236.331C184.031 236.464 184.281 236.53 184.566 236.53C185.003 236.53 185.333 236.404 185.555 236.149C185.778 235.891 185.905 235.54 185.936 235.094H184.753V234.707H186.44V236.9H185.989L185.948 236.226C185.8 236.464 185.618 236.647 185.403 236.777C185.189 236.906 184.904 236.97 184.548 236.97ZM187.071 236.9V233.992H187.516L187.557 234.549C187.647 234.357 187.784 234.205 187.967 234.092C188.151 233.978 188.378 233.922 188.647 233.922V234.438H188.512C188.34 234.438 188.182 234.469 188.038 234.531C187.893 234.59 187.778 234.691 187.692 234.836C187.606 234.981 187.563 235.18 187.563 235.434V236.9H187.071ZM190.297 236.97C190.023 236.97 189.777 236.908 189.559 236.783C189.34 236.657 189.166 236.481 189.037 236.255C188.913 236.024 188.85 235.754 188.85 235.446C188.85 235.137 188.915 234.869 189.043 234.643C189.172 234.412 189.346 234.234 189.564 234.109C189.787 233.984 190.035 233.922 190.308 233.922C190.582 233.922 190.828 233.984 191.046 234.109C191.265 234.234 191.437 234.412 191.561 234.643C191.69 234.869 191.755 235.137 191.755 235.446C191.755 235.754 191.69 236.024 191.561 236.255C191.433 236.481 191.257 236.657 191.035 236.783C190.816 236.908 190.57 236.97 190.297 236.97ZM190.297 236.548C190.464 236.548 190.62 236.507 190.765 236.425C190.909 236.343 191.027 236.22 191.116 236.056C191.206 235.891 191.251 235.688 191.251 235.446C191.251 235.203 191.206 235 191.116 234.836C191.031 234.672 190.915 234.549 190.771 234.467C190.626 234.385 190.472 234.343 190.308 234.343C190.141 234.343 189.984 234.385 189.84 234.467C189.695 234.549 189.578 234.672 189.488 234.836C189.399 235 189.354 235.203 189.354 235.446C189.354 235.688 189.399 235.891 189.488 236.056C189.578 236.22 189.694 236.343 189.834 236.425C189.979 236.507 190.133 236.548 190.297 236.548ZM192.799 236.9L191.95 233.992H192.441L193.056 236.272L193.736 233.992H194.292L194.977 236.272L195.586 233.992H196.084L195.235 236.9H194.731L194.017 234.502L193.302 236.9H192.799ZM197.659 236.9C197.393 236.9 197.185 236.835 197.032 236.706C196.88 236.578 196.803 236.345 196.803 236.009V234.408H196.3V233.992H196.803L196.868 233.294H197.296V233.992H198.15V234.408H197.296V236.009C197.296 236.192 197.333 236.317 197.407 236.384C197.481 236.446 197.612 236.477 197.799 236.477H198.104V236.9H197.659ZM198.659 236.9V232.679H199.15V234.49C199.248 234.31 199.387 234.171 199.566 234.074C199.745 233.972 199.941 233.922 200.152 233.922C200.487 233.922 200.757 234.027 200.96 234.238C201.163 234.445 201.264 234.766 201.264 235.199V236.9H200.778V235.252C200.778 234.647 200.534 234.343 200.046 234.343C199.793 234.343 199.58 234.436 199.408 234.619C199.237 234.799 199.15 235.057 199.15 235.393V236.9H198.659Z" fill="#03133D"/>
<path d="M171.195 255.638C170.295 255.638 169.538 255.472 168.924 255.141C168.309 254.811 167.813 254.366 167.437 253.808C167.061 253.249 166.788 252.628 166.617 251.944C166.458 251.26 166.378 250.559 166.378 249.841C166.378 248.507 166.566 247.35 166.942 246.369C167.318 245.377 167.858 244.614 168.565 244.078C169.27 243.531 170.124 243.257 171.127 243.257C171.947 243.257 172.641 243.423 173.211 243.753C173.791 244.072 174.241 244.494 174.56 245.019C174.879 245.543 175.066 246.107 175.124 246.711H173.091C172.989 246.187 172.766 245.782 172.424 245.497C172.083 245.213 171.645 245.07 171.11 245.07C170.347 245.07 169.732 245.424 169.265 246.13C168.798 246.825 168.548 247.891 168.513 249.328C168.787 248.861 169.197 248.473 169.743 248.165C170.29 247.857 170.899 247.703 171.571 247.703C172.231 247.703 172.852 247.863 173.432 248.182C174.013 248.501 174.48 248.951 174.833 249.533C175.197 250.114 175.38 250.798 175.38 251.585C175.38 252.303 175.203 252.97 174.85 253.585C174.509 254.201 174.019 254.697 173.381 255.073C172.755 255.449 172.026 255.638 171.195 255.638ZM171.076 253.757C171.713 253.757 172.237 253.563 172.647 253.175C173.068 252.776 173.279 252.274 173.279 251.67C173.279 251.032 173.068 250.519 172.647 250.131C172.226 249.744 171.69 249.55 171.041 249.55C170.62 249.55 170.238 249.647 169.897 249.841C169.567 250.023 169.305 250.274 169.111 250.593C168.918 250.901 168.821 251.248 168.821 251.636C168.821 252.252 169.031 252.759 169.453 253.158C169.885 253.557 170.426 253.757 171.076 253.757ZM181.405 255.638C180.586 255.638 179.846 255.495 179.185 255.21C178.524 254.913 177.995 254.497 177.596 253.962C177.209 253.426 177.016 252.804 177.016 252.098C177.016 251.368 177.204 250.73 177.58 250.183C177.967 249.636 178.473 249.242 179.1 249.003C178.553 248.764 178.12 248.422 177.802 247.977C177.482 247.521 177.323 247.013 177.323 246.455C177.323 245.885 177.477 245.36 177.785 244.882C178.092 244.391 178.548 243.998 179.151 243.702C179.766 243.406 180.517 243.257 181.405 243.257C182.294 243.257 183.039 243.406 183.643 243.702C184.247 243.998 184.702 244.391 185.01 244.882C185.317 245.36 185.47 245.885 185.47 246.455C185.47 247.002 185.306 247.509 184.975 247.977C184.657 248.433 184.229 248.775 183.694 249.003C184.332 249.242 184.838 249.636 185.214 250.183C185.59 250.73 185.778 251.368 185.778 252.098C185.778 252.804 185.584 253.426 185.197 253.962C184.81 254.497 184.281 254.913 183.609 255.21C182.948 255.495 182.214 255.638 181.405 255.638ZM181.405 248.353C181.998 248.353 182.465 248.199 182.806 247.891C183.148 247.583 183.318 247.19 183.318 246.711C183.318 246.187 183.148 245.777 182.806 245.48C182.476 245.184 182.009 245.035 181.405 245.035C180.79 245.035 180.318 245.184 179.988 245.48C179.657 245.777 179.492 246.187 179.492 246.711C179.492 247.202 179.657 247.6 179.988 247.908C180.33 248.205 180.802 248.353 181.405 248.353ZM181.405 253.808C182.134 253.808 182.686 253.631 183.062 253.278C183.438 252.913 183.626 252.457 183.626 251.91C183.626 251.306 183.427 250.832 183.028 250.49C182.641 250.148 182.1 249.978 181.405 249.978C180.711 249.978 180.158 250.148 179.749 250.49C179.35 250.832 179.151 251.306 179.151 251.91C179.151 252.457 179.339 252.913 179.715 253.278C180.102 253.631 180.665 253.808 181.405 253.808ZM190.046 249.345C189.5 249.345 189.005 249.225 188.561 248.986C188.117 248.735 187.763 248.381 187.502 247.925C187.24 247.469 187.109 246.928 187.109 246.301C187.109 245.674 187.24 245.132 187.502 244.677C187.763 244.221 188.117 243.873 188.561 243.634C189.005 243.382 189.506 243.257 190.064 243.257C190.611 243.257 191.1 243.382 191.533 243.634C191.977 243.873 192.329 244.221 192.591 244.677C192.853 245.132 192.985 245.674 192.985 246.301C192.985 246.928 192.853 247.469 192.591 247.925C192.329 248.381 191.977 248.735 191.533 248.986C191.089 249.225 190.593 249.345 190.046 249.345ZM189.397 255.432L196.144 243.462H198.279L191.533 255.432H189.397ZM190.046 247.823C190.377 247.823 190.661 247.697 190.901 247.447C191.14 247.185 191.26 246.803 191.26 246.301C191.26 245.799 191.14 245.418 190.901 245.155C190.673 244.893 190.388 244.762 190.046 244.762C189.705 244.762 189.414 244.893 189.175 245.155C188.948 245.418 188.834 245.799 188.834 246.301C188.834 246.803 188.948 247.185 189.175 247.447C189.414 247.697 189.705 247.823 190.046 247.823ZM197.699 255.638C197.152 255.638 196.657 255.518 196.213 255.278C195.769 255.027 195.416 254.674 195.154 254.218C194.892 253.762 194.761 253.221 194.761 252.593C194.761 251.967 194.892 251.431 195.154 250.987C195.416 250.531 195.769 250.183 196.213 249.943C196.657 249.692 197.158 249.567 197.716 249.567C198.262 249.567 198.752 249.692 199.185 249.943C199.629 250.183 199.982 250.531 200.244 250.987C200.506 251.431 200.637 251.967 200.637 252.593C200.637 253.221 200.506 253.762 200.244 254.218C199.982 254.674 199.629 255.027 199.185 255.278C198.752 255.518 198.257 255.638 197.699 255.638ZM197.699 254.116C198.04 254.116 198.325 253.99 198.553 253.74C198.792 253.477 198.911 253.096 198.911 252.593C198.911 252.092 198.792 251.71 198.553 251.448C198.325 251.186 198.04 251.055 197.699 251.055C197.357 251.055 197.067 251.186 196.828 251.448C196.6 251.71 196.486 252.092 196.486 252.593C196.486 253.096 196.6 253.477 196.828 253.74C197.067 253.99 197.357 254.116 197.699 254.116Z" fill="#03133D"/>
<g filter="url(#filter1_d_130_500)">
<path d="M173.577 320.962H91.9454C89.0368 320.962 86.6788 323.322 86.6788 326.234V356.563C86.6788 359.475 89.0368 361.836 91.9454 361.836H173.577C176.486 361.836 178.844 359.475 178.844 356.563V326.234C178.844 323.322 176.486 320.962 173.577 320.962Z" fill="white"/>
</g>
<path d="M128.668 328.535H95.8953C94.8046 328.535 93.9203 329.42 93.9203 330.512C93.9203 331.604 94.8046 332.489 95.8953 332.489H128.668C129.759 332.489 130.643 331.604 130.643 330.512C130.643 329.42 129.759 328.535 128.668 328.535Z" fill="#C4D2F6"/>
<path d="M168.311 340.78H95.237C94.1462 340.78 93.262 341.665 93.262 342.757C93.262 343.849 94.1462 344.734 95.237 344.734H168.311C169.401 344.734 170.286 343.849 170.286 342.757C170.286 341.665 169.401 340.78 168.311 340.78Z" fill="#EDF1FC"/>
<path d="M168.969 351.785H95.8953C94.8046 351.785 93.9203 352.67 93.9203 353.762C93.9203 354.854 94.8046 355.74 95.8953 355.74H168.969C170.06 355.74 170.944 354.854 170.944 353.762C170.944 352.67 170.06 351.785 168.969 351.785Z" fill="#EDF1FC"/>
<g filter="url(#filter2_d_130_500)">
<path d="M274.959 320.962H193.327C190.418 320.962 188.06 323.322 188.06 326.234V356.563C188.06 359.475 190.418 361.836 193.327 361.836H274.959C277.867 361.836 280.225 359.475 280.225 356.563V326.234C280.225 323.322 277.867 320.962 274.959 320.962Z" fill="white"/>
</g>
<path d="M230.049 328.535H197.277C196.186 328.535 195.302 329.42 195.302 330.512C195.302 331.604 196.186 332.489 197.277 332.489H230.049C231.14 332.489 232.024 331.604 232.024 330.512C232.024 329.42 231.14 328.535 230.049 328.535Z" fill="#C4D2F6"/>
<path d="M269.692 340.78H196.618C195.528 340.78 194.643 341.665 194.643 342.757C194.643 343.849 195.528 344.734 196.618 344.734H269.692C270.783 344.734 271.667 343.849 271.667 342.757C271.667 341.665 270.783 340.78 269.692 340.78Z" fill="#EDF1FC"/>
<path d="M270.35 351.785H197.277C196.186 351.785 195.302 352.67 195.302 353.762C195.302 354.854 196.186 355.74 197.277 355.74H270.35C271.441 355.74 272.325 354.854 272.325 353.762C272.325 352.67 271.441 351.785 270.35 351.785Z" fill="#EDF1FC"/>
<g filter="url(#filter3_d_130_500)">
<path d="M371.871 73.1556H253.607C249.972 73.1556 247.024 76.1063 247.024 79.7462V216.83C247.024 220.47 249.972 223.421 253.607 223.421H371.871C375.507 223.421 378.455 220.47 378.455 216.83V79.7462C378.455 76.1063 375.507 73.1556 371.871 73.1556Z" fill="white"/>
</g>
<g filter="url(#filter4_d_130_500)">
<path d="M358.621 195.74H270.115C265.883 195.74 262.453 199.175 262.453 203.411C262.453 207.647 265.883 211.081 270.115 211.081H358.621C362.853 211.081 366.283 207.647 366.283 203.411C366.283 199.175 362.853 195.74 358.621 195.74Z" fill="white"/>
</g>
<path d="M353.144 201.493H272.859C271.801 201.493 270.943 202.352 270.943 203.411C270.943 204.47 271.801 205.329 272.859 205.329H353.144C354.202 205.329 355.059 204.47 355.059 203.411C355.059 202.352 354.202 201.493 353.144 201.493Z" fill="#EDF1FC"/>
<g filter="url(#filter5_d_130_500)">
<path d="M391.224 164.765H296.747C291.987 164.765 288.128 168.628 288.128 173.394V173.394C288.128 178.159 291.987 182.023 296.747 182.023H391.224C395.984 182.023 399.843 178.159 399.843 173.394V173.394C399.843 168.628 395.984 164.765 391.224 164.765Z" fill="white"/>
</g>
<path d="M388.07 171.796H299.9C298.842 171.796 297.985 172.654 297.985 173.713C297.985 174.772 298.842 175.631 299.9 175.631H388.07C389.128 175.631 389.986 174.772 389.986 173.713C389.986 172.654 389.128 171.796 388.07 171.796Z" fill="#0097FE"/>
<path d="M260.857 94.3364C260.468 94.3364 260.129 94.2659 259.84 94.1235C259.551 93.9818 259.329 93.7841 259.171 93.531C259.015 93.2773 258.936 92.9834 258.936 92.6492H259.605C259.605 92.8568 259.653 93.0493 259.749 93.2265C259.845 93.3992 259.985 93.5383 260.167 93.645C260.354 93.7465 260.584 93.7966 260.857 93.7966C261.217 93.7966 261.495 93.711 261.693 93.5383C261.89 93.3663 261.989 93.1508 261.989 92.8924C261.989 92.6795 261.944 92.5095 261.852 92.3829C261.761 92.2511 261.637 92.1444 261.48 92.0633C261.328 91.9822 261.151 91.9117 260.949 91.8504C260.751 91.7898 260.543 91.7212 260.326 91.6455C259.916 91.5038 259.612 91.3285 259.415 91.1209C259.218 90.908 259.119 90.6318 259.119 90.2924C259.114 90.0084 259.179 89.7579 259.316 89.5398C259.453 89.3164 259.645 89.1443 259.893 89.0224C260.146 88.8959 260.445 88.8326 260.789 88.8326C261.129 88.8326 261.422 88.8959 261.67 89.0224C261.923 89.1496 262.118 89.3243 262.255 89.547C262.397 89.7704 262.47 90.0235 262.475 90.3076H261.807C261.807 90.1606 261.769 90.0163 261.693 89.8739C261.617 89.7269 261.501 89.6083 261.343 89.5167C261.192 89.4258 261 89.3803 260.767 89.3803C260.478 89.375 260.24 89.4482 260.053 89.6004C259.871 89.7526 259.779 89.9629 259.779 90.2318C259.779 90.4598 259.842 90.6345 259.969 90.7557C260.101 90.8777 260.283 90.9792 260.516 91.0602C260.749 91.136 261.017 91.225 261.321 91.3265C261.574 91.4174 261.801 91.5235 262.004 91.6455C262.207 91.7674 262.364 91.9242 262.475 92.1167C262.591 92.3091 262.649 92.555 262.649 92.8542C262.649 93.1079 262.584 93.3485 262.453 93.5765C262.321 93.7993 262.121 93.9818 261.852 94.1235C261.589 94.2659 261.258 94.3364 260.857 94.3364ZM264.617 94.3364C264.304 94.3364 264.043 94.2837 263.835 94.1769C263.628 94.0708 263.474 93.9284 263.372 93.7512C263.271 93.5739 263.22 93.3814 263.22 93.1738C263.22 92.7883 263.367 92.4917 263.661 92.2841C263.954 92.0765 264.354 91.9724 264.861 91.9724H265.878V91.9269C265.878 91.5973 265.792 91.3489 265.62 91.1815C265.448 91.0095 265.217 90.9231 264.928 90.9231C264.681 90.9231 264.466 90.9864 264.283 91.1136C264.106 91.2349 263.995 91.4148 263.949 91.6534H263.296C263.322 91.3792 263.412 91.1485 263.57 90.9614C263.732 90.7735 263.931 90.6318 264.169 90.5356C264.407 90.4341 264.661 90.3834 264.928 90.3834C265.455 90.3834 265.85 90.5257 266.113 90.8091C266.381 91.0879 266.516 91.4603 266.516 91.9269V94.2454H265.946L265.908 93.5686C265.802 93.7815 265.645 93.964 265.437 94.1163C265.235 94.2632 264.961 94.3364 264.617 94.3364ZM264.716 93.7966C264.959 93.7966 265.167 93.7334 265.339 93.6068C265.516 93.4803 265.65 93.3155 265.742 93.1125C265.832 92.9102 265.878 92.6973 265.878 92.4739V92.4666H264.913C264.539 92.4666 264.273 92.5326 264.116 92.6644C263.964 92.7909 263.888 92.9504 263.888 93.1428C263.888 93.3406 263.959 93.5007 264.101 93.622C264.248 93.7386 264.453 93.7966 264.716 93.7966ZM267.321 94.2454V88.772H267.959V94.2454H267.321ZM270.546 94.3364C270.186 94.3364 269.867 94.2553 269.589 94.0932C269.31 93.9265 269.09 93.6958 268.928 93.4019C268.771 93.1079 268.693 92.7606 268.693 92.3599C268.693 91.9645 268.771 91.6204 268.928 91.3265C269.085 91.0273 269.303 90.7966 269.582 90.6345C269.865 90.4671 270.192 90.3834 270.561 90.3834C270.926 90.3834 271.239 90.4671 271.502 90.6345C271.771 90.7966 271.976 91.0121 272.118 91.2803C272.26 91.5492 272.331 91.8379 272.331 92.147C272.331 92.203 272.328 92.2591 272.323 92.3144C272.323 92.3704 272.323 92.4337 272.323 92.5042H269.323C269.339 92.7935 269.404 93.0341 269.521 93.2265C269.642 93.4144 269.792 93.5561 269.969 93.6523C270.151 93.7485 270.343 93.7966 270.546 93.7966C270.809 93.7966 271.029 93.736 271.206 93.6147C271.384 93.4928 271.513 93.328 271.594 93.1204H272.224C272.123 93.4697 271.928 93.7617 271.639 93.9943C271.356 94.2224 270.992 94.3364 270.546 94.3364ZM270.546 90.9231C270.242 90.9231 269.971 91.0167 269.734 91.2046C269.501 91.3871 269.366 91.6553 269.331 92.0106H271.7C271.685 91.6705 271.568 91.4049 271.351 91.2125C271.133 91.0194 270.865 90.9231 270.546 90.9231ZM274.467 94.3364C274.016 94.3364 273.641 94.2224 273.343 93.9943C273.044 93.7663 272.87 93.4572 272.819 93.0671H273.472C273.512 93.2648 273.616 93.4368 273.784 93.5838C273.955 93.7261 274.186 93.7966 274.474 93.7966C274.743 93.7966 274.94 93.7413 275.067 93.6299C275.193 93.5132 275.256 93.3761 275.256 93.2193C275.256 92.9913 275.173 92.839 275.006 92.7632C274.844 92.6868 274.614 92.6189 274.315 92.5576C274.112 92.5174 273.91 92.4587 273.707 92.3829C273.505 92.3072 273.335 92.2004 273.198 92.0633C273.062 91.9216 272.994 91.7364 272.994 91.5084C272.994 91.1795 273.115 90.9106 273.358 90.703C273.606 90.4901 273.94 90.3834 274.36 90.3834C274.761 90.3834 275.087 90.4849 275.34 90.6879C275.598 90.8856 275.747 91.169 275.788 91.5394H275.157C275.132 91.3462 275.049 91.1966 274.907 91.0905C274.77 90.9792 274.585 90.9231 274.353 90.9231C274.125 90.9231 273.948 90.9712 273.821 91.0675C273.7 91.1637 273.639 91.2909 273.639 91.4477C273.639 91.6 273.718 91.7193 273.874 91.805C274.036 91.8913 274.254 91.9644 274.527 92.0257C274.761 92.0765 274.98 92.1398 275.188 92.2155C275.401 92.2867 275.573 92.3955 275.705 92.5424C275.841 92.6841 275.909 92.8924 275.909 93.1659C275.915 93.5053 275.786 93.7867 275.522 94.0095C275.264 94.2277 274.912 94.3364 274.467 94.3364ZM280.015 94.2454C279.671 94.2454 279.4 94.1618 279.203 93.9943C279.005 93.8276 278.907 93.5258 278.907 93.0901V91.0147H278.254V90.475H278.907L278.99 89.5701H279.545V90.475H280.653V91.0147H279.545V93.0901C279.545 93.328 279.593 93.4902 279.689 93.5765C279.785 93.6576 279.955 93.6978 280.198 93.6978H280.592V94.2454H280.015ZM281.311 94.2454V90.475H281.889L281.941 91.1966C282.058 90.9488 282.235 90.7511 282.473 90.6042C282.711 90.4572 283.005 90.3834 283.354 90.3834V91.0523H283.18C282.957 91.0523 282.752 91.0932 282.564 91.1742C282.377 91.25 282.228 91.3818 282.117 91.5697C282.005 91.7568 281.949 92.0152 281.949 92.3447V94.2454H281.311ZM285.471 94.3364C285.111 94.3364 284.793 94.2553 284.514 94.0932C284.236 93.9265 284.015 93.6958 283.853 93.4019C283.697 93.1079 283.618 92.7606 283.618 92.3599C283.618 91.9645 283.697 91.6204 283.853 91.3265C284.01 91.0273 284.228 90.7966 284.506 90.6345C284.79 90.4671 285.117 90.3834 285.486 90.3834C285.851 90.3834 286.165 90.4671 286.427 90.6345C286.696 90.7966 286.901 91.0121 287.043 91.2803C287.184 91.5492 287.255 91.8379 287.255 92.147C287.255 92.203 287.253 92.2591 287.248 92.3144C287.248 92.3704 287.248 92.4337 287.248 92.5042H284.248C284.263 92.7935 284.329 93.0341 284.446 93.2265C284.567 93.4144 284.716 93.5561 284.893 93.6523C285.076 93.7485 285.268 93.7966 285.471 93.7966C285.734 93.7966 285.954 93.736 286.132 93.6147C286.309 93.4928 286.438 93.328 286.519 93.1204H287.149C287.047 93.4697 286.853 93.7617 286.564 93.9943C286.28 94.2224 285.916 94.3364 285.471 94.3364ZM285.471 90.9231C285.167 90.9231 284.896 91.0167 284.658 91.2046C284.425 91.3871 284.291 91.6553 284.255 92.0106H286.625C286.61 91.6705 286.493 91.4049 286.276 91.2125C286.058 91.0194 285.79 90.9231 285.471 90.9231ZM287.949 94.2454V90.475H288.526L288.564 91.1512C288.685 90.9132 288.86 90.7254 289.088 90.589C289.316 90.4519 289.574 90.3834 289.862 90.3834C290.308 90.3834 290.662 90.5205 290.926 90.794C291.194 91.0629 291.328 91.4781 291.328 92.0409V94.2454H290.69V92.1094C290.69 91.3238 290.366 90.931 289.718 90.931C289.394 90.931 289.123 91.0497 288.906 91.2883C288.693 91.5216 288.587 91.8557 288.587 92.292V94.2454H287.949ZM293.851 94.3364C293.477 94.3364 293.147 94.2507 292.864 94.078C292.586 93.906 292.368 93.6701 292.211 93.3709C292.059 93.0723 291.983 92.7329 291.983 92.3526C291.983 91.9724 292.062 91.6356 292.219 91.3416C292.375 91.0424 292.593 90.8091 292.872 90.6417C293.15 90.4697 293.479 90.3834 293.859 90.3834C294.168 90.3834 294.441 90.4466 294.679 90.5738C294.917 90.7004 295.102 90.8777 295.233 91.1057V88.772H295.871V94.2454H295.294L295.233 93.622C295.112 93.8045 294.937 93.9693 294.71 94.1163C294.482 94.2632 294.195 94.3364 293.851 94.3364ZM293.92 93.7815C294.172 93.7815 294.396 93.7235 294.588 93.6068C294.785 93.4849 294.937 93.3182 295.043 93.1053C295.155 92.8924 295.211 92.6439 295.211 92.3599C295.211 92.0765 295.155 91.828 295.043 91.6151C294.937 91.4023 294.785 91.2375 294.588 91.1209C294.396 90.9996 294.172 90.9383 293.92 90.9383C293.671 90.9383 293.449 90.9996 293.251 91.1209C293.059 91.2375 292.907 91.4023 292.796 91.6151C292.689 91.828 292.637 92.0765 292.637 92.3599C292.637 92.6439 292.689 92.8924 292.796 93.1053C292.907 93.3182 293.059 93.4849 293.251 93.6068C293.449 93.7235 293.671 93.7815 293.92 93.7815Z" fill="#68718B"/>
<path d="M265.474 118.88C264.381 118.88 263.46 118.679 262.713 118.277C261.965 117.875 261.363 117.335 260.907 116.656C260.45 115.977 260.117 115.222 259.91 114.391C259.717 113.559 259.62 112.708 259.62 111.834C259.62 110.213 259.848 108.807 260.304 107.615C260.761 106.41 261.419 105.482 262.277 104.83C263.135 104.165 264.173 103.833 265.391 103.833C266.387 103.833 267.231 104.034 267.924 104.436C268.63 104.823 269.176 105.336 269.564 105.973C269.951 106.611 270.179 107.297 270.248 108.031H267.778C267.654 107.394 267.384 106.902 266.969 106.555C266.553 106.209 266.021 106.036 265.37 106.036C264.443 106.036 263.695 106.466 263.128 107.324C262.56 108.169 262.256 109.465 262.214 111.211C262.547 110.643 263.045 110.171 263.709 109.798C264.373 109.423 265.114 109.236 265.93 109.236C266.734 109.236 267.487 109.431 268.193 109.818C268.899 110.206 269.467 110.753 269.895 111.46C270.339 112.167 270.56 112.998 270.56 113.954C270.56 114.827 270.346 115.638 269.917 116.386C269.501 117.134 268.906 117.737 268.131 118.194C267.37 118.652 266.484 118.88 265.474 118.88ZM265.329 116.594C266.104 116.594 266.74 116.358 267.238 115.887C267.751 115.402 268.007 114.793 268.007 114.058C268.007 113.282 267.751 112.659 267.238 112.188C266.726 111.716 266.076 111.481 265.287 111.481C264.775 111.481 264.311 111.599 263.896 111.834C263.495 112.056 263.177 112.361 262.941 112.749C262.706 113.123 262.588 113.545 262.588 114.016C262.588 114.764 262.844 115.381 263.356 115.866C263.882 116.351 264.539 116.594 265.329 116.594ZM277.884 118.88C276.888 118.88 275.988 118.707 275.185 118.36C274.383 118 273.739 117.494 273.254 116.843C272.784 116.192 272.549 115.437 272.549 114.578C272.549 113.691 272.777 112.915 273.234 112.25C273.705 111.585 274.32 111.107 275.081 110.816C274.417 110.525 273.891 110.11 273.504 109.569C273.116 109.015 272.922 108.398 272.922 107.719C272.922 107.026 273.109 106.389 273.483 105.807C273.857 105.211 274.41 104.734 275.144 104.373C275.891 104.013 276.805 103.833 277.884 103.833C278.964 103.833 279.87 104.013 280.604 104.373C281.337 104.734 281.891 105.211 282.265 105.807C282.638 106.389 282.825 107.026 282.825 107.719C282.825 108.384 282.624 109.001 282.223 109.569C281.835 110.123 281.316 110.539 280.666 110.816C281.441 111.107 282.057 111.585 282.514 112.25C282.97 112.915 283.199 113.691 283.199 114.578C283.199 115.437 282.963 116.192 282.492 116.843C282.022 117.494 281.379 118 280.562 118.36C279.759 118.707 278.866 118.88 277.884 118.88ZM277.884 110.026C278.604 110.026 279.171 109.839 279.587 109.465C280.001 109.091 280.209 108.613 280.209 108.031C280.209 107.394 280.001 106.895 279.587 106.535C279.185 106.174 278.618 105.994 277.884 105.994C277.136 105.994 276.562 106.174 276.161 106.535C275.76 106.895 275.559 107.394 275.559 108.031C275.559 108.627 275.76 109.112 276.161 109.486C276.576 109.846 277.15 110.026 277.884 110.026ZM277.884 116.656C278.77 116.656 279.441 116.441 279.898 116.012C280.354 115.568 280.583 115.014 280.583 114.349C280.583 113.615 280.34 113.04 279.857 112.624C279.386 112.209 278.728 112 277.884 112C277.04 112 276.369 112.209 275.87 112.624C275.386 113.04 275.144 113.615 275.144 114.349C275.144 115.014 275.372 115.568 275.829 116.012C276.3 116.441 276.984 116.656 277.884 116.656ZM288.386 111.232C287.722 111.232 287.12 111.086 286.581 110.795C286.041 110.49 285.612 110.061 285.294 109.506C284.975 108.952 284.816 108.294 284.816 107.532C284.816 106.77 284.975 106.112 285.294 105.557C285.612 105.004 286.041 104.581 286.581 104.29C287.12 103.985 287.729 103.833 288.407 103.833C289.072 103.833 289.667 103.985 290.193 104.29C290.733 104.581 291.162 105.004 291.48 105.557C291.798 106.112 291.957 106.77 291.957 107.532C291.957 108.294 291.798 108.952 291.48 109.506C291.162 110.061 290.733 110.49 290.193 110.795C289.653 111.086 289.051 111.232 288.386 111.232ZM287.598 118.63L295.798 104.082H298.393L290.193 118.63H287.598ZM288.386 109.382C288.788 109.382 289.134 109.23 289.425 108.925C289.716 108.606 289.86 108.142 289.86 107.532C289.86 106.922 289.716 106.458 289.425 106.139C289.148 105.821 288.802 105.662 288.386 105.662C287.972 105.662 287.619 105.821 287.328 106.139C287.051 106.458 286.912 106.922 286.912 107.532C286.912 108.142 287.051 108.606 287.328 108.925C287.619 109.23 287.972 109.382 288.386 109.382ZM297.687 118.88C297.023 118.88 296.421 118.735 295.881 118.443C295.342 118.139 294.912 117.709 294.594 117.155C294.276 116.601 294.116 115.942 294.116 115.18C294.116 114.418 294.276 113.767 294.594 113.227C294.912 112.673 295.342 112.25 295.881 111.959C296.421 111.654 297.03 111.501 297.708 111.501C298.372 111.501 298.968 111.654 299.494 111.959C300.033 112.25 300.462 112.673 300.781 113.227C301.099 113.767 301.258 114.418 301.258 115.18C301.258 115.942 301.099 116.601 300.781 117.155C300.462 117.709 300.033 118.139 299.494 118.443C298.968 118.735 298.365 118.88 297.687 118.88ZM297.687 117.03C298.103 117.03 298.448 116.878 298.725 116.573C299.016 116.254 299.161 115.79 299.161 115.18C299.161 114.571 299.016 114.107 298.725 113.788C298.448 113.469 298.103 113.31 297.687 113.31C297.272 113.31 296.919 113.469 296.629 113.788C296.351 114.107 296.213 114.571 296.213 115.18C296.213 115.79 296.351 116.254 296.629 116.573C296.919 116.878 297.272 117.03 297.687 117.03Z" fill="#03133D"/>
<path d="M262.453 158.294C275.099 158.294 273.606 134.426 286.252 134.426C298.899 134.426 297.403 140.791 310.05 140.791C322.697 140.791 320.749 151.247 333.396 151.247C346.042 151.247 348.184 156.619 360.831 156.619" stroke="#FFAE00" stroke-width="1.31305" stroke-linecap="round"/>
<path d="M262.452 158.294C274.81 158.294 276.388 141.7 288.745 141.7C301.102 141.7 299.054 128.517 311.41 128.517C323.768 128.517 323.531 147.156 335.888 147.156C348.245 147.156 348.916 156.55 361.274 156.55" stroke="#0097FE" stroke-width="1.31305" stroke-linecap="round"/>
<path d="M72.2214 79.0872H114.258V96.0592H181.309V113.358" stroke="#FFC000" stroke-width="1.26902" stroke-linecap="round" stroke-linejoin="round" stroke-dasharray="2.54 3.17"/>
<g filter="url(#filter6_d_130_500)">
<path d="M65.6382 59.3154H36.747C33.1111 59.3154 30.1637 62.2661 30.1637 65.906V94.9046C30.1637 98.5445 33.1111 101.495 36.747 101.495H65.6382C69.274 101.495 72.2214 98.5445 72.2214 94.9046V65.906C72.2214 62.2661 69.274 59.3154 65.6382 59.3154Z" fill="white"/>
</g>
<mask id="mask1_130_500" style="mask-type:luminance" maskUnits="userSpaceOnUse" x="40" y="69" width="22" height="22">
<path d="M61.7071 69.8602H40.6782V90.9501H61.7071V69.8602Z" fill="white"/>
</mask>
<g mask="url(#mask1_130_500)">
<path d="M59.0784 69.8602H43.3068C41.8566 69.8602 40.6782 71.0419 40.6782 72.4965V88.3139C40.6782 89.7671 41.8566 90.9501 43.3068 90.9501H59.0784C60.5277 90.9501 61.707 89.7671 61.707 88.3139V72.4965C61.707 71.0419 60.5277 69.8602 59.0784 69.8602Z" fill="#3B5999"/>
<path d="M55.1355 80.4052V77.7689C55.1355 77.0413 55.7243 77.1099 56.4498 77.1099H57.7641V73.8146H55.1355C52.9573 73.8146 51.1926 75.5841 51.1926 77.7689V80.4052H48.564V83.7005H51.1926V90.9501H55.1355V83.7005H57.107L58.4212 80.4052H55.1355Z" fill="white"/>
</g>
<path d="M239.138 44.816H206.281V114.017" stroke="#FFC000" stroke-width="1.26902" stroke-linecap="round" stroke-linejoin="round" stroke-dasharray="2.54 3.17"/>
<g filter="url(#filter7_d_130_500)">
<path d="M274.613 23.7262H245.721C242.085 23.7262 239.138 26.6769 239.138 30.3168V59.3154C239.138 62.9552 242.085 65.9059 245.721 65.9059H274.613C278.248 65.9059 281.196 62.9552 281.196 59.3154V30.3168C281.196 26.6769 278.248 23.7262 274.613 23.7262Z" fill="white"/>
</g>
<mask id="mask2_130_500" style="mask-type:luminance" maskUnits="userSpaceOnUse" x="249" y="34" width="22" height="22">
<path d="M270.681 34.2711H249.652V55.361H270.681V34.2711Z" fill="white"/>
</mask>
<g mask="url(#mask2_130_500)">
<path d="M268.536 41.0804C268.536 40.8897 268.529 40.7043 268.52 40.5215C269.375 39.9125 270.095 39.1524 270.681 38.2772V38.2764C269.899 38.6199 269.066 38.8484 268.197 38.9591C269.091 38.424 269.773 37.583 270.094 36.5698C269.261 37.068 268.341 37.4196 267.36 37.6164C266.569 36.7711 265.441 36.2482 264.211 36.2482C261.825 36.2482 259.903 38.1911 259.903 40.5725C259.903 40.9152 259.932 41.2448 260.003 41.5585C256.419 41.3827 253.247 39.6604 251.116 37.0355C250.745 37.6832 250.526 38.424 250.526 39.221C250.526 40.7184 251.294 42.0452 252.441 42.8142C251.748 42.801 251.069 42.5989 250.493 42.2817V42.3291C250.493 44.4302 251.987 46.1754 253.948 46.5779C253.289 46.7588 252.477 46.7518 252.001 46.6464C252.559 48.3582 254.145 49.6174 256.029 49.6587C254.563 50.809 252.7 51.5023 250.684 51.5023C250.33 51.5023 249.991 51.4865 249.652 51.4434C251.563 52.6781 253.825 53.3837 256.266 53.3837C264.199 53.3837 268.536 46.7931 268.536 41.0804Z" fill="#55ACEE"/>
</g>
<path d="M285.139 288.668H327.197" stroke="#FFC000" stroke-width="0.951763" stroke-linecap="round" stroke-linejoin="round" stroke-dasharray="2.54 3.17"/>
<g filter="url(#filter8_d_130_500)">
<path d="M362.671 264.942H333.779C330.144 264.942 327.196 267.892 327.196 271.532V300.531C327.196 304.171 330.144 307.121 333.779 307.121H362.671C366.307 307.121 369.254 304.171 369.254 300.531V271.532C369.254 267.892 366.307 264.942 362.671 264.942Z" fill="white"/>
</g>
<mask id="mask3_130_500" style="mask-type:luminance" maskUnits="userSpaceOnUse" x="340" y="278" width="17" height="16">
<path d="M356.111 278.123H340.339V293.94H356.111V278.123Z" fill="white"/>
</mask>
<g mask="url(#mask3_130_500)">
<path d="M356.107 293.94V293.94H356.111V288.138C356.111 285.301 355.501 283.115 352.193 283.115C350.603 283.115 349.536 283.99 349.101 284.819H349.054V283.379H345.918V293.94H349.183V288.711C349.183 287.334 349.444 286.002 351.144 286.002C352.819 286.002 352.844 287.574 352.844 288.799V293.94H356.107Z" fill="#0077B5"/>
<path d="M340.599 283.38H343.869V293.94H340.599V283.38Z" fill="#0077B5"/>
<path d="M342.233 278.123C341.188 278.123 340.339 278.974 340.339 280.022C340.339 281.071 341.188 281.939 342.233 281.939C343.279 281.939 344.127 281.071 344.127 280.022C344.126 278.974 343.278 278.123 342.233 278.123Z" fill="#0077B5"/>
</g>
<path d="M109.679 364.459V396.094H71.5645" stroke="#FFC000" stroke-width="1.26902" stroke-linecap="round" stroke-linejoin="round" stroke-dasharray="2.54 3.17"/>
<g filter="url(#filter9_d_130_500)">
<path d="M64.9811 375.004H36.0898C32.454 375.004 29.5066 377.955 29.5066 381.595V410.594C29.5066 414.233 32.454 417.184 36.0898 417.184H64.9811C68.6169 417.184 71.5643 414.233 71.5643 410.594V381.595C71.5643 377.955 68.6169 375.004 64.9811 375.004Z" fill="white"/>
</g>
<mask id="mask4_130_500" style="mask-type:luminance" maskUnits="userSpaceOnUse" x="40" y="385" width="22" height="22">
<path d="M61.05 385.549H40.0211V406.639H61.05V385.549Z" fill="white"/>
</mask>
<g mask="url(#mask4_130_500)">
<path d="M41.3349 386.984C39.6824 388.706 40.0206 390.534 40.0206 396.09C40.0206 400.703 39.218 405.328 43.4185 406.416C44.7302 406.755 56.3522 406.755 57.6621 406.415C59.411 405.962 60.8339 404.539 61.0285 402.059C61.0556 401.713 61.0556 390.473 61.0276 390.119C60.8208 387.477 59.1989 385.954 57.0619 385.646C56.5721 385.574 56.4739 385.553 53.961 385.549C45.0474 385.553 43.0934 385.155 41.3349 386.984Z" fill="url(#paint0_linear_130_500)"/>
<path d="M50.5338 388.308C47.3523 388.308 44.3312 388.024 43.1772 390.994C42.7006 392.221 42.7698 393.814 42.7698 396.095C42.7698 398.097 42.7058 399.978 43.1772 401.195C44.3285 404.167 47.3742 403.882 50.5321 403.882C53.5786 403.882 56.7198 404.201 57.8878 401.195C58.3653 399.956 58.2952 398.387 58.2952 396.095C58.2952 393.053 58.4625 391.089 56.9914 389.614C55.5019 388.12 53.4875 388.308 50.5303 388.308H50.5338ZM49.8381 389.711C56.4745 389.701 57.3191 388.961 56.8529 399.239C56.6874 402.875 53.9274 402.476 50.5347 402.476C44.3487 402.476 44.1708 402.298 44.1708 396.092C44.1708 389.813 44.6615 389.715 49.8381 389.709V389.711ZM54.6782 391.004C54.1639 391.004 53.7469 391.422 53.7469 391.938C53.7469 392.454 54.1639 392.872 54.6782 392.872C55.1926 392.872 55.6096 392.454 55.6096 391.938C55.6096 391.422 55.1926 391.004 54.6782 391.004ZM50.5338 392.096C48.3319 392.096 46.5471 393.887 46.5471 396.095C46.5471 398.303 48.3319 400.093 50.5338 400.093C52.7357 400.093 54.5197 398.303 54.5197 396.095C54.5197 393.887 52.7357 392.096 50.5338 392.096ZM50.5338 393.5C53.9553 393.5 53.9598 398.691 50.5338 398.691C47.1131 398.691 47.1079 393.5 50.5338 393.5Z" fill="white"/>
</g>
</g>
<defs>
<filter id="filter0_d_130_500" x="34.8373" y="78.8001" width="317.078" height="365.439" filterUnits="userSpaceOnUse" color-interpolation-filters="sRGB">
<feFlood flood-opacity="0" result="BackgroundImageFix"/>
<feColorMatrix in="SourceAlpha" type="matrix" values="0 0 0 0 0 0 0 0 0 0 0 0 0 0 0 0 0 0 127 0" result="hardAlpha"/>
<feOffset dx="10.1521" dy="20.3043"/>
<feGaussianBlur stdDeviation="23.4768"/>
<feComposite in2="hardAlpha" operator="out"/>
<feColorMatrix type="matrix" values="0 0 0 0 0.635294 0 0 0 0 0.647059 0 0 0 0 0.737255 0 0 0 0.41 0"/>
<feBlend mode="normal" in2="BackgroundImageFix" result="effect1_dropShadow_130_500"/>
<feBlend mode="normal" in="SourceGraphic" in2="effect1_dropShadow_130_500" result="shape"/>
</filter>
<filter id="filter1_d_130_500" x="76.223" y="313.642" width="113.077" height="61.7857" filterUnits="userSpaceOnUse" color-interpolation-filters="sRGB">
<feFlood flood-opacity="0" result="BackgroundImageFix"/>
<feColorMatrix in="SourceAlpha" type="matrix" values="0 0 0 0 0 0 0 0 0 0 0 0 0 0 0 0 0 0 127 0" result="hardAlpha"/>
<feOffset dy="3.13674"/>
<feGaussianBlur stdDeviation="5.2279"/>
<feColorMatrix type="matrix" values="0 0 0 0 0.11 0 0 0 0 0.14137 0 0 0 0 0.4125 0 0 0 0.05 0"/>
<feBlend mode="normal" in2="BackgroundImageFix" result="effect1_dropShadow_130_500"/>
<feBlend mode="normal" in="SourceGraphic" in2="effect1_dropShadow_130_500" result="shape"/>
</filter>
<filter id="filter2_d_130_500" x="177.605" y="313.642" width="113.077" height="61.7857" filterUnits="userSpaceOnUse" color-interpolation-filters="sRGB">
<feFlood flood-opacity="0" result="BackgroundImageFix"/>
<feColorMatrix in="SourceAlpha" type="matrix" values="0 0 0 0 0 0 0 0 0 0 0 0 0 0 0 0 0 0 127 0" result="hardAlpha"/>
<feOffset dy="3.13674"/>
<feGaussianBlur stdDeviation="5.2279"/>
<feColorMatrix type="matrix" values="0 0 0 0 0.11 0 0 0 0 0.14137 0 0 0 0 0.4125 0 0 0 0.05 0"/>
<feBlend mode="normal" in2="BackgroundImageFix" result="effect1_dropShadow_130_500"/>
<feBlend mode="normal" in="SourceGraphic" in2="effect1_dropShadow_130_500" result="shape"/>
</filter>
<filter id="filter3_d_130_500" x="191.187" y="27.471" width="253.256" height="272.091" filterUnits="userSpaceOnUse" color-interpolation-filters="sRGB">
<feFlood flood-opacity="0" result="BackgroundImageFix"/>
<feColorMatrix in="SourceAlpha" type="matrix" values="0 0 0 0 0 0 0 0 0 0 0 0 0 0 0 0 0 0 127 0" result="hardAlpha"/>
<feOffset dx="5.07607" dy="15.2282"/>
<feGaussianBlur stdDeviation="30.4564"/>
<feComposite in2="hardAlpha" operator="out"/>
<feColorMatrix type="matrix" values="0 0 0 0 0.635294 0 0 0 0 0.647059 0 0 0 0 0.737255 0 0 0 0.36 0"/>
<feBlend mode="normal" in2="BackgroundImageFix" result="effect1_dropShadow_130_500"/>
<feBlend mode="normal" in="SourceGraphic" in2="effect1_dropShadow_130_500" result="shape"/>
</filter>
<filter id="filter4_d_130_500" x="251.997" y="188.421" width="124.741" height="36.2519" filterUnits="userSpaceOnUse" color-interpolation-filters="sRGB">
<feFlood flood-opacity="0" result="BackgroundImageFix"/>
<feColorMatrix in="SourceAlpha" type="matrix" values="0 0 0 0 0 0 0 0 0 0 0 0 0 0 0 0 0 0 127 0" result="hardAlpha"/>
<feOffset dy="3.13674"/>
<feGaussianBlur stdDeviation="5.2279"/>
<feColorMatrix type="matrix" values="0 0 0 0 0.11 0 0 0 0 0.14137 0 0 0 0 0.4125 0 0 0 0.05 0"/>
<feBlend mode="normal" in2="BackgroundImageFix" result="effect1_dropShadow_130_500"/>
<feBlend mode="normal" in="SourceGraphic" in2="effect1_dropShadow_130_500" result="shape"/>
</filter>
<filter id="filter5_d_130_500" x="275.437" y="154.613" width="137.096" height="42.6383" filterUnits="userSpaceOnUse" color-interpolation-filters="sRGB">
<feFlood flood-opacity="0" result="BackgroundImageFix"/>
<feColorMatrix in="SourceAlpha" type="matrix" values="0 0 0 0 0 0 0 0 0 0 0 0 0 0 0 0 0 0 127 0" result="hardAlpha"/>
<feOffset dy="2.53803"/>
<feGaussianBlur stdDeviation="6.34509"/>
<feColorMatrix type="matrix" values="0 0 0 0 0.14902 0 0 0 0 0.14902 0 0 0 0 0.14902 0 0 0 0.04 0"/>
<feBlend mode="normal" in2="BackgroundImageFix" result="effect1_dropShadow_130_500"/>
<feBlend mode="normal" in="SourceGraphic" in2="effect1_dropShadow_130_500" result="shape"/>
</filter>
<filter id="filter6_d_130_500" x="2.24536" y="36.4731" width="108.047" height="108.169" filterUnits="userSpaceOnUse" color-interpolation-filters="sRGB">
<feFlood flood-opacity="0" result="BackgroundImageFix"/>
<feColorMatrix in="SourceAlpha" type="matrix" values="0 0 0 0 0 0 0 0 0 0 0 0 0 0 0 0 0 0 127 0" result="hardAlpha"/>
<feOffset dx="5.07607" dy="10.1521"/>
<feGaussianBlur stdDeviation="16.4972"/>
<feColorMatrix type="matrix" values="0 0 0 0 0.494118 0 0 0 0 0.541176 0 0 0 0 0.992157 0 0 0 0.08 0"/>
<feBlend mode="normal" in2="BackgroundImageFix" result="effect1_dropShadow_130_500"/>
<feBlend mode="normal" in="SourceGraphic" in2="effect1_dropShadow_130_500" result="shape"/>
</filter>
<filter id="filter7_d_130_500" x="211.22" y="0.883885" width="108.047" height="108.169" filterUnits="userSpaceOnUse" color-interpolation-filters="sRGB">
<feFlood flood-opacity="0" result="BackgroundImageFix"/>
<feColorMatrix in="SourceAlpha" type="matrix" values="0 0 0 0 0 0 0 0 0 0 0 0 0 0 0 0 0 0 127 0" result="hardAlpha"/>
<feOffset dx="5.07607" dy="10.1521"/>
<feGaussianBlur stdDeviation="16.4972"/>
<feColorMatrix type="matrix" values="0 0 0 0 0.494118 0 0 0 0 0.541176 0 0 0 0 0.992157 0 0 0 0.08 0"/>
<feBlend mode="normal" in2="BackgroundImageFix" result="effect1_dropShadow_130_500"/>
<feBlend mode="normal" in="SourceGraphic" in2="effect1_dropShadow_130_500" result="shape"/>
</filter>
<filter id="filter8_d_130_500" x="299.278" y="242.099" width="108.047" height="108.169" filterUnits="userSpaceOnUse" color-interpolation-filters="sRGB">
<feFlood flood-opacity="0" result="BackgroundImageFix"/>
<feColorMatrix in="SourceAlpha" type="matrix" values="0 0 0 0 0 0 0 0 0 0 0 0 0 0 0 0 0 0 127 0" result="hardAlpha"/>
<feOffset dx="5.07607" dy="10.1521"/>
<feGaussianBlur stdDeviation="16.4972"/>
<feColorMatrix type="matrix" values="0 0 0 0 0.494118 0 0 0 0 0.541176 0 0 0 0 0.992157 0 0 0 0.08 0"/>
<feBlend mode="normal" in2="BackgroundImageFix" result="effect1_dropShadow_130_500"/>
<feBlend mode="normal" in="SourceGraphic" in2="effect1_dropShadow_130_500" result="shape"/>
</filter>
<filter id="filter9_d_130_500" x="1.58818" y="352.162" width="108.047" height="108.169" filterUnits="userSpaceOnUse" color-interpolation-filters="sRGB">
<feFlood flood-opacity="0" result="BackgroundImageFix"/>
<feColorMatrix in="SourceAlpha" type="matrix" values="0 0 0 0 0 0 0 0 0 0 0 0 0 0 0 0 0 0 127 0" result="hardAlpha"/>
<feOffset dx="5.07607" dy="10.1521"/>
<feGaussianBlur stdDeviation="16.4972"/>
<feColorMatrix type="matrix" values="0 0 0 0 0.494118 0 0 0 0 0.541176 0 0 0 0 0.992157 0 0 0 0.08 0"/>
<feBlend mode="normal" in2="BackgroundImageFix" result="effect1_dropShadow_130_500"/>
<feBlend mode="normal" in="SourceGraphic" in2="effect1_dropShadow_130_500" result="shape"/>
</filter>
<linearGradient id="paint0_linear_130_500" x1="41.3752" y1="405.292" x2="60.9678" y2="388.384" gradientUnits="userSpaceOnUse">
<stop stop-color="#FFDD55"/>
<stop offset="0.5" stop-color="#FF543E"/>
<stop offset="1" stop-color="#C837AB"/>
</linearGradient>
<clipPath id="clip0_130_500">
<rect width="447" height="455.421" fill="white" transform="translate(0.0621643)"/>
</clipPath>
</defs>
</svg>
