<svg width="12" height="476" viewBox="0 0 12 476" fill="none" xmlns="http://www.w3.org/2000/svg">
<path d="M6.03293 0.354655C3.08741 0.354655 0.699595 2.74247 0.699595 5.68799C0.699595 8.63351 3.08741 11.0213 6.03293 11.0213C8.97845 11.0213 11.3663 8.63351 11.3663 5.68799C11.3663 2.74247 8.97845 0.354655 6.03293 0.354655ZM6.03291 464.515C3.08739 464.515 0.699575 466.903 0.699575 469.848C0.699575 472.794 3.08739 475.181 6.03291 475.181C8.97843 475.181 11.3662 472.794 11.3662 469.848C11.3662 466.903 8.97843 464.515 6.03291 464.515ZM5.03293 5.68799L5.03293 7.68129L7.03293 7.68129L7.03293 5.68799L5.03293 5.68799ZM5.03293 11.6679L5.03293 15.6545L7.03293 15.6545L7.03293 11.6679L5.03293 11.6679ZM5.03293 19.6411L5.03293 23.6277L7.03293 23.6277L7.03293 19.6411L5.03293 19.6411ZM5.03293 27.6143L5.03293 31.6009L7.03293 31.6009L7.03293 27.6143L5.03293 27.6143ZM5.03293 35.5875L5.03293 39.5741L7.03293 39.5741L7.03293 35.5875L5.03293 35.5875ZM5.03293 43.5606L5.03293 47.5472L7.03293 47.5472L7.03293 43.5606L5.03293 43.5606ZM5.03293 51.5338L5.03293 55.5204L7.03293 55.5204L7.03293 51.5338L5.03293 51.5338ZM5.03293 59.507L5.03293 63.4936L7.03293 63.4936L7.03293 59.507L5.03293 59.507ZM5.03293 67.4802L5.03293 71.4668L7.03293 71.4668L7.03293 67.4802L5.03293 67.4802ZM5.03293 75.4534L5.03293 79.44L7.03293 79.44L7.03293 75.4534L5.03293 75.4534ZM5.03293 83.4266L5.03292 87.4132L7.03292 87.4132L7.03293 83.4266L5.03293 83.4266ZM5.03292 91.3998L5.03292 95.3864L7.03292 95.3864L7.03292 91.3998L5.03292 91.3998ZM5.03292 99.373L5.03292 103.36L7.03292 103.36L7.03292 99.373L5.03292 99.373ZM5.03292 107.346L5.03292 111.333L7.03292 111.333L7.03292 107.346L5.03292 107.346ZM5.03292 115.319L5.03292 119.306L7.03292 119.306L7.03292 115.319L5.03292 115.319ZM5.03292 123.293L5.03292 127.279L7.03292 127.279L7.03292 123.293L5.03292 123.293ZM5.03292 131.266L5.03292 135.252L7.03292 135.252L7.03292 131.266L5.03292 131.266ZM5.03292 139.239L5.03292 143.226L7.03292 143.226L7.03292 139.239L5.03292 139.239ZM5.03292 147.212L5.03292 149.205L7.03292 149.205L7.03292 147.212L5.03292 147.212ZM5.03292 149.205L5.03292 151.209L7.03292 151.209L7.03292 149.205L5.03292 149.205ZM5.03292 155.217L5.03292 159.226L7.03292 159.226L7.03292 155.217L5.03292 155.217ZM5.03292 163.234L5.03292 167.242L7.03292 167.242L7.03292 163.234L5.03292 163.234ZM5.03292 171.25L5.03292 175.258L7.03292 175.258L7.03292 171.25L5.03292 171.25ZM5.03292 179.266L5.03292 183.274L7.03292 183.274L7.03292 179.266L5.03292 179.266ZM5.03292 187.282L5.03292 191.29L7.03292 191.29L7.03292 187.282L5.03292 187.282ZM5.03292 195.298L5.03292 199.306L7.03292 199.306L7.03292 195.298L5.03292 195.298ZM5.03292 203.314L5.03292 207.322L7.03292 207.322L7.03292 203.314L5.03292 203.314ZM5.03292 211.33L5.03292 215.338L7.03292 215.338L7.03292 211.33L5.03292 211.33ZM5.03292 219.346L5.03292 223.354L7.03292 223.354L7.03292 219.346L5.03292 219.346ZM5.03292 227.362L5.03292 231.37L7.03292 231.37L7.03292 227.362L5.03292 227.362ZM5.03292 235.378L5.03292 239.386L7.03292 239.386L7.03292 235.378L5.03292 235.378ZM5.03292 243.394L5.03292 247.402L7.03292 247.402L7.03292 243.394L5.03292 243.394ZM5.03292 251.41L5.03292 255.418L7.03292 255.418L7.03292 251.41L5.03292 251.41ZM5.03292 259.426L5.03292 263.434L7.03292 263.434L7.03292 259.426L5.03292 259.426ZM5.03292 267.442L5.03292 271.45L7.03292 271.45L7.03292 267.442L5.03292 267.442ZM5.03292 275.458L5.03292 279.467L7.03292 279.467L7.03292 275.458L5.03292 275.458ZM5.03292 283.475L5.03292 287.483L7.03292 287.483L7.03292 283.475L5.03292 283.475ZM5.03292 291.491L5.03292 295.499L7.03292 295.499L7.03292 291.491L5.03292 291.491ZM5.03292 299.507L5.03292 303.515L7.03292 303.515L7.03292 299.507L5.03292 299.507ZM5.03292 307.523L5.03292 311.531L7.03292 311.531L7.03292 307.523L5.03292 307.523ZM5.03291 315.539L5.03291 319.547L7.03291 319.547L7.03291 315.539L5.03291 315.539ZM5.03291 323.555L5.03291 327.563L7.03291 327.563L7.03291 323.555L5.03291 323.555ZM5.03291 331.571L5.03291 335.579L7.03291 335.579L7.03291 331.571L5.03291 331.571ZM5.03291 339.587L5.03291 343.595L7.03291 343.595L7.03291 339.587L5.03291 339.587ZM5.03291 347.603L5.03291 351.611L7.03291 351.611L7.03291 347.603L5.03291 347.603ZM5.03291 355.619L5.03291 359.627L7.03291 359.627L7.03291 355.619L5.03291 355.619ZM5.03291 363.635L5.03291 367.643L7.03291 367.643L7.03291 363.635L5.03291 363.635ZM5.03291 371.651L5.03291 375.659L7.03291 375.659L7.03291 371.651L5.03291 371.651ZM5.03291 379.667L5.03291 383.675L7.03291 383.675L7.03291 379.667L5.03291 379.667ZM5.03291 387.683L5.03291 391.691L7.03291 391.691L7.03291 387.683L5.03291 387.683ZM5.03291 395.699L5.03291 399.707L7.03291 399.707L7.03291 395.699L5.03291 395.699ZM5.03291 403.715L5.03291 407.723L7.03291 407.723L7.03291 403.715L5.03291 403.715ZM5.03291 411.731L5.03291 415.739L7.03291 415.739L7.03291 411.731L5.03291 411.731ZM5.03291 419.747L5.03291 423.755L7.03291 423.755L7.03291 419.747L5.03291 419.747ZM5.03291 427.764L5.03291 431.772L7.03291 431.772L7.03291 427.764L5.03291 427.764ZM5.03291 435.78L5.03291 439.788L7.03291 439.788L7.03291 435.78L5.03291 435.78ZM5.03291 443.796L5.03291 447.804L7.03291 447.804L7.03291 443.796L5.03291 443.796ZM5.03291 451.812L5.03291 455.82L7.03291 455.82L7.03291 451.812L5.03291 451.812ZM5.03291 459.828L5.03291 463.836L7.03291 463.836L7.03291 459.828L5.03291 459.828ZM5.03291 467.844L5.03291 469.848L7.03291 469.848L7.03291 467.844L5.03291 467.844Z" fill="#08A5E2" fill-opacity="0.5"/>
</svg>
