<svg width="49" height="51" viewBox="0 0 49 51" fill="none" xmlns="http://www.w3.org/2000/svg">
<path d="M44.7204 23.7001L45.9184 23.8527C45.8603 24.3091 45.7772 24.7333 45.6693 25.1254L44.4822 24.8872C44.5331 24.4878 44.6125 24.0922 44.7204 23.7001Z" fill="#183453"/>
<path d="M46.0818 22.5694L44.873 22.5023C44.8668 22.0957 44.8891 21.6927 44.94 21.2934L46.1598 21.2749C46.1587 21.7386 46.1327 22.1701 46.0818 22.5694Z" fill="#183453"/>
<path d="M44.1583 26.064L45.3345 26.3877C45.2193 26.8368 45.0792 27.2538 44.9142 27.6386L43.7598 27.1437C43.9175 26.8159 44.0504 26.456 44.1583 26.064Z" fill="#183453"/>
<path d="M46.1411 20.0558L44.9214 20.0743C44.8581 19.6605 44.8198 19.2788 44.8063 18.9292L46.0479 18.7395C46.0541 19.1461 46.0852 19.5849 46.1411 20.0558Z" fill="#183453"/>
<path d="M43.2649 28.2982L44.4193 28.793C44.1936 29.1991 44.0535 29.616 43.8388 29.9365L42.6953 29.3561C42.9173 28.9785 43.1072 28.6259 43.2649 28.2982Z" fill="#183453"/>
<path d="M45.7726 17.4869L44.6166 17.6875C44.5461 17.3307 44.4507 16.9418 44.3304 16.5206L45.4974 16.2345C45.6249 16.5986 45.7415 17.0482 45.7726 17.4869Z" fill="#183453"/>
<path d="M42.1259 30.4137L43.1729 31.0688C42.8938 31.4391 42.6469 31.7845 42.4321 32.105L41.396 31.3643C41.6678 31.051 41.9111 30.7342 42.1259 30.4137Z" fill="#183453"/>
<path d="M45.1367 14.9702L43.9588 15.3419C43.8313 14.9778 43.7038 14.6137 43.5762 14.2496L44.6794 13.7814C44.8925 14.1564 45.0091 14.6061 45.1367 14.9702Z" fill="#183453"/>
<path d="M40.6661 32.315L41.6058 33.1304C41.334 33.4436 41.0336 33.7532 40.7048 34.0591L39.8617 33.169C40.1262 32.9129 40.3943 32.6282 40.6661 32.315Z" fill="#183453"/>
<path d="M44.1364 12.5823L43.0223 13.136C42.8839 12.8575 42.6817 12.397 42.4577 12.1076L43.497 11.4573C43.7102 11.8323 44.0089 12.2182 44.1364 12.5823Z" fill="#183453"/>
<path d="M38.9717 34.0121L39.8149 34.9022C39.429 35.2008 39.1287 35.5104 38.7537 35.7235L38.007 34.7588C38.3286 34.5099 38.6502 34.261 38.9717 34.0121Z" fill="#183453"/>
<path d="M42.8469 10.4178L41.8075 11.068C41.5586 10.7464 41.3097 10.4248 41.0608 10.1033L42.0255 9.35657C42.3315 9.6854 42.6052 10.0392 42.8469 10.4178Z" fill="#183453"/>
<path d="M41.1932 8.38094L40.3031 9.22414C40.0542 8.90257 39.7732 8.60587 39.46 8.33408L40.2645 7.48003C40.5777 7.75182 40.8873 8.0521 41.1932 8.38094Z" fill="#183453"/>
<path d="M39.3357 6.57972L38.5203 7.51937C38.1998 7.30463 37.8793 7.08985 37.5589 6.8751L38.2996 5.839C38.6771 6.06101 39.0225 6.30792 39.3357 6.57972Z" fill="#183453"/>
<path d="M37.1779 5.08696L36.6083 6.14491C36.2235 5.97995 35.8709 5.7901 35.5504 5.57535L36.12 4.51739C36.5048 4.68236 36.8574 4.87221 37.1779 5.08696Z" fill="#183453"/>
<path d="M34.891 3.92625L34.8801 4.01185L34.4817 5.09156C34.0969 4.92659 33.7084 4.79016 33.3164 4.68224L33.7366 3.43138C34.1214 3.59635 34.5062 3.76128 34.891 3.92625Z" fill="#183453"/>
<path d="M32.4748 3.09654L32.1511 4.27275C31.759 4.16484 31.3633 4.08541 30.964 4.03454L31.2131 2.76187C31.6622 2.87706 32.0827 2.98862 32.4748 3.09654Z" fill="#183453"/>
<path d="M29.9296 2.59833L29.777 3.79634C29.3777 3.74547 28.9747 3.7231 28.5681 3.72928L28.6461 2.43481C29.1024 2.49295 29.5303 2.54746 29.9296 2.59833Z" fill="#183453"/>
<path d="M27.3405 2.44265L27.359 3.66246C27.0058 3.70443 26.5671 3.73549 26.2139 3.77745L26.1098 2.54674L26.1207 2.46119C26.5595 2.43012 26.9873 2.48461 27.3405 2.44265Z" fill="#183453"/>
<path d="M24.7937 2.63967L24.9834 3.88128C24.6302 3.92325 24.1806 4.03991 23.8274 4.08188L23.5412 2.91491C23.9624 2.79464 24.3799 2.7029 24.7937 2.63967Z" fill="#183453"/>
<path d="M22.2887 3.19054L22.6495 4.45396C22.2963 4.49592 21.8358 4.69811 21.4717 4.82565L21.0999 3.64783C21.3784 3.50939 21.9246 3.31808 22.2887 3.19054Z" fill="#183453"/>
<path d="M19.9112 4.1046L20.3685 5.29332C20.09 5.43175 19.6295 5.63398 19.351 5.77242L18.7863 4.74395L18.7007 4.73305C19.0757 4.51994 19.5363 4.31771 19.9112 4.1046Z" fill="#183453"/>
<path d="M17.5757 5.37259L18.3115 6.42291C17.9972 6.61476 17.6508 6.83148 17.2722 7.07311L16.5255 6.10839C16.9004 5.89528 17.2863 5.5966 17.5757 5.37259Z" fill="#183453"/>
<path d="M15.5498 6.94055L16.393 7.83056C16.0641 8.13651 15.7675 8.4176 15.503 8.67377L14.5742 7.7728C14.8745 7.46322 15.2604 7.16456 15.5498 6.94055Z" fill="#183453"/>
<path d="M13.7481 8.79801L14.6986 9.52781C14.4268 9.84103 14.155 10.1543 13.8832 10.4675L12.9327 9.73765C13.1474 9.41717 13.3943 9.07181 13.6734 8.70155L13.7481 8.79801Z" fill="#183453"/>
<path d="M7.2486 11.9583H14.6845C14.5284 12.2315 14.4503 12.5242 14.4503 12.8365V14.9443H30.5518V12.8365C30.5518 12.5242 30.4932 12.2315 30.3761 11.9583H37.8706V50.1918H7.2486V36.3153C13.8063 30.3431 12.8109 32.3339 12.8109 23.2585C10.5274 23.5513 8.65381 23.3171 7.2486 22.2046V11.9583Z" fill="white"/>
<path fill-rule="evenodd" clip-rule="evenodd" d="M38.1633 50.4844H6.95581V36.1395L7.01436 36.0809C7.75601 35.4173 8.40006 34.8513 8.94653 34.3829C12.6352 31.1041 12.6352 31.1041 12.5181 26.3615C12.5181 25.5418 12.5181 24.6635 12.5181 23.5511C10.1761 23.8633 8.36103 23.4925 7.07292 22.4386L6.95581 22.38V11.6653H15.0943L14.9187 12.0751C14.8016 12.3093 14.743 12.5631 14.743 12.8363V14.6514H30.259V12.8363C30.259 12.5631 30.2004 12.3093 30.0833 12.0751L29.9077 11.6653H38.1633V50.4844ZM7.54132 49.8989H37.5778V12.2508H30.7859C30.825 12.446 30.8445 12.6411 30.8445 12.8363V15.1783H14.1575V12.8363C14.1575 12.6411 14.1771 12.446 14.2161 12.2508H7.54132V22.0873C8.77088 22.9656 10.4688 23.2583 12.7523 22.907H13.1036V23.1997C13.1036 24.4293 13.1036 25.4832 13.1036 26.3029C13.2207 31.2798 13.1622 31.3969 9.29784 34.7928C8.7904 35.2612 8.20489 35.8077 7.54132 36.4322V49.8989Z" fill="#183453"/>
<path fill-rule="evenodd" clip-rule="evenodd" d="M37.8706 50.6017H7.24864C7.01443 50.6017 6.83878 50.426 6.83878 50.1918V36.3153C6.83878 36.1982 6.87782 36.1006 6.95588 36.0226C7.69753 35.359 8.34158 34.793 8.88805 34.3246C12.5182 31.0457 12.5182 31.0458 12.4596 26.3617C12.4206 25.581 12.4011 24.6833 12.4011 23.6684C10.0981 23.9416 8.30255 23.5708 7.01444 22.5559C6.89734 22.4778 6.83878 22.3608 6.83878 22.2046V11.9583C6.83878 11.7241 7.01443 11.6069 7.24864 11.6069H14.6846C14.8017 11.6069 14.9188 11.6655 14.9773 11.7826C15.0359 11.8411 15.0359 12.0168 14.9773 12.1339C14.8993 12.3681 14.8602 12.6023 14.8602 12.8365V14.5345H30.2005V12.8365C30.2005 12.6023 30.1419 12.3681 30.0248 12.1339C29.9663 12.0168 29.9663 11.8411 30.0248 11.7826C30.1419 11.6655 30.259 11.6069 30.3761 11.6069H37.8706C38.1048 11.6069 38.2219 11.7241 38.2219 11.9583V50.1918C38.2219 50.426 38.1048 50.6017 37.8706 50.6017ZM7.59994 49.8405H37.4608V12.3681H30.9031C30.9421 12.5242 30.9617 12.6804 30.9617 12.8365V14.9443C30.9617 15.12 30.786 15.2956 30.5518 15.2956H14.4504C14.2747 15.2956 14.0991 15.12 14.0991 14.9443V12.8365C14.0991 12.6804 14.1186 12.5242 14.1576 12.3681H7.59994V22.0289C8.82951 22.9072 10.5275 23.2 12.7524 22.8487C12.8695 22.8487 12.9671 22.8877 13.0451 22.9658C13.1232 23.0438 13.1623 23.1414 13.1623 23.2585C13.1623 24.4295 13.2208 25.4834 13.2208 26.3617C13.2794 31.3385 13.2794 31.4556 9.35646 34.9101C8.84903 35.3395 8.26352 35.8664 7.59994 36.491V49.8405Z" fill="#183453"/>
<path d="M27.0388 21.4435H11.1716C10.9959 21.4435 10.8203 21.2679 10.8203 21.0922C10.8203 20.858 10.9959 20.6824 11.1716 20.6824H27.0388C27.273 20.6824 27.4486 20.858 27.4486 21.0922C27.4486 21.2679 27.273 21.4435 27.0388 21.4435Z" fill="#183453"/>
<path d="M33.8892 21.4435H30.0834C29.8492 21.4435 29.6735 21.2679 29.6735 21.0922C29.6735 20.858 29.8492 20.6824 30.0834 20.6824H33.8892C34.1234 20.6824 34.299 20.858 34.299 21.0922C34.299 21.2679 34.1234 21.4435 33.8892 21.4435Z" fill="#183453"/>
<path d="M27.0388 24.7807H12.811C12.5768 24.7807 12.4011 24.605 12.4011 24.4294C12.4011 24.1952 12.5768 24.0195 12.811 24.0195H27.0388C27.273 24.0195 27.4486 24.1952 27.4486 24.4294C27.4486 24.605 27.273 24.7807 27.0388 24.7807Z" fill="#183453"/>
<path d="M33.8892 24.7807H30.0834C29.8492 24.7807 29.6735 24.605 29.6735 24.4294C29.6735 24.1952 29.8492 24.0195 30.0834 24.0195H33.8892C34.1234 24.0195 34.299 24.1952 34.299 24.4294C34.299 24.605 34.1234 24.7807 33.8892 24.7807Z" fill="#183453"/>
<path d="M27.0387 28.1769H12.8695C12.6353 28.1769 12.4596 28.0013 12.4596 27.7671C12.4596 27.5914 12.6353 27.4158 12.8695 27.4158H27.0387C27.2729 27.4158 27.4486 27.5914 27.4486 27.7671C27.4486 28.0013 27.2729 28.1769 27.0387 28.1769Z" fill="#183453"/>
<path d="M33.8892 28.1769H30.0834C29.8492 28.1769 29.6735 28.0013 29.6735 27.7671C29.6735 27.5914 29.8492 27.4158 30.0834 27.4158H33.8892C34.1234 27.4158 34.299 27.5914 34.299 27.7671C34.299 28.0013 34.1234 28.1769 33.8892 28.1769Z" fill="#183453"/>
<path d="M27.0388 31.5141H12.4011C12.1669 31.5141 11.9913 31.3384 11.9913 31.1042C11.9913 30.9286 12.1669 30.7529 12.4011 30.7529H27.0388C27.273 30.7529 27.4486 30.9286 27.4486 31.1042C27.4486 31.3384 27.273 31.5141 27.0388 31.5141Z" fill="#183453"/>
<path d="M33.8892 31.5141H30.0834C29.8492 31.5141 29.6735 31.3384 29.6735 31.1042C29.6735 30.9286 29.8492 30.7529 30.0834 30.7529H33.8892C34.1234 30.7529 34.299 30.9286 34.299 31.1042C34.299 31.3384 34.1234 31.5141 33.8892 31.5141Z" fill="#183453"/>
<path d="M27.0388 34.8515H11.1716C10.9959 34.8515 10.8203 34.6758 10.8203 34.5002C10.8203 34.266 10.9959 34.0903 11.1716 34.0903H27.0388C27.273 34.0903 27.4486 34.266 27.4486 34.5002C27.4486 34.6758 27.273 34.8515 27.0388 34.8515Z" fill="#183453"/>
<path d="M33.8892 34.8515H30.0834C29.8492 34.8515 29.6735 34.6758 29.6735 34.5002C29.6735 34.266 29.8492 34.0903 30.0834 34.0903H33.8892C34.1234 34.0903 34.299 34.266 34.299 34.5002C34.299 34.6758 34.1234 34.8515 33.8892 34.8515Z" fill="#183453"/>
<path d="M27.0388 38.2475H11.1716C10.9959 38.2475 10.8203 38.0718 10.8203 37.8376C10.8203 37.662 10.9959 37.4863 11.1716 37.4863H27.0388C27.273 37.4863 27.4486 37.662 27.4486 37.8376C27.4486 38.0718 27.273 38.2475 27.0388 38.2475Z" fill="#183453"/>
<path d="M33.8892 38.2475H30.0834C29.8492 38.2475 29.6735 38.0718 29.6735 37.8376C29.6735 37.662 29.8492 37.4863 30.0834 37.4863H33.8892C34.1234 37.4863 34.299 37.662 34.299 37.8376C34.299 38.0718 34.1234 38.2475 33.8892 38.2475Z" fill="#183453"/>
<path d="M27.0388 41.5846H11.1716C10.9959 41.5846 10.8203 41.409 10.8203 41.1748C10.8203 40.9991 10.9959 40.8235 11.1716 40.8235H27.0388C27.273 40.8235 27.4486 40.9991 27.4486 41.1748C27.4486 41.409 27.273 41.5846 27.0388 41.5846Z" fill="#183453"/>
<path d="M33.8892 41.5846H30.0834C29.8492 41.5846 29.6735 41.409 29.6735 41.1748C29.6735 40.9991 29.8492 40.8235 30.0834 40.8235H33.8892C34.1234 40.8235 34.299 40.9991 34.299 41.1748C34.299 41.409 34.1234 41.5846 33.8892 41.5846Z" fill="#183453"/>
<path d="M27.0388 44.922H11.1716C10.9959 44.922 10.8203 44.7464 10.8203 44.5707C10.8203 44.3365 10.9959 44.1609 11.1716 44.1609H27.0388C27.273 44.1609 27.4486 44.3365 27.4486 44.5707C27.4486 44.7464 27.273 44.922 27.0388 44.922Z" fill="#183453"/>
<path d="M33.8892 44.922H30.0834C29.8492 44.922 29.6735 44.7464 29.6735 44.5707C29.6735 44.3365 29.8492 44.1609 30.0834 44.1609H33.8892C34.1234 44.1609 34.299 44.3365 34.299 44.5707C34.299 44.7464 34.1234 44.922 33.8892 44.922Z" fill="#183453"/>
<path d="M12.811 23.2587C10.4689 23.5514 8.47822 23.3172 7.07301 22.0876C5.35552 23.2587 3.42333 23.649 1.27648 23.2587C1.27648 32.6268 0.573883 30.5775 7.07301 36.4326C13.8063 30.2847 12.811 32.3926 12.811 23.2587Z" fill="#FFC000"/>
<path fill-rule="evenodd" clip-rule="evenodd" d="M7.0729 36.8422L6.83869 36.6665C6.01898 35.9053 5.25783 35.2613 4.67232 34.7343C0.983633 31.5141 0.925072 31.397 0.983622 25.7761C0.983622 25.0345 0.983622 24.1952 0.983622 23.2584V22.9071L1.33493 22.9657C3.3842 23.317 5.25782 22.9657 6.89724 21.8532L7.0729 21.7361L7.24855 21.8532C8.53666 22.9657 10.2932 23.317 12.7523 22.9657L13.1036 22.9071V23.2584C13.1036 24.4294 13.1036 25.4833 13.1036 26.3616C13.2207 31.3384 13.1622 31.397 9.29782 34.8514C8.71232 35.3589 8.02922 35.9639 7.24855 36.6665L7.0729 36.8422ZM1.56913 23.5512C1.56913 24.3709 1.56913 25.1125 1.56913 25.7761C1.51058 31.1628 1.51058 31.1628 5.08217 34.2659C5.66767 34.7929 6.31175 35.3784 7.0729 36.081C7.77551 35.4174 8.40004 34.8515 8.94651 34.383C12.6352 31.1042 12.6352 31.1042 12.5767 26.3616C12.5181 25.5419 12.5181 24.6636 12.5181 23.5512C10.1761 23.8244 8.36102 23.4536 7.0729 22.4387C5.39445 23.4926 3.55985 23.8634 1.56913 23.5512Z" fill="#183453"/>
<path fill-rule="evenodd" clip-rule="evenodd" d="M7.07293 36.8421C6.95583 36.8421 6.85825 36.8031 6.78018 36.725C5.96047 35.9639 5.1993 35.3198 4.6138 34.7929C0.866557 31.514 0.80801 31.4555 0.86656 25.7761C0.905594 25.0344 0.925115 24.1952 0.925115 23.2584C0.925115 23.1413 0.964138 23.0437 1.04221 22.9656C1.12027 22.8876 1.21786 22.8485 1.33496 22.8485C3.38423 23.2584 5.1993 22.8485 6.83872 21.7946C7.01437 21.6775 7.19003 21.6775 7.30713 21.7946C8.5367 22.8485 10.3518 23.1998 12.7523 22.8485C12.8694 22.8485 12.967 22.8876 13.0451 22.9656C13.1232 23.0437 13.1622 23.1413 13.1622 23.2584C13.1622 24.4294 13.2208 25.4833 13.2208 26.3616C13.2793 31.3384 13.2793 31.4555 9.3564 34.9099C8.7709 35.4174 8.08781 36.0224 7.30713 36.725C7.22906 36.8031 7.151 36.8421 7.07293 36.8421ZM1.68627 23.6682C1.68627 24.4489 1.66675 25.1515 1.62771 25.7761C1.62771 31.1627 1.62771 31.1627 5.0822 34.2074C5.6677 34.6758 6.33129 35.2613 7.07293 35.9639C7.73651 35.3393 8.32201 34.7928 8.82945 34.3244C12.5181 31.0456 12.5181 31.0456 12.4596 26.3616C12.4205 25.5809 12.401 24.6831 12.401 23.6682C10.1371 23.9415 8.34153 23.5706 7.01438 22.5558C5.41399 23.5706 3.63795 23.9415 1.68627 23.6682Z" fill="#183453"/>
<path fill-rule="evenodd" clip-rule="evenodd" d="M7.0729 29.1136C6.07753 29.1136 5.31638 28.2939 5.31638 27.3571C5.31638 26.3617 6.07753 25.6006 7.0729 25.6006C8.00971 25.6006 8.82942 26.3617 8.82942 27.3571C8.82942 28.2939 8.00971 29.1136 7.0729 29.1136ZM7.0729 26.3617C6.48739 26.3617 6.07753 26.7716 6.07753 27.3571C6.07753 27.8841 6.48739 28.3525 7.0729 28.3525C7.59985 28.3525 8.06825 27.8841 8.06825 27.3571C8.06825 26.7716 7.59985 26.3617 7.0729 26.3617Z" fill="white"/>
<path fill-rule="evenodd" clip-rule="evenodd" d="M7.83405 31.3969H6.31173C6.19463 31.3969 6.09704 31.3579 6.01898 31.2798C5.94091 31.1627 5.90189 31.0456 5.90189 30.9285L6.31173 28.5864C6.31173 28.5084 6.35077 28.4303 6.42884 28.3523C6.54594 28.2742 6.66304 28.2546 6.78015 28.2937C7.01435 28.3522 7.13145 28.3522 7.36565 28.2937C7.48275 28.2546 7.59984 28.2742 7.71694 28.3523C7.79501 28.3913 7.85357 28.4693 7.8926 28.5864L8.18536 30.9285C8.22439 31.0456 8.20487 31.1627 8.1268 31.2798C8.04874 31.3579 7.95115 31.3969 7.83405 31.3969ZM6.72159 30.6357H7.36565L7.18999 29.1134C7.11192 29.1134 7.03386 29.1134 6.95579 29.1134L6.72159 30.6357Z" fill="white"/>
<path d="M16.5582 10.7869H28.5025C29.615 10.7869 30.5518 11.7237 30.5518 12.8361V14.9439H14.4503V12.8361C14.4503 11.7237 15.3872 10.7869 16.5582 10.7869Z" fill="#08A5E2"/>
<path fill-rule="evenodd" clip-rule="evenodd" d="M30.8445 15.237H14.1576V12.8364C14.1576 11.5483 15.2115 10.4944 16.5582 10.4944H28.5025C29.7906 10.4944 30.8445 11.5483 30.8445 12.8364V15.237ZM14.7431 14.6515H30.259V12.8949C30.259 11.8996 29.4979 11.0799 28.5025 11.0799H16.5582C15.5628 11.0799 14.7431 11.8996 14.7431 12.8949V14.6515Z" fill="#183453"/>
<path fill-rule="evenodd" clip-rule="evenodd" d="M30.5517 15.2957H14.4503C14.2747 15.2957 14.099 15.12 14.099 14.9444V12.8366C14.099 11.4899 15.2115 10.3774 16.5581 10.3774H28.5025C29.8491 10.3774 30.9616 11.4899 30.9616 12.8366V14.9444C30.9616 15.12 30.7859 15.2957 30.5517 15.2957ZM14.8602 14.5345H30.2005V12.8366C30.2005 11.8998 29.4393 11.1386 28.5025 11.1386H16.5581C15.6213 11.1386 14.8602 11.8998 14.8602 12.8366V14.5345Z" fill="#183453"/>
<path d="M18.8417 7.74268H20.6567C21.0081 8.38673 21.7107 8.85512 22.5304 8.85512C23.2915 8.85512 23.9941 8.38673 24.3455 7.74268H26.1605V10.7873H18.8417V7.74268Z" fill="#08A5E2"/>
<path fill-rule="evenodd" clip-rule="evenodd" d="M26.4532 11.0801H18.5489V7.44995H20.8324L20.9495 7.6256C21.2422 8.2111 21.8863 8.56239 22.5303 8.56239C23.1744 8.56239 23.7599 8.2111 24.1112 7.6256L24.1698 7.44995H26.4532V11.0801ZM19.1344 10.4946H25.8677V8.09399H24.5211C24.0527 8.73805 23.3501 9.1479 22.5303 9.1479C21.7106 9.1479 20.9495 8.73805 20.4811 8.09399H19.1344V10.4946Z" fill="#183453"/>
<path fill-rule="evenodd" clip-rule="evenodd" d="M26.1604 11.1384H18.8416C18.666 11.1384 18.4903 10.9627 18.4903 10.7871V7.74244C18.4903 7.56679 18.666 7.39111 18.8416 7.39111H20.6567C20.8323 7.39111 20.9494 7.44969 21.008 7.56679C21.3008 8.09375 21.8863 8.44505 22.5303 8.44505C23.1158 8.44505 23.7013 8.09375 24.0526 7.56679C24.1112 7.44969 24.2283 7.39111 24.3454 7.39111H26.1604C26.3946 7.39111 26.5703 7.56679 26.5703 7.74244V10.7871C26.5703 10.9627 26.3946 11.1384 26.1604 11.1384ZM19.2515 10.3772H25.8092V8.1523H24.5796C24.1112 8.79636 23.35 9.20621 22.5303 9.20621C21.7106 9.20621 20.9494 8.79636 20.481 8.1523H19.2515V10.3772Z" fill="#183453"/>
<path d="M22.5304 4.58105C23.7014 4.58105 24.6382 5.57642 24.6382 6.74744C24.6382 7.8599 23.7014 8.85525 22.5304 8.85525C21.3594 8.85525 20.4225 7.8599 20.4225 6.74744C20.4225 5.57642 21.3594 4.58105 22.5304 4.58105Z" fill="#FFC000"/>
<path fill-rule="evenodd" clip-rule="evenodd" d="M22.5303 9.14778C21.1836 9.14778 20.1297 8.03534 20.1297 6.74722C20.1297 5.40056 21.1836 4.28809 22.5303 4.28809C23.8184 4.28809 24.9309 5.40056 24.9309 6.74722C24.9309 8.03534 23.8184 9.14778 22.5303 9.14778ZM22.5303 4.87359C21.5349 4.87359 20.7152 5.69331 20.7152 6.74722C20.7152 7.74258 21.5349 8.56228 22.5303 8.56228C23.5257 8.56228 24.3454 7.74258 24.3454 6.74722C24.3454 5.69331 23.5257 4.87359 22.5303 4.87359Z" fill="#183453"/>
<path fill-rule="evenodd" clip-rule="evenodd" d="M22.5304 9.20605C21.1252 9.20605 20.0127 8.09358 20.0127 6.74692C20.0127 5.3417 21.1252 4.22925 22.5304 4.22925C23.877 4.22925 24.9895 5.3417 24.9895 6.74692C24.9895 8.09358 23.877 9.20605 22.5304 9.20605ZM22.5304 4.9904C21.535 4.9904 20.7739 5.75156 20.7739 6.74692C20.7739 7.68373 21.535 8.4449 22.5304 8.4449C23.4672 8.4449 24.2283 7.68373 24.2283 6.74692C24.2283 5.75156 23.4672 4.9904 22.5304 4.9904Z" fill="#183453"/>
</svg>
