<svg width="68" height="53" viewBox="0 0 68 53" fill="none" xmlns="http://www.w3.org/2000/svg">
<g clip-path="url(#clip0_179_4372)">
<path d="M7.87936 39.0986H0.990833C0.519512 39.0986 0.142456 39.4784 0.142456 39.9531C0.142456 40.4205 0.519512 40.8003 0.990833 40.8003H7.87936C8.34343 40.8003 8.72774 40.4205 8.72774 39.9531C8.72774 39.4784 8.34343 39.0986 7.87936 39.0986Z" fill="#183453"/>
<path d="M25.6445 45.613H25.6373L9.56886 45.6496C9.10479 45.6496 8.72774 46.0293 8.72774 46.4967C8.72774 46.9715 9.10479 47.3512 9.57611 47.3512L25.6445 47.3147C26.1086 47.3147 26.4856 46.9349 26.4856 46.4675C26.4856 45.9928 26.1086 45.613 25.6445 45.613Z" fill="#183453"/>
<path d="M41.1473 43.9114H30.9306C30.4592 43.9114 30.0822 44.2912 30.0822 44.7659C30.0822 45.2333 30.4592 45.6131 30.9306 45.6131H41.1473C41.6114 45.6131 41.9885 45.2333 41.9885 44.7659C41.9885 44.2912 41.6114 43.9114 41.1473 43.9114Z" fill="#183453"/>
<path d="M50.0299 39.4403H16.7837V1.32397H50.0299V39.4403Z" fill="white"/>
<path fill-rule="evenodd" clip-rule="evenodd" d="M50.2982 40.1632H16.5081C16.2616 40.1632 16.0658 39.9587 16.0658 39.7177V1.04634C16.0658 0.798021 16.2616 0.60083 16.5081 0.60083H50.2982C50.5447 0.60083 50.7478 0.798021 50.7478 1.04634V39.7177C50.7478 39.9587 50.5447 40.1632 50.2982 40.1632ZM18.2049 38.7171H48.6087C48.993 38.7171 49.312 38.3958 49.312 38.0087V2.75532C49.312 2.36094 48.993 2.0469 48.6087 2.0469H18.2049C17.8133 2.0469 17.5015 2.36094 17.5015 2.75532V38.0087C17.5015 38.3958 17.8133 38.7171 18.2049 38.7171Z" fill="#183453"/>
<path d="M43.9172 14.2727H22.8964C22.4975 14.2727 22.1785 13.9441 22.1785 13.5497C22.1785 13.148 22.4975 12.8267 22.8964 12.8267H43.9172C44.3088 12.8267 44.6351 13.148 44.6351 13.5497C44.6351 13.9441 44.3088 14.2727 43.9172 14.2727Z" fill="#183453"/>
<path d="M43.9172 23.0076H22.8964C22.4975 23.0076 22.1785 22.6789 22.1785 22.2846C22.1785 21.8829 22.4975 21.5615 22.8964 21.5615H43.9172C44.3088 21.5615 44.6351 21.8829 44.6351 22.2846C44.6351 22.6789 44.3088 23.0076 43.9172 23.0076Z" fill="#183453"/>
<path d="M43.9172 31.6035H22.8964C22.4975 31.6035 22.1785 31.2749 22.1785 30.8805C22.1785 30.4788 22.4975 30.1575 22.8964 30.1575H43.9172C44.3088 30.1575 44.6351 30.4788 44.6351 30.8805C44.6351 31.2749 44.3088 31.6035 43.9172 31.6035Z" fill="#183453"/>
<path d="M43.3372 20.1882L42.409 25.6L42.4888 25.5854L47.7821 24.6652V24.6433L45.5995 22.4523L43.3517 20.1882H43.3372Z" fill="white"/>
<path fill-rule="evenodd" clip-rule="evenodd" d="M41.9667 26.0457L43.0326 19.8232H43.4822L43.6054 19.9328L48.1446 24.4974V24.9502L47.8473 25.0232L41.9667 26.0457ZM43.5692 20.9187L42.8441 25.1547L47.057 24.4244L43.5692 20.9187Z" fill="#183453"/>
<path d="M42.409 25.6002L42.4888 25.5855L43.6489 25.3664L43.1776 24.8917L42.6265 24.3367L42.409 25.6002Z" fill="#183453"/>
<path d="M43.3154 20.1667L45.5922 22.4599L47.7821 24.6655L55.9685 16.42L53.7787 14.2144L51.5019 11.9285L43.3154 20.1667Z" fill="#08A5E2"/>
<path fill-rule="evenodd" clip-rule="evenodd" d="M46.9844 24.8847L43.1051 20.9774C42.6628 20.5318 42.6628 19.8088 43.1051 19.3633L50.7042 11.7094C51.1466 11.2639 51.8644 11.2639 52.3067 11.7094L56.1861 15.6167C56.6284 16.0622 56.6284 16.7852 56.1861 17.2307L48.5869 24.8847C48.1446 25.3302 47.4268 25.3302 46.9844 24.8847ZM44.6423 20.4734L47.4775 23.3363C47.6443 23.5043 47.9198 23.5043 48.0866 23.3363L54.6488 16.7341C54.8156 16.5588 54.8156 16.2886 54.6488 16.1133L51.8064 13.2577C51.6396 13.0824 51.3641 13.0824 51.1973 13.2577L44.6423 19.8599C44.4683 20.0279 44.4683 20.3054 44.6423 20.4734Z" fill="#183453"/>
<path d="M60.921 2.44112L60.2612 3.09843L59.6738 3.6973L52.8071 10.6136L55.0839 12.8995L57.2737 15.1052L64.1405 8.19618L64.7278 7.5973L65.2789 7.04225C65.2789 7.04225 67.5775 4.83663 65.3514 2.55798C65.3369 2.55067 65.3369 2.54337 65.3297 2.53607C63.0528 0.250111 60.921 2.44112 60.921 2.44112Z" fill="#FFC000"/>
<path fill-rule="evenodd" clip-rule="evenodd" d="M57.2737 15.8284C57.0852 15.8284 56.9039 15.7553 56.7662 15.6166L52.2995 11.125C52.169 10.9862 52.0892 10.8036 52.0892 10.6137C52.0892 10.4166 52.169 10.234 52.2995 10.1025L60.4134 1.93003C60.457 1.88621 61.5591 0.768799 63.1181 0.768799C64.097 0.768799 65.0106 1.19239 65.8373 2.02498C65.8445 2.03959 65.859 2.05419 65.8735 2.0688C66.6639 2.88678 67.0554 3.78509 67.0409 4.74914C67.0119 6.36318 65.8228 7.51711 65.772 7.56824L57.7813 15.6166C57.6435 15.7553 57.4623 15.8284 57.2737 15.8284ZM54.2863 11.0739L56.8097 13.6227C57.0634 13.8784 57.4768 13.8784 57.7378 13.6227L64.7713 6.53116C64.7931 6.51655 65.5907 5.72048 65.6052 4.71992C65.6125 4.15026 65.3514 3.5952 64.8366 3.06936C64.8294 3.06206 64.8149 3.04745 64.8076 3.03284C64.2565 2.48509 63.6909 2.21487 63.1181 2.21487C62.1682 2.21487 61.4359 2.9452 61.4286 2.95251L54.2863 10.1463C54.0325 10.4019 54.0325 10.8182 54.2863 11.0739Z" fill="#183453"/>
<path d="M51.5019 11.9282L53.7787 14.2142L55.9685 16.4198L56.8242 15.558L54.6343 13.3524L52.3575 11.0664L51.5019 11.9282Z" fill="white"/>
<path fill-rule="evenodd" clip-rule="evenodd" d="M55.9685 16.931L50.9943 11.9282L52.3575 10.5552L57.3317 15.558L55.9685 16.931ZM52.0094 11.9282L55.9685 15.9085L56.3166 15.5653L52.3575 11.5776L52.0094 11.9282Z" fill="#183453"/>
<path d="M58.869 1.9812L58.8617 1.9739C58.6514 1.7548 58.3034 1.7548 58.0858 1.9739L52.3357 7.76547C52.1182 7.97727 52.1182 8.32783 52.3357 8.54693L52.343 8.55423C52.5533 8.76603 52.9013 8.76603 53.1189 8.55423L58.869 2.75536C59.0865 2.54356 59.0865 2.193 58.869 1.9812Z" fill="#183453"/>
<path d="M14.3268 23.8696C14.486 24.0288 14.6452 24.2676 14.6452 24.5859C14.6452 24.9043 14.5656 25.1431 14.3268 25.3022C14.0881 25.4614 13.9289 25.6206 13.6105 25.6206C13.0534 25.6206 12.5758 25.1431 12.5758 24.5859C12.5758 24.3472 12.6554 24.0288 12.8942 23.8696C13.133 23.7104 13.2921 23.5513 13.6105 23.5513C13.9289 23.5513 14.1677 23.7104 14.3268 23.8696Z" fill="#FFC000"/>
<path d="M13.3718 7.79248C13.5309 7.95166 13.6901 8.19042 13.6901 8.50879C13.6901 8.82715 13.6105 9.06594 13.3718 9.22512C13.133 9.3843 12.9738 9.54348 12.6554 9.54348C12.0983 9.54348 11.6208 9.06592 11.6208 8.50879C11.6208 8.27002 11.7004 7.95166 11.9391 7.79248C12.0983 7.6333 12.3371 7.47412 12.6554 7.47412C12.9738 7.47412 13.2126 7.6333 13.3718 7.79248Z" fill="#FFC000"/>
<path fill-rule="evenodd" clip-rule="evenodd" d="M11.7004 35.649C10.029 35.649 8.67593 34.2959 8.67593 32.6245C8.67593 30.8735 10.029 29.5205 11.7004 29.5205C13.3718 29.5205 14.7248 30.8735 14.7248 32.6245C14.7248 34.2959 13.2922 35.649 11.7004 35.649ZM11.7004 31.6694C11.1433 31.6694 10.6657 32.147 10.6657 32.7041C10.6657 33.2613 11.1433 33.7388 11.7004 33.7388C12.2575 33.7388 12.7351 33.2613 12.7351 32.7041C12.7351 32.147 12.1779 31.6694 11.7004 31.6694Z" fill="#FFC000"/>
</g>
<defs>
<clipPath id="clip0_179_4372">
<rect width="67" height="52" fill="white" transform="translate(0.0916748 0.578613)"/>
</clipPath>
</defs>
</svg>
