<svg width="52" height="51" viewBox="0 0 52 51" fill="none" xmlns="http://www.w3.org/2000/svg">
<path d="M24.1019 4.00331L25.8304 5.89883L28.4196 6.18928L24.3409 1.70455L19.4944 5.18808L22.0524 5.47504L24.1019 4.00331Z" fill="#183453"/>
<path fill-rule="evenodd" clip-rule="evenodd" d="M48.2302 25.1359V44.351C48.2302 47.4762 45.393 50.019 41.9107 50.019H6.44933C2.96708 50.019 0.129913 47.4762 0.129913 44.351V25.1359C0.129913 23.971 0.518223 22.8937 1.18837 21.9981H1.33868L4.38879 19.2424V21.566L3.25518 22.5869L4.38879 23.4324L5.01509 23.9021V11.2633C5.01509 8.46367 7.28858 6.19019 10.0882 6.19019L37.0193 8.95529C39.8189 8.95529 42.0924 11.2288 42.0924 14.0284V24.0399L40.8397 25.0795V14.0284C40.8397 11.924 39.1237 10.2079 37.0193 10.2079L10.0882 7.4428C7.98378 7.4428 6.2677 9.15887 6.2677 11.2633V24.8353L19.3011 34.543L24.18 31.4992L29.2406 34.662L40.2134 25.6056L42.7187 23.5388L44.5788 22.0044C44.5746 22.0002 44.5704 21.9981 44.5663 21.9981H44.5913L42.7187 20.3509V18.0587L47.297 22.0795L47.2531 22.1171C47.8732 22.9877 48.2302 24.0274 48.2302 25.1359ZM5.02762 23.9146L5.64766 24.3718L5.73534 24.4345L5.02762 23.9146ZM2.16541 45.2466L18.274 35.1881L2.49108 23.4261C2.20925 23.9397 2.05267 24.5221 2.05267 25.1359V44.3572C2.05267 44.6641 2.09025 44.9585 2.16541 45.2466ZM45.4995 46.6182L24.1738 33.3092L2.84808 46.6182C3.64975 47.6328 4.96499 48.2967 6.44933 48.2967H41.9045C43.3888 48.2967 44.7041 47.6328 45.4995 46.6182ZM46.3011 25.1359C46.3011 24.2528 45.9755 23.4324 45.4243 22.7747L30.2489 35.2946L46.1884 45.2466C46.2636 44.9585 46.3011 44.6641 46.3011 44.3572V25.1359Z" fill="#183453"/>
<rect x="10.7236" y="14.0154" width="11.6043" height="11.132" rx="1" fill="#08A5E2"/>
<line x1="25.371" y1="15.4502" x2="34.7103" y2="15.4502" stroke="#FFC000"/>
<line x1="25.371" y1="19.0811" x2="34.7103" y2="19.0811" stroke="#FFC000"/>
<line x1="25.371" y1="23.0842" x2="34.7103" y2="23.0842" stroke="#FFC000"/>
<path d="M43.3903 11.4789L49.7217 10.5211C49.6163 10.999 49.5378 11.4846 49.4863 11.978C49.4569 12.4732 49.4502 12.9591 49.4665 13.4359L43.3903 11.4789Z" fill="#183453"/>
<path d="M41.892 8.90878L45.2584 3.46167C45.5546 3.85131 45.874 4.22535 46.2169 4.58382C46.5754 4.9267 46.9417 5.2462 47.3157 5.54233L41.892 8.90878Z" fill="#183453"/>
<path d="M38.7844 7.89401L38.3575 1.50482C38.8249 1.64974 39.3023 1.76839 39.7897 1.86076C40.2807 1.9314 40.7644 1.97848 41.2409 2.00201L38.7844 7.89401Z" fill="#183453"/>
</svg>
