<svg width="54" height="52" viewBox="0 0 54 52" fill="none" xmlns="http://www.w3.org/2000/svg">
<g clip-path="url(#clip0_179_3378)">
<path d="M22.5929 28.1574C22.7494 28.1303 22.9068 28.0977 23.0541 28.0564C24.7355 27.575 25.7956 25.9574 25.4661 24.2465C25.1384 22.5844 23.6134 21.3926 21.8949 21.3742C21.6976 21.3683 21.4952 21.3853 21.2901 21.4137C19.3471 21.7111 18.0598 23.4619 18.4224 25.3259C18.7794 27.1886 20.6439 28.4533 22.5929 28.1574Z" fill="#FFC000"/>
<path d="M27.0228 20.5152C26.9155 20.4247 26.8106 20.332 26.6989 20.2454C23.8061 17.995 20.035 17.5773 16.8625 19.1556C14.2953 20.4326 12.4608 22.8451 11.8284 25.7744C11.3656 27.9157 11.6552 30.1683 12.6455 32.1171C12.7908 32.4009 12.9439 32.669 13.1139 32.9363L13.1258 32.9288C13.1376 32.9549 13.1444 32.9825 13.1605 33.0072C13.7904 33.9724 14.5788 34.8013 15.4953 35.4659C15.6006 35.5446 15.7069 35.6177 15.8182 35.6928C15.8185 35.6932 15.8189 35.6932 15.8192 35.6932L15.8196 35.6935C16.3876 36.0718 16.9932 36.3764 17.6241 36.6212C18.7407 37.1498 19.9658 37.4526 21.2027 37.4587C22.5777 37.4655 23.9495 37.1351 25.1936 36.541C27.355 35.5084 29.1283 33.6557 30.0373 31.426C30.946 29.1963 30.9718 26.6105 30.071 24.3841C29.4447 22.838 28.366 21.4898 27.0231 20.5152L27.0228 20.5152ZM14.4836 32.6257C14.9596 32.1665 15.5358 31.7481 16.2949 31.309C17.8782 30.396 19.1738 30.1133 20.4948 30.3849C20.6276 30.4128 20.755 30.4454 20.895 30.4901C21.012 30.5249 21.1322 30.5639 21.2589 30.6154C22.3036 31.0127 23.241 31.7478 23.8985 32.6865C24.348 33.3268 24.6529 34.0702 24.8608 35.0407C24.8691 35.0761 24.8769 35.1126 24.8845 35.1488C24.7234 35.2347 24.5613 35.3181 24.3952 35.3932C24.2836 35.4437 24.1748 35.5002 24.0613 35.5453C23.7127 35.6842 23.3566 35.8052 22.9902 35.8964C22.8946 35.9208 22.7944 35.9412 22.6953 35.9619C22.6831 35.9644 22.6734 35.9666 22.6605 35.9691C22.6394 35.9734 22.6129 35.9787 22.6126 35.9787C21.5077 36.1981 20.3857 36.1878 19.2778 35.9476C18.2617 35.7279 17.3097 35.3256 16.449 34.7526C16.3538 34.6893 16.2639 34.628 16.1677 34.555C15.8563 34.3292 15.5689 34.0762 15.2937 33.8103C15.2414 33.7594 15.1874 33.7108 15.1362 33.6585C14.8842 33.4019 14.6505 33.1267 14.4326 32.8368C14.4093 32.806 14.3871 32.7724 14.3642 32.7412C14.4032 32.7026 14.4426 32.6639 14.4838 32.6256L14.4836 32.6257ZM12.9346 26.0132C13.5019 23.3842 15.0759 21.3083 17.3661 20.1692C18.5038 19.6034 19.7063 19.3242 20.9068 19.3242C22.6862 19.3242 24.4607 19.938 26.005 21.1384C28.623 23.1751 29.8298 26.384 29.1534 29.5142C28.7178 31.5355 27.5461 33.3243 25.898 34.5319C25.6604 33.5473 25.3204 32.7428 24.8254 32.0373C24.0391 30.915 22.9156 30.0346 21.6738 29.5628C21.5242 29.5016 21.3675 29.4494 21.2279 29.4089C21.0658 29.3567 20.9015 29.3155 20.7268 29.278C19.5368 29.031 18.3468 29.157 17.0616 29.6738C16.1801 29.9089 15.3283 30.294 14.4142 30.887C14.1261 31.0746 13.8573 31.2753 13.5986 31.4829C12.7744 29.794 12.5359 27.8585 12.9346 26.0132Z" fill="#183453"/>
<path d="M11.5709 14.9613C11.6114 14.9703 11.6511 14.9738 11.6912 14.9738C11.9521 14.9738 12.1865 14.7927 12.2438 14.5272L12.6718 12.5423L14.321 12.8981C14.6291 12.9664 14.9273 12.7699 14.9938 12.4639C15.0593 12.1583 14.8657 11.8577 14.5597 11.7911L12.3572 11.3158C12.209 11.2864 12.0566 11.3129 11.9313 11.3938C11.8053 11.4747 11.7162 11.6032 11.6844 11.7496L11.1368 14.2881C11.0713 14.5945 11.2653 14.8951 11.5709 14.9613Z" fill="#183453"/>
<path d="M29.4324 45.3611C29.1261 45.3006 28.8262 45.4899 28.7596 45.7952L28.3011 47.9179L26.6566 47.5629C26.351 47.4974 26.0503 47.691 25.9838 47.997C25.9183 48.3026 26.1119 48.6033 26.4179 48.6698L28.6157 49.1444C28.6554 49.1526 28.6952 49.1569 28.7352 49.1569C28.843 49.1569 28.9496 49.1262 29.0416 49.0664C29.1676 48.9855 29.2567 48.857 29.2885 48.7106L29.8662 46.0343C29.932 45.7279 29.7381 45.4273 29.4324 45.3611Z" fill="#183453"/>
<path d="M47.2116 16.5667C47.252 10.8886 43.3499 5.53183 37.9331 3.82951C32.5181 2.12811 26.2515 4.2894 23.0374 8.96963C23.0016 9.02152 22.9826 9.07914 22.9665 9.13641C22.6358 9.27885 22.3309 9.53402 22.0768 9.92091C21.9995 10.0387 21.9286 10.1689 21.8624 10.3053C19.0695 9.75162 16.4675 9.31322 13.973 8.98356C11.7559 8.50971 9.52905 10.111 9.01259 12.5042C6.4264 21.2955 4.31417 31.0794 2.74012 41.5499C2.21473 43.9925 3.58619 46.3696 5.76572 46.841C12.5564 48.7429 19.7233 50.2879 27.0328 51.4271C27.298 51.4854 27.5639 51.5133 27.8277 51.5133C28.1659 51.5133 28.4962 51.4521 28.8197 51.3648C30.1353 51.1626 31.3959 50.3144 32.1922 49.206C33.3339 47.6166 33.7447 45.6335 34.1435 43.7178C35.6531 36.4583 37.3742 29.2435 39.3036 22.0842C39.6679 20.7317 40.0433 19.3324 39.83 17.948C39.5924 16.4058 38.5609 15.0283 37.1935 14.2953C37.0721 14.2302 36.5535 13.9321 36.3077 13.9167C36.0543 13.7953 35.7919 13.6966 35.5181 13.6372C32.7509 12.8433 30.1777 12.1727 27.6677 11.5828L27.8613 11.1247C27.9651 10.8803 27.8778 10.6054 27.667 10.4522C29.4955 8.57328 31.5369 7.68675 33.8761 7.75446C35.8721 7.81566 37.746 8.70714 38.8888 10.1381C40.0627 11.6072 40.4488 13.4922 40.8583 15.4868C41.2273 17.2892 41.6099 19.152 42.6209 20.7457C43.1567 21.5892 43.8381 22.3072 44.5324 22.9857C44.1373 23.8737 43.6652 24.7963 43.1119 25.7629C42.4305 26.9529 41.6764 28.134 40.9477 29.2778C39.8969 30.9245 38.81 32.628 37.9032 34.4107C28.0161 53.8288 46.9738 49.6886 47.2116 16.5667ZM21.8288 13.8144C22.2128 14.4289 22.9472 14.8577 23.8441 14.9919C24.0284 15.0198 24.2109 15.0331 24.3895 15.0331C24.9962 15.0331 25.5466 14.8691 25.9653 14.5803C26.4832 14.7299 26.971 14.8827 27.4373 15.0488C28.1456 15.2972 28.2175 15.4446 28.2243 15.4672C28.2383 15.6501 28.1778 15.7309 28.1109 15.7922C27.8242 16.0531 27.0668 16.1479 26.3042 16.014C25.8958 15.9471 25.563 15.8712 25.213 15.7922C24.8608 15.712 24.4915 15.6286 24.0215 15.5452C22.9568 15.3566 21.9353 15.12 20.9819 14.8394L20.7529 14.7761C20.2107 14.6279 19.0826 14.3201 19.0965 13.9035C19.0987 13.7826 19.2844 13.5933 19.594 13.4827C20.2117 13.2583 20.9433 13.4089 21.7178 13.5839C21.7539 13.6613 21.7837 13.7425 21.8288 13.8144ZM26.6188 11.1559L26.0434 12.5177C25.8694 12.9282 25.6898 13.3526 25.4024 13.6017C25.1164 13.8501 24.5721 13.956 24.0112 13.873C23.4593 13.7903 22.9908 13.5384 22.7879 13.2148C22.4071 12.6054 22.5212 11.3066 23.023 10.5424C23.105 10.4172 23.3133 10.1387 23.5344 10.1387C23.5477 10.1387 23.5602 10.1395 23.5727 10.1409C24.5698 10.2901 25.6139 10.6395 26.6188 11.1559ZM35.2408 14.7327C35.957 14.8898 36.5812 15.3368 36.9981 15.9936C37.4917 16.7688 37.6502 17.7633 37.4283 18.7465C35.6821 28.4318 33.4847 38.1546 30.8924 47.6704C30.4834 49.4784 28.8618 50.667 27.2398 50.3148C19.9405 49.1763 12.8186 47.6409 6.03778 45.742C4.43441 45.3949 3.45159 43.6208 3.85243 41.7529C5.42501 31.298 7.52625 21.5652 10.1088 12.7842C10.5039 10.9582 12.1269 9.74778 13.7804 10.0986C16.2517 10.4271 18.7912 10.8541 21.5105 11.3913C21.449 11.7116 21.4164 12.0412 21.4272 12.3655C20.7053 12.2252 19.939 12.1525 19.2086 12.4192C18.4527 12.689 17.976 13.2495 17.9634 13.8744C17.919 15.1771 19.5056 15.6105 20.454 15.869L20.667 15.928C21.6551 16.2183 22.717 16.4652 23.8229 16.6603C24.2724 16.7405 24.6253 16.8203 24.9621 16.8968C25.3336 16.981 25.6865 17.0604 26.1138 17.1313C26.3836 17.1778 26.681 17.2064 26.9824 17.2064C27.681 17.2064 28.4036 17.0547 28.8702 16.6309C29.2231 16.311 29.3895 15.8801 29.3512 15.3783C29.2782 14.4957 28.2873 14.1486 27.8127 13.9822C27.4762 13.8626 27.1262 13.7495 26.7669 13.639C26.8918 13.4067 26.9952 13.1719 27.0847 12.9597L27.22 12.6397C29.7718 13.2345 32.3891 13.916 35.2408 14.7327ZM43.5765 20.138C42.6768 18.7203 42.3321 17.039 41.9664 15.2584C41.5487 13.2195 41.116 11.1122 39.7729 9.43087C38.4258 7.74339 36.2347 6.69332 33.9112 6.6214C31.1598 6.53372 28.7099 7.64178 26.6195 9.90079C25.86 9.55363 25.0869 9.30383 24.325 9.14062C27.3192 5.25424 32.9038 3.43474 37.5945 4.90956C42.4679 6.44064 46.116 11.449 46.0798 16.5583C46.068 18.2375 45.718 19.9704 44.9989 21.854C44.4635 21.3125 43.9723 20.7621 43.5765 20.138Z" fill="#183453"/>
<path d="M12.5185 7.13427L13.6459 1.48571C14.0178 1.72117 14.4046 1.93615 14.8062 2.13066C15.216 2.30713 15.625 2.46145 16.0333 2.59362L12.5185 7.13427Z" fill="#183453"/>
<path d="M9.88573 7.61519L6.30848 3.1007C6.72867 2.96946 7.14284 2.81368 7.55098 2.63336C7.9507 2.43508 8.33304 2.22305 8.69799 1.99728L9.88573 7.61519Z" fill="#183453"/>
<path d="M8.07642 9.93307L2.54142 8.33898C2.80705 7.98794 3.0535 7.62044 3.28079 7.23646C3.49079 6.84277 3.67865 6.448 3.84438 6.05215L8.07642 9.93307Z" fill="#183453"/>
</g>
<defs>
<clipPath id="clip0_179_3378">
<rect width="53" height="51" fill="white" transform="translate(0.0915833 0.826904)"/>
</clipPath>
</defs>
</svg>
