<svg width="99" height="20" viewBox="0 0 99 20" fill="none" xmlns="http://www.w3.org/2000/svg">
<path d="M14.9899 5.39051V19.2917H12.6815V5.39051H14.9899Z" fill="white"/>
<path d="M19.7105 7.64819C20.1164 6.85335 20.6914 6.23608 21.4355 5.79639C22.1965 5.35669 23.1182 5.13684 24.2005 5.13684V7.52135H23.5917C21.0043 7.52135 19.7105 8.925 19.7105 11.7323V19.2917H17.4021V5.39051H19.7105V7.64819Z" fill="white"/>
<path d="M42.0602 5.13684C43.1425 5.13684 44.1065 5.36515 44.952 5.82175C45.7976 6.26145 46.4656 6.92945 46.9561 7.82576C47.4465 8.72207 47.6917 9.81285 47.6917 11.0981V19.2917H45.4087V11.4279C45.4087 10.0412 45.062 8.98419 44.3686 8.257C43.6921 7.5129 42.7705 7.14085 41.6036 7.14085C40.4029 7.14085 39.4474 7.52981 38.7371 8.30774C38.0268 9.06875 37.6717 10.1764 37.6717 11.6308V19.2917H35.3886V11.4279C35.3886 10.0412 35.0419 8.98419 34.3486 8.257C33.6721 7.5129 32.7504 7.14085 31.5836 7.14085C30.3828 7.14085 29.4273 7.52981 28.7171 8.30774C28.0068 9.06875 27.6516 10.1764 27.6516 11.6308V19.2917H25.3432V5.39051H27.6516V7.39452C28.1083 6.66733 28.7171 6.10925 29.4781 5.72029C30.256 5.33132 31.11 5.13684 32.0402 5.13684C33.2071 5.13684 34.2387 5.39897 35.135 5.92322C36.0313 6.44748 36.6993 7.21695 37.139 8.23163C37.5279 7.25077 38.1706 6.48976 39.0669 5.94859C39.9632 5.40742 40.9609 5.13684 42.0602 5.13684Z" fill="white"/>
<path d="M49.0938 12.2904C49.0938 10.8698 49.3813 9.62683 49.9563 8.56141C50.5313 7.47907 51.3177 6.64196 52.3155 6.05006C53.3301 5.45816 54.4548 5.16221 55.6893 5.16221C56.9069 5.16221 57.9639 5.42434 58.8602 5.94859C59.7565 6.47284 60.4245 7.13239 60.8642 7.92723V5.39051H63.198V19.2917H60.8642V16.7043C60.4076 17.516 59.7227 18.1925 58.8094 18.7336C57.9131 19.2579 56.8646 19.52 55.6639 19.52C54.4294 19.52 53.3132 19.2156 52.3155 18.6068C51.3177 17.998 50.5313 17.144 49.9563 16.0447C49.3813 14.9455 49.0938 13.694 49.0938 12.2904ZM60.8642 12.3157C60.8642 11.2672 60.6528 10.354 60.23 9.57609C59.8072 8.79817 59.2322 8.20627 58.505 7.80039C57.7948 7.37761 57.0084 7.16621 56.1459 7.16621C55.2834 7.16621 54.497 7.36915 53.7867 7.77503C53.0765 8.1809 52.5099 8.7728 52.0872 9.55073C51.6644 10.3287 51.453 11.2419 51.453 12.2904C51.453 13.3558 51.6644 14.2859 52.0872 15.0808C52.5099 15.8587 53.0765 16.459 53.7867 16.8818C54.497 17.2877 55.2834 17.4906 56.1459 17.4906C57.0084 17.4906 57.7948 17.2877 58.505 16.8818C59.2322 16.459 59.8072 15.8587 60.23 15.0808C60.6528 14.2859 60.8642 13.3643 60.8642 12.3157Z" fill="white"/>
<path d="M67.8853 7.97796C68.3589 7.1493 69.0522 6.47284 69.9654 5.94859C70.8787 5.42434 71.9187 5.16221 73.0856 5.16221C74.3371 5.16221 75.4617 5.45816 76.4594 6.05006C77.4572 6.64196 78.2436 7.47907 78.8186 8.56141C79.3936 9.62683 79.6811 10.8698 79.6811 12.2904C79.6811 13.694 79.3936 14.9455 78.8186 16.0447C78.2436 17.144 77.4488 17.998 76.4341 18.6068C75.4363 19.2156 74.3201 19.52 73.0856 19.52C71.8849 19.52 70.8279 19.2579 69.9147 18.7336C69.0184 18.2094 68.3419 17.5414 67.8853 16.7296V19.2917H65.5769V0.52002H67.8853V7.97796ZM77.3219 12.2904C77.3219 11.2419 77.1105 10.3287 76.6877 9.55073C76.265 8.7728 75.69 8.1809 74.9628 7.77503C74.2525 7.36915 73.4661 7.16621 72.6036 7.16621C71.7581 7.16621 70.9717 7.37761 70.2445 7.80039C69.5342 8.20627 68.9592 8.80662 68.5195 9.60146C68.0967 10.3794 67.8853 11.2841 67.8853 12.3157C67.8853 13.3643 68.0967 14.2859 68.5195 15.0808C68.9592 15.8587 69.5342 16.459 70.2445 16.8818C70.9717 17.2877 71.7581 17.4906 72.6036 17.4906C73.4661 17.4906 74.2525 17.2877 74.9628 16.8818C75.69 16.459 76.265 15.8587 76.6877 15.0808C77.1105 14.2859 77.3219 13.3558 77.3219 12.2904Z" fill="white"/>
<path d="M83.506 0.52002V19.2917H81.1975V0.52002H83.506Z" fill="white"/>
<path d="M98.6018 11.8084C98.6018 12.2481 98.5764 12.7132 98.5257 13.2036H87.4149C87.4994 14.5734 87.9645 15.6473 88.8101 16.4252C89.6725 17.1862 90.7126 17.5667 91.9302 17.5667C92.928 17.5667 93.7567 17.3384 94.4162 16.8818C95.0927 16.4083 95.5662 15.7826 95.8368 15.0047H98.3228C97.9507 16.3407 97.2066 17.4315 96.0904 18.277C94.9743 19.1057 93.5876 19.52 91.9302 19.52C90.6111 19.52 89.4273 19.2241 88.3788 18.6322C87.3472 18.0403 86.5355 17.2032 85.9436 16.1208C85.3517 15.0216 85.0557 13.7532 85.0557 12.3157C85.0557 10.8783 85.3432 9.61837 85.9182 8.53604C86.4932 7.45371 87.2965 6.62505 88.3281 6.05006C89.3766 5.45816 90.5773 5.16221 91.9302 5.16221C93.2493 5.16221 94.4162 5.4497 95.4309 6.02469C96.4456 6.59968 97.2235 7.39452 97.7647 8.4092C98.3227 9.40698 98.6018 10.54 98.6018 11.8084ZM96.2173 11.3264C96.2173 10.447 96.0228 9.69447 95.6338 9.06875C95.2449 8.42612 94.7122 7.94414 94.0357 7.62282C93.3762 7.28459 92.6405 7.11548 91.8288 7.11548C90.6619 7.11548 89.6641 7.48753 88.8354 8.23163C88.0237 8.97574 87.5586 10.0073 87.4402 11.3264H96.2173Z" fill="white"/>
<path d="M10.4139 1.83936V3.71653H0.419261V9.67781H8.96799V11.555H2.72767V19.5203H0.419261V1.83936H10.4139Z" fill="white"/>
<rect x="12.6815" y="1.83936" width="2.3811" height="1.95846" fill="white"/>
</svg>
