<svg width="158" height="65" viewBox="0 0 158 65" fill="none" xmlns="http://www.w3.org/2000/svg">
<rect x="3.7565" y="1.30469" width="153.753" height="60.0829" transform="rotate(1 3.7565 1.30469)" fill="#183453"/>
<rect x="1.0201" y="0.441544" width="152.873" height="59.2027" fill="white" stroke="black" stroke-width="0.880159"/>
<path d="M28.9075 34.481C28.8019 34.481 28.7121 34.444 28.6382 34.3701C28.5643 34.2961 28.5273 34.2063 28.5273 34.1007V23.787C28.5273 23.6708 28.5643 23.5758 28.6382 23.5019C28.7121 23.4279 28.8019 23.391 28.9075 23.391H35.7833C35.8995 23.391 35.9946 23.4279 36.0685 23.5019C36.1424 23.5758 36.1794 23.6708 36.1794 23.787V24.896C36.1794 25.0122 36.1424 25.1073 36.0685 25.1812C35.9946 25.2446 35.8995 25.2763 35.7833 25.2763H30.6978V28.2864H35.4665C35.5826 28.2864 35.6777 28.3234 35.7516 28.3973C35.8256 28.4712 35.8625 28.5663 35.8625 28.6825V29.7915C35.8625 29.8971 35.8256 29.9869 35.7516 30.0608C35.6777 30.1347 35.5826 30.1717 35.4665 30.1717H30.6978V34.1007C30.6978 34.2063 30.6608 34.2961 30.5869 34.3701C30.5129 34.444 30.4179 34.481 30.3017 34.481H28.9075ZM41.3413 34.6394C40.4964 34.6394 39.7834 34.4915 39.2025 34.1958C38.6322 33.9001 38.1939 33.4829 37.8876 32.9442C37.5918 32.4055 37.4229 31.7771 37.3806 31.0589C37.37 30.8688 37.3648 30.6364 37.3648 30.3618C37.3648 30.0872 37.37 29.8548 37.3806 29.6647C37.4229 28.936 37.5971 28.3075 37.9034 27.7794C38.2203 27.2408 38.6639 26.8236 39.2342 26.5278C39.8151 26.2321 40.5175 26.0842 41.3413 26.0842C42.1651 26.0842 42.8622 26.2321 43.4326 26.5278C44.0135 26.8236 44.4571 27.2408 44.7634 27.7794C45.0802 28.3075 45.2598 28.936 45.302 29.6647C45.3126 29.8548 45.3179 30.0872 45.3179 30.3618C45.3179 30.6364 45.3126 30.8688 45.302 31.0589C45.2598 31.7771 45.0855 32.4055 44.7792 32.9442C44.4835 33.4829 44.0452 33.9001 43.4643 34.1958C42.8939 34.4915 42.1863 34.6394 41.3413 34.6394ZM41.3413 33.0709C41.9011 33.0709 42.3341 32.8967 42.6404 32.5481C42.9467 32.189 43.1157 31.6662 43.1474 30.9797C43.158 30.8213 43.1632 30.6153 43.1632 30.3618C43.1632 30.1083 43.158 29.9024 43.1474 29.7439C43.1157 29.068 42.9467 28.5504 42.6404 28.1913C42.3341 27.8322 41.9011 27.6527 41.3413 27.6527C40.7815 27.6527 40.3485 27.8322 40.0422 28.1913C39.7359 28.5504 39.5669 29.068 39.5352 29.7439C39.5247 29.9024 39.5194 30.1083 39.5194 30.3618C39.5194 30.6153 39.5247 30.8213 39.5352 30.9797C39.5669 31.6662 39.7359 32.189 40.0422 32.5481C40.3485 32.8967 40.7815 33.0709 41.3413 33.0709ZM50.1309 34.6394C49.4866 34.6394 48.9268 34.4968 48.4515 34.2116C47.9868 33.9159 47.6277 33.504 47.3742 32.9759C47.1207 32.4372 46.994 31.8035 46.994 31.0747V26.6229C46.994 26.5173 47.031 26.4275 47.1049 26.3536C47.1788 26.2796 47.2686 26.2427 47.3742 26.2427H48.7684C48.8846 26.2427 48.9744 26.2796 49.0377 26.3536C49.1117 26.4275 49.1486 26.5173 49.1486 26.6229V30.9797C49.1486 32.2894 49.7243 32.9442 50.8755 32.9442C51.4247 32.9442 51.8578 32.7699 52.1746 32.4214C52.502 32.0728 52.6657 31.5923 52.6657 30.9797V26.6229C52.6657 26.5173 52.7027 26.4275 52.7766 26.3536C52.8506 26.2796 52.9404 26.2427 53.046 26.2427H54.4401C54.5458 26.2427 54.6355 26.2796 54.7095 26.3536C54.7834 26.4275 54.8204 26.5173 54.8204 26.6229V34.1007C54.8204 34.2063 54.7834 34.2961 54.7095 34.3701C54.6355 34.444 54.5458 34.481 54.4401 34.481H53.1569C53.0407 34.481 52.9456 34.444 52.8717 34.3701C52.8083 34.2961 52.7766 34.2063 52.7766 34.1007V33.4512C52.4915 33.8208 52.1376 34.1113 51.7152 34.3225C51.2927 34.5338 50.7646 34.6394 50.1309 34.6394ZM57.2933 34.481C57.1877 34.481 57.0979 34.444 57.024 34.3701C56.9501 34.2961 56.9131 34.2063 56.9131 34.1007V26.6229C56.9131 26.5173 56.9501 26.4275 57.024 26.3536C57.0979 26.2796 57.1877 26.2427 57.2933 26.2427H58.5925C58.6981 26.2427 58.7879 26.2796 58.8618 26.3536C58.9357 26.4275 58.9727 26.5173 58.9727 26.6229V27.2725C59.2473 26.9345 59.5958 26.6546 60.0183 26.4328C60.4514 26.2004 60.9847 26.0842 61.6184 26.0842C62.2627 26.0842 62.8225 26.2321 63.2978 26.5278C63.7731 26.813 64.1375 27.2196 64.3909 27.7477C64.655 28.2758 64.787 28.9096 64.787 29.6489V34.1007C64.787 34.2063 64.75 34.2961 64.6761 34.3701C64.6022 34.444 64.5124 34.481 64.4068 34.481H63.0126C62.907 34.481 62.8172 34.444 62.7433 34.3701C62.6694 34.2961 62.6324 34.2063 62.6324 34.1007V29.7439C62.6324 29.1314 62.4792 28.6508 62.1729 28.3022C61.8772 27.9537 61.4442 27.7794 60.8738 27.7794C60.3246 27.7794 59.8863 27.9537 59.5589 28.3022C59.2315 28.6508 59.0677 29.1314 59.0677 29.7439V34.1007C59.0677 34.2063 59.0308 34.2961 58.9568 34.3701C58.8829 34.444 58.7931 34.481 58.6875 34.481H57.2933ZM69.8571 34.6394C69.3079 34.6394 68.822 34.5496 68.3996 34.3701C67.9876 34.1799 67.6444 33.9159 67.3698 33.5779C67.0952 33.2399 66.8839 32.8439 66.7361 32.3897C66.5882 31.925 66.5037 31.418 66.4826 30.8688C66.472 30.6787 66.4667 30.5097 66.4667 30.3618C66.4667 30.2034 66.472 30.0291 66.4826 29.839C66.5037 29.3109 66.5829 28.8198 66.7202 28.3656C66.8681 27.9115 67.0793 27.5154 67.3539 27.1774C67.6391 26.8289 67.9876 26.5595 68.3996 26.3694C68.822 26.1793 69.3079 26.0842 69.8571 26.0842C70.4274 26.0842 70.908 26.1846 71.2988 26.3853C71.7002 26.5754 72.0329 26.8236 72.2969 27.1299V23.6128C72.2969 23.5071 72.3286 23.4174 72.392 23.3434C72.4659 23.2695 72.5609 23.2325 72.6771 23.2325H74.0238C74.1294 23.2325 74.2192 23.2695 74.2931 23.3434C74.367 23.4174 74.404 23.5071 74.404 23.6128V34.1007C74.404 34.2063 74.367 34.2961 74.2931 34.3701C74.2192 34.444 74.1294 34.481 74.0238 34.481H72.7722C72.656 34.481 72.5609 34.444 72.487 34.3701C72.4236 34.2961 72.392 34.2063 72.392 34.1007V33.5145C72.1279 33.842 71.7899 34.1113 71.378 34.3225C70.9767 34.5338 70.4697 34.6394 69.8571 34.6394ZM70.4433 32.9442C70.8869 32.9442 71.2407 32.8439 71.5048 32.6432C71.7688 32.4425 71.9642 32.189 72.0909 31.8827C72.2177 31.5659 72.2863 31.2437 72.2969 30.9163C72.3075 30.7262 72.3127 30.5255 72.3127 30.3143C72.3127 30.0925 72.3075 29.8865 72.2969 29.6964C72.2863 29.3796 72.2124 29.0785 72.0751 28.7934C71.9378 28.4976 71.7371 28.2547 71.4731 28.0646C71.209 27.8745 70.8658 27.7794 70.4433 27.7794C69.9997 27.7794 69.6459 27.8798 69.3818 28.0804C69.1283 28.2706 68.9435 28.524 68.8273 28.8409C68.7111 29.1578 68.6425 29.5063 68.6214 29.8865C68.6108 30.2034 68.6108 30.5202 68.6214 30.8371C68.6425 31.2173 68.7111 31.5659 68.8273 31.8827C68.9435 32.1996 69.1283 32.4584 69.3818 32.659C69.6459 32.8491 69.9997 32.9442 70.4433 32.9442ZM78.9078 34.6394C78.3586 34.6394 77.8622 34.5338 77.4186 34.3225C76.975 34.1007 76.6212 33.8103 76.3571 33.4512C76.1036 33.0815 75.9769 32.6696 75.9769 32.2154C75.9769 31.4761 76.2726 30.8899 76.8641 30.4569C77.4661 30.0133 78.2583 29.7175 79.2405 29.5697L81.411 29.2528V28.9201C81.411 28.4765 81.3001 28.1333 81.0783 27.8903C80.8565 27.6474 80.4763 27.5259 79.9376 27.5259C79.5574 27.5259 79.2458 27.6052 79.0029 27.7636C78.7705 27.9115 78.5962 28.1121 78.4801 28.3656C78.3956 28.5029 78.2741 28.5716 78.1157 28.5716H76.8641C76.7479 28.5716 76.6581 28.5399 76.5948 28.4765C76.542 28.4131 76.5156 28.3286 76.5156 28.223C76.5261 28.054 76.5948 27.8481 76.7215 27.6052C76.8483 27.3622 77.0489 27.1299 77.3235 26.9081C77.5981 26.6757 77.952 26.4803 78.385 26.3219C78.818 26.1635 79.3409 26.0842 79.9535 26.0842C80.6189 26.0842 81.1786 26.1687 81.6328 26.3377C82.0975 26.4962 82.4672 26.7127 82.7418 26.9873C83.0164 27.2619 83.2171 27.584 83.3438 27.9537C83.4706 28.3234 83.5339 28.7142 83.5339 29.1261V34.1007C83.5339 34.2063 83.497 34.2961 83.423 34.3701C83.3491 34.444 83.2593 34.481 83.1537 34.481H81.8704C81.7543 34.481 81.6592 34.444 81.5853 34.3701C81.5219 34.2961 81.4902 34.2063 81.4902 34.1007V33.4829C81.3529 33.6835 81.1681 33.8736 80.9357 34.0532C80.7033 34.2222 80.4182 34.3648 80.0802 34.481C79.7528 34.5866 79.362 34.6394 78.9078 34.6394ZM79.4465 33.1343C79.8161 33.1343 80.1488 33.0551 80.4446 32.8967C80.7509 32.7382 80.9885 32.4953 81.1575 32.1679C81.3371 31.8299 81.4268 31.4074 81.4268 30.9005V30.5678L79.8426 30.8213C79.2194 30.9163 78.7547 31.0695 78.4484 31.2807C78.1421 31.4919 77.9889 31.7507 77.9889 32.057C77.9889 32.2894 78.0576 32.49 78.1949 32.659C78.3428 32.8175 78.5276 32.9389 78.7494 33.0234C78.9712 33.0973 79.2036 33.1343 79.4465 33.1343ZM89.2121 34.481C88.5784 34.481 88.045 34.3701 87.612 34.1483C87.1789 33.9265 86.8568 33.599 86.6456 33.166C86.4343 32.7224 86.3287 32.1732 86.3287 31.5183V27.922H85.0771C84.9715 27.922 84.8817 27.885 84.8078 27.8111C84.7339 27.7372 84.6969 27.6474 84.6969 27.5418V26.6229C84.6969 26.5173 84.7339 26.4275 84.8078 26.3536C84.8817 26.2796 84.9715 26.2427 85.0771 26.2427H86.3287V23.6128C86.3287 23.5071 86.3604 23.4174 86.4238 23.3434C86.4977 23.2695 86.5928 23.2325 86.7089 23.2325H87.9922C88.0978 23.2325 88.1876 23.2695 88.2615 23.3434C88.3355 23.4174 88.3724 23.5071 88.3724 23.6128V26.2427H90.3528C90.4584 26.2427 90.5482 26.2796 90.6221 26.3536C90.6961 26.4275 90.733 26.5173 90.733 26.6229V27.5418C90.733 27.6474 90.6961 27.7372 90.6221 27.8111C90.5482 27.885 90.4584 27.922 90.3528 27.922H88.3724V31.3599C88.3724 31.793 88.4464 32.1309 88.5942 32.3739C88.7527 32.6168 89.022 32.7382 89.4022 32.7382H90.4954C90.601 32.7382 90.6908 32.7752 90.7647 32.8491C90.8386 32.9231 90.8756 33.0129 90.8756 33.1185V34.1007C90.8756 34.2063 90.8386 34.2961 90.7647 34.3701C90.6908 34.444 90.601 34.481 90.4954 34.481H89.2121ZM92.6613 34.481C92.5557 34.481 92.4659 34.444 92.392 34.3701C92.318 34.2961 92.2811 34.2063 92.2811 34.1007V26.6229C92.2811 26.5173 92.318 26.4275 92.392 26.3536C92.4659 26.2796 92.5557 26.2427 92.6613 26.2427H93.9762C94.0924 26.2427 94.1822 26.2796 94.2456 26.3536C94.3195 26.4275 94.3565 26.5173 94.3565 26.6229V34.1007C94.3565 34.2063 94.3195 34.2961 94.2456 34.3701C94.1822 34.444 94.0924 34.481 93.9762 34.481H92.6613ZM92.5979 24.8802C92.4817 24.8802 92.3867 24.8485 92.3127 24.7851C92.2494 24.7112 92.2177 24.6161 92.2177 24.5V23.3593C92.2177 23.2537 92.2494 23.1639 92.3127 23.0899C92.3867 23.016 92.4817 22.979 92.5979 22.979H94.0396C94.1558 22.979 94.2509 23.016 94.3248 23.0899C94.3987 23.1639 94.4357 23.2537 94.4357 23.3593V24.5C94.4357 24.6161 94.3987 24.7112 94.3248 24.7851C94.2509 24.8485 94.1558 24.8802 94.0396 24.8802H92.5979ZM100.149 34.6394C99.3037 34.6394 98.5908 34.4915 98.0099 34.1958C97.4395 33.9001 97.0012 33.4829 96.6949 32.9442C96.3992 32.4055 96.2302 31.7771 96.1879 31.0589C96.1774 30.8688 96.1721 30.6364 96.1721 30.3618C96.1721 30.0872 96.1774 29.8548 96.1879 29.6647C96.2302 28.936 96.4044 28.3075 96.7107 27.7794C97.0276 27.2408 97.4712 26.8236 98.0415 26.5278C98.6224 26.2321 99.3248 26.0842 100.149 26.0842C100.972 26.0842 101.67 26.2321 102.24 26.5278C102.821 26.8236 103.264 27.2408 103.571 27.7794C103.888 28.3075 104.067 28.936 104.109 29.6647C104.12 29.8548 104.125 30.0872 104.125 30.3618C104.125 30.6364 104.12 30.8688 104.109 31.0589C104.067 31.7771 103.893 32.4055 103.587 32.9442C103.291 33.4829 102.852 33.9001 102.272 34.1958C101.701 34.4915 100.994 34.6394 100.149 34.6394ZM100.149 33.0709C100.708 33.0709 101.141 32.8967 101.448 32.5481C101.754 32.189 101.923 31.6662 101.955 30.9797C101.965 30.8213 101.971 30.6153 101.971 30.3618C101.971 30.1083 101.965 29.9024 101.955 29.7439C101.923 29.068 101.754 28.5504 101.448 28.1913C101.141 27.8322 100.708 27.6527 100.149 27.6527C99.5889 27.6527 99.1558 27.8322 98.8495 28.1913C98.5432 28.5504 98.3742 29.068 98.3426 29.7439C98.332 29.9024 98.3267 30.1083 98.3267 30.3618C98.3267 30.6153 98.332 30.8213 98.3426 30.9797C98.3742 31.6662 98.5432 32.189 98.8495 32.5481C99.1558 32.8967 99.5889 33.0709 100.149 33.0709ZM106.261 34.481C106.155 34.481 106.065 34.444 105.991 34.3701C105.917 34.2961 105.881 34.2063 105.881 34.1007V26.6229C105.881 26.5173 105.917 26.4275 105.991 26.3536C106.065 26.2796 106.155 26.2427 106.261 26.2427H107.56C107.665 26.2427 107.755 26.2796 107.829 26.3536C107.903 26.4275 107.94 26.5173 107.94 26.6229V27.2725C108.215 26.9345 108.563 26.6546 108.986 26.4328C109.419 26.2004 109.952 26.0842 110.586 26.0842C111.23 26.0842 111.79 26.2321 112.265 26.5278C112.74 26.813 113.105 27.2196 113.358 27.7477C113.622 28.2758 113.754 28.9096 113.754 29.6489V34.1007C113.754 34.2063 113.717 34.2961 113.644 34.3701C113.57 34.444 113.48 34.481 113.374 34.481H111.98C111.874 34.481 111.785 34.444 111.711 34.3701C111.637 34.2961 111.6 34.2063 111.6 34.1007V29.7439C111.6 29.1314 111.447 28.6508 111.14 28.3022C110.845 27.9537 110.412 27.7794 109.841 27.7794C109.292 27.7794 108.854 27.9537 108.526 28.3022C108.199 28.6508 108.035 29.1314 108.035 29.7439V34.1007C108.035 34.2063 107.998 34.2961 107.924 34.3701C107.85 34.444 107.761 34.481 107.655 34.481H106.261ZM118.159 34.6394C117.61 34.6394 117.113 34.5338 116.67 34.3225C116.226 34.1007 115.872 33.8103 115.608 33.4512C115.355 33.0815 115.228 32.6696 115.228 32.2154C115.228 31.4761 115.524 30.8899 116.115 30.4569C116.717 30.0133 117.51 29.7175 118.492 29.5697L120.662 29.2528V28.9201C120.662 28.4765 120.551 28.1333 120.33 27.8903C120.108 27.6474 119.728 27.5259 119.189 27.5259C118.809 27.5259 118.497 27.6052 118.254 27.7636C118.022 27.9115 117.848 28.1121 117.731 28.3656C117.647 28.5029 117.525 28.5716 117.367 28.5716H116.115C115.999 28.5716 115.909 28.5399 115.846 28.4765C115.793 28.4131 115.767 28.3286 115.767 28.223C115.777 28.054 115.846 27.8481 115.973 27.6052C116.1 27.3622 116.3 27.1299 116.575 26.9081C116.849 26.6757 117.203 26.4803 117.636 26.3219C118.069 26.1635 118.592 26.0842 119.205 26.0842C119.87 26.0842 120.43 26.1687 120.884 26.3377C121.349 26.4962 121.718 26.7127 121.993 26.9873C122.268 27.2619 122.468 27.584 122.595 27.9537C122.722 28.3234 122.785 28.7142 122.785 29.1261V34.1007C122.785 34.2063 122.748 34.2961 122.674 34.3701C122.6 34.444 122.511 34.481 122.405 34.481H121.122C121.006 34.481 120.91 34.444 120.837 34.3701C120.773 34.2961 120.742 34.2063 120.742 34.1007V33.4829C120.604 33.6835 120.419 33.8736 120.187 34.0532C119.955 34.2222 119.669 34.3648 119.331 34.481C119.004 34.5866 118.613 34.6394 118.159 34.6394ZM118.698 33.1343C119.067 33.1343 119.4 33.0551 119.696 32.8967C120.002 32.7382 120.24 32.4953 120.409 32.1679C120.588 31.8299 120.678 31.4074 120.678 30.9005V30.5678L119.094 30.8213C118.471 30.9163 118.006 31.0695 117.7 31.2807C117.393 31.4919 117.24 31.7507 117.24 32.057C117.24 32.2894 117.309 32.49 117.446 32.659C117.594 32.8175 117.779 32.9389 118.001 33.0234C118.222 33.0973 118.455 33.1343 118.698 33.1343ZM125.214 34.481C125.108 34.481 125.018 34.444 124.944 34.3701C124.871 34.2961 124.834 34.2063 124.834 34.1007V23.6128C124.834 23.5071 124.871 23.4174 124.944 23.3434C125.018 23.2695 125.108 23.2325 125.214 23.2325H126.529C126.634 23.2325 126.724 23.2695 126.798 23.3434C126.872 23.4174 126.909 23.5071 126.909 23.6128V34.1007C126.909 34.2063 126.872 34.2961 126.798 34.3701C126.724 34.444 126.634 34.481 126.529 34.481H125.214Z" fill="black"/>
</svg>
