<svg width="206" height="167" viewBox="0 0 206 167" fill="none" xmlns="http://www.w3.org/2000/svg">
<g clip-path="url(#clip0_359_782)">
<rect x="0.541992" y="1.40405" width="204.742" height="164.878" rx="6.37" fill="#CCEDFF"/>
<path d="M46.4946 55.2456L204.143 8.62592V111.429L73.36 155.509L46.4946 55.2456Z" fill="#BFE9FF"/>
<path d="M178.759 40.7172C179.755 40.4681 180.627 40.6549 181.499 40.8417C182.37 41.0285 183.18 41.2775 184.052 41.5266C185.836 42.1077 187.621 42.7095 189.406 43.3322C189.531 43.3944 189.655 43.4567 189.904 43.5812C189.717 44.2038 189.219 44.5151 188.908 44.951C188.721 45.2 188.472 45.4491 188.285 45.6981C187.85 46.3207 187.85 46.6943 188.41 47.2547C189.406 48.1886 190.465 49.0603 191.647 49.7451C192.395 50.181 193.142 50.7413 193.764 51.3017C194.449 51.862 194.387 52.1111 193.64 52.9205C193.515 52.8582 193.391 52.8582 193.329 52.8582C191.772 51.613 190.029 50.6168 188.285 49.6829C187.85 49.4338 187.538 49.0603 187.227 48.7489C186.667 48.2509 186.293 48.1886 185.795 48.7489C185.421 49.1225 185.11 49.5584 184.799 49.9942C184.612 50.181 184.425 50.3678 184.238 50.5545C183.678 50.3678 183.616 49.8697 183.367 49.4961C183.118 49.1225 182.806 48.7489 182.557 48.3131C181.499 46.2585 180.129 44.3906 179.257 42.2737C179.071 41.7756 178.946 41.2775 178.759 40.7172Z" fill="white"/>
<path fill-rule="evenodd" clip-rule="evenodd" d="M189.966 46.4457C190.651 47.2551 191.461 47.8777 192.332 48.3135C193.577 48.9361 194.574 49.8701 195.632 50.804C196.255 51.3644 196.192 51.5511 195.881 52.4228C195.57 53.419 195.009 54.1661 194.013 54.602C193.515 54.7888 193.079 54.7888 192.706 54.4152C191.647 53.2945 190.215 52.6719 188.97 51.8002C188.223 51.3021 187.351 50.8663 186.417 50.3682C185.732 50.804 185.172 51.4889 184.861 52.2983C184.799 52.6719 184.674 53.1077 184.238 53.1077C183.74 53.17 183.553 52.7341 183.366 52.4228C182.184 50.3682 181.125 48.3758 179.88 46.3834C178.884 44.8269 178.137 43.2081 177.452 41.4647C176.954 40.1572 177.576 39.161 178.946 39.0988C179.942 39.0988 180.938 39.161 181.934 39.4101C183.304 39.6591 184.674 40.0327 185.982 40.5308C187.538 41.1534 189.157 41.6515 190.776 42.0251C191.896 42.2119 192.083 43.1458 191.71 43.893C191.585 44.2043 191.336 44.5156 191.087 44.8269C190.776 45.2005 190.464 45.6363 190.091 46.0099C190.029 46.0721 190.029 46.1966 189.966 46.4457ZM178.759 40.7176C178.946 41.278 179.07 41.776 179.257 42.2741C180.129 44.391 181.499 46.2589 182.557 48.3135C182.806 48.7494 183.117 49.1229 183.366 49.4965C183.616 49.8701 183.678 50.3682 184.238 50.555C184.425 50.3682 184.612 50.1814 184.799 49.9946C185.11 49.5588 185.421 49.1229 185.795 48.7494C186.293 48.189 186.666 48.2513 187.227 48.7494C187.538 49.0607 187.849 49.4342 188.285 49.6833C190.029 50.6172 191.772 51.6134 193.328 52.8587C193.391 52.8587 193.515 52.8587 193.64 52.9209C194.387 52.1115 194.449 51.8625 193.764 51.3021C193.142 50.7417 192.394 50.1814 191.647 49.7456C190.464 49.0607 189.406 48.189 188.41 47.2551C187.849 46.6947 187.849 46.3212 188.285 45.6985C188.472 45.4495 188.721 45.2004 188.908 44.9514C189.219 44.5156 189.717 44.2043 189.904 43.5816C189.655 43.4571 189.53 43.3948 189.406 43.3326C187.621 42.71 185.836 42.1081 184.051 41.527C183.18 41.2779 182.37 41.0289 181.499 40.8421C180.627 40.6553 179.755 40.4685 178.759 40.7176Z" fill="#1D4574" fill-opacity="0.4"/>
<path d="M172.284 39.9704C172.72 40.344 172.657 40.9666 172.284 41.1534C171.973 41.2157 171.661 41.3402 171.35 41.3402C170.312 41.3402 169.275 41.2987 168.237 41.2157C168.05 41.2157 167.739 40.9044 167.739 40.7176C167.739 40.5308 167.926 40.2195 168.112 40.1572C168.486 40.0327 168.922 39.9082 169.358 39.9082C170.167 39.8459 170.976 39.8459 171.848 39.8459C172.035 39.8459 172.222 39.9704 172.284 39.9704Z" fill="#1D4574" fill-opacity="0.4"/>
<path d="M179.506 35.7987C179.88 35.2384 180.129 34.8648 180.502 34.5535C181.187 33.9309 181.872 33.3083 182.619 32.7479C182.681 32.6234 182.744 32.5611 182.868 32.5611C183.117 32.5611 183.429 32.4989 183.553 32.6234C183.678 32.7479 183.678 33.1215 183.615 33.3083C183.553 33.6196 183.366 33.9309 183.117 34.1177C182.432 34.678 181.685 35.2384 180.938 35.7987C180.689 35.9855 180.689 35.9233 179.506 35.7987Z" fill="#1D4574" fill-opacity="0.4"/>
<path d="M172.222 45.3869C172.595 45.0756 173.218 44.5775 173.84 44.1417C174.152 43.9549 174.525 43.8926 174.837 44.2662C175.023 44.5153 174.961 45.0134 174.588 45.2624C173.716 45.7605 173.093 46.6322 172.408 47.3793C172.222 47.5661 172.097 47.7529 171.91 47.8151C171.661 47.8774 171.35 47.8774 171.225 47.7529C171.039 47.6284 170.976 47.2548 171.101 47.068C171.35 46.5699 171.724 46.1341 172.222 45.3869Z" fill="#1D4574" fill-opacity="0.4"/>
<path d="M171.537 35.363C171.163 34.9894 170.727 34.6159 170.354 34.18C170.229 33.9932 170.229 33.6197 170.291 33.4951C170.416 33.3706 170.852 33.2461 170.976 33.3706C171.931 34.0762 172.865 34.8234 173.778 35.612C173.903 35.7366 173.84 36.1724 173.778 36.3592C173.591 36.6705 173.218 36.6082 172.906 36.4215C172.471 36.1101 172.035 35.7366 171.599 35.363C171.599 35.363 171.578 35.363 171.537 35.363Z" fill="#1D4574" fill-opacity="0.4"/>
<path d="M177.701 30.382C177.638 31.814 177.638 32.9347 177.576 34.0554C177.576 34.2422 177.327 34.4913 177.203 34.4913C176.954 34.4913 176.642 34.3667 176.518 34.18C176.02 33.3706 176.206 31.4404 176.829 30.7556C176.954 30.5688 177.265 30.5688 177.701 30.382Z" fill="#1D4574" fill-opacity="0.4"/>
<path d="M42.3172 99.8132C42.0864 101.006 41.8556 102.121 41.6248 103.314C41.4324 103.39 41.2017 103.544 40.9324 103.621C40.3554 103.814 39.8169 103.929 39.2399 104.083C38.8937 104.198 38.509 104.198 38.2398 103.967C37.5859 103.429 36.8166 103.198 36.0472 102.929C35.8549 102.89 35.6626 102.737 35.4702 102.621C35.4318 101.121 35.9318 99.6978 35.9703 98.1976C37.0089 97.813 38.0475 97.4283 39.0476 97.0436C39.6246 97.5437 40.1246 98.0438 40.7016 98.4284C41.2786 98.8515 41.8556 99.2362 42.3172 99.8132Z" fill="#52D1FF" fill-opacity="0.5"/>
<path fill-rule="evenodd" clip-rule="evenodd" d="M43.3172 99.3519C43.2018 100.006 43.0864 100.621 42.9325 101.275C42.7402 102.121 42.4325 102.929 42.4325 103.814C42.4325 103.929 42.3555 104.045 42.3555 104.122C41.24 104.429 40.2399 104.699 39.2013 105.006C38.7782 105.122 38.3551 105.199 38.0474 104.852C37.2011 104.083 36.0856 103.852 35.0855 103.468C34.4316 103.237 34.3931 103.122 34.5085 102.468C34.7393 101.211 34.9573 99.9417 35.1624 98.6595C35.2394 98.0056 35.5086 97.544 36.201 97.3132C37.0472 97.0439 37.855 96.6977 38.6243 96.3131C39.009 96.1208 39.2783 96.1592 39.586 96.39C39.7142 96.4926 39.8424 96.608 39.9706 96.7362C40.7015 97.5825 41.6631 98.1979 42.6248 98.7749C42.8556 98.9288 43.0479 99.1211 43.3172 99.3519ZM42.3171 99.8135C41.8555 99.2365 41.2785 98.8518 40.7015 98.4287C40.1245 98.044 39.6245 97.544 39.0475 97.0439C38.0474 97.4286 37.0088 97.8132 35.9702 98.1979C35.9317 99.6981 35.4317 101.121 35.4702 102.621C35.6625 102.737 35.8548 102.891 36.0471 102.929C36.8165 103.198 37.5858 103.429 38.2397 103.968C38.5089 104.199 38.8936 104.199 39.2398 104.083C39.8168 103.929 40.3553 103.814 40.9323 103.622C41.2016 103.545 41.4323 103.391 41.6247 103.314C41.8555 102.121 42.0863 101.006 42.3171 99.8135Z" fill="#1D4574" fill-opacity="0.4"/>
<path d="M24.1228 165.397C24.0459 165.244 24.0074 165.167 23.969 165.051C23.5458 164.166 23.5843 164.09 24.2767 163.397C24.5459 163.128 24.8537 162.936 25.2383 163.089C25.623 163.282 25.9307 163.551 26.0076 164.013C26.0846 164.897 25.6999 165.397 24.8537 165.436C24.6229 165.436 24.3921 165.397 24.1228 165.397Z" fill="#52D1FF" fill-opacity="0.5"/>
<path fill-rule="evenodd" clip-rule="evenodd" d="M26.8154 164.397C26.7384 165.397 26.1615 166.051 25.1998 166.243C25.0203 166.269 24.828 166.282 24.6228 166.282C23.9304 166.282 23.4304 166.166 23.1611 165.32C23.0842 165.128 22.9688 164.974 22.9303 164.782C22.7765 164.282 22.8534 163.82 23.1611 163.397C23.2765 163.205 23.4688 163.051 23.6227 162.897C24.0074 162.589 24.3536 162.166 24.8921 162.32C25.5075 162.474 26.1615 162.666 26.5076 163.282C26.6615 163.628 26.7384 164.012 26.8154 164.397ZM24.1228 165.397C24.392 165.397 24.6228 165.436 24.8536 165.436C25.6999 165.397 26.0845 164.897 26.0076 164.012C25.9307 163.551 25.6229 163.282 25.2383 163.089C24.8536 162.935 24.5459 163.128 24.2766 163.397C23.5842 164.089 23.5458 164.166 23.9689 165.051C24.0074 165.166 24.0458 165.243 24.1228 165.397Z" fill="#1D4574" fill-opacity="0.4"/>
<path d="M184.064 32.9974C185.064 33.5744 185.833 34.3822 186.91 34.7284C186.718 33.5744 186.526 32.4589 186.025 31.3819C185.372 31.9204 184.756 32.4204 184.064 32.9974Z" fill="#52D1FF" fill-opacity="0.5"/>
<path fill-rule="evenodd" clip-rule="evenodd" d="M186.794 31.2283C187.179 32.4592 187.602 33.7286 187.987 34.998C188.013 35.1006 188.025 35.2031 188.025 35.3057C188.064 35.8442 187.718 36.1135 187.218 35.9212C186.718 35.6904 186.256 35.4211 185.756 35.1903C184.91 34.7672 184.256 34.0748 183.371 33.6901C182.717 33.4593 182.756 32.9208 183.294 32.4592C184.063 31.8053 184.948 31.3053 185.525 30.4206C185.602 30.3052 185.794 30.2667 185.91 30.1898C186.41 30.3821 186.641 30.8052 186.794 31.2283ZM186.91 34.7287C186.718 33.5747 186.525 32.4592 186.025 31.3822C185.371 31.9207 184.756 32.4208 184.063 32.9978C185.063 33.5747 185.833 34.3825 186.91 34.7287Z" fill="#1D4574" fill-opacity="0.4"/>
<path d="M71.5128 45.3837C72.1282 44.3836 72.8975 43.6527 73.2822 42.5372C72.1282 42.7295 71.0127 42.9219 69.9357 43.4219C70.4357 44.0758 70.9358 44.6913 71.5128 45.3837Z" fill="#52D1FF" fill-opacity="0.5"/>
<path fill-rule="evenodd" clip-rule="evenodd" d="M69.7815 42.6525C71.0509 42.2293 72.3202 41.8831 73.5896 41.4985C73.6665 41.4728 73.7563 41.46 73.8589 41.46C74.3974 41.4215 74.6666 41.7677 74.4743 42.2293C74.2435 42.7294 73.9743 43.2294 73.705 43.7295C73.2819 44.5373 72.5895 45.1912 72.2048 46.0759C71.9356 46.7298 71.4355 46.6914 70.9739 46.1144C70.32 45.3451 69.82 44.4603 68.9737 43.8834C68.8583 43.8064 68.7814 43.6141 68.7429 43.4987C68.9352 42.9986 69.3199 42.7679 69.7815 42.6525ZM73.2819 42.5371C72.1279 42.7294 71.0124 42.9217 69.9354 43.4218C70.4354 44.0757 70.9355 44.6911 71.5125 45.3835C72.1279 44.3834 72.8972 43.6526 73.2819 42.5371Z" fill="#1D4574" fill-opacity="0.4"/>
<path d="M153.675 72.617C153.752 72.4631 153.791 72.3862 153.829 72.2708C154.252 71.3861 154.214 71.3092 153.522 70.6168C153.252 70.3475 152.945 70.1552 152.56 70.309C152.175 70.5014 151.868 70.7706 151.791 71.2322C151.714 72.1169 152.098 72.617 152.945 72.6555C153.175 72.6555 153.406 72.617 153.675 72.617Z" fill="#52D1FF" fill-opacity="0.5"/>
<path fill-rule="evenodd" clip-rule="evenodd" d="M151.291 70.5019C151.637 69.8865 152.291 69.6941 152.906 69.5403C153.445 69.3864 153.791 69.8095 154.176 70.1173C154.329 70.2711 154.522 70.425 154.637 70.6173C154.945 71.0404 155.022 71.502 154.868 72.0021C154.829 72.1944 154.714 72.3483 154.637 72.5406C154.368 73.3869 153.868 73.5023 153.175 73.5023C152.97 73.5023 152.778 73.4894 152.598 73.4638C151.637 73.2715 151.06 72.6175 150.983 71.6174C151.06 71.2328 151.137 70.8481 151.291 70.5019ZM153.829 72.2714C154.253 71.3866 154.214 71.3097 153.522 70.6173C153.252 70.3481 152.945 70.1557 152.56 70.3096C152.175 70.5019 151.868 70.7712 151.791 71.2328C151.714 72.1175 152.098 72.6175 152.945 72.656C153.175 72.656 153.406 72.6175 153.676 72.6175C153.752 72.4637 153.791 72.3867 153.829 72.2714Z" fill="#1D4574" fill-opacity="0.4"/>
<path d="M188.745 124.944C188.976 126.137 189.168 127.252 189.399 128.445C189.591 128.522 189.861 128.676 190.13 128.753C190.668 128.945 191.245 129.06 191.784 129.214C192.169 129.368 192.515 129.33 192.822 129.099C193.476 128.56 194.207 128.329 194.977 128.06C195.207 128.022 195.4 127.868 195.592 127.752C195.63 126.252 195.092 124.829 195.092 123.329C194.053 122.944 193.015 122.56 191.976 122.175C191.438 122.675 190.938 123.175 190.361 123.56C189.784 123.983 189.168 124.367 188.745 124.944Z" fill="#52D1FF" fill-opacity="0.5"/>
<path fill-rule="evenodd" clip-rule="evenodd" d="M188.437 123.905C189.399 123.328 190.361 122.713 191.092 121.867C191.194 121.738 191.31 121.623 191.438 121.52C191.745 121.29 192.053 121.251 192.438 121.443C193.207 121.828 194.015 122.174 194.823 122.444C195.515 122.674 195.784 123.136 195.9 123.79C196.105 125.072 196.323 126.341 196.554 127.598C196.669 128.252 196.592 128.367 195.977 128.598C194.938 128.983 193.861 129.214 193.015 129.983C192.669 130.329 192.246 130.252 191.822 130.137C190.822 129.829 189.784 129.56 188.707 129.252C188.707 129.175 188.591 129.06 188.591 128.944C188.591 128.06 188.322 127.252 188.091 126.406C187.937 125.79 187.86 125.136 187.707 124.482C187.976 124.251 188.207 124.059 188.437 123.905ZM189.399 128.444C189.591 128.521 189.861 128.675 190.13 128.752C190.668 128.944 191.245 129.06 191.784 129.214C192.169 129.367 192.515 129.329 192.823 129.098C193.476 128.56 194.207 128.329 194.977 128.06C195.207 128.021 195.4 127.867 195.592 127.752C195.63 126.252 195.092 124.828 195.092 123.328C194.053 122.944 193.015 122.559 191.976 122.174C191.438 122.674 190.938 123.174 190.361 123.559C189.784 123.982 189.168 124.367 188.745 124.944C188.976 126.136 189.168 127.252 189.399 128.444Z" fill="#1D4574" fill-opacity="0.4"/>
<g clip-path="url(#clip1_359_782)">
<path fill-rule="evenodd" clip-rule="evenodd" d="M191.964 183.698H69.3512V85.0939H191.964V183.698ZM69.8124 85.5534V183.239H191.503V85.5534H69.8124Z" fill="#183453"/>
<path d="M69.3512 75.8819V85.0945H191.964V75.8819H69.3512Z" fill="white"/>
<path fill-rule="evenodd" clip-rule="evenodd" d="M192.195 85.3239H69.1208V75.6518H192.195V85.3239ZM69.5821 84.8644H191.733V76.0883H69.5821V84.8644Z" fill="#183453"/>
<path d="M184.354 80.4764C184.354 81.6021 185.276 82.4981 186.383 82.4981C187.49 82.4981 188.39 81.6021 188.39 80.4764C188.39 79.3736 187.49 78.4777 186.383 78.4777C185.276 78.4777 184.354 79.3736 184.354 80.4764Z" fill="#08A5E2"/>
<path d="M177.805 80.4764C177.805 81.6021 178.704 82.4981 179.811 82.4981C180.918 82.4981 181.817 81.6021 181.817 80.4764C181.817 79.3736 180.918 78.4777 179.811 78.4777C178.704 78.4777 177.805 79.3736 177.805 80.4764Z" fill="#08A5E2"/>
<path d="M171.232 80.4764C171.232 81.6021 172.132 82.4981 173.239 82.4981C174.369 82.4981 175.268 81.6021 175.268 80.4764C175.268 79.3736 174.369 78.4777 173.239 78.4777C172.132 78.4777 171.232 79.3736 171.232 80.4764Z" fill="#08A5E2"/>
<path fill-rule="evenodd" clip-rule="evenodd" d="M137.512 48.2933C137.512 51.9803 134.521 54.9606 130.82 54.9606C127.119 54.9606 124.127 51.9803 124.127 48.2933C124.127 44.637 127.119 41.6259 130.82 41.6259C134.521 41.6259 137.512 44.637 137.512 48.2933ZM124.744 48.2933C124.744 51.6423 127.458 54.3461 130.82 54.3461C134.181 54.3461 136.895 51.6423 136.895 48.2933C136.895 44.9749 134.181 42.2404 130.82 42.2404C127.458 42.2404 124.744 44.9749 124.744 48.2933Z" fill="#183453"/>
<path fill-rule="evenodd" clip-rule="evenodd" d="M54.0515 60.8367L19.222 70.9722L13.5699 51.6785L48.3994 41.5642L54.0515 60.8367ZM14.1032 51.9548L19.5206 70.4197L53.5183 60.5392L48.1008 42.0742L14.1032 51.9548Z" fill="#183453"/>
<path d="M26.6443 65.0219L27.668 68.5067L45.6054 63.3008L44.5816 59.816C43.6858 56.7138 40.4225 54.9289 37.3085 55.8213L36.4341 56.0763C37.0953 55.1201 37.3085 53.9089 36.9673 52.6978C36.3488 50.5729 34.1093 49.3618 31.9764 49.978C29.8222 50.5942 28.6065 52.8253 29.225 54.9501C29.5876 56.1613 30.4408 57.0537 31.5072 57.5212L30.6327 57.7762C27.5187 58.6686 25.7271 61.9196 26.6443 65.0219Z" fill="white"/>
<path d="M19.2223 70.9718L21.4618 78.6L56.27 68.4857L54.0518 60.8362L19.2223 70.9718Z" fill="#183453"/>
<path d="M44.9283 76.3892C45.2367 77.4338 46.347 78.0483 47.4264 77.7411C48.475 77.4338 49.0918 76.3277 48.7834 75.2524C48.475 74.2077 47.3647 73.5932 46.2853 73.9005C45.2367 74.2077 44.6199 75.3138 44.9283 76.3892Z" fill="white"/>
<path d="M36.4342 70.1008C36.6475 70.8445 37.4153 71.2482 38.1405 71.0357C38.887 70.8232 39.2923 70.0583 39.079 69.3358C38.8657 68.6134 38.0979 68.1884 37.3727 68.4009C36.6262 68.6134 36.2209 69.3783 36.4342 70.1008Z" fill="white"/>
<path d="M32.4245 71.269C32.6378 71.9915 33.4056 72.4165 34.1521 72.204C34.8773 71.9915 35.3039 71.2265 35.0906 70.5041C34.8773 69.7604 34.1095 69.3567 33.363 69.5692C32.6378 69.7816 32.2112 70.5466 32.4245 71.269Z" fill="white"/>
<path d="M23.4239 75.3279L27.6683 74.0955C28.0096 73.9892 28.2015 73.628 28.0949 73.288L27.6896 71.8856C27.583 71.5457 27.2204 71.3544 26.8791 71.4394L22.6348 72.6718C22.2935 72.7781 22.1015 73.1393 22.2082 73.4793L22.6134 74.8817C22.7201 75.2217 23.0827 75.4341 23.4239 75.3279Z" fill="white"/>
<path d="M42.2784 47.0882L42.5983 48.1719C42.6623 48.4056 42.9395 48.5119 43.1528 48.3844L43.814 47.9594C44.0273 47.8319 44.3259 47.9382 44.3899 48.1719C44.4539 48.3844 44.6672 48.4906 44.8591 48.4481L47.2906 47.7257C47.5038 47.6832 47.6105 47.4707 47.5465 47.2582L46.9493 45.1971C46.8853 44.9846 46.672 44.8784 46.4801 44.9209L44.0486 45.6433C43.8353 45.6858 43.7287 45.8983 43.7714 46.1108C43.8567 46.3445 43.6647 46.5995 43.4088 46.5995H42.6409C42.385 46.5995 42.193 46.8333 42.2784 47.0882Z" fill="#183453"/>
<path d="M22.538 143.493L70.6804 162.266L76.5401 147.333C76.5401 147.333 47.2106 151.02 28.3977 128.56L22.538 143.493Z" fill="white"/>
<path d="M57.0509 185.206L39.5852 169.762L47.1296 150.482L47.853 150.766L40.4895 169.53L57.5677 184.614L57.0509 185.206Z" fill="#183453"/>
<path d="M14.0069 168.038C13.361 169.659 14.1878 171.487 15.8155 172.105C17.4174 172.748 19.2518 171.95 19.8977 170.328C20.5436 168.707 19.7427 166.879 18.115 166.236C16.4872 165.618 14.6528 166.416 14.0069 168.038Z" fill="#183453"/>
<path d="M28.3976 128.56C47.2104 151.02 76.54 147.333 76.54 147.333L28.3976 128.56Z" fill="#183453"/>
<path d="M68.3365 161.344L67.7505 161.129L73.1476 147.426L73.7336 147.671L68.3365 161.344Z" fill="#183453"/>
<path d="M65.2834 160.177L64.6974 159.931L69.6011 147.426L70.187 147.641L65.2834 160.177Z" fill="#183453"/>
<path d="M62.1989 158.978L61.6438 158.732L66.1466 147.21L66.7325 147.456L62.1989 158.978Z" fill="#183453"/>
<path d="M59.1459 157.78L58.5599 157.565L62.7851 146.842L63.3403 147.088L59.1459 157.78Z" fill="#183453"/>
<path d="M56.0926 156.582L55.5066 156.367L59.4542 146.289L60.0402 146.535L56.0926 156.582Z" fill="#183453"/>
<path d="M53.0085 155.383L52.4534 155.168L56.2159 145.582L56.7711 145.828L53.0085 155.383Z" fill="#183453"/>
<path d="M49.9554 154.185L49.4003 153.97L53.0086 144.722L53.5946 144.937L49.9554 154.185Z" fill="#183453"/>
<path d="M46.9019 152.988L46.3159 152.772L49.8934 143.647L50.4794 143.893L46.9019 152.988Z" fill="#183453"/>
<path d="M43.818 151.789L43.2628 151.574L46.8403 142.418L47.4263 142.663L43.818 151.789Z" fill="#183453"/>
<path d="M40.7647 150.621L40.1787 150.376L43.8796 141.005L44.4347 141.25L40.7647 150.621Z" fill="#183453"/>
<path d="M37.7115 149.423L37.1255 149.177L40.9806 139.406L41.5357 139.652L37.7115 149.423Z" fill="#183453"/>
<path d="M34.6275 148.225L34.0724 148.01L38.1434 137.594L38.7293 137.84L34.6275 148.225Z" fill="#183453"/>
<path d="M31.5742 147.027L31.019 146.811L35.3984 135.597L35.9844 135.812L31.5742 147.027Z" fill="#183453"/>
<path d="M28.5212 145.828L27.9352 145.613L32.7772 133.323L33.3323 133.538L28.5212 145.828Z" fill="#183453"/>
<path d="M25.437 144.63L24.8818 144.415L30.2173 130.834L30.7724 131.049L25.437 144.63Z" fill="#183453"/>
<path d="M56.1852 51.7478L58.0356 50.0272C58.8066 49.3206 60.0403 49.3206 60.7805 50.058C61.6132 50.8261 61.6132 52.1165 60.8113 52.9154L59.2076 54.5131L56.1852 51.7478Z" fill="white"/>
<path d="M49.4928 58.2306L51.2507 56.5101C49.9554 53.9291 50.4797 51.8091 50.9423 50.7337C50.4488 50.9488 49.9862 51.2561 49.5853 51.6555C47.7349 53.4375 47.704 56.3871 49.4928 58.2306Z" fill="#FFF6E3"/>
<path d="M51.2507 56.5109L56.1852 51.7485C54.7665 50.3044 52.6693 49.9664 50.9423 50.7346C50.4797 51.8099 49.9554 53.93 51.2507 56.5109Z" fill="white"/>
<path d="M52.6691 72.0576L47.8888 73.809C43.4786 75.4374 40.1478 79.1244 38.9758 83.6717L33.517 105.271C32.0675 111.048 36.3852 116.701 42.3992 116.793L66.2082 117.162V114.335L82.4305 111.171L78.0511 95.1322C78.0511 95.1322 82.3071 92.7971 80.8267 86.7442L90.4799 93.9646C92.7313 95.6545 95.7228 95.9925 98.3134 94.8864C102.261 93.1658 104.112 88.5877 102.415 84.6549L94.3041 65.6054L85.5762 69.2002L89.3696 79.8311L77.9894 72.0269C76.0773 70.7057 73.8567 69.9991 71.5745 69.9991L66.7017 69.9376L52.6691 72.0576Z" fill="#08A5E2"/>
<path d="M63.556 58.6306C63.556 58.6306 65.6223 57.3095 64.9438 55.1587C64.1111 52.5471 61.1196 54.3906 59.0533 52.7007C56.9561 51.0108 54.1496 50.4885 51.8674 52.3627C49.5543 54.2677 50.8496 55.5889 49.2459 57.5245C47.5188 59.5831 48.3824 61.9182 48.3824 61.9182C48.3824 61.9182 50.5721 68.8621 47.3029 71.4737C44.0338 74.0853 44.4347 75.6523 44.4347 75.6523L68.1204 69.9682C68.1204 69.9682 66.5784 64.7449 62.8467 64.0383L63.556 58.6306Z" fill="#183453"/>
<path d="M51.4664 58.661C51.6104 58.6405 51.744 58.6303 51.8674 58.6303C53.8103 58.6303 55.3832 60.1973 55.3832 62.133C55.3832 62.2763 55.3729 62.43 55.3524 62.5938C60.7803 61.1498 59.7009 56.7868 59.7009 56.7868C61.5205 58.0772 62.97 57.4935 63.0317 57.4627C61.9214 55.5578 59.886 54.2673 57.5112 54.2673C54.7047 54.2673 52.2991 56.1108 51.4664 58.661Z" fill="#183453"/>
<path d="M57.5112 66.6184C56.8327 66.6184 56.1234 66.4955 55.4757 66.2804C55.1673 66.1575 54.8795 66.0244 54.6122 65.881V63.9146L54.0879 64.4062C53.8617 64.6315 53.615 64.8159 53.3477 64.9593C52.515 64.1604 51.929 63.1772 51.6515 62.0711C51.5281 61.6 51.4664 61.1084 51.4664 60.5963C51.4664 60.0228 51.5487 59.4697 51.7132 58.9372C51.7543 58.9372 51.8057 58.9372 51.8674 58.9372C53.6253 58.9372 55.0748 60.3812 55.0748 62.1326C55.0748 62.2759 55.0645 62.4193 55.044 62.5627L54.9823 63.0236L55.414 62.9007C59.7626 61.7331 60.1635 58.7221 60.071 57.3702C60.9037 57.8311 61.5822 57.9232 62.0757 57.9232C62.4149 57.9232 62.6925 57.8925 62.8775 57.8311C63.3401 58.6914 63.556 59.6438 63.556 60.5963C63.556 63.0543 62.0448 65.2973 59.7626 66.1883L59.7009 66.219C58.9916 66.4955 58.2822 66.6184 57.5112 66.6184Z" fill="white"/>
<path fill-rule="evenodd" clip-rule="evenodd" d="M62.0758 57.6165C62.631 57.6165 63.0011 57.4629 63.0319 57.4629C63.5562 58.3846 63.8646 59.46 63.8646 60.5968C63.8646 63.3006 62.1684 65.605 59.7936 66.4961C59.0843 66.7726 58.3133 66.9262 57.5114 66.9262C56.7712 66.9262 56.031 66.8033 55.3834 66.5575C54.9927 66.4346 54.6329 66.2707 54.304 66.0659V64.6218C53.9955 64.9291 53.6563 65.1441 53.2862 65.3285C52.361 64.4989 51.6825 63.3928 51.3432 62.1638C51.2199 61.6517 51.1582 61.1294 51.1582 60.5968C51.1582 59.9209 51.2816 59.2757 51.4666 58.6612C51.6105 58.6407 51.7442 58.6304 51.8675 58.6304C53.8105 58.6304 55.3834 60.1974 55.3834 62.1331C55.3834 62.2765 55.3731 62.4301 55.3525 62.594C60.7805 61.1499 59.7011 56.7869 59.7011 56.7869C60.6572 57.4629 61.4899 57.6165 62.0758 57.6165ZM51.775 60.5968C51.775 61.068 51.8367 61.5391 51.9601 62.0102C52.2068 62.9627 52.7002 63.8537 53.3787 64.5604C53.5638 64.4579 53.7283 64.3351 53.8722 64.1917L54.7049 63.3928L54.6124 63.4235L54.7357 62.5018C54.7563 62.3789 54.7666 62.256 54.7666 62.1331C54.7666 60.5661 53.5021 59.2757 51.9292 59.2449C51.8264 59.6956 51.775 60.1462 51.775 60.5968ZM55.5068 63.1777L54.9208 63.3314V65.6972C55.1264 65.7996 55.3423 65.8918 55.5684 65.9737C56.1852 66.2195 56.8637 66.3117 57.5114 66.3117C58.2207 66.3117 58.9301 66.1888 59.5777 65.943L59.7011 65.8815C61.8291 65.0212 63.2478 62.9012 63.2478 60.5968C63.2478 59.7673 63.0627 58.9377 62.7235 58.1696C62.5384 58.2105 62.3226 58.231 62.0758 58.231C61.6441 58.231 61.0581 58.1696 60.3796 57.8623C60.3179 59.46 59.5777 62.1024 55.5068 63.1777Z" fill="#183453"/>
<path d="M59.2692 76.082C54.7973 76.082 53.1319 72.395 52.9777 71.9956L52.4534 68.1549L54.4272 66.3422L54.8281 66.4651L55.1365 66.7723C55.9075 67.5404 57.9739 69.3225 60.7187 69.3225C61.6439 69.3225 62.6 69.1074 63.4944 68.6773L66.4242 70.1521C66.4242 71.0124 66.2392 74.9759 60.9037 75.9284C60.3281 76.0308 59.7832 76.082 59.2692 76.082Z" fill="white"/>
<path fill-rule="evenodd" clip-rule="evenodd" d="M55.2601 66.2501C55.2601 66.2501 55.4143 66.4037 55.6301 66.6495C55.5479 66.629 55.4657 66.5983 55.3834 66.5573C56.0311 67.2333 58.0357 69.0153 60.7189 69.0153C61.5824 69.0153 62.5076 68.831 63.4945 68.3394L66.702 69.9371C66.702 69.9371 67.1954 75.0989 60.9656 76.2357C60.3488 76.3381 59.7834 76.3893 59.2694 76.3893C54.3348 76.3893 52.6694 72.0571 52.6694 72.0571L52.1451 68.0321L54.304 66.0657V66.0043L55.2601 66.2501ZM52.7928 68.2779L53.2554 71.9035C53.5021 72.4258 55.075 75.8056 59.2385 75.8056C59.7525 75.8056 60.2871 75.7544 60.8422 75.6519C65.6226 74.7609 66.0852 71.4119 66.0852 70.3365L63.4945 69.0461C62.5693 69.4148 61.6441 69.6298 60.7189 69.6298C57.8507 69.6298 55.6918 67.7863 54.9208 66.9875L54.6432 66.7417L54.5199 66.7109L52.7928 68.2779Z" fill="#183453"/>
<path d="M65.8999 114.335L65.8382 104.78L49.2459 104.257L49.3692 103.858C49.8318 102.475 48.7216 101.891 48.6907 101.861L48.4749 101.769L48.5057 101.554L51.3122 85.1771L51.8982 85.3L49.1534 101.431C49.6468 101.769 50.2636 102.537 50.0786 103.674L66.455 104.196L66.5167 114.335H65.8999Z" fill="#183453"/>
<path d="M46.6862 107.913L46.1002 107.882C46.1002 107.821 46.3469 104.349 49.6161 103.673L49.7394 104.257C46.9329 104.871 46.717 107.79 46.6862 107.913Z" fill="#183453"/>
<path d="M42.9236 104.134L42.3993 103.796C44.4656 100.386 48.845 101.277 48.8759 101.277L48.7525 101.891C48.5983 101.861 44.7432 101.093 42.9236 104.134Z" fill="#183453"/>
<path d="M51.2197 88.6798L50.9113 88.1267C54.7972 85.976 54.6738 81.4901 54.6738 81.4594L55.2906 81.4287C55.2906 81.4594 55.4448 86.314 51.2197 88.6798Z" fill="#183453"/>
<path d="M80.5494 86.8361C80.5186 86.8054 78.7607 82.1352 73.9187 81.7358H73.8261L71.2664 80.0152L71.6056 79.4928L74.042 81.1213C79.2541 81.6129 81.1046 86.5903 81.1046 86.621L80.5494 86.8361Z" fill="#183453"/>
<path d="M76.1082 81.9197L75.5222 81.7354C76.3549 79.093 74.5045 77.0344 74.4736 77.0344L74.9362 76.6043C75.0288 76.6965 77.0643 78.9394 76.1082 81.9197Z" fill="#183453"/>
<path d="M48.814 116.885C48.814 116.885 46.9944 140.943 80.8267 150.591L63.4326 184.266L81.6594 194.405L108.09 154.247C112.593 147.365 110.002 138.116 102.569 134.552L97.4191 132.094L114.659 128.991L130.234 174.771L151.76 166.937L133.472 114.489C130.881 107.053 123.14 102.69 115.399 104.288L82.4305 111.171" fill="white"/>
<path d="M81.7524 194.835L63.0012 184.388L80.3954 150.775C63.0629 145.736 55.3218 136.856 51.8677 130.25C48.1051 123.061 48.506 116.916 48.506 116.854L49.1228 116.916C49.1228 116.977 48.7219 122.938 52.4228 130.005C55.8461 136.518 63.5563 145.337 80.9197 150.283L81.2898 150.375L63.8339 184.142L81.5365 194.005L107.813 154.062C109.941 150.867 110.558 146.903 109.509 143.247C108.491 139.56 105.901 136.488 102.447 134.829L96.4326 131.971L114.845 128.653L130.45 174.402L151.36 166.752L133.195 114.611C130.635 107.33 123.017 103.028 115.461 104.595L82.4925 111.447L82.3383 110.863L115.338 104.011C123.202 102.352 131.128 106.838 133.75 114.396L152.131 167.121L130.049 175.171L114.444 129.329L98.4064 132.217L102.693 134.275C106.332 135.996 109.016 139.222 110.095 143.063C111.174 146.934 110.527 151.051 108.337 154.4L81.7524 194.835Z" fill="#183453"/>
<path d="M97.2959 132.371L80.8269 125.611L80.9811 125.304C81.0119 125.242 83.7259 119.835 81.5054 116.854L81.9989 116.486C84.1577 119.374 82.2456 124.044 81.6905 125.273L97.5426 131.818L97.2959 132.371Z" fill="#183453"/>
<path d="M81.1045 150.713L80.5493 150.467C80.7035 150.099 84.4661 141.895 90.9735 141.342L91.0352 141.956C84.8979 142.479 81.1353 150.621 81.1045 150.713Z" fill="#183453"/>
<path d="M57.7581 132.555L57.2646 132.186C61.2739 127.117 58.5291 120.664 58.4983 120.603L59.0534 120.357C59.0843 120.419 61.9833 127.178 57.7581 132.555Z" fill="#183453"/>
<path d="M69.0458 187.368L68.4906 187.091L89.8016 146.288C86.5942 145.305 64.6047 138.269 59.2384 128.284L59.7627 128.007C65.3449 138.331 90.0792 145.735 90.3259 145.828L90.696 145.92L69.0458 187.368Z" fill="#183453"/>
<path d="M114.752 129.268L114.536 128.714C114.598 128.684 119.902 126.564 120.303 121.494L120.92 121.556C120.488 127.025 114.813 129.268 114.752 129.268Z" fill="#183453"/>
<path d="M136.186 172.62L118.823 125.949L83.6644 126.748L83.6335 126.133L119.255 125.304L136.772 172.405L136.186 172.62Z" fill="#183453"/>
<path d="M86.995 67.3561L80.5493 65.912L79.254 63.6998C78.668 62.7166 78.7297 61.4569 79.3774 60.5044L81.9063 56.9711L80.6727 57.7085C80.1998 57.9747 79.7577 58.1898 79.3465 58.3537C78.8531 58.538 78.4008 58.6302 77.9895 58.6302C77.0643 58.6302 76.6326 58.1079 76.4475 57.8006L79.9634 55.7728C80.1792 55.6499 80.3951 55.6191 80.611 55.6191C80.8166 55.6191 81.0017 55.6499 81.1661 55.7113L86.1623 58.0157L91.837 66.3115L87.3343 68.155L86.995 67.3561Z" fill="white"/>
<path fill-rule="evenodd" clip-rule="evenodd" d="M81.2894 55.4349L81.5978 55.5885L86.3782 57.77L92.2996 66.4345L87.1492 68.5545L86.7791 67.602L80.3334 66.1887L78.9764 63.8843C78.3287 62.7782 78.3904 61.3648 79.1306 60.3202L79.3156 60.1051L80.8268 57.9543C80.3128 58.2616 79.8502 58.4869 79.439 58.6303C78.8839 58.8454 78.4213 58.9375 77.9895 58.9375C76.4474 58.9375 76.0465 57.6778 76.0465 57.6778L79.8091 55.4963C80.0558 55.3734 80.3334 55.312 80.6109 55.312C80.8577 55.312 81.0838 55.353 81.2894 55.4349ZM81.3203 58.323L79.8091 60.4431L79.6549 60.6889C79.0381 61.5492 78.9764 62.6553 79.5007 63.5463L80.7343 65.6356L86.9025 67.0182L87.2417 67.0797L87.3651 67.3869L87.4884 67.7556L91.3744 66.1579L85.9464 58.2309L82.4922 56.6639L81.3203 58.323ZM80.1483 56.0494L76.9101 57.9236C77.0951 58.108 77.4652 58.323 78.0203 58.323C78.3699 58.323 78.7811 58.2411 79.254 58.0772C79.6446 57.9339 80.0661 57.7188 80.5184 57.432L82.1221 56.5103L81.3511 56.1416L81.0427 56.0187C80.9194 55.9572 80.7857 55.9265 80.6418 55.9265C80.4567 55.9265 80.2923 55.9675 80.1483 56.0494Z" fill="#183453"/>
<path d="M83.6642 64.0075C83.6025 63.8539 83.109 62.4098 81.6595 62.84L81.5053 62.8707L81.3511 62.7785C81.2894 62.7171 79.3773 60.9965 80.5492 57.8625L81.1044 58.0776C80.2408 60.4127 81.3203 61.8261 81.6595 62.1948C83.2015 61.8568 84.0342 63.1165 84.2501 63.8539L83.6642 64.0075Z" fill="#183453"/>
<path d="M80.7033 59.4908L80.3333 58.9685C81.6902 57.9853 82.8005 58.692 82.8622 58.7227L82.4921 59.245L82.6771 58.9992L82.5229 59.245C82.4613 59.2143 81.6902 58.7534 80.7033 59.4908Z" fill="#183453"/>
<path d="M81.5978 55.5882L86.3781 57.7696L83.2632 55.2195C82.7389 54.7893 81.9062 54.9429 81.5978 55.5882Z" fill="#183453"/>
<path d="M79.3157 60.1051L80.8269 57.9543C80.3129 58.2616 79.8502 58.4869 79.439 58.6303L79.3157 60.1051Z" fill="#183453"/>
<path d="M70.2488 113.536C68.5525 113.536 67.0413 113.075 66.517 112.891L66.4862 107.944L72.6235 106.1C72.7263 106.059 72.8291 106.039 72.9319 106.039C73.2095 106.039 73.4562 106.162 73.6721 106.315L74.3506 106.93C74.5048 107.053 74.6899 107.114 74.8749 107.114C75.0599 107.114 75.245 107.053 75.3684 106.93C75.5842 106.745 75.831 106.653 76.1085 106.653C76.3553 106.653 76.602 106.715 76.787 106.868L82.215 110.986C81.6393 111.19 81.0636 111.293 80.4879 111.293C78.2365 111.293 76.8795 109.634 76.8487 109.603L76.5403 109.203L76.3244 109.664C75.2758 112.245 73.2403 113.536 70.2488 113.536Z" fill="white"/>
<path fill-rule="evenodd" clip-rule="evenodd" d="M73.8571 106.1L74.5664 106.684C74.6589 106.776 74.7515 106.807 74.8748 106.807C74.9674 106.807 75.0907 106.776 75.1832 106.684C75.43 106.469 75.7692 106.346 76.1085 106.346C76.4169 106.346 76.7253 106.438 76.972 106.623L82.8317 111.078C81.9682 111.447 81.1972 111.6 80.4879 111.6C78.0823 111.6 76.6019 109.787 76.6019 109.787C75.2758 113.044 72.5618 113.843 70.2487 113.843C68.059 113.843 66.2086 113.137 66.2086 113.137L66.1777 107.729L72.5309 105.793C72.6543 105.752 72.7879 105.732 72.9319 105.732C73.2711 105.732 73.6104 105.855 73.8571 106.1ZM72.716 106.408L66.7945 108.19L66.8254 112.676C67.473 112.86 68.7684 113.229 70.2487 113.229C73.0861 113.229 75.029 112 76.0468 109.572L76.4477 108.589L77.0954 109.419C77.0954 109.419 78.4215 110.986 80.4879 110.986C80.8374 110.986 81.1869 110.945 81.5364 110.863L76.6019 107.114C76.458 107.012 76.2935 106.961 76.1085 106.961C75.9234 106.961 75.7384 107.022 75.5842 107.145C75.3683 107.329 75.1216 107.422 74.8748 107.422C74.5973 107.422 74.3505 107.329 74.1655 107.176L73.4562 106.561C73.3328 106.438 73.1169 106.346 72.9319 106.346C72.8496 106.346 72.7777 106.367 72.716 106.408Z" fill="#183453"/>
<path d="M70.9271 108.897L70.7112 108.344L73.8569 107.115L74.0728 107.699L70.9271 108.897Z" fill="#183453"/>
<path d="M91.4054 110.433L119.347 96.6064L112.716 72.9481L84.7747 86.7437L91.4054 110.433Z" fill="#183453"/>
<path d="M74.3811 116.885L88.9688 109.695L82.8932 88.0035L84.5586 87.1739L91.0351 110.248L75.0288 118.175L74.3811 116.885Z" fill="white"/>
<path fill-rule="evenodd" clip-rule="evenodd" d="M91.4051 110.432L74.8745 118.575L73.9801 116.731L88.5986 109.511L82.523 87.8495L84.7744 86.7434L91.4051 110.432ZM83.2323 88.1875L89.1846 109.357L89.308 109.849L88.8453 110.094L74.782 117.038L75.152 117.776L90.665 110.094L84.3734 87.6344L83.2323 88.1875Z" fill="#183453"/>
<path d="M99.6087 93.5956C100.596 95.5927 103.001 96.4223 105.006 95.4083C107.01 94.4251 107.843 91.9979 106.856 90.0007C105.869 88.0036 103.433 87.2048 101.428 88.188C99.4237 89.1712 98.591 91.5984 99.6087 93.5956Z" fill="white"/>
<path d="M51.8367 65.2974C50.0788 65.2667 48.6909 63.8533 48.6909 62.1327C48.6909 60.5043 49.8937 59.1524 51.4974 58.968C51.6208 58.9476 51.7441 58.9373 51.8675 58.9373C53.6254 58.9373 55.0749 60.3814 55.0749 62.1327C55.0749 62.2761 55.0647 62.4195 55.0441 62.5629C54.9824 62.993 54.8282 63.4027 54.5815 63.7919C54.4581 64.0172 54.2937 64.222 54.0881 64.4064C53.8208 64.6727 53.5124 64.8775 53.1628 65.0209C52.7516 65.2052 52.3198 65.2974 51.8675 65.2974H51.8367Z" fill="white"/>
<path fill-rule="evenodd" clip-rule="evenodd" d="M55.3832 62.1332C55.3832 62.2766 55.3729 62.4303 55.3523 62.5941C55.2598 63.0857 55.1056 63.5466 54.8589 63.946C54.6944 64.1918 54.5093 64.4171 54.3037 64.622C53.9953 64.9292 53.6561 65.1443 53.286 65.3286C52.8542 65.513 52.3608 65.6052 51.8673 65.6052C51.8468 65.6052 51.8262 65.6052 51.8056 65.6052C49.9244 65.5744 48.3823 64.0382 48.3823 62.1332C48.3823 60.3205 49.7393 58.8457 51.4664 58.6613C51.6103 58.6408 51.744 58.6306 51.8673 58.6306C53.8103 58.6306 55.3832 60.1976 55.3832 62.1332ZM51.5589 59.2758C50.0786 59.4294 48.9991 60.6584 48.9991 62.1332C48.9991 63.6695 50.2636 64.9599 51.8365 64.9907H51.8673C52.2785 64.9907 52.6692 64.9087 53.0393 64.7449C53.3477 64.622 53.6252 64.4376 53.872 64.1918C54.057 64.028 54.2112 63.8436 54.3346 63.6388C54.5402 63.2906 54.6738 62.9116 54.7355 62.5019C54.7561 62.379 54.7664 62.2561 54.7664 62.1332C54.7664 60.5355 53.471 59.2451 51.8673 59.2451C51.7645 59.2451 51.6617 59.2553 51.5589 59.2758Z" fill="#183453"/>
<path d="M51.8059 65.6044L52.1452 68.0317L54.304 66.0653V64.6212C53.9956 64.9284 53.6564 65.1435 53.2863 65.3279C52.8545 65.5122 52.361 65.6044 51.8676 65.6044C51.847 65.6044 51.8265 65.6044 51.8059 65.6044Z" fill="#183453"/>
<path d="M53.1937 64.2528C53.1937 64.2221 52.0526 61.0267 49.8012 61.2725L49.7395 60.658C52.4843 60.3507 53.718 63.8841 53.7796 64.0377L53.1937 64.2528Z" fill="#183453"/>
<path d="M50.2022 63.2084L49.7087 62.8397C49.7396 62.809 50.6031 61.6721 52.6695 62.1637L52.5153 62.7475C50.8807 62.3481 50.233 63.1777 50.2022 63.2084Z" fill="#183453"/>
<path d="M61.1506 58.999L65.0982 61.3034L61.3974 62.686" fill="white"/>
<path d="M61.5208 62.9625L61.3049 62.4095L64.3889 61.2419L60.9965 59.2448L61.3049 58.7224L65.8076 61.3648L61.5208 62.9625Z" fill="#183453"/>
<path d="M59.0533 61.9177C59.0533 62.2864 59.3309 62.5937 59.701 62.5937C60.0711 62.5937 60.3795 62.2864 60.3795 61.9177C60.3795 61.5798 60.0711 61.2725 59.701 61.2725C59.3309 61.2725 59.0533 61.5798 59.0533 61.9177Z" fill="#183453"/>
<path d="M60.2253 65.1133C59.1767 65.1133 57.1412 64.5602 56.8636 62.5938L57.4805 62.5016C57.7272 64.4373 60.1328 64.4988 60.2253 64.4988V65.1133Z" fill="#183453"/>
<path d="M55.3833 66.5573C56.216 67.4176 59.4851 70.275 63.4944 68.3393L59.7935 66.4958C59.0842 66.7723 58.3132 66.926 57.5113 66.926C56.7711 66.926 56.031 66.8031 55.3833 66.5573Z" fill="#183453"/>
<path fill-rule="evenodd" clip-rule="evenodd" d="M169.463 101.092C169.463 104.902 162.555 114.273 162.555 114.273C162.555 114.273 155.647 104.902 155.647 101.092C155.647 97.2821 158.731 94.2096 162.555 94.2096C166.379 94.2096 169.463 97.2821 169.463 101.092ZM165.423 101.092C165.423 99.4943 164.128 98.2346 162.555 98.2346C160.951 98.2346 159.687 99.4943 159.687 101.092C159.687 102.69 160.951 103.949 162.555 103.949C164.128 103.949 165.423 102.69 165.423 101.092Z" fill="white"/>
<path d="M131.045 8.47445C131.345 8.47445 131.645 8.47445 131.895 8.42447C133.544 8.27455 135.093 8.77429 136.592 9.32401C137.492 9.67384 138.291 10.2236 138.941 10.9732C139.99 12.2226 140.84 13.6219 141.54 15.1711C142.289 16.9202 142.139 18.7693 142.039 20.6183C142.039 21.3679 141.69 22.0676 141.39 22.7672C141.24 23.167 140.94 23.4669 140.69 23.7667C140.49 23.9666 140.24 24.0666 139.99 23.8667C139.741 23.6668 139.741 23.3669 139.94 23.217C140.19 22.9671 140.24 22.7672 140.24 22.4174C140.24 22.0176 140.39 21.6178 140.49 21.218C140.94 19.4689 140.94 17.7198 140.34 16.0206C139.841 14.5214 139.041 13.222 138.041 12.0227C137.692 11.5729 137.242 11.1731 136.792 10.9232C135.493 10.2735 134.193 9.72382 132.694 9.72382C131.545 9.72382 130.345 9.7738 129.196 9.72382C128.096 9.67385 127.097 9.97369 126.147 10.4235C125.748 10.6733 125.298 10.8732 124.898 11.0232C124.598 11.0731 124.298 11.0232 124.048 10.9232C123.799 10.8732 123.749 10.4734 123.999 10.3235C125.148 9.77379 126.147 8.9742 127.397 8.67435C127.897 8.5744 128.396 8.50777 128.896 8.47445C129.596 8.42448 130.295 8.47445 131.045 8.47445Z" fill="#1D4574" fill-opacity="0.3"/>
<path d="M134.743 23.9167C135.443 22.5174 135.743 21.1181 135.243 19.6188C135.193 19.4189 135.143 19.2191 135.143 18.9692C135.093 17.1701 133.993 16.0706 132.394 15.421C131.845 15.2211 131.195 15.1211 130.545 15.0711C130.045 14.9712 129.446 15.0711 128.946 15.0212C128.146 14.9712 127.397 15.1211 126.697 15.421C126.347 15.5709 125.998 15.6708 125.598 15.7208C125.398 15.7208 125.148 15.6209 124.898 15.5209C124.598 15.421 124.598 14.9212 124.848 14.8213C126.097 14.5214 127.147 13.7718 128.496 13.7718C129.196 13.7718 129.896 13.7718 130.645 13.7718C132.794 13.8717 134.543 14.7213 135.743 16.5204C135.992 16.8203 136.142 17.1701 136.192 17.5199C136.442 18.9192 136.842 20.3185 136.792 21.7678C136.792 22.5674 136.442 23.217 136.242 23.9667C136.192 24.1666 135.843 24.3665 135.593 24.4664C135.243 24.5664 134.943 24.3165 134.743 23.9167Z" fill="#1D4574" fill-opacity="0.3"/>
<path d="M129.895 22.5669C129.795 21.2176 128.946 20.418 127.646 20.318C126.697 20.318 125.797 20.6179 124.998 21.0676C124.398 21.4175 124.048 21.9672 124.098 22.7168C124.098 22.9667 124.148 23.1666 124.148 23.2665C124.148 23.6164 124.148 23.8662 124.148 24.1161C124.148 25.2156 124.498 25.7153 125.498 26.1151C126.847 26.6648 128.746 26.1651 129.595 24.9657C129.745 24.7158 129.845 24.366 129.895 24.0661C129.945 23.5664 129.895 23.0666 129.895 22.5669Z" fill="#1D4574" fill-opacity="0.3"/>
<path d="M133.394 21.967C133.344 22.5168 133.344 23.1165 133.294 23.7162C133.194 24.2659 132.744 24.5157 132.244 24.4158C131.894 24.3158 131.695 24.016 131.844 23.6662C132.394 22.6167 132.144 21.5173 132.094 20.4678C132.044 19.6682 131.045 18.8186 130.245 18.8186C128.896 18.7686 127.547 18.6187 126.247 19.1684C125.997 19.2684 125.698 19.3184 125.398 19.3184C125.248 19.3184 125.048 19.1684 125.048 19.0185C124.998 18.9186 125.048 18.6687 125.148 18.5687C125.414 18.3688 125.698 18.2023 125.997 18.069C127.497 17.4193 129.046 17.5193 130.595 17.6692C131.994 17.7691 133.194 19.1684 133.344 20.5677C133.344 21.0175 133.344 21.4673 133.344 21.967C133.344 21.967 133.36 21.967 133.394 21.967Z" fill="#1D4574" fill-opacity="0.3"/>
</g>
</g>
<defs>
<clipPath id="clip0_359_782">
<rect width="204.351" height="165.339" fill="white" transform="translate(0.957153 0.790771)"/>
</clipPath>
<clipPath id="clip1_359_782">
<rect width="195.991" height="165.339" fill="white" transform="translate(8.38806 1.09961)"/>
</clipPath>
</defs>
</svg>
