<svg width="22" height="23" viewBox="0 0 22 23" fill="none" xmlns="http://www.w3.org/2000/svg">
<path d="M18.3849 16.6619C18.3849 18.0236 17.6149 19.0402 16.7649 19.3864C15.9149 19.7346 14.0489 19.6212 14.0489 19.6212M3.84295 8.19757C4.12295 6.05816 5.99295 1.76126 11.2219 1.69001C16.4509 1.61977 18.1619 5.99895 18.3649 8.19757M5.82995 15.4387V9.11977C5.8322 9.0315 5.80833 8.94453 5.76134 8.86987C5.71435 8.79521 5.64635 8.73621 5.56595 8.70032C5.15395 8.52571 4.30595 8.24474 3.34195 8.37419C1.27695 8.65014 1.12195 11.2221 1.12195 12.1252C1.12195 14.2465 1.35795 15.7578 3.34195 16.2194C4.59195 16.5104 5.38195 16.0478 5.71195 15.7407C5.75128 15.7012 5.78207 15.654 5.80237 15.6021C5.82268 15.5501 5.83206 15.4945 5.82995 15.4387ZM16.3299 9.2141V15.532C16.3299 15.7146 16.4269 15.8812 16.5939 15.9525C17.0059 16.1271 17.8539 16.408 18.8179 16.2786C20.8829 16.0026 21.0369 13.4307 21.0369 12.5276C21.0369 10.4062 20.8019 8.89499 18.8169 8.43339C17.5689 8.14238 16.7779 8.60398 16.4489 8.91205C16.4093 8.95136 16.3781 8.99849 16.3574 9.05047C16.3368 9.10246 16.3281 9.15817 16.3299 9.2141Z" stroke="#183453" stroke-width="1.5"/>
<path d="M12.4436 17.696H9.82164C8.77506 17.696 7.92664 18.5474 7.92664 19.5976C7.92664 20.6479 8.77506 21.4992 9.82164 21.4992H12.4436C13.4902 21.4992 14.3386 20.6479 14.3386 19.5976C14.3386 18.5474 13.4902 17.696 12.4436 17.696Z" fill="#08A5E2" stroke="#08A5E2" stroke-width="1.5"/>
</svg>
