<svg width="54" height="51" viewBox="0 0 54 51" fill="none" xmlns="http://www.w3.org/2000/svg">
<path d="M0.882439 49.9835C0.882439 35.7524 12.4191 24.2312 26.6348 24.2312C40.8505 24.2312 52.3871 35.7524 52.3871 49.9835" fill="#FFC000"/>
<path d="M21.8033 49.9834H16.8944V5.57104H21.8033V49.9834Z" fill="white"/>
<path fill-rule="evenodd" clip-rule="evenodd" d="M22.2679 50.4479H16.4299V5.10645H22.2679V50.4479ZM17.359 49.5188H21.3388V6.03557H17.359V49.5188Z" fill="#183453"/>
<path d="M44.4121 49.9834H39.5032V5.57104H44.4121V49.9834Z" fill="white"/>
<path fill-rule="evenodd" clip-rule="evenodd" d="M44.8767 50.4479H39.0387V5.10645H44.8767V50.4479ZM39.9678 49.5188H43.9476V6.03557H39.9678V49.5188Z" fill="#183453"/>
<path d="M42.399 11.9667H39.5032V10.1084H42.399V11.9667Z" fill="#08A5E2"/>
<path d="M21.8033 11.9667H18.9075V10.1084H21.8033V11.9667Z" fill="#08A5E2"/>
<path d="M42.399 15.4508H39.5032V13.5925H42.399V15.4508Z" fill="#08A5E2"/>
<path d="M42.399 18.9349H39.5032V17.0767H42.399V18.9349Z" fill="#08A5E2"/>
<path d="M42.399 22.4193H39.5032V20.561H42.399V22.4193Z" fill="#08A5E2"/>
<path d="M42.399 25.9037H39.5032V24.0454H42.399V25.9037Z" fill="#08A5E2"/>
<path d="M42.399 29.3876H39.5032V27.5293H42.399V29.3876Z" fill="#08A5E2"/>
<path d="M42.399 32.8719H39.5032V31.0137H42.399V32.8719Z" fill="#08A5E2"/>
<path d="M42.399 36.3561H39.5032V34.4978H42.399V36.3561Z" fill="#08A5E2"/>
<path d="M42.399 39.8407H39.5032V37.9824H42.399V39.8407Z" fill="#08A5E2"/>
<path d="M42.399 43.3246H39.5032V41.4663H42.399V43.3246Z" fill="#08A5E2"/>
<path d="M42.399 46.8087H39.5032V44.9504H42.399V46.8087Z" fill="#08A5E2"/>
<path d="M39.5032 49.9835H21.8033V1.08032H39.5032V49.9835Z" fill="white"/>
<path fill-rule="evenodd" clip-rule="evenodd" d="M39.9678 50.448H21.3388V0.615723H39.9678V50.448ZM22.2679 49.5188H39.0387V1.54485H22.2679V49.5188Z" fill="#183453"/>
<path d="M27.8891 49.9834H8.68713V12.6169H27.8891V49.9834Z" fill="white"/>
<path d="M21.8033 49.9834H14.7884V45.9417H21.8033V49.9834Z" fill="#08A5E2"/>
<path d="M16.2286 19.6166H8.68713V17.7583H16.2286V19.6166Z" fill="#08A5E2"/>
<path d="M16.2286 23.4256H8.68713V21.5674H16.2286V23.4256Z" fill="#08A5E2"/>
<path d="M16.2286 27.2508H8.68713V25.3926H16.2286V27.2508Z" fill="#08A5E2"/>
<path d="M16.2286 31.0755H8.68713V29.2173H16.2286V31.0755Z" fill="#08A5E2"/>
<path d="M16.2286 34.8849H8.68713V33.0266H16.2286V34.8849Z" fill="#08A5E2"/>
<path d="M16.2286 38.7101H8.68713V36.8518H16.2286V38.7101Z" fill="#08A5E2"/>
<path d="M16.2286 42.5348H8.68713V40.6765H16.2286V42.5348Z" fill="#08A5E2"/>
<path d="M27.8891 19.6166H20.3632V17.7583H27.8891V19.6166Z" fill="#08A5E2"/>
<path d="M27.8891 23.4256H20.3632V21.5674H27.8891V23.4256Z" fill="#08A5E2"/>
<path d="M27.8891 27.2508H20.3632V25.3926H27.8891V27.2508Z" fill="#08A5E2"/>
<path d="M27.8891 31.0755H20.3632V29.2173H27.8891V31.0755Z" fill="#08A5E2"/>
<path d="M27.8891 34.8849H20.3632V33.0266H27.8891V34.8849Z" fill="#08A5E2"/>
<path d="M27.8891 38.7101H20.3632V36.8518H27.8891V38.7101Z" fill="#08A5E2"/>
<path d="M27.8891 42.5348H20.3632V40.6765H27.8891V42.5348Z" fill="#08A5E2"/>
<path d="M27.8891 15.3268H8.68713V14.3977H27.8891V15.3268Z" fill="#183453"/>
<path d="M16.2286 20.081H8.68713V19.1519H16.2286V20.081Z" fill="#183453"/>
<path d="M27.8891 20.081H20.3632V19.1519H27.8891V20.081Z" fill="#183453"/>
<path d="M16.2286 23.8903H8.68713V22.9612H16.2286V23.8903Z" fill="#183453"/>
<path d="M27.8891 23.8903H20.3632V22.9612H27.8891V23.8903Z" fill="#183453"/>
<path d="M16.2286 27.7153H8.68713V26.7861H16.2286V27.7153Z" fill="#183453"/>
<path d="M27.8891 27.7153H20.3632V26.7861H27.8891V27.7153Z" fill="#183453"/>
<path d="M16.2286 31.5402H8.68713V30.6111H16.2286V31.5402Z" fill="#183453"/>
<path d="M27.8891 31.5402H20.3632V30.6111H27.8891V31.5402Z" fill="#183453"/>
<path d="M16.2286 35.3498H8.68713V34.4207H16.2286V35.3498Z" fill="#183453"/>
<path d="M27.8891 35.3498H20.3632V34.4207H27.8891V35.3498Z" fill="#183453"/>
<path d="M16.2286 39.1745H8.68713V38.2454H16.2286V39.1745Z" fill="#183453"/>
<path d="M27.8891 39.1745H20.3632V38.2454H27.8891V39.1745Z" fill="#183453"/>
<path d="M16.2286 42.9997H8.68713V42.0706H16.2286V42.9997Z" fill="#183453"/>
<path d="M25.2566 46.4062H11.3197V45.4771H25.2566V46.4062Z" fill="#183453"/>
<path d="M27.8891 42.9997H20.3632V42.0706H27.8891V42.9997Z" fill="#183453"/>
<path d="M18.7527 49.9834H17.8236V45.9417H18.7527V49.9834Z" fill="#183453"/>
<path d="M13.6115 49.9834H12.6824V45.9417H13.6115V49.9834Z" fill="#183453"/>
<path d="M23.9248 49.9834H22.9957V45.9417H23.9248V49.9834Z" fill="#183453"/>
<path fill-rule="evenodd" clip-rule="evenodd" d="M28.3537 50.4479H8.22256V12.1523H28.3537V50.4479ZM9.15169 49.5188H27.4246V13.0815H9.15169V49.5188Z" fill="#183453"/>
<path d="M51.0244 50.4325H50.0953V41.6367H51.0244V50.4325Z" fill="#183453"/>
<path d="M53.1459 38.1062C53.1459 40.1348 51.9845 41.7917 50.5599 41.7917C49.1352 41.7917 47.9738 40.1348 47.9738 38.1062C47.9738 36.0621 49.1352 34.4207 50.5599 34.4207C51.9845 34.4207 53.1459 36.0621 53.1459 38.1062Z" fill="white"/>
<path fill-rule="evenodd" clip-rule="evenodd" d="M50.5599 42.256C48.8719 42.256 47.5092 40.3823 47.5092 38.1059C47.5092 35.8141 48.8719 33.9558 50.5599 33.9558C52.2323 33.9558 53.6105 35.8141 53.6105 38.1059C53.6105 40.3823 52.2323 42.256 50.5599 42.256ZM50.5599 34.8849C49.4139 34.8849 48.4383 36.3561 48.4383 38.1059C48.4383 39.8403 49.4139 41.3269 50.5599 41.3269C51.7058 41.3269 52.6814 39.8403 52.6814 38.1059C52.6814 36.3561 51.7058 34.8849 50.5599 34.8849Z" fill="#183453"/>
<path d="M10.0808 49.9833C10.0034 49.2864 9.41494 48.7599 8.7181 48.7599C8.63551 48.7599 8.55292 48.7651 8.47033 48.7754C8.33096 47.3972 7.15406 46.3132 5.7294 46.3132C4.67639 46.3132 3.76274 46.9017 3.29818 47.7689C3.22591 47.7689 3.14849 47.7689 3.0659 47.7689C1.95094 47.7689 1.0373 48.6825 1.0373 49.7975C1.0373 49.8594 1.04246 49.9213 1.05279 49.9833H10.0808Z" fill="white"/>
<path fill-rule="evenodd" clip-rule="evenodd" d="M10.6073 50.4481H0.619195L0.588224 50.0145C0.577901 49.9422 0.572739 49.8699 0.572739 49.7977C0.572739 48.435 1.67221 47.32 3.03493 47.3045C3.62338 46.3909 4.64542 45.8489 5.7294 45.8489C7.23149 45.8489 8.51679 46.8709 8.85747 48.2956C9.74014 48.373 10.4525 49.0389 10.5454 49.9216L10.6073 50.4481ZM1.53284 49.5189H9.38398C9.18266 49.3021 8.85747 49.1937 8.56324 49.2402L8.06771 49.3331L8.02125 48.8376C7.89737 47.6607 6.9063 46.778 5.7294 46.778C4.8777 46.778 4.10343 47.2581 3.7008 48.0014L3.56144 48.2801L3.25173 48.2491C3.18978 48.2388 3.133 48.2336 3.08139 48.2336C2.30711 48.2336 1.67221 48.7911 1.53284 49.5189Z" fill="#183453"/>
<path d="M52.4955 49.9833C52.4181 49.2864 51.8297 48.7599 51.1328 48.7599C51.0502 48.7599 50.9676 48.7651 50.8851 48.7754C50.7457 47.3972 49.5688 46.3132 48.1441 46.3132C47.0911 46.3132 46.162 46.9017 45.6974 47.7689C45.6252 47.7689 45.5529 47.7689 45.4806 47.7689C44.3657 47.7689 43.452 48.6825 43.452 49.7975C43.452 49.8594 43.452 49.9213 43.452 49.9833H52.4955Z" fill="white"/>
<path fill-rule="evenodd" clip-rule="evenodd" d="M53.022 50.4481H43.0339L42.9875 50.0145C42.9875 49.9422 42.9875 49.8699 42.9875 49.7977C42.9875 48.435 44.0869 47.32 45.4496 47.3045C46.0381 46.3909 47.0447 45.8489 48.1441 45.8489C49.6462 45.8489 50.9315 46.8709 51.2722 48.2956C52.1394 48.373 52.8517 49.0389 52.9601 49.9216L53.022 50.4481ZM43.9476 49.5189H51.7987C51.5974 49.3021 51.2722 49.1937 50.978 49.2402L50.4824 49.3331L50.436 48.8376C50.2966 47.6607 49.321 46.778 48.1441 46.778C47.2924 46.778 46.5181 47.2581 46.1155 48.0014L45.9762 48.2801L45.651 48.2491C45.5993 48.2388 45.5426 48.2336 45.4806 48.2336C44.7218 48.2336 44.0714 48.7911 43.9476 49.5189Z" fill="#183453"/>
</svg>
