<svg width="33" height="33" viewBox="0 0 33 33" fill="none" xmlns="http://www.w3.org/2000/svg">
<path d="M13.5265 17.0825C13.5265 15.4741 14.8308 14.1698 16.4402 14.1698C18.0496 14.1698 19.3546 15.4741 19.3546 17.0825C19.3546 18.6909 18.0496 19.9951 16.4402 19.9951C14.8308 19.9951 13.5265 18.6909 13.5265 17.0825ZM11.951 17.0825C11.951 19.5604 13.9608 21.569 16.4402 21.569C18.9196 21.569 20.9294 19.5604 20.9294 17.0825C20.9294 14.6046 18.9196 12.596 16.4402 12.596C13.9608 12.596 11.951 14.6046 11.951 17.0825ZM20.058 12.4181C20.0579 12.6255 20.1194 12.8282 20.2346 13.0007C20.3498 13.1731 20.5136 13.3076 20.7052 13.387C20.8969 13.4665 21.1078 13.4873 21.3114 13.4469C21.5149 13.4066 21.7018 13.3068 21.8486 13.1602C21.9954 13.0136 22.0954 12.8269 22.136 12.6235C22.1765 12.4201 22.1558 12.2093 22.0765 12.0177C21.9972 11.8261 21.8628 11.6623 21.6903 11.547C21.5178 11.4317 21.315 11.3701 21.1075 11.3701H21.1071C20.829 11.3702 20.5623 11.4806 20.3656 11.6771C20.1689 11.8736 20.0582 12.1402 20.058 12.4181ZM12.9082 24.1944C12.0559 24.1556 11.5926 24.0137 11.2847 23.8938C10.8765 23.735 10.5853 23.5459 10.2791 23.2403C9.97291 22.9347 9.78338 22.6439 9.62517 22.236C9.50515 21.9284 9.36318 21.4653 9.32443 20.6135C9.28205 19.6925 9.27358 19.4158 9.27358 17.0826C9.27358 14.7493 9.28274 14.4734 9.32443 13.5516C9.36325 12.6998 9.50627 12.2376 9.62517 11.9291C9.78408 11.5212 9.97333 11.2301 10.2791 10.9241C10.5849 10.6181 10.8758 10.4287 11.2847 10.2706C11.5924 10.1506 12.0559 10.0087 12.9082 9.97C13.8298 9.92764 14.1066 9.91918 16.4402 9.91918C18.7738 9.91918 19.0509 9.92834 19.9732 9.97C20.8256 10.0088 21.2881 10.1517 21.5967 10.2706C22.0049 10.4287 22.2961 10.6185 22.6023 10.9241C22.9085 11.2297 23.0974 11.5212 23.2563 11.9291C23.3763 12.2367 23.5183 12.6998 23.557 13.5516C23.5994 14.4734 23.6079 14.7493 23.6079 17.0826C23.6079 19.4158 23.5994 19.6917 23.557 20.6135C23.5182 21.4653 23.3755 21.9283 23.2563 22.236C23.0974 22.6439 22.9081 22.935 22.6023 23.2403C22.2966 23.5456 22.0049 23.735 21.5967 23.8938C21.289 24.0138 20.8256 24.1557 19.9732 24.1944C19.0517 24.2368 18.7749 24.2452 16.4402 24.2452C14.1055 24.2452 13.8295 24.2368 12.9082 24.1944ZM12.8358 8.39813C11.9051 8.44049 11.2692 8.58797 10.7138 8.80396C10.1386 9.027 9.65168 9.32624 9.16511 9.81175C8.67853 10.2973 8.37989 10.7847 8.15671 11.3595C7.94059 11.9149 7.79302 12.5501 7.75064 13.4803C7.70755 14.4119 7.69769 14.7097 7.69769 17.0825C7.69769 19.4552 7.70755 19.7531 7.75064 20.6847C7.79302 21.6149 7.94059 22.2501 8.15671 22.8055C8.37989 23.38 8.6786 23.8679 9.16511 24.3532C9.65161 24.8385 10.1386 25.1373 10.7138 25.361C11.2702 25.577 11.9051 25.7245 12.8358 25.7668C13.7685 25.8092 14.066 25.8197 16.4402 25.8197C18.8144 25.8197 19.1124 25.8099 20.0446 25.7668C20.9753 25.7245 21.6109 25.577 22.1666 25.361C22.7415 25.1373 23.2287 24.8387 23.7153 24.3532C24.2019 23.8677 24.4999 23.38 24.7237 22.8055C24.9398 22.2501 25.0881 21.6148 25.1298 20.6847C25.1721 19.7524 25.182 19.4552 25.182 17.0825C25.182 14.7097 25.1721 14.4119 25.1298 13.4803C25.0874 12.5501 24.9398 11.9146 24.7237 11.3595C24.4999 10.785 24.2011 10.298 23.7153 9.81175C23.2295 9.32547 22.7415 9.027 22.1673 8.80396C21.6109 8.58797 20.9753 8.43979 20.0453 8.39813C19.1131 8.35577 18.8151 8.34521 16.4409 8.34521C14.0667 8.34521 13.7685 8.35507 12.8358 8.39813Z" fill="#FFC000"/>
</svg>
