<svg width="33" height="34" viewBox="0 0 33 34" fill="none" xmlns="http://www.w3.org/2000/svg">
<path fill-rule="evenodd" clip-rule="evenodd" d="M8.99768 8.44727C8.27431 8.44727 7.6875 9.01621 7.6875 9.71714V24.9054C7.6875 25.6064 8.27438 26.1748 8.99768 26.1748H24.1049C24.8285 26.1748 25.4151 25.6063 25.4151 24.9052V9.71714C25.4151 9.01621 24.8285 8.44727 24.1049 8.44727H8.99768ZM13.0746 15.3019V23.283H10.4218V15.3019H13.0746ZM13.2494 12.8337C13.2494 13.5996 12.6736 14.2125 11.7488 14.2125L11.7314 14.2124C10.8411 14.2124 10.2655 13.5995 10.2655 12.8337C10.2655 12.0504 10.8584 11.4546 11.7664 11.4546C12.6736 11.4546 13.2321 12.0504 13.2494 12.8337ZM17.1955 23.283H14.5429C14.5429 23.283 14.5777 16.0509 14.5431 15.3022H17.1957V16.4319C17.5483 15.8882 18.1794 15.1148 19.5865 15.1148C21.3318 15.1148 22.6403 16.2556 22.6403 18.7069V23.283H19.9878V19.0138C19.9878 17.9408 19.6037 17.209 18.644 17.209C17.911 17.209 17.4746 17.7025 17.2829 18.1793C17.2128 18.3494 17.1955 18.5883 17.1955 18.8265V23.283Z" fill="#FFC000"/>
</svg>
