<svg width="158" height="65" viewBox="0 0 158 65" fill="none" xmlns="http://www.w3.org/2000/svg">
<rect x="3.7565" y="1.35156" width="153.753" height="60.0829" transform="rotate(1 3.7565 1.35156)" fill="#08A5E2"/>
<rect x="1.0201" y="0.488419" width="152.873" height="59.2027" fill="white" stroke="black" stroke-width="0.880159"/>
<path d="M58.9604 35.8477C58.8548 35.8477 58.765 35.8107 58.6911 35.7368C58.6171 35.6628 58.5802 35.573 58.5802 35.4674V25.1379C58.5802 25.0323 58.6171 24.9425 58.6911 24.8686C58.765 24.7946 58.8548 24.7577 58.9604 24.7577H60.4338C60.5394 24.7577 60.6292 24.7946 60.7031 24.8686C60.777 24.9425 60.814 25.0323 60.814 25.1379V33.9624H65.8362C65.9524 33.9624 66.0474 33.9993 66.1214 34.0733C66.1953 34.1472 66.2323 34.2422 66.2323 34.3584V35.4674C66.2323 35.573 66.1953 35.6628 66.1214 35.7368C66.0474 35.8107 65.9524 35.8477 65.8362 35.8477H58.9604ZM71.1002 36.0061C70.2553 36.0061 69.5424 35.8582 68.9614 35.5625C68.3911 35.2668 67.9528 34.8496 67.6465 34.3109C67.3508 33.7722 67.1818 33.1438 67.1395 32.4256C67.129 32.2355 67.1237 32.0031 67.1237 31.7285C67.1237 31.4539 67.129 31.2215 67.1395 31.0314C67.1818 30.3027 67.356 29.6742 67.6623 29.1461C67.9792 28.6075 68.4228 28.1903 68.9931 27.8945C69.574 27.5988 70.2764 27.4509 71.1002 27.4509C71.9241 27.4509 72.6211 27.5988 73.1915 27.8945C73.7724 28.1903 74.216 28.6075 74.5223 29.1461C74.8391 29.6742 75.0187 30.3027 75.0609 31.0314C75.0715 31.2215 75.0768 31.4539 75.0768 31.7285C75.0768 32.0031 75.0715 32.2355 75.0609 32.4256C75.0187 33.1438 74.8444 33.7722 74.5381 34.3109C74.2424 34.8496 73.8041 35.2668 73.2232 35.5625C72.6528 35.8582 71.9452 36.0061 71.1002 36.0061ZM71.1002 34.4376C71.66 34.4376 72.0931 34.2634 72.3993 33.9148C72.7056 33.5557 72.8746 33.0329 72.9063 32.3464C72.9169 32.188 72.9222 31.982 72.9222 31.7285C72.9222 31.475 72.9169 31.2691 72.9063 31.1106C72.8746 30.4347 72.7056 29.9171 72.3993 29.558C72.0931 29.1989 71.66 29.0194 71.1002 29.0194C70.5405 29.0194 70.1074 29.1989 69.8011 29.558C69.4948 29.9171 69.3258 30.4347 69.2941 31.1106C69.2836 31.2691 69.2783 31.475 69.2783 31.7285C69.2783 31.982 69.2836 32.188 69.2941 32.3464C69.3258 33.0329 69.4948 33.5557 69.8011 33.9148C70.1074 34.2634 70.5405 34.4376 71.1002 34.4376ZM80.3968 36.0061C79.6363 36.0061 78.9656 35.8635 78.3847 35.5783C77.8144 35.2932 77.3655 34.8812 77.0381 34.3426C76.7212 33.7934 76.547 33.1332 76.5153 32.3622C76.5047 32.2038 76.4994 31.9978 76.4994 31.7444C76.4994 31.4803 76.5047 31.2638 76.5153 31.0948C76.547 30.3238 76.7212 29.6689 77.0381 29.1303C77.3655 28.5811 77.8144 28.1639 78.3847 27.8787C78.9656 27.5935 79.6363 27.4509 80.3968 27.4509C81.0727 27.4509 81.6484 27.546 82.1236 27.7361C82.5989 27.9262 82.9897 28.1639 83.296 28.449C83.6023 28.7342 83.8294 29.0352 83.9773 29.3521C84.1357 29.6584 84.2202 29.9383 84.2307 30.1918C84.2413 30.3079 84.2043 30.403 84.1198 30.4769C84.0459 30.5403 83.9561 30.572 83.8505 30.572H82.4563C82.3507 30.572 82.2662 30.5456 82.2029 30.4928C82.15 30.44 82.0972 30.3607 82.0444 30.2551C81.886 29.8327 81.6748 29.5369 81.4107 29.3679C81.1572 29.1884 80.8298 29.0986 80.4285 29.0986C79.9004 29.0986 79.4779 29.2676 79.161 29.6056C78.8547 29.933 78.691 30.4558 78.6699 31.174C78.6488 31.5754 78.6488 31.945 78.6699 32.283C78.691 33.0118 78.8547 33.5399 79.161 33.8673C79.4779 34.1947 79.9004 34.3584 80.4285 34.3584C80.8404 34.3584 81.1731 34.2739 81.4266 34.1049C81.68 33.9254 81.886 33.6244 82.0444 33.2019C82.0972 33.0963 82.15 33.0171 82.2029 32.9643C82.2662 32.9114 82.3507 32.885 82.4563 32.885H83.8505C83.9561 32.885 84.0459 32.922 84.1198 32.9959C84.2043 33.0593 84.2413 33.1491 84.2307 33.2653C84.2202 33.4554 84.1674 33.6719 84.0723 33.9148C83.9878 34.1472 83.8452 34.3901 83.6446 34.6436C83.4544 34.8865 83.2115 35.1136 82.9158 35.3248C82.6201 35.5255 82.2609 35.6892 81.8385 35.816C81.4266 35.9427 80.946 36.0061 80.3968 36.0061ZM88.2753 36.0061C87.726 36.0061 87.2296 35.9005 86.786 35.6892C86.3424 35.4674 85.9886 35.177 85.7246 34.8179C85.4711 34.4482 85.3443 34.0363 85.3443 33.5821C85.3443 32.8428 85.6401 32.2566 86.2315 31.8236C86.8336 31.38 87.6257 31.0842 88.608 30.9364L90.7784 30.6195V30.2868C90.7784 29.8432 90.6675 29.5 90.4457 29.257C90.2239 29.0141 89.8437 28.8926 89.305 28.8926C88.9248 28.8926 88.6132 28.9719 88.3703 29.1303C88.1379 29.2782 87.9637 29.4788 87.8475 29.7323C87.763 29.8696 87.6415 29.9383 87.4831 29.9383H86.2315C86.1153 29.9383 86.0256 29.9066 85.9622 29.8432C85.9094 29.7798 85.883 29.6953 85.883 29.5897C85.8935 29.4207 85.9622 29.2148 86.0889 28.9719C86.2157 28.7289 86.4164 28.4966 86.691 28.2748C86.9656 28.0424 87.3194 27.847 87.7524 27.6886C88.1855 27.5302 88.7083 27.4509 89.3209 27.4509C89.9863 27.4509 90.5461 27.5354 91.0002 27.7044C91.4649 27.8629 91.8346 28.0794 92.1092 28.354C92.3838 28.6286 92.5845 28.9507 92.7113 29.3204C92.838 29.6901 92.9014 30.0809 92.9014 30.4928V35.4674C92.9014 35.573 92.8644 35.6628 92.7905 35.7368C92.7165 35.8107 92.6268 35.8477 92.5211 35.8477H91.2379C91.1217 35.8477 91.0266 35.8107 90.9527 35.7368C90.8893 35.6628 90.8576 35.573 90.8576 35.4674V34.8496C90.7203 35.0502 90.5355 35.2403 90.3031 35.4199C90.0708 35.5889 89.7856 35.7315 89.4476 35.8477C89.1202 35.9533 88.7294 36.0061 88.2753 36.0061ZM88.8139 34.501C89.1836 34.501 89.5163 34.4218 89.812 34.2634C90.1183 34.1049 90.3559 33.862 90.5249 33.5346C90.7045 33.1966 90.7943 32.7741 90.7943 32.2672V31.9345L89.21 32.188C88.5868 32.283 88.1221 32.4362 87.8158 32.6474C87.5095 32.8586 87.3564 33.1174 87.3564 33.4237C87.3564 33.6561 87.425 33.8567 87.5623 34.0257C87.7102 34.1842 87.895 34.3056 88.1168 34.3901C88.3386 34.464 88.571 34.501 88.8139 34.501ZM95.3299 35.8477C95.2243 35.8477 95.1345 35.8107 95.0606 35.7368C94.9866 35.6628 94.9497 35.573 94.9497 35.4674V24.9795C94.9497 24.8738 94.9866 24.7841 95.0606 24.7101C95.1345 24.6362 95.2243 24.5992 95.3299 24.5992H96.6449C96.7505 24.5992 96.8403 24.6362 96.9142 24.7101C96.9881 24.7841 97.0251 24.8738 97.0251 24.9795V35.4674C97.0251 35.573 96.9881 35.6628 96.9142 35.7368C96.8403 35.8107 96.7505 35.8477 96.6449 35.8477H95.3299Z" fill="black"/>
</svg>
