<svg width="52" height="54" viewBox="0 0 52 54" fill="none" xmlns="http://www.w3.org/2000/svg">
<ellipse cx="26.6132" cy="47.8967" rx="14.7387" ry="1.65232" fill="#08A5E2"/>
<path d="M48.961 45.4575C49.6978 45.792 50.289 46.1451 50.7163 46.5128L50.3388 46.8256L50.6828 47.2408C50.8999 47.5028 50.9761 47.7262 50.9761 47.9168C50.9761 48.1075 50.8999 48.3308 50.6828 48.5929L50.3388 49.0081L50.7163 49.3209C50.289 49.6886 49.6978 50.0417 48.961 50.3762L48.7607 49.8863L48.2616 50.0903C47.6566 50.3375 46.9619 50.5753 46.1848 50.8012L45.6669 50.9517L45.8161 51.4649C45.1928 51.6341 44.526 51.7952 43.8192 51.9473L43.7124 51.4218L43.184 51.5293C42.4879 51.6708 41.7547 51.8039 40.9878 51.9278L40.4555 52.0138L40.5411 52.5439C39.8847 52.6444 39.2058 52.7382 38.5066 52.8249L38.4441 52.2911L37.9085 52.3538C37.1858 52.4384 36.4421 52.5156 35.6794 52.5847L35.1423 52.6334L35.1908 53.1689C34.5211 53.2257 33.8377 53.2764 33.1421 53.3207L33.1107 52.7838L32.5723 52.8152C31.8383 52.8581 31.091 52.8939 30.3322 52.9222L29.7933 52.9424L29.8133 53.4799C29.1369 53.5019 28.4519 53.5179 27.7593 53.5278L27.7541 52.9899L27.2149 52.9951C26.8425 52.9987 26.468 53.0005 26.0916 53.0005C25.7152 53.0005 25.3407 52.9987 24.9683 52.9951L24.4291 52.9899L24.4239 53.5278C23.7313 53.5179 23.0462 53.5019 22.3699 53.4799L22.3899 52.9424L21.851 52.9222C21.0922 52.8939 20.3449 52.8581 19.6108 52.8152L19.0725 52.7838L19.0411 53.3207C18.3455 53.2764 17.6621 53.2257 16.9923 53.1689L17.0409 52.6334L16.5038 52.5847C15.7411 52.5156 14.9974 52.4384 14.2747 52.3538L13.7391 52.2911L13.6766 52.8249C12.9774 52.7382 12.2985 52.6444 11.6421 52.5439L11.7277 52.0138L11.1954 51.9278C10.4285 51.8039 9.6953 51.6708 8.99921 51.5293L8.47076 51.4218L8.36394 51.9473C7.65722 51.7952 6.99035 51.6341 6.36713 51.4649L6.51627 50.9517L5.99843 50.8012C5.22126 50.5753 4.52662 50.3375 3.92163 50.0903L3.42244 49.8863L3.22223 50.3762C2.48538 50.0417 1.89417 49.6886 1.46685 49.3209L1.84441 49.0081L1.50035 48.5929C1.28324 48.3308 1.20705 48.1075 1.20705 47.9168C1.20705 47.7262 1.28324 47.5028 1.50035 47.2408L1.84441 46.8256L1.46685 46.5128C1.89417 46.1451 2.48538 45.792 3.22223 45.4575L3.42244 45.9474L3.92164 45.7434C4.52662 45.4962 5.22126 45.2583 5.99843 45.0325L6.51627 44.882L6.36713 44.3688C6.99035 44.1995 7.65722 44.0385 8.36394 43.8864L8.47076 44.4119L8.99921 44.3044C9.6953 44.1629 10.4285 44.0298 11.1954 43.9059L11.7277 43.8199L11.6421 43.2898C12.2985 43.1893 12.9774 43.0955 13.6766 43.0088L13.7391 43.5426L14.2747 43.4799C14.9974 43.3952 15.7411 43.3181 16.5038 43.249L17.0409 43.2003L16.9923 42.6648C17.6621 42.608 18.3455 42.5573 19.0411 42.513L19.0725 43.0499L19.6108 43.0184C20.3449 42.9755 21.0922 42.9398 21.851 42.9114L22.3899 42.8913L22.3699 42.3538C23.0462 42.3318 23.7313 42.3158 24.4239 42.3058L24.4291 42.8438L24.9683 42.8386C25.3407 42.835 25.7152 42.8332 26.0916 42.8332C26.468 42.8332 26.8425 42.835 27.2149 42.8386L27.7541 42.8438L27.7593 42.3058C28.4519 42.3158 29.1369 42.3318 29.8133 42.3538L29.7933 42.8913L30.3322 42.9114C31.091 42.9398 31.8383 42.9755 32.5723 43.0184L33.1107 43.0499L33.1421 42.513C33.8377 42.5573 34.5211 42.608 35.1908 42.6648L35.1423 43.2003L35.6794 43.249C36.4421 43.3181 37.1858 43.3952 37.9085 43.4799L38.4441 43.5426L38.5066 43.0088C39.2058 43.0955 39.8847 43.1893 40.5411 43.2898L40.4555 43.8199L40.9878 43.9059C41.7547 44.0298 42.4879 44.1629 43.184 44.3044L43.7124 44.4119L43.8192 43.8864C44.526 44.0385 45.1928 44.1995 45.8161 44.3688L45.6669 44.882L46.1848 45.0325C46.9619 45.2583 47.6566 45.4962 48.2616 45.7434L48.7607 45.9474L48.961 45.4575Z" stroke="#183453" stroke-width="1.07852" stroke-linecap="square" stroke-dasharray="2.22 3.09"/>
<path d="M26.5078 1.47949C26.5546 1.47949 26.6015 1.47949 26.6483 1.47949C26.6483 1.47949 26.6718 1.47949 26.7186 1.47949C36.1355 1.62004 43.7954 9.42056 43.7954 18.8374C43.7954 30.3625 31.4973 42.0984 26.6483 46.2446C26.2735 45.9635 25.8987 45.659 25.5239 45.331C25.5239 45.331 25.5239 45.3076 25.5239 45.2608C20.1128 40.4821 9.43099 29.5895 9.43099 18.8374C9.43099 9.42056 17.0909 1.62004 26.5078 1.47949Z" fill="white" stroke="#183453" stroke-width="1.37846"/>
<path d="M26.5945 30.3836C20.3082 30.3836 15.1819 25.2573 15.1819 18.971C15.1819 12.6473 20.3082 7.521 26.5945 7.521C32.9182 7.521 38.0446 12.6473 38.0446 18.971C38.0446 25.2573 32.9182 30.3836 26.5945 30.3836Z" fill="white" stroke="#183453" stroke-width="1.23538"/>
<path d="M33.5168 20.8046C33.7039 21.6652 31.3839 21.4033 30.8227 22.1891C30.2614 22.9748 28.8769 22.451 28.5401 22.3013C28.2408 22.1516 27.006 22.6381 27.1182 21.7775C27.2305 20.9168 27.9789 20.8794 28.7646 20.5427C29.5504 20.1685 30.7104 19.0085 30.1491 18.8588C27.4924 18.1479 26.557 15.6034 26.557 15.6034C26.4073 15.6034 26.4447 13.8448 25.7337 13.8073C25.0602 13.7325 24.686 13.9944 23.6757 13.8073C22.628 13.5828 22.8525 12.9467 22.7029 11.5248C22.5532 10.1403 23.1145 10.5894 23.4512 10.1403C23.4762 10.0904 23.5136 10.053 23.5635 10.0281C19.8216 11.3003 17.1275 14.8176 17.1275 18.9711C17.8385 19.0459 19.0733 19.1956 19.1481 19.6446C19.223 20.3181 19.1481 21.1413 19.7094 21.3659C20.3081 21.6278 20.4578 20.393 20.9442 20.7298C21.4306 21.0291 22.7403 21.3659 22.7403 21.9271C22.7403 22.5258 22.5158 23.4239 22.7403 23.5735C23.0022 23.7606 23.9751 24.8832 23.9751 25.0703C23.9751 25.22 24.3118 26.0432 24.237 26.3799C24.1248 26.6419 23.7132 27.4651 23.3016 27.8393C24.3118 28.2134 25.4344 28.4379 26.5944 28.4379C31.833 28.4379 36.0612 24.1722 36.0612 18.9711C36.0612 17.4369 35.687 15.9776 35.0509 14.668C35.0884 15.6408 35.0509 16.5015 35.2754 16.8008C36.1735 18.073 33.0303 18.9337 33.5168 20.8046Z" fill="#FFC000"/>
</svg>
