<svg width="71" height="65" viewBox="0 0 71 65" fill="none" xmlns="http://www.w3.org/2000/svg">
<path d="M27.7215 11.3562C27.8352 11.3714 27.9338 11.4017 28.0399 11.4548C28.184 11.523 28.3357 11.5761 28.4797 11.5761C28.6238 11.5761 28.7679 11.5382 28.9044 11.4472C28.9574 11.4093 29.0181 11.4244 29.0712 11.4169C29.329 11.3865 29.6095 11.4169 29.8219 11.2121C29.9381 11.1009 30.0544 10.9922 30.1707 10.8861C30.3754 10.6965 30.4891 10.4766 30.4891 10.2112C30.4816 10.0368 30.3981 9.88515 30.2844 9.78658L29.8598 9.42261C29.9735 9.52118 30.0569 9.66525 30.0645 9.84724C30.0645 10.105 29.9508 10.3325 29.746 10.5145C29.6247 10.6207 29.5084 10.7294 29.3972 10.8406C29.1849 11.0453 28.9044 11.0226 28.6465 11.0529C28.5859 11.0605 28.5328 11.0377 28.4797 11.0756C28.3357 11.1666 28.1992 11.2045 28.0551 11.2045C27.9034 11.2045 27.7594 11.159 27.6153 11.0832C27.5091 11.0301 27.4106 10.9998 27.2968 10.9846C27.2058 10.9771 27.1376 10.9467 27.0845 10.9012L27.5091 11.2728C27.5622 11.3183 27.6305 11.3486 27.7215 11.3562Z" fill="#183453"/>
<path d="M39.4823 16.2634C39.3458 15.8539 39.1942 15.4596 39.4672 15.0122C39.7098 14.6255 39.8463 14.163 40.1875 13.8293C40.3771 13.6398 40.6046 13.5033 40.8245 13.3516C41.0974 13.1696 41.2263 12.927 41.196 12.5933C41.1733 12.2749 41.0064 12.0095 40.923 11.7062C40.9154 11.6758 40.9003 11.6531 40.8775 11.6303L40.4529 11.2588C40.4756 11.2815 40.4908 11.3119 40.4984 11.3422C40.5818 11.6379 40.7486 11.9033 40.7714 12.2218C40.8017 12.563 40.6728 12.7981 40.3998 12.9801C40.1799 13.1317 39.9524 13.2758 39.7629 13.4578C39.4217 13.799 39.2852 14.254 39.0425 14.6483C38.762 15.0956 38.9212 15.4823 39.0577 15.8918C39.1563 16.2103 39.3307 16.4681 39.5657 16.6652L39.9904 17.0368C39.7629 16.8321 39.5809 16.5818 39.4823 16.2634Z" fill="#08A5E2"/>
<path d="M42.991 13.7912C43.0213 14.0035 43.1275 14.1931 43.0744 14.4054C43.1123 14.7163 43.1047 15.012 42.9758 15.2926C42.9303 15.4063 42.991 15.5049 43.0441 15.6035C43.1881 15.8386 43.1578 16.0433 42.9682 16.2025C42.9076 16.248 42.8317 16.2708 42.7483 16.2708C42.7028 16.2708 42.6548 16.2607 42.6043 16.2404C42.5537 16.2202 42.5057 16.1924 42.4602 16.157L42.8848 16.521C42.9758 16.6044 43.082 16.6423 43.173 16.6423C43.2564 16.6423 43.3398 16.6196 43.4005 16.5665C43.5824 16.4148 43.6128 16.2101 43.4687 15.9675C43.4156 15.8765 43.355 15.7779 43.4005 15.6642C43.5294 15.3836 43.5369 15.0879 43.5066 14.777C43.5521 14.5647 43.4535 14.3675 43.4156 14.1628C43.4005 14.0794 43.3777 14.0111 43.3398 13.9581C43.3246 13.9429 43.312 13.9302 43.3019 13.9201L42.8697 13.5486C42.9303 13.6017 42.9682 13.6851 42.991 13.7912Z" fill="#183453"/>
<path d="M36.3659 45.7213C35.9716 45.6758 35.5925 45.5469 35.1906 45.5393C35.0314 45.5393 34.91 45.5545 34.7887 45.5848C34.4854 45.6606 34.1897 45.6834 33.8864 45.6758C33.6286 45.6682 33.3783 45.6455 33.1205 45.6303C32.567 45.6151 32.1727 45.7289 31.7784 45.8578C31.3386 46.0094 30.9064 46.199 30.4362 46.29C29.9661 46.3886 29.5263 46.6085 29.0714 46.745C28.3434 46.9724 27.6686 47.3212 26.9255 47.4881C26.6601 47.5487 26.3871 47.6018 26.1141 47.617C25.5833 47.6473 25.1208 47.8975 24.6582 48.1553C24.4004 48.2918 24.1274 48.4056 23.9 48.5951C23.4526 48.9591 23.1341 49.4216 22.9445 49.9676C22.7701 50.4453 22.4289 50.741 21.936 50.8775C21.5721 50.9837 21.2233 51.1277 20.8441 51.196C20.2527 51.2946 19.684 51.5145 19.1001 51.6434C18.7665 51.7268 18.4328 51.7571 18.0992 51.7571C17.576 51.7495 17.1893 52.0073 16.8101 52.3334C16.3779 52.7125 15.9912 53.1372 15.6121 53.5694C15.5287 53.6679 15.4301 53.7514 15.3239 53.812C15.1192 53.9333 14.9751 54.1229 14.7628 54.2442C14.4823 54.3959 14.1865 54.4793 13.8832 54.4717C13.3979 54.4566 13.1325 54.4869 12.8747 54.502C12.2984 54.502 11.9193 54.4035 11.5478 54.3201C11.2293 54.2518 10.9032 54.2139 10.5923 54.1457C10.3724 54.1002 10.1753 54.0395 10.0236 53.9106L10.4483 54.2821C10.5999 54.4111 10.7971 54.4717 11.017 54.5172C11.3354 54.5855 11.6539 54.6158 11.9724 54.6916C12.3515 54.775 12.7231 54.8736 13.2994 54.8736C13.5648 54.8584 13.8226 54.8281 14.3079 54.8433C14.6112 54.8508 14.9069 54.7674 15.195 54.6082C15.3998 54.4945 15.5438 54.3049 15.7486 54.1836C15.8547 54.1229 15.9533 54.0395 16.0443 53.9409C16.4158 53.5087 16.8026 53.0841 17.2348 52.705C17.6139 52.3789 18.0006 52.1211 18.5238 52.1211C18.8575 52.1287 19.1987 52.0907 19.5247 52.0149C20.1086 51.8784 20.6773 51.6661 21.2688 51.56C21.6479 51.4993 21.9967 51.3476 22.3607 51.2491C22.8536 51.105 23.2024 50.8169 23.3692 50.3391C23.5663 49.7932 23.8772 49.3231 24.3246 48.9591C24.5521 48.7771 24.8326 48.6634 25.0829 48.5193C25.5454 48.2691 26.0079 48.0188 26.5463 47.9885C26.8193 47.9733 27.0847 47.9203 27.3501 47.8596C28.0932 47.6852 28.768 47.3364 29.496 47.1165C29.9585 46.9724 30.3907 46.7601 30.8685 46.6615C31.331 46.5706 31.7632 46.381 32.203 46.2293C32.5973 46.0928 32.9916 45.9791 33.5451 45.9943C33.803 46.017 34.0608 46.0398 34.311 46.0473C34.6143 46.0473 34.9176 46.0322 35.2133 45.9564C35.3347 45.926 35.456 45.9109 35.6152 45.9109C36.0171 45.9184 36.3962 46.0473 36.7905 46.0928C36.8512 46.1004 36.8967 46.1232 36.9346 46.1535L36.51 45.7895C36.4721 45.7516 36.4266 45.7289 36.3659 45.7213Z" fill="#08A5E2"/>
<path d="M59.4627 60.2045L59.0305 59.8406C59.1063 59.9012 59.167 59.9998 59.1822 60.1136C59.1973 60.25 59.1443 60.3789 59.1139 60.5079C59.0608 60.7353 58.9471 60.9477 58.9699 61.1979C58.9699 61.2282 58.9547 61.2585 58.9395 61.2889C58.6665 61.6453 58.7272 62.1002 58.5604 62.4945C58.4618 62.7296 58.3557 62.9343 58.1661 63.1087C57.7339 63.503 57.2486 63.8518 56.8315 64.2689C56.695 64.4054 56.5282 64.5115 56.3235 64.5115C56.2932 64.5115 56.2578 64.5065 56.2173 64.4964C56.2022 64.4964 56.1895 64.4964 56.1794 64.4964C55.9444 64.4964 55.7396 64.4205 55.5349 64.3295C55.4894 64.3093 55.449 64.2815 55.4136 64.2461L55.8382 64.6177C55.8736 64.648 55.9166 64.6758 55.9671 64.7011C56.1643 64.7921 56.369 64.8603 56.6041 64.8679C56.6192 64.8679 56.6344 64.8679 56.6495 64.8679C56.6849 64.878 56.7203 64.8831 56.7557 64.8831C56.9529 64.8831 57.1197 64.7769 57.2562 64.6404C57.6808 64.2158 58.1585 63.8746 58.5907 63.4803C58.7803 63.3059 58.8864 63.1011 58.9926 62.8585C59.1518 62.4718 59.0912 62.0092 59.3642 61.6528C59.3793 61.6301 59.3945 61.5922 59.3945 61.5694C59.3717 61.3192 59.4855 61.1069 59.5386 60.8718C59.5689 60.7505 59.6295 60.6216 59.6068 60.4851C59.5916 60.3638 59.5386 60.2728 59.4627 60.2045Z" fill="#183453"/>
<path d="M27.2968 10.9851C27.4106 11.0003 27.5092 11.0306 27.6153 11.0837C27.7594 11.1595 27.9035 11.205 28.0551 11.205C28.1992 11.205 28.3357 11.1671 28.4798 11.0761C28.5328 11.0382 28.5859 11.061 28.6466 11.0534C28.9044 11.0231 29.1849 11.0458 29.3973 10.8411C29.5085 10.7299 29.6247 10.6212 29.7461 10.515C29.9508 10.333 30.0645 10.1056 30.0645 9.84774C30.0418 9.5141 29.7916 9.2942 29.5186 9.28662C29.4882 9.28662 29.4579 9.28915 29.4276 9.2942C29.1243 9.34728 28.8892 9.52168 28.6011 9.59751C28.366 9.65817 28.1385 9.78708 27.8883 9.78708C27.8377 9.78708 27.7872 9.7795 27.7366 9.76433C27.7215 9.75928 27.7063 9.75675 27.6912 9.75675C27.6229 9.75675 27.5547 9.78708 27.4864 9.84016C27.2665 10.0221 27.1149 10.2572 27.0087 10.5226C26.9177 10.7577 27.039 10.9548 27.2968 10.9851Z" fill="#FFC000"/>
<path d="M41.8687 14.5714C41.8687 14.6624 41.846 14.7685 41.7626 14.7989C41.5275 14.8898 41.5654 15.0491 41.6412 15.2159C41.8081 15.6026 42.1493 15.8453 42.4374 16.1334C42.5284 16.2244 42.6421 16.2699 42.7483 16.2699C42.8317 16.2699 42.9075 16.2471 42.9682 16.2016C43.1578 16.0424 43.1881 15.8377 43.044 15.6026C42.991 15.504 42.9303 15.4055 42.9758 15.2917C43.1047 15.0112 43.1123 14.7154 43.0744 14.4046C43.1274 14.1922 43.0213 14.0027 42.991 13.7904C42.9606 13.616 42.8772 13.4946 42.7407 13.4946C42.6801 13.4946 42.6042 13.5174 42.5208 13.578C42.1796 13.8207 41.8535 14.0861 41.8687 14.5714Z" fill="#FFC000"/>
<path d="M70.4903 39.4394C70.3386 38.9311 70.1869 38.4228 70.1945 37.8765C70.202 37.5731 70.2248 37.2696 70.24 36.9661C70.2703 36.4199 70.1869 35.8736 70.0807 35.3274C69.9744 34.8267 69.9669 34.2956 69.7241 33.8176C69.4813 33.3549 69.2309 32.8845 68.8137 32.5583C68.313 32.1713 67.9715 31.6782 67.7136 31.1168C67.5922 30.8664 67.486 30.6009 67.2584 30.4264C67.008 30.2215 66.8411 29.956 66.7273 29.6525C66.6742 29.4932 66.5832 29.3415 66.477 29.2049C66.2266 28.8787 65.87 28.7877 65.4983 28.7801C65.1645 28.7725 65.0431 28.5601 64.99 28.3021C64.9065 27.9076 64.7244 27.551 64.5727 27.1793C64.4134 26.7696 64.1858 26.3523 64.2616 25.8895C64.3375 25.4419 64.2465 25.055 63.9733 24.7136C63.814 24.5012 63.6168 24.3343 63.3437 24.2736C63.154 24.2356 62.9871 24.1446 62.8353 24.0156C62.5698 23.788 62.2891 23.568 61.9401 23.477C61.5759 23.3935 61.2345 23.2721 60.9235 23.0673C60.8021 22.9914 60.6655 22.9307 60.5366 22.8624C60.1345 22.6576 59.7476 22.4224 59.5806 21.9672C59.4668 21.6486 59.4289 21.3299 59.5124 20.9961C59.6034 20.5864 59.5655 20.1767 59.391 19.805C59.1937 19.3801 58.9434 18.9932 58.4275 18.6291C58.2985 18.5153 58.2454 18.3787 58.253 18.2042C58.253 17.9842 58.2909 17.7718 58.3137 17.5593C58.3744 17.0434 58.2681 16.5427 58.1695 16.0496C58.0861 15.6778 57.9419 15.3516 57.6384 15.1088C57.5095 15.0102 57.4033 14.8812 57.3046 14.7522C56.9329 14.2743 56.3715 14.2515 55.8328 14.1225C55.7569 14.1377 55.6912 14.1453 55.6356 14.1453C55.408 14.1377 55.3321 14.0087 55.241 13.7584C55.0893 13.3715 54.9224 12.9845 54.6948 12.6356C54.4975 12.3397 54.4369 11.9983 54.4141 11.6569C54.3762 10.9741 54.2093 10.3444 53.7389 9.82847C53.534 9.60087 53.3747 9.3505 53.3064 9.04704C53.2457 8.78909 52.9574 8.58425 52.6767 8.57666C52.4643 8.59183 52.3581 8.72839 52.2671 9.05462C52.1457 9.47948 52.047 9.90433 51.7056 10.2457C51.2656 10.6858 51.1063 11.2927 50.9621 11.8769C50.9166 12.0438 50.9621 12.2031 51.0759 12.3397C51.4704 12.848 51.4704 13.4018 51.2353 13.9632C51.0532 14.3881 50.9697 14.7902 51.1518 15.2454C51.3642 15.784 51.3339 16.2999 50.9318 16.7779C50.5449 17.2483 50.2414 17.7718 50.0821 18.3635C50.0138 18.6139 49.8697 18.8415 49.6724 19.0311C49.3082 19.3877 48.9668 19.7595 48.6634 20.1767C48.5647 20.3133 48.413 20.4574 48.2082 20.4499C47.9806 20.4271 47.7454 20.3512 47.5481 20.2223C47.1915 19.9947 46.8198 19.8202 46.4025 19.7367C45.917 19.6305 45.5149 19.4181 45.2342 18.9705C45.0369 18.6518 44.779 18.3483 44.4224 18.1739C43.9293 17.9311 43.4134 17.7414 42.943 17.4455C42.6395 17.2559 42.2754 17.1421 41.9491 16.9827C41.4636 16.7551 41.0918 16.4137 40.9249 15.8827C40.7884 15.473 40.629 15.0861 40.9097 14.6384C41.1525 14.2439 41.2891 13.7887 41.6305 13.4473C41.8202 13.2652 42.0478 13.1211 42.2678 12.9694C42.5409 12.7873 42.6699 12.5521 42.6395 12.2107C42.6168 11.8921 42.4498 11.6265 42.3664 11.3306C42.3436 11.2472 42.2678 11.1941 42.0022 11.1182C41.8884 11.1182 41.7746 11.1561 41.6608 11.2017C41.547 11.2472 41.4332 11.2624 41.3118 11.2624C41.241 11.2624 41.1702 11.2548 41.0994 11.2396C40.9629 11.2168 40.9629 11.0651 40.8794 10.9968C40.758 10.8906 40.6215 10.7844 40.409 10.7844C40.2194 10.792 40.0297 10.8299 39.8248 10.8223C39.491 10.8147 39.1724 10.8527 38.8689 11.0044C38.573 11.1486 38.2696 11.2396 37.9509 11.232C37.8649 11.232 37.7764 11.2244 37.6854 11.2092C37.473 11.1713 37.2605 11.1182 37.0481 11.0727C36.6839 10.9968 36.3122 10.9665 35.9632 10.8299C35.4473 10.6402 34.9466 10.4202 34.4307 10.2306C34.3295 10.1901 34.236 10.1699 34.15 10.1699C33.8238 10.1623 33.6265 10.3975 33.6113 10.8072C33.6037 11.0954 33.5582 11.3762 33.3079 11.5886C33.1561 11.7176 33.0044 11.8693 32.8375 11.9376C32.572 12.0514 32.2685 12.0969 31.965 12.1348C31.5553 12.1879 31.2063 12.3473 31.0015 12.7342C30.9256 12.8707 30.8574 13.0073 30.7436 13.1135C30.5994 13.2425 30.4628 13.3715 30.387 13.5535C30.349 13.637 30.2959 13.7204 30.2125 13.7811C29.8863 14.0087 29.6814 14.335 29.4842 14.6764C29.3097 14.9874 29.1655 15.3137 28.9834 15.6247C28.8545 15.8371 28.8165 16.0951 28.862 16.3227C28.9 16.5048 28.8696 16.6641 28.8469 16.831C28.8089 17.0738 28.6648 17.2483 28.3386 17.2559C28.2551 17.2559 28.1717 17.2483 28.0806 17.2331C27.8606 17.18 27.6785 17.0131 27.4433 16.9827C27.2613 16.96 27.0943 16.8917 26.9426 16.7779C26.7074 16.611 26.4646 16.4593 26.1688 16.3986C25.8046 16.3303 25.4632 16.2241 25.1218 16.0723C24.9549 15.9965 24.788 15.9206 24.5983 15.9206C24.5326 15.9155 24.4618 15.9257 24.3859 15.9509C23.9838 16.0647 23.6652 16.3379 23.2782 16.5579C22.9444 16.8917 22.6637 17.2786 22.292 17.5669C22.2464 17.6048 22.2009 17.658 22.163 17.7111C21.9354 18.0069 21.723 18.3256 21.4271 18.5759C21.0705 18.8642 20.767 19.2056 20.5167 19.5926C20.3194 19.9112 20.2511 20.2147 20.3877 20.5637C20.4939 20.8368 20.3953 20.9961 20.0994 21.0265C19.849 21.0492 19.5911 21.0113 19.3711 21.0644C18.9993 21.0568 18.8172 21.2085 18.7338 21.5272C18.6959 21.6941 18.6883 21.8686 18.5214 22.1417C18.4531 22.0734 18.3924 22.0051 18.3317 21.9369C18.2407 21.8382 18.142 21.7851 18.0358 21.7851C17.9524 21.7775 17.8689 21.8079 17.793 21.8762C17.4896 22.1265 17.1861 22.3845 16.8902 22.65C16.7081 22.8093 16.5716 23.0066 16.564 23.2569C16.5488 23.5301 16.5488 23.7956 16.5943 24.0687C16.6399 24.3267 16.7081 24.5922 16.6702 24.8653C16.6474 25.0702 16.5488 25.2447 16.4578 25.4267C16.2909 25.7681 16.1164 26.1095 15.9646 26.4585C15.7598 26.9289 15.4487 27.3007 14.9784 27.5131C14.6547 27.6547 14.3386 27.8039 14.03 27.9607C13.5976 28.1731 13.1803 28.4083 12.7479 28.6132C12.1561 28.8863 11.5492 29.1594 11.0181 29.5539C10.4794 29.956 9.85734 30.1836 9.22764 30.3885C8.80279 30.5326 8.38552 30.7147 8.04412 31.0333C7.39925 31.6251 6.95922 32.3838 6.48125 33.1045C6.23089 33.4762 6.03364 33.8935 5.72258 34.2197C5.55567 34.3867 5.38118 34.5915 5.13082 34.5915C5.04736 34.5915 4.95632 34.5687 4.6832 34.4625C4.55423 34.4625 4.42525 34.5232 4.31904 34.6143C4.16731 34.7584 4.15972 34.9329 4.19765 35.1301C4.24317 35.3805 4.35697 35.6005 4.48595 35.8281C4.64527 36.1164 4.75907 36.4351 4.75907 36.7689C4.75907 37.1406 4.78942 37.4972 4.94115 37.8462C5.09289 38.2104 5.15358 38.6049 5.1991 38.9918C5.22186 39.189 5.29773 39.3104 5.4267 39.4166C5.51015 39.4925 5.60119 39.538 5.69982 39.5911C6.00329 39.7732 6.33711 39.9022 6.57229 40.1829C6.71644 40.3726 6.73161 40.5471 6.56471 40.7216C6.42815 40.8505 6.35228 41.0023 6.29917 41.1768C6.23848 41.4195 6.13226 41.6471 6.01088 41.8671C5.85156 42.163 5.85914 42.512 5.98812 42.7776C6.1702 43.1796 6.41297 43.5742 6.81507 43.8169C6.9137 43.8852 7.01991 43.9459 7.11854 44.0142C7.39166 44.2114 7.64202 44.4466 7.9379 44.6211C8.28689 44.826 8.52967 45.1446 8.81037 45.4253C8.92417 45.5391 9.00763 45.7288 9.09867 45.8957C9.31868 46.2826 9.5918 46.6316 9.87251 46.973C10.0167 47.1475 10.1608 47.322 10.2594 47.5193C10.5174 48.0124 10.8815 48.4145 11.2078 48.8545C11.4126 49.1352 11.6023 49.4311 11.7237 49.7649C11.8223 50.0684 11.9058 50.3794 12.0423 50.6601C12.1789 50.9484 12.1561 51.1836 11.9513 51.4112C11.8375 51.5402 11.754 51.6844 11.7388 51.8588C11.7237 52.0182 11.625 52.1244 11.5112 52.2154C11.4354 52.2761 11.3595 52.3292 11.2912 52.4051C11.0636 52.6403 11.0712 52.9893 11.3064 53.2169C11.4278 53.3383 11.6099 53.4369 11.6554 53.581C11.7844 53.9755 12.0878 54.0818 12.4444 54.1576C12.7555 54.2259 13.0817 54.2638 13.4003 54.3321C13.7721 54.4156 14.1514 54.5142 14.728 54.5142C14.986 54.499 15.2515 54.4687 15.737 54.4839C16.0405 54.4914 16.3364 54.408 16.6171 54.2562C16.8295 54.1349 16.9737 53.9452 17.1785 53.8238C17.2847 53.7631 17.3834 53.6797 17.4668 53.581C17.8461 53.1486 18.2331 52.7237 18.6655 52.3444C19.0448 52.0182 19.4318 51.7602 19.9553 51.7678C20.2891 51.7678 20.6229 51.7375 20.9567 51.654C21.5409 51.525 22.1099 51.305 22.7016 51.2064C23.081 51.1381 23.43 50.994 23.7941 50.8877C24.2873 50.7512 24.6287 50.4553 24.8032 49.9773C24.9928 49.4311 25.3115 48.9683 25.7591 48.6041C25.9867 48.4145 26.2598 48.3007 26.5178 48.1641C26.9805 47.9062 27.4433 47.6558 27.9744 47.6255C28.2475 47.6103 28.5206 47.5572 28.7862 47.4965C29.5297 47.3296 30.2049 46.9806 30.9332 46.753C31.3884 46.6164 31.8285 46.3964 32.2988 46.2978C32.7692 46.2067 33.2016 46.0171 33.6417 45.8653C34.0362 45.7364 34.4307 45.6226 34.9845 45.6377C35.2425 45.6529 35.4928 45.6757 35.7508 45.6833C36.0543 45.6908 36.3501 45.6681 36.6536 45.5922C36.775 45.5619 36.8964 45.5467 37.0557 45.5467C37.4578 45.5543 37.8371 45.6833 38.2316 45.7288C38.3075 45.7364 38.3606 45.7743 38.4061 45.8274C38.702 46.1764 39.0738 46.4419 39.4076 46.7454C39.6352 46.9502 39.8855 47.1323 40.0373 47.3979C40.3256 47.9365 40.7125 48.4069 41.1146 48.8621C41.236 48.9987 41.4181 49.0973 41.456 49.3021C41.5167 49.7042 41.7291 49.947 42.1312 50.0608C42.2222 50.0836 42.3057 50.0987 42.374 50.0987C42.5333 50.1063 42.6699 50.038 42.8595 49.8256C42.9885 49.6815 43.0568 49.4842 43.254 49.3932C43.4968 49.2945 43.7017 49.1428 43.8837 48.938C43.9975 48.809 44.1493 48.7028 44.2934 48.6117C44.3541 48.5738 44.4224 48.5207 44.5893 48.5738C44.7031 48.68 44.7866 48.7786 44.7334 48.9683C44.6348 49.3476 44.4983 49.727 44.7107 50.167C44.7562 50.3794 44.8928 50.5084 45.2114 50.4932C45.4087 50.4477 45.568 50.3263 45.7349 50.2201C45.8006 50.1746 45.8689 50.1544 45.9397 50.1594C45.9954 50.1594 46.0535 50.1746 46.1142 50.2049C46.3039 50.3187 46.3798 50.5084 46.4253 50.6981C46.448 50.8119 46.486 50.9257 46.5998 50.9484C46.8957 51.0167 47.1688 51.1229 47.4419 51.3278C47.6088 51.3429 47.6771 51.4719 47.6999 51.6085C47.7605 51.9347 47.8743 52.2382 48.0337 52.5265C48.1551 52.7541 48.2309 52.9969 48.3068 53.2472C48.4282 53.6493 48.6103 54.0362 49.0124 54.2638C49.2703 54.408 49.4827 54.6128 49.7103 54.8025C49.8317 54.9087 49.9683 54.9997 50.12 55.068C51.0532 55.4701 52.0167 55.7888 52.8892 56.3122C53.0712 56.4185 53.2533 56.4867 53.4506 56.4867C53.6023 56.4867 53.7616 56.4564 53.9285 56.3805C54.361 56.1909 54.7555 55.9177 55.1804 55.7205C55.3473 55.637 55.5293 55.5687 55.6962 55.5763C55.8176 55.5763 55.9314 55.6143 56.0452 55.6977C56.288 55.8874 56.5232 56.0846 56.7584 56.2819C57.0315 56.5019 57.3046 56.6916 57.775 56.775C57.8433 56.775 57.904 56.7674 57.9647 56.7295C58.2074 56.6005 58.473 56.4867 58.693 56.3274C59.262 55.9026 59.8613 55.5232 60.4455 55.1211C60.7186 54.9315 60.9918 54.7266 61.3559 54.7115C61.7201 54.6963 62.0767 54.6052 62.4257 54.4687C62.6912 54.3625 62.9567 54.2638 63.1995 54.1349C63.6016 53.9224 63.9278 53.6114 63.8064 53.0424C63.7837 52.9362 63.7913 52.8148 63.8595 52.7161C64.0416 52.4354 64.2237 52.1547 64.4058 51.8816C64.6562 51.5023 64.9444 51.1533 65.2555 50.8271C65.6728 50.3946 65.8169 49.8104 66.1431 49.3249C66.348 49.0214 66.4845 48.6648 66.6287 48.3234C66.8487 47.8151 67.1067 47.322 67.2205 46.7682C67.2963 46.4343 67.4025 46.1005 67.5543 45.7971C67.7591 45.3798 67.9943 44.9701 68.2219 44.568C68.4267 44.2114 68.6544 43.8625 68.9351 43.5817C69.2006 43.3086 69.3979 43.0127 69.5723 42.6941C69.7772 42.3223 69.9365 41.9278 70.1262 41.5409C70.2551 41.2678 70.3993 41.0023 70.4296 40.6912C70.4372 40.5167 70.4752 40.3498 70.5055 40.1829C70.551 39.9401 70.5662 39.6898 70.4903 39.4394Z" fill="#08A5E2"/>
<path d="M66.9518 39.4394C66.8001 38.9311 66.6483 38.4228 66.6559 37.8765C66.6635 37.5731 66.6863 37.2696 66.7014 36.9661C66.7318 36.4199 66.6483 35.8736 66.5421 35.3274C66.4359 34.8267 66.4283 34.2956 66.1855 33.8176C65.9428 33.3549 65.6924 32.8845 65.2751 32.5583C64.7744 32.1713 64.433 31.6782 64.1751 31.1168C64.0537 30.8664 63.9475 30.6009 63.7199 30.4264C63.4695 30.2215 63.3026 29.956 63.1888 29.6525C63.1357 29.4932 63.0446 29.3415 62.9384 29.2049C62.6881 28.8787 62.3315 28.7877 61.9597 28.7801C61.6259 28.7725 61.5045 28.5601 61.4514 28.3021C61.368 27.9076 61.1859 27.551 61.0342 27.1793C60.8748 26.7696 60.6472 26.3523 60.7231 25.8895C60.799 25.4419 60.7079 25.055 60.4348 24.7136C60.2755 24.5012 60.0782 24.3343 59.8051 24.2736C59.6154 24.2356 59.4485 24.1446 59.2968 24.0156C59.0313 23.788 58.7506 23.568 58.4016 23.477C58.0374 23.3935 57.696 23.2721 57.3849 23.0673C57.2636 22.9914 57.127 22.9307 56.998 22.8624C56.5959 22.6576 56.209 22.4224 56.0421 21.9672C55.9283 21.6486 55.8904 21.3299 55.9738 20.9961C56.0649 20.5864 56.0269 20.1767 55.8524 19.805C55.6552 19.3801 55.4048 18.9932 54.8889 18.6291C54.7599 18.5153 54.7068 18.3787 54.7144 18.2042C54.7144 17.9842 54.7524 17.7718 54.7751 17.5593C54.8358 17.0434 54.7296 16.5427 54.631 16.0496C54.5475 15.6778 54.4034 15.3516 54.0999 15.1088C53.9709 15.0102 53.8647 14.8812 53.7661 14.7522C53.3943 14.2743 52.8329 14.2515 52.2943 14.1225C52.2184 14.1377 52.1526 14.1453 52.097 14.1453C51.8694 14.1377 51.7935 14.0087 51.7025 13.7584C51.5508 13.3715 51.3839 12.9845 51.1563 12.6356C50.959 12.3397 50.8983 11.9983 50.8755 11.6569C50.8376 10.9741 50.6707 10.3444 50.2003 9.82847C49.9955 9.60087 49.8362 9.3505 49.7679 9.04704C49.7072 8.78909 49.4189 8.58425 49.1382 8.57666C48.9258 8.59183 48.8195 8.72839 48.7285 9.05462C48.6071 9.47948 48.5085 9.90433 48.1671 10.2457C47.7271 10.6858 47.5677 11.2927 47.4236 11.8769C47.3781 12.0438 47.4236 12.2031 47.5374 12.3397C47.9319 12.848 47.9319 13.4018 47.6967 13.9632C47.5146 14.3881 47.4312 14.7902 47.6133 15.2454C47.8257 15.784 47.7953 16.2999 47.3932 16.7779C47.0063 17.2483 46.7029 17.7718 46.5435 18.3635C46.4753 18.6139 46.3311 18.8415 46.1339 19.0311C45.7697 19.3877 45.4283 19.7595 45.1248 20.1767C45.0262 20.3133 44.8745 20.4574 44.6696 20.4499C44.442 20.4271 44.2068 20.3512 44.0096 20.2223C43.653 19.9947 43.2812 19.8202 42.864 19.7367C42.3784 19.6305 41.9763 19.4181 41.6956 18.9705C41.4984 18.6518 41.2404 18.3483 40.8839 18.1739C40.3907 17.9311 39.8748 17.7414 39.4044 17.4455C39.101 17.2559 38.7368 17.1421 38.4106 16.9827C37.925 16.7551 37.5533 16.4137 37.3864 15.8827C37.2498 15.473 37.0905 15.0861 37.3712 14.6384C37.614 14.2439 37.7505 13.7887 38.0919 13.4473C38.2816 13.2652 38.5092 13.1211 38.7292 12.9694C39.0023 12.7873 39.1313 12.5521 39.101 12.2107C39.0782 11.8921 38.9113 11.6265 38.8279 11.3306C38.8051 11.2472 38.7292 11.1941 38.4637 11.1182C38.3499 11.1182 38.2361 11.1561 38.1223 11.2017C38.0085 11.2472 37.8947 11.2624 37.7733 11.2624C37.7025 11.2624 37.6317 11.2548 37.5609 11.2396C37.4243 11.2168 37.4243 11.0651 37.3409 10.9968C37.2195 10.8906 37.0829 10.7844 36.8705 10.7844C36.6808 10.792 36.4911 10.8299 36.2863 10.8223C35.9525 10.8147 35.6338 10.8527 35.3304 11.0044C35.0345 11.1486 34.731 11.2396 34.4124 11.232C34.3264 11.232 34.2379 11.2244 34.1469 11.2092C33.9344 11.1713 33.722 11.1182 33.5096 11.0727C33.1454 10.9968 32.7737 10.9665 32.4247 10.8299C31.9088 10.6402 31.408 10.4202 30.8922 10.2306C30.791 10.1901 30.6974 10.1699 30.6114 10.1699C30.2852 10.1623 30.088 10.3975 30.0728 10.8072C30.0652 11.0954 30.0197 11.3762 29.7693 11.5886C29.6176 11.7176 29.4659 11.8693 29.2989 11.9376C29.0334 12.0514 28.7299 12.0969 28.4265 12.1348C28.0168 12.1879 27.6678 12.3473 27.463 12.7342C27.3871 12.8707 27.3188 13.0073 27.205 13.1135C27.0609 13.2425 26.9243 13.3715 26.8484 13.5535C26.8105 13.637 26.7574 13.7204 26.6739 13.7811C26.3477 14.0087 26.1429 14.335 25.9456 14.6764C25.7711 14.9874 25.627 15.3137 25.4449 15.6247C25.3159 15.8371 25.278 16.0951 25.3235 16.3227C25.3614 16.5048 25.3311 16.6641 25.3083 16.831C25.2704 17.0738 25.1263 17.2483 24.8 17.2559C24.7166 17.2559 24.6331 17.2483 24.5421 17.2331C24.3221 17.18 24.14 17.0131 23.9048 16.9827C23.7227 16.96 23.5558 16.8917 23.4041 16.7779C23.1689 16.611 22.9261 16.4593 22.6302 16.3986C22.2661 16.3303 21.9247 16.2241 21.5833 16.0723C21.4163 15.9965 21.2494 15.9206 21.0598 15.9206C20.994 15.9155 20.9232 15.9257 20.8473 15.9509C20.4452 16.0647 20.1266 16.3379 19.7397 16.5579C19.4059 16.8917 19.1252 17.2786 18.7534 17.5669C18.7079 17.6048 18.6624 17.658 18.6244 17.7111C18.3968 18.0069 18.1844 18.3256 17.8885 18.5759C17.532 18.8642 17.2285 19.2056 16.9781 19.5926C16.7809 19.9112 16.7126 20.2147 16.8492 20.5637C16.9554 20.8368 16.8567 20.9961 16.5609 21.0265C16.3105 21.0492 16.0525 21.0113 15.8325 21.0644C15.4608 21.0568 15.2787 21.2085 15.1952 21.5272C15.1573 21.6941 15.1497 21.8686 14.9828 22.1417C14.9145 22.0734 14.8538 22.0051 14.7932 21.9369C14.7021 21.8382 14.6035 21.7851 14.4973 21.7851C14.4138 21.7775 14.3304 21.8079 14.2545 21.8762C13.951 22.1265 13.6476 22.3845 13.3517 22.65C13.1696 22.8093 13.033 23.0066 13.0254 23.2569C13.0103 23.5301 13.0103 23.7956 13.0558 24.0687C13.1013 24.3267 13.1696 24.5922 13.1317 24.8653C13.1089 25.0702 13.0103 25.2447 12.9192 25.4267C12.7523 25.7681 12.5778 26.1095 12.4261 26.4585C12.2213 26.9289 11.9102 27.3007 11.4398 27.5131C11.1161 27.6547 10.8 27.8039 10.4915 27.9607C10.059 28.1731 9.64178 28.4083 9.20933 28.6132C8.61757 28.8863 8.01063 29.1594 7.47956 29.5539C6.94091 29.956 6.3188 30.1836 5.6891 30.3885C5.26424 30.5326 4.84697 30.7147 4.50557 31.0333C3.8607 31.6251 3.42067 32.3838 2.94271 33.1045C2.69235 33.4762 2.49509 33.8935 2.18404 34.2197C2.01713 34.3867 1.84264 34.5915 1.59228 34.5915C1.50882 34.5915 1.41778 34.5687 1.14466 34.4625C1.01569 34.4625 0.886711 34.5232 0.780497 34.6143C0.628763 34.7584 0.621176 34.9329 0.65911 35.1301C0.70463 35.3805 0.818431 35.6005 0.947405 35.8281C1.10673 36.1164 1.22053 36.4351 1.22053 36.7689C1.22053 37.1406 1.25087 37.4972 1.40261 37.8462C1.55434 38.2104 1.61504 38.6049 1.66056 38.9918C1.68332 39.189 1.75918 39.3104 1.88816 39.4166C1.97161 39.4925 2.06265 39.538 2.16128 39.5911C2.46475 39.7732 2.79856 39.9022 3.03375 40.1829C3.1779 40.3726 3.19307 40.5471 3.02616 40.7216C2.8896 40.8505 2.81374 41.0023 2.76063 41.1768C2.69993 41.4195 2.59372 41.6471 2.47233 41.8671C2.31301 42.163 2.3206 42.512 2.44957 42.7776C2.63165 43.1796 2.87443 43.5742 3.27653 43.8169C3.37515 43.8852 3.48137 43.9459 3.57999 44.0142C3.85312 44.2114 4.10348 44.4466 4.39936 44.6211C4.74835 44.826 4.99112 45.1446 5.27183 45.4253C5.38563 45.5391 5.46908 45.7288 5.56012 45.8957C5.78014 46.2826 6.05326 46.6316 6.33397 46.973C6.47812 47.1475 6.62226 47.322 6.72089 47.5193C6.97884 48.0124 7.343 48.4145 7.66923 48.8545C7.87407 49.1352 8.06374 49.4311 8.18513 49.7649C8.28375 50.0684 8.36721 50.3794 8.50377 50.6601C8.64033 50.9484 8.61757 51.1836 8.41273 51.4112C8.29893 51.5402 8.21547 51.6844 8.2003 51.8588C8.18513 52.0182 8.0865 52.1244 7.9727 52.2154C7.89683 52.2761 7.82096 52.3292 7.75268 52.4051C7.52508 52.6403 7.53267 52.9893 7.76786 53.2169C7.88925 53.3383 8.07133 53.4369 8.11685 53.581C8.24582 53.9755 8.54929 54.0818 8.90586 54.1576C9.21692 54.2259 9.54315 54.2638 9.86179 54.3321C10.2335 54.4156 10.6129 54.5142 11.1895 54.5142C11.4474 54.499 11.7129 54.4687 12.1985 54.4839C12.502 54.4914 12.7978 54.408 13.0786 54.2562C13.291 54.1349 13.4351 53.9452 13.64 53.8238C13.7462 53.7631 13.8448 53.6797 13.9283 53.581C14.3076 53.1486 14.6945 52.7237 15.127 52.3444C15.5063 52.0182 15.8932 51.7602 16.4167 51.7678C16.7505 51.7678 17.0843 51.7375 17.4182 51.654C18.0023 51.525 18.5713 51.305 19.1631 51.2064C19.5424 51.1381 19.8914 50.994 20.2556 50.8877C20.7487 50.7512 21.0901 50.4553 21.2646 49.9773C21.4543 49.4311 21.7729 48.9683 22.2205 48.6041C22.4481 48.4145 22.7213 48.3007 22.9792 48.1641C23.442 47.9062 23.9048 47.6558 24.4359 47.6255C24.709 47.6103 24.9821 47.5572 25.2476 47.4965C25.9911 47.3296 26.6664 46.9806 27.3947 46.753C27.8499 46.6164 28.2899 46.3964 28.7603 46.2978C29.2307 46.2067 29.6631 46.0171 30.1031 45.8653C30.4976 45.7364 30.8922 45.6226 31.446 45.6377C31.7039 45.6529 31.9543 45.6757 32.2122 45.6833C32.5157 45.6908 32.8116 45.6681 33.1151 45.5922C33.2364 45.5619 33.3578 45.5467 33.5172 45.5467C33.9192 45.5543 34.2986 45.6833 34.6931 45.7288C34.769 45.7364 34.8221 45.7743 34.8676 45.8274C35.1635 46.1764 35.5352 46.4419 35.869 46.7454C36.0966 46.9502 36.347 47.1323 36.4987 47.3979C36.787 47.9365 37.1739 48.4069 37.576 48.8621C37.6974 48.9987 37.8795 49.0973 37.9174 49.3021C37.9781 49.7042 38.1906 49.947 38.5927 50.0608C38.6837 50.0836 38.7672 50.0987 38.8354 50.0987C38.9948 50.1063 39.1313 50.038 39.321 49.8256C39.45 49.6815 39.5182 49.4842 39.7155 49.3932C39.9583 49.2945 40.1631 49.1428 40.3452 48.938C40.459 48.809 40.6107 48.7028 40.7549 48.6117C40.8156 48.5738 40.8838 48.5207 41.0508 48.5738C41.1646 48.68 41.248 48.7786 41.1949 48.9683C41.0963 49.3476 40.9597 49.727 41.1721 50.167C41.2177 50.3794 41.3542 50.5084 41.6729 50.4932C41.8701 50.4477 42.0294 50.3263 42.1964 50.2201C42.2621 50.1746 42.3304 50.1544 42.4012 50.1594C42.4568 50.1594 42.515 50.1746 42.5757 50.2049C42.7654 50.3187 42.8412 50.5084 42.8867 50.6981C42.9095 50.8119 42.9474 50.9257 43.0612 50.9484C43.3571 51.0167 43.6302 51.1229 43.9034 51.3278C44.0703 51.3429 44.1385 51.4719 44.1613 51.6085C44.222 51.9347 44.3358 52.2382 44.4951 52.5265C44.6165 52.7541 44.6924 52.9969 44.7682 53.2472C44.8896 53.6493 45.0717 54.0362 45.4738 54.2638C45.7318 54.408 45.9442 54.6128 46.1718 54.8025C46.2932 54.9087 46.4297 54.9997 46.5815 55.068C47.5146 55.4701 48.4781 55.7888 49.3506 56.3122C49.5327 56.4185 49.7148 56.4867 49.912 56.4867C50.0638 56.4867 50.2231 56.4564 50.39 56.3805C50.8224 56.1909 51.2169 55.9177 51.6418 55.7205C51.8087 55.637 51.9908 55.5687 52.1577 55.5763C52.2791 55.5763 52.3929 55.6143 52.5067 55.6977C52.7495 55.8874 52.9847 56.0846 53.2198 56.2819C53.493 56.5019 53.7661 56.6916 54.2365 56.775C54.3047 56.775 54.3654 56.7674 54.4261 56.7295C54.6689 56.6005 54.9344 56.4867 55.1545 56.3274C55.7235 55.9026 56.3228 55.5232 56.907 55.1211C57.1801 54.9315 57.4532 54.7266 57.8174 54.7115C58.1815 54.6963 58.5381 54.6052 58.8871 54.4687C59.1526 54.3625 59.4182 54.2638 59.661 54.1349C60.0631 53.9224 60.3893 53.6114 60.2679 53.0424C60.2451 52.9362 60.2527 52.8148 60.321 52.7161C60.5031 52.4354 60.6852 52.1547 60.8672 51.8816C61.1176 51.5023 61.4059 51.1533 61.717 50.8271C62.1342 50.3946 62.2784 49.8104 62.6046 49.3249C62.8094 49.0214 62.946 48.6648 63.0901 48.3234C63.3102 47.8151 63.5681 47.322 63.6819 46.7682C63.7578 46.4343 63.864 46.1005 64.0157 45.7971C64.2206 45.3798 64.4558 44.9701 64.6834 44.568C64.8882 44.2114 65.1158 43.8625 65.3965 43.5817C65.662 43.3086 65.8593 43.0127 66.0338 42.6941C66.2386 42.3223 66.398 41.9278 66.5876 41.5409C66.7166 41.2678 66.8607 41.0023 66.8911 40.6912C66.8987 40.5167 66.9366 40.3498 66.967 40.1829C67.0125 39.9401 67.0277 39.6898 66.9518 39.4394Z" fill="#08A5E2"/>
<mask id="path-10-inside-1_285_939" fill="white">
<path d="M68.6074 39.4357C68.4557 38.9277 68.3041 38.4197 68.3117 37.8737C68.3192 37.5704 68.342 37.2671 68.3572 36.9638C68.3875 36.4178 68.3041 35.8719 68.1979 35.3259C68.0918 34.8255 68.0842 34.2947 67.8415 33.817C67.5989 33.3544 67.3487 32.8843 66.9316 32.5582C66.4312 32.1715 66.0899 31.6787 65.8321 31.1175C65.7108 30.8673 65.6046 30.6019 65.3772 30.4275C65.1269 30.2228 64.9601 29.9574 64.8464 29.6541C64.7933 29.4948 64.7023 29.3432 64.5961 29.2067C64.3459 28.8806 63.9895 28.7896 63.618 28.7821C63.2843 28.7745 63.163 28.5622 63.1099 28.3044C63.0265 27.9101 62.8445 27.5537 62.6929 27.1821C62.5337 26.7727 62.3062 26.3556 62.382 25.8931C62.4578 25.4457 62.3668 25.059 62.0939 24.7177C61.9346 24.5054 61.7375 24.3386 61.4645 24.2779C61.2749 24.24 61.1081 24.149 60.9565 24.0201C60.6911 23.7927 60.4105 23.5728 60.0617 23.4818C59.6977 23.3984 59.3565 23.277 59.0456 23.0723C58.9243 22.9965 58.7878 22.9358 58.6589 22.8676C58.257 22.6628 57.8703 22.4278 57.7035 21.9728C57.5897 21.6543 57.5518 21.3359 57.6352 21.0022C57.7262 20.5928 57.6883 20.1833 57.5139 19.8117C57.3168 19.3871 57.0665 19.0004 56.5509 18.6364C56.422 18.5227 56.3689 18.3862 56.3765 18.2118C56.3765 17.9919 56.4144 17.7796 56.4372 17.5673C56.4978 17.0516 56.3917 16.5512 56.2931 16.0583C56.2097 15.6868 56.0656 15.3607 55.7623 15.1181C55.6334 15.0195 55.5272 14.8906 55.4287 14.7617C55.0571 14.284 54.496 14.2612 53.9576 14.1323C53.8818 14.1475 53.8161 14.1551 53.7605 14.1551C53.533 14.1475 53.4572 14.0186 53.3662 13.7683C53.2145 13.3816 53.0477 12.9949 52.8202 12.6461C52.6231 12.3504 52.5624 12.0091 52.5397 11.6679C52.5017 10.9855 52.3349 10.3561 51.8648 9.8405C51.6601 9.61302 51.5008 9.36279 51.4326 9.05948C51.3719 8.80167 51.0838 8.59694 50.8032 8.58936C50.5909 8.60452 50.4848 8.74101 50.3938 9.06707C50.2724 9.4917 50.1739 9.91633 49.8326 10.2575C49.3928 10.6973 49.2336 11.304 49.0895 11.8878C49.044 12.0546 49.0895 12.2139 49.2033 12.3504C49.5976 12.8584 49.5976 13.4119 49.3625 13.9731C49.1805 14.3977 49.0971 14.7996 49.2791 15.2545C49.4914 15.7929 49.4611 16.3085 49.0592 16.7862C48.6725 17.2564 48.3692 17.7796 48.2099 18.371C48.1417 18.6213 47.9976 18.8487 47.8005 19.0383C47.4365 19.3947 47.0953 19.7662 46.792 20.1833C46.6934 20.3198 46.5418 20.4639 46.337 20.4563C46.1095 20.4335 45.8745 20.3577 45.6773 20.2288C45.3209 20.0013 44.9494 19.8269 44.5323 19.7435C44.0471 19.6373 43.6452 19.425 43.3646 18.9776C43.1675 18.6592 42.9096 18.3559 42.5533 18.1815C42.0604 17.9388 41.5448 17.7492 41.0746 17.4535C40.7713 17.264 40.4074 17.1502 40.0813 16.991C39.596 16.7635 39.2245 16.4223 39.0576 15.8915C38.9212 15.482 38.7619 15.0953 39.0425 14.6479C39.2851 14.2536 39.4216 13.7987 39.7628 13.4574C39.9524 13.2755 40.1799 13.1314 40.3998 12.9797C40.6728 12.7977 40.8017 12.5627 40.7713 12.2215C40.7486 11.903 40.5818 11.6376 40.4983 11.3419C40.4756 11.2585 40.3998 11.2054 40.1344 11.1296C40.0206 11.1296 39.9069 11.1675 39.7932 11.213C39.6794 11.2585 39.5657 11.2736 39.4444 11.2736C39.3736 11.2736 39.3028 11.266 39.232 11.2509C39.0956 11.2281 39.0956 11.0765 39.0121 11.0082C38.8908 10.9021 38.7543 10.7959 38.542 10.7959C38.3524 10.8035 38.1629 10.8414 37.9581 10.8338C37.6245 10.8262 37.306 10.8642 37.0027 11.0158C36.707 11.1599 36.4037 11.2509 36.0852 11.2433C35.9993 11.2433 35.9108 11.2357 35.8198 11.2206C35.6075 11.1826 35.3952 11.1296 35.1829 11.0841C34.8189 11.0082 34.4474 10.9779 34.0986 10.8414C33.5829 10.6518 33.0825 10.432 32.5669 10.2424C32.4658 10.2019 32.3722 10.1817 32.2863 10.1817C31.9602 10.1741 31.7631 10.4092 31.7479 10.8187C31.7403 11.1068 31.6948 11.3874 31.4446 11.5997C31.293 11.7286 31.1413 11.8802 30.9745 11.9485C30.7091 12.0622 30.4058 12.1077 30.1025 12.1456C29.693 12.1987 29.3442 12.358 29.1395 12.7447C29.0637 12.8812 28.9954 13.0176 28.8817 13.1238C28.7376 13.2527 28.6011 13.3816 28.5253 13.5636C28.4874 13.647 28.4343 13.7304 28.3509 13.7911C28.0248 14.0186 27.8201 14.3446 27.6229 14.6858C27.4485 14.9967 27.3045 15.3228 27.1225 15.6337C26.9936 15.846 26.9557 16.1038 27.0012 16.3313C27.0391 16.5133 27.0087 16.6725 26.986 16.8393C26.9481 17.082 26.804 17.2564 26.478 17.264C26.3945 17.264 26.3111 17.2564 26.2201 17.2412C26.0002 17.1881 25.8183 17.0213 25.5832 16.991C25.4012 16.9682 25.2344 16.9 25.0827 16.7862C24.8477 16.6194 24.605 16.4678 24.3093 16.4071C23.9453 16.3389 23.6041 16.2327 23.2629 16.0811C23.0961 16.0052 22.9293 15.9294 22.7397 15.9294C22.674 15.9243 22.6032 15.9345 22.5274 15.9597C22.1255 16.0735 21.807 16.3465 21.4203 16.5663C21.0867 16.9 20.8061 17.2867 20.4345 17.5748C20.3891 17.6128 20.3436 17.6658 20.3056 17.7189C20.0782 18.0146 19.8658 18.3331 19.5701 18.5833C19.2137 18.8715 18.9104 19.2127 18.6602 19.5994C18.463 19.9179 18.3948 20.2212 18.5313 20.57C18.6374 20.843 18.5389 21.0022 18.2431 21.0326C17.9929 21.0553 17.7351 21.0174 17.5152 21.0705C17.1437 21.0629 16.9617 21.2145 16.8783 21.533C16.8404 21.6998 16.8328 21.8742 16.6659 22.1472C16.5977 22.079 16.537 22.0107 16.4764 21.9425C16.3854 21.8439 16.2868 21.7908 16.1807 21.7908C16.0972 21.7832 16.0138 21.8136 15.938 21.8818C15.6347 22.132 15.3314 22.3899 15.0357 22.6553C14.8537 22.8145 14.7172 23.0116 14.7096 23.2619C14.6944 23.5348 14.6944 23.8002 14.7399 24.0732C14.7854 24.331 14.8537 24.5964 14.8158 24.8694C14.793 25.0741 14.6944 25.2485 14.6035 25.4305C14.4366 25.7717 14.2622 26.113 14.1106 26.4618C13.9058 26.9319 13.595 27.3034 13.1248 27.5158C12.8013 27.6573 12.4854 27.8064 12.177 27.9631C11.7448 28.1755 11.3277 28.4105 10.8955 28.6152C10.3041 28.8882 9.69746 29.1612 9.16667 29.5555C8.6283 29.9574 8.00652 30.1849 7.37715 30.3896C6.95252 30.5337 6.53547 30.7157 6.19425 31.0341C5.54972 31.6256 5.10993 32.3838 4.63222 33.1042C4.38199 33.4758 4.18484 33.8928 3.87395 34.2189C3.70713 34.3857 3.53273 34.5904 3.2825 34.5904C3.19909 34.5904 3.1081 34.5677 2.83512 34.4615C2.70621 34.4615 2.57731 34.5222 2.47115 34.6132C2.3195 34.7572 2.31191 34.9316 2.34983 35.1288C2.39532 35.379 2.50906 35.5989 2.63797 35.8264C2.79721 36.1145 2.91095 36.433 2.91095 36.7666C2.91095 37.1382 2.94128 37.4946 3.09293 37.8434C3.24458 38.2074 3.30525 38.6017 3.35074 38.9884C3.37349 39.1855 3.44932 39.3068 3.57822 39.413C3.66163 39.4888 3.75262 39.5343 3.8512 39.5874C4.15451 39.7694 4.48815 39.8983 4.72321 40.1789C4.86728 40.3684 4.88245 40.5428 4.71563 40.7172C4.57914 40.8461 4.50331 40.9978 4.45023 41.1722C4.38957 41.4148 4.28341 41.6423 4.16209 41.8622C4.00285 42.1579 4.01044 42.5067 4.13934 42.7721C4.32133 43.174 4.56397 43.5683 4.96586 43.811C5.06443 43.8792 5.17059 43.9399 5.26916 44.0081C5.54214 44.2053 5.79237 44.4403 6.08809 44.6147C6.4369 44.8195 6.67954 45.1379 6.9601 45.4185C7.07384 45.5322 7.15725 45.7218 7.24825 45.8886C7.46814 46.2753 7.74112 46.6241 8.02168 46.9654C8.16575 47.1398 8.30982 47.3142 8.4084 47.5113C8.66621 48.0042 9.03018 48.4061 9.35623 48.8459C9.56097 49.1264 9.75053 49.4222 9.87186 49.7558C9.97043 50.0591 10.0538 50.37 10.1903 50.6506C10.3268 50.9387 10.3041 51.1738 10.0993 51.4012C9.9856 51.5301 9.90219 51.6742 9.88702 51.8486C9.87186 52.0079 9.77328 52.114 9.65954 52.205C9.58371 52.2657 9.50789 52.3187 9.43964 52.3946C9.21216 52.6296 9.21975 52.9784 9.45481 53.2059C9.57613 53.3272 9.75812 53.4258 9.80361 53.5699C9.93252 53.9642 10.2358 54.0704 10.5922 54.1462C10.9031 54.2144 11.2292 54.2523 11.5476 54.3206C11.9192 54.404 12.2983 54.5026 12.8746 54.5026C13.1324 54.4874 13.3978 54.4571 13.8831 54.4722C14.1864 54.4798 14.4821 54.3964 14.7627 54.2448C14.975 54.1234 15.1191 53.9339 15.3238 53.8125C15.43 53.7519 15.5285 53.6685 15.612 53.5699C15.9911 53.1377 16.3778 52.713 16.81 52.3339C17.1892 52.0079 17.5759 51.75 18.0991 51.7576C18.4327 51.7576 18.7664 51.7273 19.1 51.6439C19.6839 51.515 20.2526 51.2951 20.844 51.1965C21.2231 51.1283 21.5719 50.9842 21.9359 50.878C22.4288 50.7415 22.77 50.4458 22.9444 49.9681C23.134 49.4222 23.4525 48.9596 23.8998 48.5956C24.1273 48.4061 24.4003 48.2923 24.6581 48.1558C25.1206 47.898 25.5832 47.6478 26.114 47.6175C26.387 47.6023 26.6599 47.5492 26.9253 47.4886C27.6684 47.3218 28.3433 46.9729 29.0712 46.7455C29.5262 46.609 29.966 46.3891 30.4361 46.2905C30.9062 46.1995 31.3385 46.0099 31.7783 45.8583C32.1726 45.7294 32.5669 45.6156 33.1204 45.6308C33.3782 45.646 33.6284 45.6687 33.8862 45.6763C34.1896 45.6839 34.4853 45.6611 34.7886 45.5853C34.9099 45.555 35.0312 45.5398 35.1905 45.5398C35.5923 45.5474 35.9715 45.6763 36.3658 45.7218C36.4416 45.7294 36.4947 45.7673 36.5402 45.8204C36.8359 46.1692 37.2075 46.4346 37.5411 46.7379C37.7686 46.9426 38.0188 47.1246 38.1705 47.39C38.4586 47.9284 38.8453 48.3985 39.2472 48.8535C39.3685 48.9899 39.5505 49.0885 39.5884 49.2933C39.6491 49.6951 39.8614 49.9378 40.2633 50.0515C40.3543 50.0743 40.4377 50.0894 40.5059 50.0894C40.6652 50.097 40.8017 50.0288 40.9912 49.8165C41.1201 49.6724 41.1884 49.4752 41.3855 49.3842C41.6282 49.2857 41.8329 49.134 42.0149 48.9293C42.1286 48.8004 42.2803 48.6942 42.4244 48.6032C42.485 48.5653 42.5533 48.5122 42.7201 48.5653C42.8338 48.6715 42.9172 48.77 42.8642 48.9596C42.7656 49.3387 42.6291 49.7179 42.8414 50.1577C42.8869 50.37 43.0234 50.4989 43.3419 50.4837C43.539 50.4382 43.6982 50.3169 43.8651 50.2108C43.9308 50.1653 43.999 50.145 44.0698 50.1501C44.1254 50.1501 44.1835 50.1653 44.2442 50.1956C44.4338 50.3093 44.5096 50.4989 44.5551 50.6885C44.5778 50.8022 44.6157 50.9159 44.7295 50.9387C45.0252 51.0069 45.2982 51.1131 45.5712 51.3178C45.738 51.333 45.8062 51.4619 45.829 51.5984C45.8896 51.9244 46.0034 52.2278 46.1626 52.5159C46.2839 52.7434 46.3598 52.986 46.4356 53.2363C46.5569 53.6381 46.7389 54.0249 47.1408 54.2523C47.3986 54.3964 47.6109 54.6011 47.8384 54.7907C47.9597 54.8969 48.0962 54.9879 48.2479 55.0561C49.1805 55.458 50.1435 55.7765 51.0155 56.2997C51.1975 56.4058 51.3795 56.4741 51.5767 56.4741C51.7283 56.4741 51.8876 56.4437 52.0544 56.3679C52.4866 56.1783 52.8809 55.9054 53.3055 55.7082C53.4723 55.6248 53.6543 55.5566 53.8211 55.5641C53.9425 55.5641 54.0562 55.6021 54.1699 55.6855C54.4126 55.875 54.6477 56.0722 54.8827 56.2693C55.1557 56.4892 55.4287 56.6788 55.8988 56.7622C55.967 56.7622 56.0277 56.7546 56.0884 56.7167C56.331 56.5878 56.5964 56.4741 56.8163 56.3148C57.385 55.8902 57.984 55.5111 58.5679 55.1092C58.8409 54.9196 59.1139 54.7149 59.4778 54.6997C59.8418 54.6845 60.1982 54.5936 60.547 54.4571C60.8124 54.3509 61.0778 54.2523 61.3204 54.1234C61.7223 53.9111 62.0484 53.6002 61.927 53.0315C61.9043 52.9254 61.9119 52.804 61.9801 52.7055C62.1621 52.4249 62.3441 52.1443 62.5261 51.8714C62.7763 51.4922 63.0644 51.1434 63.3753 50.8174C63.7924 50.3852 63.9365 49.8013 64.2625 49.316C64.4672 49.0127 64.6037 48.6563 64.7478 48.3151C64.9677 47.807 65.2255 47.3142 65.3392 46.7606C65.4151 46.427 65.5212 46.0934 65.6729 45.79C65.8776 45.373 66.1127 44.9635 66.3402 44.5616C66.5449 44.2053 66.7724 43.8565 67.0529 43.5759C67.3183 43.3029 67.5155 43.0072 67.6899 42.6887C67.8946 42.3172 68.0539 41.9229 68.2434 41.5362C68.3723 41.2632 68.5164 40.9978 68.5467 40.6869C68.5543 40.5125 68.5922 40.3457 68.6226 40.1789C68.6681 39.9362 68.6832 39.686 68.6074 39.4357Z"/>
</mask>
<path d="M68.6074 39.4357C68.4557 38.9277 68.3041 38.4197 68.3117 37.8737C68.3192 37.5704 68.342 37.2671 68.3572 36.9638C68.3875 36.4178 68.3041 35.8719 68.1979 35.3259C68.0918 34.8255 68.0842 34.2947 67.8415 33.817C67.5989 33.3544 67.3487 32.8843 66.9316 32.5582C66.4312 32.1715 66.0899 31.6787 65.8321 31.1175C65.7108 30.8673 65.6046 30.6019 65.3772 30.4275C65.1269 30.2228 64.9601 29.9574 64.8464 29.6541C64.7933 29.4948 64.7023 29.3432 64.5961 29.2067C64.3459 28.8806 63.9895 28.7896 63.618 28.7821C63.2843 28.7745 63.163 28.5622 63.1099 28.3044C63.0265 27.9101 62.8445 27.5537 62.6929 27.1821C62.5337 26.7727 62.3062 26.3556 62.382 25.8931C62.4578 25.4457 62.3668 25.059 62.0939 24.7177C61.9346 24.5054 61.7375 24.3386 61.4645 24.2779C61.2749 24.24 61.1081 24.149 60.9565 24.0201C60.6911 23.7927 60.4105 23.5728 60.0617 23.4818C59.6977 23.3984 59.3565 23.277 59.0456 23.0723C58.9243 22.9965 58.7878 22.9358 58.6589 22.8676C58.257 22.6628 57.8703 22.4278 57.7035 21.9728C57.5897 21.6543 57.5518 21.3359 57.6352 21.0022C57.7262 20.5928 57.6883 20.1833 57.5139 19.8117C57.3168 19.3871 57.0665 19.0004 56.5509 18.6364C56.422 18.5227 56.3689 18.3862 56.3765 18.2118C56.3765 17.9919 56.4144 17.7796 56.4372 17.5673C56.4978 17.0516 56.3917 16.5512 56.2931 16.0583C56.2097 15.6868 56.0656 15.3607 55.7623 15.1181C55.6334 15.0195 55.5272 14.8906 55.4287 14.7617C55.0571 14.284 54.496 14.2612 53.9576 14.1323C53.8818 14.1475 53.8161 14.1551 53.7605 14.1551C53.533 14.1475 53.4572 14.0186 53.3662 13.7683C53.2145 13.3816 53.0477 12.9949 52.8202 12.6461C52.6231 12.3504 52.5624 12.0091 52.5397 11.6679C52.5017 10.9855 52.3349 10.3561 51.8648 9.8405C51.6601 9.61302 51.5008 9.36279 51.4326 9.05948C51.3719 8.80167 51.0838 8.59694 50.8032 8.58936C50.5909 8.60452 50.4848 8.74101 50.3938 9.06707C50.2724 9.4917 50.1739 9.91633 49.8326 10.2575C49.3928 10.6973 49.2336 11.304 49.0895 11.8878C49.044 12.0546 49.0895 12.2139 49.2033 12.3504C49.5976 12.8584 49.5976 13.4119 49.3625 13.9731C49.1805 14.3977 49.0971 14.7996 49.2791 15.2545C49.4914 15.7929 49.4611 16.3085 49.0592 16.7862C48.6725 17.2564 48.3692 17.7796 48.2099 18.371C48.1417 18.6213 47.9976 18.8487 47.8005 19.0383C47.4365 19.3947 47.0953 19.7662 46.792 20.1833C46.6934 20.3198 46.5418 20.4639 46.337 20.4563C46.1095 20.4335 45.8745 20.3577 45.6773 20.2288C45.3209 20.0013 44.9494 19.8269 44.5323 19.7435C44.0471 19.6373 43.6452 19.425 43.3646 18.9776C43.1675 18.6592 42.9096 18.3559 42.5533 18.1815C42.0604 17.9388 41.5448 17.7492 41.0746 17.4535C40.7713 17.264 40.4074 17.1502 40.0813 16.991C39.596 16.7635 39.2245 16.4223 39.0576 15.8915C38.9212 15.482 38.7619 15.0953 39.0425 14.6479C39.2851 14.2536 39.4216 13.7987 39.7628 13.4574C39.9524 13.2755 40.1799 13.1314 40.3998 12.9797C40.6728 12.7977 40.8017 12.5627 40.7713 12.2215C40.7486 11.903 40.5818 11.6376 40.4983 11.3419C40.4756 11.2585 40.3998 11.2054 40.1344 11.1296C40.0206 11.1296 39.9069 11.1675 39.7932 11.213C39.6794 11.2585 39.5657 11.2736 39.4444 11.2736C39.3736 11.2736 39.3028 11.266 39.232 11.2509C39.0956 11.2281 39.0956 11.0765 39.0121 11.0082C38.8908 10.9021 38.7543 10.7959 38.542 10.7959C38.3524 10.8035 38.1629 10.8414 37.9581 10.8338C37.6245 10.8262 37.306 10.8642 37.0027 11.0158C36.707 11.1599 36.4037 11.2509 36.0852 11.2433C35.9993 11.2433 35.9108 11.2357 35.8198 11.2206C35.6075 11.1826 35.3952 11.1296 35.1829 11.0841C34.8189 11.0082 34.4474 10.9779 34.0986 10.8414C33.5829 10.6518 33.0825 10.432 32.5669 10.2424C32.4658 10.2019 32.3722 10.1817 32.2863 10.1817C31.9602 10.1741 31.7631 10.4092 31.7479 10.8187C31.7403 11.1068 31.6948 11.3874 31.4446 11.5997C31.293 11.7286 31.1413 11.8802 30.9745 11.9485C30.7091 12.0622 30.4058 12.1077 30.1025 12.1456C29.693 12.1987 29.3442 12.358 29.1395 12.7447C29.0637 12.8812 28.9954 13.0176 28.8817 13.1238C28.7376 13.2527 28.6011 13.3816 28.5253 13.5636C28.4874 13.647 28.4343 13.7304 28.3509 13.7911C28.0248 14.0186 27.8201 14.3446 27.6229 14.6858C27.4485 14.9967 27.3045 15.3228 27.1225 15.6337C26.9936 15.846 26.9557 16.1038 27.0012 16.3313C27.0391 16.5133 27.0087 16.6725 26.986 16.8393C26.9481 17.082 26.804 17.2564 26.478 17.264C26.3945 17.264 26.3111 17.2564 26.2201 17.2412C26.0002 17.1881 25.8183 17.0213 25.5832 16.991C25.4012 16.9682 25.2344 16.9 25.0827 16.7862C24.8477 16.6194 24.605 16.4678 24.3093 16.4071C23.9453 16.3389 23.6041 16.2327 23.2629 16.0811C23.0961 16.0052 22.9293 15.9294 22.7397 15.9294C22.674 15.9243 22.6032 15.9345 22.5274 15.9597C22.1255 16.0735 21.807 16.3465 21.4203 16.5663C21.0867 16.9 20.8061 17.2867 20.4345 17.5748C20.3891 17.6128 20.3436 17.6658 20.3056 17.7189C20.0782 18.0146 19.8658 18.3331 19.5701 18.5833C19.2137 18.8715 18.9104 19.2127 18.6602 19.5994C18.463 19.9179 18.3948 20.2212 18.5313 20.57C18.6374 20.843 18.5389 21.0022 18.2431 21.0326C17.9929 21.0553 17.7351 21.0174 17.5152 21.0705C17.1437 21.0629 16.9617 21.2145 16.8783 21.533C16.8404 21.6998 16.8328 21.8742 16.6659 22.1472C16.5977 22.079 16.537 22.0107 16.4764 21.9425C16.3854 21.8439 16.2868 21.7908 16.1807 21.7908C16.0972 21.7832 16.0138 21.8136 15.938 21.8818C15.6347 22.132 15.3314 22.3899 15.0357 22.6553C14.8537 22.8145 14.7172 23.0116 14.7096 23.2619C14.6944 23.5348 14.6944 23.8002 14.7399 24.0732C14.7854 24.331 14.8537 24.5964 14.8158 24.8694C14.793 25.0741 14.6944 25.2485 14.6035 25.4305C14.4366 25.7717 14.2622 26.113 14.1106 26.4618C13.9058 26.9319 13.595 27.3034 13.1248 27.5158C12.8013 27.6573 12.4854 27.8064 12.177 27.9631C11.7448 28.1755 11.3277 28.4105 10.8955 28.6152C10.3041 28.8882 9.69746 29.1612 9.16667 29.5555C8.6283 29.9574 8.00652 30.1849 7.37715 30.3896C6.95252 30.5337 6.53547 30.7157 6.19425 31.0341C5.54972 31.6256 5.10993 32.3838 4.63222 33.1042C4.38199 33.4758 4.18484 33.8928 3.87395 34.2189C3.70713 34.3857 3.53273 34.5904 3.2825 34.5904C3.19909 34.5904 3.1081 34.5677 2.83512 34.4615C2.70621 34.4615 2.57731 34.5222 2.47115 34.6132C2.3195 34.7572 2.31191 34.9316 2.34983 35.1288C2.39532 35.379 2.50906 35.5989 2.63797 35.8264C2.79721 36.1145 2.91095 36.433 2.91095 36.7666C2.91095 37.1382 2.94128 37.4946 3.09293 37.8434C3.24458 38.2074 3.30525 38.6017 3.35074 38.9884C3.37349 39.1855 3.44932 39.3068 3.57822 39.413C3.66163 39.4888 3.75262 39.5343 3.8512 39.5874C4.15451 39.7694 4.48815 39.8983 4.72321 40.1789C4.86728 40.3684 4.88245 40.5428 4.71563 40.7172C4.57914 40.8461 4.50331 40.9978 4.45023 41.1722C4.38957 41.4148 4.28341 41.6423 4.16209 41.8622C4.00285 42.1579 4.01044 42.5067 4.13934 42.7721C4.32133 43.174 4.56397 43.5683 4.96586 43.811C5.06443 43.8792 5.17059 43.9399 5.26916 44.0081C5.54214 44.2053 5.79237 44.4403 6.08809 44.6147C6.4369 44.8195 6.67954 45.1379 6.9601 45.4185C7.07384 45.5322 7.15725 45.7218 7.24825 45.8886C7.46814 46.2753 7.74112 46.6241 8.02168 46.9654C8.16575 47.1398 8.30982 47.3142 8.4084 47.5113C8.66621 48.0042 9.03018 48.4061 9.35623 48.8459C9.56097 49.1264 9.75053 49.4222 9.87186 49.7558C9.97043 50.0591 10.0538 50.37 10.1903 50.6506C10.3268 50.9387 10.3041 51.1738 10.0993 51.4012C9.9856 51.5301 9.90219 51.6742 9.88702 51.8486C9.87186 52.0079 9.77328 52.114 9.65954 52.205C9.58371 52.2657 9.50789 52.3187 9.43964 52.3946C9.21216 52.6296 9.21975 52.9784 9.45481 53.2059C9.57613 53.3272 9.75812 53.4258 9.80361 53.5699C9.93252 53.9642 10.2358 54.0704 10.5922 54.1462C10.9031 54.2144 11.2292 54.2523 11.5476 54.3206C11.9192 54.404 12.2983 54.5026 12.8746 54.5026C13.1324 54.4874 13.3978 54.4571 13.8831 54.4722C14.1864 54.4798 14.4821 54.3964 14.7627 54.2448C14.975 54.1234 15.1191 53.9339 15.3238 53.8125C15.43 53.7519 15.5285 53.6685 15.612 53.5699C15.9911 53.1377 16.3778 52.713 16.81 52.3339C17.1892 52.0079 17.5759 51.75 18.0991 51.7576C18.4327 51.7576 18.7664 51.7273 19.1 51.6439C19.6839 51.515 20.2526 51.2951 20.844 51.1965C21.2231 51.1283 21.5719 50.9842 21.9359 50.878C22.4288 50.7415 22.77 50.4458 22.9444 49.9681C23.134 49.4222 23.4525 48.9596 23.8998 48.5956C24.1273 48.4061 24.4003 48.2923 24.6581 48.1558C25.1206 47.898 25.5832 47.6478 26.114 47.6175C26.387 47.6023 26.6599 47.5492 26.9253 47.4886C27.6684 47.3218 28.3433 46.9729 29.0712 46.7455C29.5262 46.609 29.966 46.3891 30.4361 46.2905C30.9062 46.1995 31.3385 46.0099 31.7783 45.8583C32.1726 45.7294 32.5669 45.6156 33.1204 45.6308C33.3782 45.646 33.6284 45.6687 33.8862 45.6763C34.1896 45.6839 34.4853 45.6611 34.7886 45.5853C34.9099 45.555 35.0312 45.5398 35.1905 45.5398C35.5923 45.5474 35.9715 45.6763 36.3658 45.7218C36.4416 45.7294 36.4947 45.7673 36.5402 45.8204C36.8359 46.1692 37.2075 46.4346 37.5411 46.7379C37.7686 46.9426 38.0188 47.1246 38.1705 47.39C38.4586 47.9284 38.8453 48.3985 39.2472 48.8535C39.3685 48.9899 39.5505 49.0885 39.5884 49.2933C39.6491 49.6951 39.8614 49.9378 40.2633 50.0515C40.3543 50.0743 40.4377 50.0894 40.5059 50.0894C40.6652 50.097 40.8017 50.0288 40.9912 49.8165C41.1201 49.6724 41.1884 49.4752 41.3855 49.3842C41.6282 49.2857 41.8329 49.134 42.0149 48.9293C42.1286 48.8004 42.2803 48.6942 42.4244 48.6032C42.485 48.5653 42.5533 48.5122 42.7201 48.5653C42.8338 48.6715 42.9172 48.77 42.8642 48.9596C42.7656 49.3387 42.6291 49.7179 42.8414 50.1577C42.8869 50.37 43.0234 50.4989 43.3419 50.4837C43.539 50.4382 43.6982 50.3169 43.8651 50.2108C43.9308 50.1653 43.999 50.145 44.0698 50.1501C44.1254 50.1501 44.1835 50.1653 44.2442 50.1956C44.4338 50.3093 44.5096 50.4989 44.5551 50.6885C44.5778 50.8022 44.6157 50.9159 44.7295 50.9387C45.0252 51.0069 45.2982 51.1131 45.5712 51.3178C45.738 51.333 45.8062 51.4619 45.829 51.5984C45.8896 51.9244 46.0034 52.2278 46.1626 52.5159C46.2839 52.7434 46.3598 52.986 46.4356 53.2363C46.5569 53.6381 46.7389 54.0249 47.1408 54.2523C47.3986 54.3964 47.6109 54.6011 47.8384 54.7907C47.9597 54.8969 48.0962 54.9879 48.2479 55.0561C49.1805 55.458 50.1435 55.7765 51.0155 56.2997C51.1975 56.4058 51.3795 56.4741 51.5767 56.4741C51.7283 56.4741 51.8876 56.4437 52.0544 56.3679C52.4866 56.1783 52.8809 55.9054 53.3055 55.7082C53.4723 55.6248 53.6543 55.5566 53.8211 55.5641C53.9425 55.5641 54.0562 55.6021 54.1699 55.6855C54.4126 55.875 54.6477 56.0722 54.8827 56.2693C55.1557 56.4892 55.4287 56.6788 55.8988 56.7622C55.967 56.7622 56.0277 56.7546 56.0884 56.7167C56.331 56.5878 56.5964 56.4741 56.8163 56.3148C57.385 55.8902 57.984 55.5111 58.5679 55.1092C58.8409 54.9196 59.1139 54.7149 59.4778 54.6997C59.8418 54.6845 60.1982 54.5936 60.547 54.4571C60.8124 54.3509 61.0778 54.2523 61.3204 54.1234C61.7223 53.9111 62.0484 53.6002 61.927 53.0315C61.9043 52.9254 61.9119 52.804 61.9801 52.7055C62.1621 52.4249 62.3441 52.1443 62.5261 51.8714C62.7763 51.4922 63.0644 51.1434 63.3753 50.8174C63.7924 50.3852 63.9365 49.8013 64.2625 49.316C64.4672 49.0127 64.6037 48.6563 64.7478 48.3151C64.9677 47.807 65.2255 47.3142 65.3392 46.7606C65.4151 46.427 65.5212 46.0934 65.6729 45.79C65.8776 45.373 66.1127 44.9635 66.3402 44.5616C66.5449 44.2053 66.7724 43.8565 67.0529 43.5759C67.3183 43.3029 67.5155 43.0072 67.6899 42.6887C67.8946 42.3172 68.0539 41.9229 68.2434 41.5362C68.3723 41.2632 68.5164 40.9978 68.5467 40.6869C68.5543 40.5125 68.5922 40.3457 68.6226 40.1789C68.6681 39.9362 68.6832 39.686 68.6074 39.4357Z" fill="white" stroke="#183453" stroke-width="1.82416" mask="url(#path-10-inside-1_285_939)"/>
<path d="M31.1418 36.4051H28.1026L27.5997 37.8591H25.9926L28.7366 30.2173H30.5186L33.2627 37.8591H31.6447L31.1418 36.4051ZM30.7264 35.1807L29.6222 31.9884L28.518 35.1807H30.7264ZM38.399 33.9453C38.829 34.0255 39.1825 34.2405 39.4594 34.5903C39.7364 34.9402 39.8749 35.341 39.8749 35.7929C39.8749 36.201 39.7728 36.5618 39.5687 36.8752C39.372 37.1813 39.0841 37.4218 38.7051 37.5968C38.3261 37.7717 37.8779 37.8591 37.3604 37.8591H34.0697V30.2283H37.2183C37.7357 30.2283 38.1803 30.3121 38.552 30.4797C38.931 30.6474 39.2153 30.8806 39.4048 31.1794C39.6015 31.4782 39.6999 31.8171 39.6999 32.1961C39.6999 32.6407 39.5797 33.0124 39.3392 33.3112C39.1059 33.6101 38.7925 33.8214 38.399 33.9453ZM35.6003 33.3768H36.9996C37.364 33.3768 37.6446 33.2967 37.8414 33.1363C38.0382 32.9687 38.1366 32.7318 38.1366 32.4257C38.1366 32.1196 38.0382 31.8827 37.8414 31.7151C37.6446 31.5475 37.364 31.4636 36.9996 31.4636H35.6003V33.3768ZM37.1417 36.6128C37.5134 36.6128 37.8013 36.5254 38.0054 36.3505C38.2168 36.1755 38.3224 35.9277 38.3224 35.607C38.3224 35.2791 38.2131 35.024 37.9945 34.8418C37.7758 34.6523 37.4806 34.5575 37.1089 34.5575H35.6003V36.6128H37.1417ZM47.4027 37.8591H45.8722L42.4066 32.6225V37.8591H40.876V30.2173H42.4066L45.8722 35.4649V30.2173H47.4027V37.8591Z" fill="#183453"/>
<path d="M58.6665 59.7037C58.6109 59.7037 58.5603 59.7088 58.5148 59.7189C58.4087 59.7492 58.3025 59.7644 58.2039 59.7644C58.1483 59.7644 58.0953 59.7568 58.0447 59.7416C57.8021 59.6734 57.5518 59.6506 57.3092 59.643C57.15 59.643 56.9907 59.6506 56.8239 59.6506C56.8037 59.6506 56.7835 59.6506 56.7632 59.6506C56.4144 59.643 56.0808 59.5672 55.7699 59.3928C55.5273 59.2639 55.3074 59.0819 55.042 58.9909C54.8069 58.9151 54.6022 58.8089 54.4581 58.5966C54.3519 58.445 54.1927 58.3919 54.0259 58.3843C54.0208 58.3843 54.0158 58.3843 54.0107 58.3843C53.7681 58.3767 53.5937 58.5284 53.6847 58.771C53.7226 58.8848 53.6922 58.9833 53.624 59.0895C53.5027 59.2942 53.4648 59.5217 53.5785 59.7492C53.8894 60.3937 54.1017 61.0686 54.2609 61.7738C54.3368 62.115 54.4808 62.4259 54.6628 62.7292C54.8751 63.0856 55.095 63.4344 55.1936 63.8514C55.2391 64.0486 55.3377 64.2306 55.5348 64.3291C55.7396 64.4201 55.9443 64.496 56.1794 64.496C56.1895 64.496 56.2021 64.496 56.2173 64.496C56.2577 64.5061 56.2931 64.5111 56.3234 64.5111C56.5282 64.5111 56.695 64.405 56.8315 64.2685C57.2485 63.8514 57.7338 63.5026 58.166 63.1083C58.3556 62.9339 58.4618 62.7292 58.5603 62.4941C58.7271 62.0998 58.6665 61.6449 58.9395 61.2885C58.9546 61.2581 58.9698 61.2278 58.9698 61.1975C58.9471 60.9473 59.0608 60.7349 59.1139 60.5075C59.1442 60.3786 59.1973 60.2496 59.1821 60.1132C59.1442 59.8402 58.894 59.7113 58.6665 59.7037Z" fill="#FFC000"/>
<path d="M53.7625 8.09188L52.5731 9.86432L54.3319 11.0564L55.5239 9.2976L53.7625 8.09188Z" fill="#183453"/>
<path d="M32.1336 55.7215L30.9442 57.494L32.7029 58.686L33.895 56.9272L32.1336 55.7215Z" fill="#183453"/>
<path d="M22.2762 12.0483L22.4086 14.1787L24.5298 14.0566L24.4077 11.9354L22.2762 12.0483Z" fill="#183453"/>
<path d="M46.8805 5.07925L45.6747 6.84066L47.4498 8.04375L48.6392 6.27131L46.8805 5.07925Z" fill="#FFC000"/>
<path d="M25.2515 52.7089L24.0457 54.4703L25.8208 55.6734L27.0103 53.9009L25.2515 52.7089Z" fill="#08A5E2"/>
<path d="M14.9798 13.8375L15.0926 15.969L17.2335 15.8458L17.101 13.7153L14.9798 13.8375Z" fill="#FFC000"/>
<path d="M52.8958 0.850245L51.6927 2.62531L53.4652 3.81474L54.6572 2.05596L52.8958 0.850245Z" fill="#08A5E2"/>
<path d="M31.2669 48.4796L30.0638 50.2547L31.8363 51.4441L33.0283 49.6854L31.2669 48.4796Z" fill="#FFC000"/>
<path d="M17.1873 6.82354L17.3106 8.96436L19.441 8.83187L19.3189 6.71068L17.1873 6.82354Z" fill="#08A5E2"/>
</svg>
