<svg width="59" height="60" viewBox="0 0 59 60" fill="none" xmlns="http://www.w3.org/2000/svg">
<path d="M0.0125885 27.4766C0.0125885 10.2379 12.7281 0.234863 29.9668 0.234863C47.2055 0.234863 58.6317 7.80561 58.6317 25.0443C58.6317 42.283 61.2765 59.5834 44.0378 59.5834C26.7992 59.5834 0.0125885 44.7153 0.0125885 27.4766Z" fill="#73BFB8" fill-opacity="0.24"/>
<path d="M35.3927 54.2829V57.1921C23.9553 57.1921 14.6301 47.8668 14.6301 36.3896C14.6301 24.9522 23.9553 15.627 35.3927 15.627V18.5361C25.5494 18.5361 17.5392 26.5463 17.5392 36.3896C17.5392 46.2728 25.5494 54.2829 35.3927 54.2829Z" fill="#73BFB8"/>
<path d="M35.3926 18.5363V21.4454C27.1434 21.4454 20.4483 28.1405 20.4483 36.3897C20.4483 44.639 27.1434 51.3739 35.3926 51.3739V54.2831C25.5493 54.2831 17.5392 46.2729 17.5392 36.3897C17.5392 26.5464 25.5493 18.5363 35.3926 18.5363Z" fill="white"/>
<path d="M35.3928 48.4647V51.3738C27.1435 51.3738 20.4485 44.6389 20.4485 36.3897C20.4485 28.1404 27.1435 21.4454 35.3928 21.4454V24.3545C28.7376 24.3545 23.3576 29.7345 23.3576 36.3897C23.3576 43.0449 28.7376 48.4647 35.3928 48.4647Z" fill="#73BFB8"/>
<path d="M35.3926 24.3546V27.2638C30.3714 27.2638 26.2666 31.3685 26.2666 36.3898C26.2666 41.4509 30.3714 45.5556 35.3926 45.5556V48.4648C28.7374 48.4648 23.3575 43.045 23.3575 36.3898C23.3575 29.7346 28.7374 24.3546 35.3926 24.3546Z" fill="white"/>
<path d="M35.3928 42.6464V45.5556C30.3715 45.5556 26.2668 41.4509 26.2668 36.3897C26.2668 31.3684 30.3715 27.2637 35.3928 27.2637V30.1729C31.9656 30.1729 29.176 32.9625 29.176 36.3897C29.176 39.817 31.9656 42.6464 35.3928 42.6464Z" fill="#73BFB8"/>
<path d="M35.3927 30.1728V33.0819C33.5595 33.0819 32.085 34.5564 32.085 36.3896C32.085 38.2228 33.5595 39.7372 35.3927 39.7372V42.6463C31.9655 42.6463 29.1759 39.8168 29.1759 36.3896C29.1759 32.9624 31.9655 30.1728 35.3927 30.1728Z" fill="white"/>
<path d="M35.3926 33.0819V39.7371C33.5595 39.7371 32.085 38.2227 32.085 36.3896C32.085 34.5564 33.5595 33.0819 35.3926 33.0819Z" fill="#73BFB8"/>
<path d="M56.1952 36.3896C56.1952 47.8668 46.87 57.1921 35.3927 57.1921V54.2829C45.2759 54.2829 53.2861 46.2728 53.2861 36.3896C53.2861 26.5463 45.2759 18.5361 35.3927 18.5361V15.627C46.87 15.627 56.1952 24.9522 56.1952 36.3896Z" fill="#73BFB8"/>
<path d="M35.3927 21.4454V18.5363C45.2759 18.5363 53.2861 26.5464 53.2861 36.3897C53.2861 46.2729 45.2759 54.2831 35.3927 54.2831V51.3739C43.642 51.3739 50.3769 44.639 50.3769 36.3897C50.3769 28.1405 43.642 21.4454 35.3927 21.4454Z" fill="white"/>
<path d="M35.3927 51.3738V48.4647C42.0479 48.4647 47.4677 43.0449 47.4677 36.3897C47.4677 29.7345 42.0479 24.3545 35.3927 24.3545V21.4454C43.642 21.4454 50.3769 28.1404 50.3769 36.3897C50.3769 44.6389 43.642 51.3738 35.3927 51.3738Z" fill="#73BFB8"/>
<path d="M35.3927 27.2638V24.3546C42.0479 24.3546 47.4677 29.7346 47.4677 36.3898C47.4677 43.045 42.0479 48.4648 35.3927 48.4648V45.5556C40.4539 45.5556 44.5586 41.4509 44.5586 36.3898C44.5586 31.3685 40.4539 27.2638 35.3927 27.2638Z" fill="white"/>
<path d="M35.3927 45.5556V42.6464C38.82 42.6464 41.6494 39.817 41.6494 36.3897C41.6494 32.9625 38.82 30.1729 35.3927 30.1729V27.2637C40.4539 27.2637 44.5586 31.3684 44.5586 36.3897C44.5586 41.4509 40.4539 45.5556 35.3927 45.5556Z" fill="#73BFB8"/>
<path d="M35.3927 33.0819V30.1728C38.82 30.1728 41.6494 32.9624 41.6494 36.3896C41.6494 39.8168 38.82 42.6463 35.3927 42.6463V39.7372C37.2259 39.7372 38.7403 38.2228 38.7403 36.3896C38.7403 34.5564 37.2259 33.0819 35.3927 33.0819Z" fill="white"/>
<path d="M35.3927 39.7371V33.0819C37.2259 33.0819 38.7403 34.5564 38.7403 36.3896C38.7403 38.2227 37.2259 39.7371 35.3927 39.7371Z" fill="#73BFB8"/>
<path d="M29.2953 31.8866L29.8134 31.3686L30.2916 30.8505C30.2916 30.8505 33.5595 33.919 35.3926 36.6688C32.5632 34.9552 29.2953 31.8866 29.2953 31.8866Z" fill="#FFC000"/>
<path d="M29.0962 32.0857L23.4373 26.7456L24.872 25.2313L30.5309 30.6112C30.8497 30.93 30.0925 31.6075 30.0925 31.6075C30.0925 31.6075 29.4549 32.4444 29.0962 32.0857Z" fill="#FFC000"/>
<path d="M18.5354 22.0829L19.9701 20.6084L26.9441 27.2237L25.5094 28.6982L18.5354 22.0829Z" fill="#FFC000"/>
<path d="M14.7098 22.641C13.1954 21.2063 9.25013 17.6197 11.5217 13.9932C15.0286 11.5224 18.8145 15.3083 20.3289 16.743C22.4011 18.6957 20.1296 22.1628 20.1296 22.1628C20.1296 22.1628 16.7821 24.6336 14.7098 22.641Z" fill="#E23129"/>
<path d="M16.7422 18.9347L11.6013 18.9745C11.4419 18.6823 11.3091 18.39 11.2028 18.0978L15.8256 18.0579L15.6263 13.4352C15.9186 13.5415 16.2108 13.661 16.503 13.7938L16.7422 18.9347Z" fill="white"/>
<path d="M12.8367 20.728C12.5445 20.3827 12.2788 20.024 12.0397 19.652L17.4595 19.6122L17.2204 14.1924C17.5923 14.4315 17.951 14.6839 18.2964 14.9496L18.5753 20.6882L12.8367 20.728Z" fill="white"/>
<path d="M29.0165 36.4694L29.136 35.9114L29.2954 35.3934C29.2954 35.3934 32.7227 36.3498 34.9942 37.5852C32.4039 37.4258 29.0165 36.4694 29.0165 36.4694Z" fill="#FFC000"/>
<path d="M28.9368 36.7085L22.9989 35.0347L23.4373 33.4805L29.3751 35.1543C29.7338 35.234 29.4548 35.9912 29.4548 35.9912C29.4548 35.9912 29.2954 36.7882 28.9368 36.7085Z" fill="#FFC000"/>
<path d="M17.8979 33.6004L18.3363 32.0461L25.6292 34.0786L25.1908 35.6726L17.8979 33.6004Z" fill="#FFC000"/>
<path d="M15.4272 35.4333C13.8331 34.9551 9.72839 33.9189 10.0073 30.5316C11.5217 27.5427 15.5866 28.7781 17.1806 29.2165C19.3326 29.8142 19.0138 33.0821 19.0138 33.0821C19.0138 33.0821 17.5792 36.0311 15.4272 35.4333Z" fill="#E23129"/>
<path d="M15.4271 32.0856L11.8803 33.9985C11.6678 33.8391 11.4685 33.6797 11.2826 33.5202L14.5105 31.8066L12.6375 28.6584C12.9032 28.6318 13.1556 28.6052 13.3947 28.5787L15.4271 32.0856Z" fill="white"/>
<path d="M13.3947 34.7557C13.0758 34.6228 12.757 34.4767 12.4382 34.3173L16.2241 32.2849L14.0323 28.5787C14.4042 28.6052 14.7496 28.6451 15.0684 28.6982L17.3798 32.6037L13.3947 34.7557Z" fill="white"/>
<path d="M35.7115 36.9476C37.3454 34.5167 40.2944 31.7271 40.2944 31.7271L40.7328 32.2053L41.1711 32.6835C41.1711 32.6835 38.262 35.4731 35.7115 36.9476Z" fill="#FFC000"/>
<path d="M40.4936 32.4444C40.4936 32.4444 39.7763 31.8466 40.0951 31.5278L45.1563 26.7057L46.4315 28.0607L41.3704 32.8827C41.0515 33.1617 40.4936 32.4444 40.4936 32.4444Z" fill="#FFC000"/>
<path d="M44.5585 29.8541L43.2832 28.4992L49.5399 22.5613L50.8152 23.9162L44.5585 29.8541Z" fill="#FFC000"/>
<path d="M49.4205 23.9561C49.4205 23.9561 47.3483 20.8477 49.2213 19.0942C50.5762 17.819 53.9636 14.4316 57.1119 16.6234C59.1842 19.8913 55.5975 23.1192 54.2426 24.3945C52.4094 26.1878 49.4205 23.9561 49.4205 23.9561Z" fill="#E23129"/>
<path d="M52.6483 16.4639C52.914 16.3576 53.1797 16.2514 53.4454 16.1451L53.286 20.2896L57.4305 20.3295C57.3242 20.5952 57.1914 20.8475 57.032 21.0867L52.4491 21.0468L52.6483 16.4639Z" fill="white"/>
<path d="M50.8152 22.641L51.0543 17.5001C51.3465 17.261 51.6653 17.0352 52.0107 16.8227L51.8114 21.6846L56.6733 21.7244C56.4342 22.0432 56.1951 22.362 55.956 22.6808L50.8152 22.641Z" fill="white"/>
<path d="M37.4252 45.436V59.5434H33.6791V45.436H31.8061L35.5522 40.7335L39.2982 45.436H37.4252Z" fill="#FFC000"/>
<path d="M42.566 48.903V59.5433H39.7365V48.903H38.3417L41.1313 45.3961L43.9608 48.903H42.566Z" fill="#FFC000"/>
<path d="M27.1434 48.9429L29.933 45.3961L32.7625 48.9429H31.3677V59.5832H28.5382V48.9429H27.1434Z" fill="#FFC000"/>
<path d="M56.8328 59.5832H48.7828H44.5984H43.9209H40.7328C40.7328 55.8372 42.1674 54.7612 43.9209 53.2867C43.9209 53.2867 43.6419 49.7798 45.9932 47.5082C47.7068 45.8345 48.3046 43.8817 47.9061 42.9651C47.7998 42.7526 47.6537 42.6065 47.4677 42.5268C47.3481 42.4869 47.2684 42.4471 47.109 42.4471C46.8965 42.4471 46.6441 42.5268 46.3518 42.6862C44.8375 43.6825 44.1201 44.7186 42.4065 43.6426C41.0117 42.7659 41.6892 41.6899 42.4065 40.853C43.5224 39.4582 45.8736 37.2664 45.8736 37.2664C45.8736 37.2664 44.7578 35.7919 44.6781 35.3136C44.5187 34.1181 52.6484 33.0421 54.5214 39.2988C56.0358 44.2404 50.9348 50.8956 52.9672 52.6889C54.9996 54.5221 56.8328 55.359 56.8328 59.5832Z" fill="#FFC000"/>
</svg>
