<svg width="60" height="64" viewBox="0 0 60 64" fill="none" xmlns="http://www.w3.org/2000/svg">
<path d="M0.895889 28.0095C0.895889 10.7708 13.6114 0.767761 30.8501 0.767761C48.0888 0.767761 59.515 8.33851 59.515 25.5772C59.515 42.8159 62.1598 60.1163 44.9211 60.1163C27.6825 60.1163 0.895889 45.2482 0.895889 28.0095Z" fill="white" fill-opacity="0.74"/>
<path d="M42.0097 52.4244L34.2643 62.6004C33.2921 63.8642 31.5097 64.0911 30.2458 63.1513L30.0513 62.9892C28.7874 62.0494 28.5606 60.2346 29.5004 59.0031L37.2782 48.7947L42.0097 52.4244Z" fill="#F59121"/>
<path d="M14.1393 21.5074C14.3337 21.7018 14.3661 21.9935 14.1717 22.2204C14.0097 22.4148 13.6856 22.4472 13.4911 22.2528L12.4541 21.3778C12.2272 21.1833 12.2272 20.8917 12.3893 20.6648C12.5837 20.4704 12.8754 20.438 13.1023 20.6324L14.1393 21.5074Z" fill="#73BFB8"/>
<path d="M10.38 31.0681C10.6393 31.0681 10.8662 31.295 10.8662 31.5866C10.8662 31.8459 10.6393 32.0728 10.38 32.0728L9.01892 32.0403C8.72726 32.0403 8.5004 31.8135 8.53281 31.5218C8.53281 31.2626 8.75966 31.0357 9.01892 31.0357L10.38 31.0681Z" fill="#73BFB8"/>
<path d="M11.3414 24.991C11.5896 25.0661 11.7409 25.349 11.6564 25.6282C11.5813 25.8763 11.2985 26.0277 11.0503 25.9526L9.75698 25.5271C9.47783 25.4426 9.32644 25.1598 9.44197 24.89C9.51709 24.6419 9.79994 24.4905 10.0481 24.5656L11.3414 24.991Z" fill="#73BFB8"/>
<path d="M11.1578 36.2208C11.417 36.1236 11.7087 36.2532 11.8059 36.5125C11.8707 36.7718 11.7411 37.0634 11.4818 37.1606L10.1855 37.5819C9.92628 37.6792 9.66702 37.5495 9.5698 37.2903C9.47258 37.031 9.63461 36.7393 9.86147 36.6745L11.1578 36.2208Z" fill="#73BFB8"/>
<path d="M28.3338 16.7439C28.3013 17.0032 28.0421 17.1652 27.7504 17.1328C27.4912 17.068 27.3291 16.8087 27.3615 16.5495L27.6208 15.2208C27.6856 14.9291 27.9449 14.7671 28.2041 14.8319C28.4634 14.8643 28.6578 15.1235 28.593 15.3828L28.3338 16.7439Z" fill="#73BFB8"/>
<path d="M23.1161 16.614C23.1809 16.8732 22.9865 17.1325 22.7272 17.1649C22.4356 17.2297 22.2087 17.0353 22.1439 16.776L21.9495 15.4149C21.8846 15.1556 22.0791 14.8963 22.3383 14.8639C22.63 14.7991 22.8569 14.9936 22.9217 15.2528L23.1161 16.614Z" fill="#73BFB8"/>
<path d="M18.1901 18.2668C18.3197 18.4937 18.2549 18.8178 17.9957 18.9474C17.7688 19.077 17.4771 18.9798 17.3151 18.7529L16.6669 17.5539C16.5373 17.327 16.6345 17.0353 16.8614 16.8733C17.0882 16.7437 17.4123 16.8409 17.5419 17.0678L18.1901 18.2668Z" fill="#73BFB8"/>
<path d="M17.5096 24.7156C20.3938 21.1832 25.0929 19.9841 29.2087 21.3452C24.704 26.4008 20.5235 31.5536 16.5049 36.9008C14.3336 33.1416 14.5929 28.2804 17.5096 24.7156Z" fill="#73BFB8"/>
<path d="M29.4356 52.4249C30.5699 50.9665 32.4495 50.3832 34.1023 50.9017C32.3847 53.0082 30.7643 55.1471 29.2088 57.3832C28.269 55.8925 28.3014 53.9156 29.4356 52.4249Z" fill="#E23129"/>
<path d="M50.4681 47.9197L51.57 48.8596C52.1209 49.3457 52.1858 50.1883 51.6996 50.7392L49.658 53.0725C49.1718 53.6235 48.3617 53.6883 47.8107 53.2022L46.9033 52.4244" stroke="#183453" stroke-width="1.2963"/>
<path d="M32.6763 16.1282C32.6763 16.1282 34.6532 27.3412 39.9032 31.6514C42.6902 33.9524 42.2365 33.5635 42.2365 33.5635L31.2504 46.9802C31.2504 46.9802 30.9587 46.7533 29.1763 45.295C23.3429 40.5311 11.7734 41.633 11.7734 41.633L32.6763 16.1282Z" fill="#F59121"/>
<path d="M48.621 38.7482C51.5701 41.1788 52.0238 45.5538 49.5932 48.5029L47.3895 51.1927C44.9589 54.1742 40.5839 54.5955 37.6348 52.165L32.2552 47.7251L43.2413 34.3084L48.621 38.7482Z" fill="#FFC000"/>
</svg>
