<svg width="25" height="23" viewBox="0 0 25 23" fill="none" xmlns="http://www.w3.org/2000/svg">
<g clip-path="url(#clip0_359_751)">
<path d="M19.4887 18.1367V2.15992C19.4887 1.96123 19.2739 1.86189 19.149 1.99987C15.9393 5.53542 11.578 6.52224 7.27187 6.3081C2.81383 6.08403 1.73972 7.90313 1.54715 9.68692C1.35555 11.4707 1.94196 14.6563 7.27187 14.334C11.9941 14.0492 16.606 16.2668 19.1771 18.3188C19.2066 18.3423 19.2412 18.3561 19.2771 18.3588C19.3129 18.3616 19.3488 18.3531 19.3808 18.3344C19.4128 18.3157 19.4397 18.2874 19.4588 18.2526C19.4778 18.2178 19.4881 18.1777 19.4887 18.1367Z" stroke="#183453" stroke-width="1.5" stroke-linecap="round"/>
<path d="M8.25303 6.37009C8.15667 9.51087 8.10264 11.2718 8.00628 14.4126C7.85145 15.9138 8.13207 19.1623 10.5029 20.1392M5.59146 7.87629L5.59145 12.6234" stroke="#08A5E2" stroke-width="1.5" stroke-linecap="round"/>
</g>
<defs>
<clipPath id="clip0_359_751">
<rect width="23.7353" height="22.0765" fill="white" transform="translate(0.29187 0.0596313)"/>
</clipPath>
</defs>
</svg>
