<svg width="158" height="65" viewBox="0 0 158 65" fill="none" xmlns="http://www.w3.org/2000/svg">
<rect x="3.7565" y="1.32837" width="153.753" height="60.0829" transform="rotate(1 3.7565 1.32837)" fill="#FFC000"/>
<rect x="1.0201" y="0.464982" width="152.873" height="59.2027" fill="white" stroke="black" stroke-width="0.880159"/>
<path d="M44.0628 35.8247C43.9572 35.8247 43.8674 35.7877 43.7934 35.7138C43.7195 35.6399 43.6825 35.5501 43.6825 35.4445V25.1308C43.6825 25.0146 43.7195 24.9195 43.7934 24.8456C43.8674 24.7717 43.9572 24.7347 44.0628 24.7347H45.2827C45.4305 24.7347 45.5362 24.7717 45.5995 24.8456C45.6735 24.909 45.721 24.9565 45.7421 24.9882L50.3049 32.0858V25.1308C50.3049 25.0146 50.3365 24.9195 50.3999 24.8456C50.4739 24.7717 50.5689 24.7347 50.6851 24.7347H52.0159C52.1321 24.7347 52.2271 24.7717 52.3011 24.8456C52.375 24.9195 52.412 25.0146 52.412 25.1308V35.4286C52.412 35.5448 52.375 35.6399 52.3011 35.7138C52.2271 35.7877 52.1374 35.8247 52.0317 35.8247H50.796C50.6481 35.8247 50.5425 35.7877 50.4791 35.7138C50.4158 35.6399 50.3682 35.5923 50.3365 35.5712L45.7896 28.6321V35.4445C45.7896 35.5501 45.7527 35.6399 45.6787 35.7138C45.6048 35.7877 45.5098 35.8247 45.3936 35.8247H44.0628ZM58.2426 35.9831C57.0703 35.9831 56.1408 35.6452 55.4543 34.9692C54.7678 34.2932 54.3981 33.3321 54.3453 32.0858C54.3347 31.9802 54.3294 31.8482 54.3294 31.6897C54.3294 31.5207 54.3347 31.3887 54.3453 31.2937C54.3875 30.5015 54.5671 29.815 54.8839 29.2341C55.2114 28.6532 55.6602 28.2096 56.2306 27.9033C56.8009 27.5864 57.4716 27.428 58.2426 27.428C59.0981 27.428 59.8164 27.6075 60.3973 27.9667C60.9782 28.3152 61.4165 28.8063 61.7122 29.44C62.0079 30.0632 62.1558 30.7867 62.1558 31.6105V31.9432C62.1558 32.0488 62.1188 32.1386 62.0449 32.2125C61.971 32.2865 61.8759 32.3234 61.7597 32.3234H56.4999C56.4999 32.3234 56.4999 32.3393 56.4999 32.371C56.4999 32.4027 56.4999 32.4291 56.4999 32.4502C56.5105 32.8198 56.5791 33.1631 56.7059 33.48C56.8432 33.7863 57.0386 34.0345 57.2921 34.2246C57.5561 34.4147 57.8677 34.5097 58.2268 34.5097C58.5225 34.5097 58.7707 34.4675 58.9714 34.383C59.1721 34.288 59.3358 34.1823 59.4625 34.0661C59.5893 33.95 59.679 33.8549 59.7319 33.781C59.8269 33.6542 59.9008 33.5803 59.9537 33.5592C60.017 33.5275 60.1068 33.5116 60.223 33.5116H61.5855C61.6911 33.5116 61.7756 33.5433 61.839 33.6067C61.9129 33.6701 61.9446 33.7493 61.934 33.8444C61.9234 34.0133 61.8337 34.2193 61.6647 34.4622C61.5063 34.7051 61.2739 34.9428 60.9676 35.1751C60.6613 35.4075 60.2758 35.6029 59.8111 35.7613C59.3569 35.9092 58.8341 35.9831 58.2426 35.9831ZM56.4999 30.9926H60.0012V30.9451C60.0012 30.5332 59.9325 30.1741 59.7952 29.8678C59.6579 29.5615 59.4572 29.3186 59.1932 29.139C58.9292 28.9595 58.6123 28.8697 58.2426 28.8697C57.873 28.8697 57.5561 28.9595 57.2921 29.139C57.028 29.3186 56.8273 29.5615 56.69 29.8678C56.5633 30.1741 56.4999 30.5332 56.4999 30.9451V30.9926ZM63.2724 35.8247C63.1773 35.8247 63.0928 35.793 63.0189 35.7296C62.9555 35.6557 62.9238 35.5712 62.9238 35.4762C62.9238 35.4445 62.9291 35.4075 62.9397 35.3653C62.9608 35.323 62.9925 35.2702 63.0347 35.2068L65.728 31.5947L63.2248 28.2043C63.1931 28.1515 63.1667 28.104 63.1456 28.0617C63.1351 28.0195 63.1298 27.9772 63.1298 27.935C63.1298 27.8399 63.1615 27.7607 63.2248 27.6973C63.2988 27.6234 63.3833 27.5864 63.4783 27.5864H64.8566C64.9834 27.5864 65.0784 27.6181 65.1418 27.6815C65.2052 27.7449 65.2527 27.8029 65.2844 27.8558L67.0746 30.2322L68.8649 27.8558C68.9071 27.8029 68.9547 27.7449 69.0075 27.6815C69.0708 27.6181 69.1659 27.5864 69.2926 27.5864H70.6076C70.7027 27.5864 70.7819 27.6234 70.8452 27.6973C70.9192 27.7607 70.9561 27.8346 70.9561 27.9191C70.9561 27.9719 70.9456 28.0195 70.9245 28.0617C70.9139 28.104 70.8928 28.1515 70.8611 28.2043L68.3262 31.6264L71.0354 35.2068C71.0776 35.2702 71.104 35.323 71.1146 35.3653C71.1357 35.4075 71.1463 35.4445 71.1463 35.4762C71.1463 35.5712 71.1093 35.6557 71.0354 35.7296C70.972 35.793 70.8928 35.8247 70.7977 35.8247H69.356C69.2398 35.8247 69.1501 35.7983 69.0867 35.7455C69.0233 35.6821 68.9705 35.624 68.9283 35.5712L67.0271 33.0522L65.0943 35.5712C65.052 35.624 64.9992 35.6821 64.9359 35.7455C64.8831 35.7983 64.7933 35.8247 64.6665 35.8247H63.2724ZM76.2865 35.8247C75.6528 35.8247 75.1194 35.7138 74.6864 35.492C74.2534 35.2702 73.9312 34.9428 73.72 34.5097C73.5087 34.0662 73.4031 33.5169 73.4031 32.8621V29.2658H72.1515C72.0459 29.2658 71.9561 29.2288 71.8822 29.1549C71.8083 29.0809 71.7713 28.9912 71.7713 28.8855V27.9667C71.7713 27.861 71.8083 27.7713 71.8822 27.6973C71.9561 27.6234 72.0459 27.5864 72.1515 27.5864H73.4031V24.9565C73.4031 24.8509 73.4348 24.7611 73.4982 24.6872C73.5721 24.6132 73.6672 24.5763 73.7834 24.5763H75.0666C75.1722 24.5763 75.262 24.6132 75.336 24.6872C75.4099 24.7611 75.4469 24.8509 75.4469 24.9565V27.5864H77.4272C77.5328 27.5864 77.6226 27.6234 77.6965 27.6973C77.7705 27.7713 77.8074 27.861 77.8074 27.9667V28.8855C77.8074 28.9912 77.7705 29.0809 77.6965 29.1549C77.6226 29.2288 77.5328 29.2658 77.4272 29.2658H75.4469V32.7037C75.4469 33.1367 75.5208 33.4747 75.6687 33.7176C75.8271 33.9605 76.0964 34.082 76.4766 34.082H77.5698C77.6754 34.082 77.7652 34.119 77.8391 34.1929C77.9131 34.2668 77.95 34.3566 77.95 34.4622V35.4445C77.95 35.5501 77.9131 35.6399 77.8391 35.7138C77.7652 35.7877 77.6754 35.8247 77.5698 35.8247H76.2865ZM87.4752 35.9831C86.5035 35.9831 85.6744 35.8141 84.9878 35.4762C84.3119 35.1382 83.7838 34.6523 83.4036 34.0186C83.0339 33.3743 82.8332 32.6086 82.8015 31.7214C82.791 31.2672 82.7857 30.7814 82.7857 30.2639C82.7857 29.7358 82.791 29.2394 82.8015 28.7746C82.8332 27.898 83.0339 27.1481 83.4036 26.525C83.7838 25.9018 84.3172 25.4212 85.0037 25.0833C85.7008 24.7453 86.5246 24.5763 87.4752 24.5763C88.2462 24.5763 88.9222 24.6819 89.5031 24.8931C90.084 25.0938 90.5645 25.3579 90.9448 25.6853C91.3355 26.0021 91.626 26.3454 91.8161 26.7151C92.0168 27.0847 92.1224 27.428 92.133 27.7448C92.1435 27.8399 92.1171 27.9191 92.0538 27.9825C91.9904 28.0459 91.9059 28.0776 91.8003 28.0776H90.1685C90.0628 28.0776 89.9836 28.0564 89.9308 28.0142C89.878 27.9719 89.8305 27.9086 89.7882 27.8241C89.7037 27.6023 89.5717 27.3857 89.3922 27.1745C89.2126 26.9527 88.9697 26.7679 88.6634 26.62C88.3571 26.4721 87.961 26.3982 87.4752 26.3982C86.757 26.3982 86.1813 26.5883 85.7483 26.9686C85.3258 27.3488 85.0987 27.9772 85.0671 28.8539C85.0354 29.7727 85.0354 30.7022 85.0671 31.6422C85.0987 32.54 85.3311 33.1842 85.7641 33.575C86.2077 33.9658 86.7886 34.1612 87.5069 34.1612C87.9821 34.1612 88.4046 34.0767 88.7743 33.9077C89.1545 33.7387 89.4502 33.4747 89.6615 33.1156C89.8833 32.7565 89.9942 32.297 89.9942 31.7373V31.2461H88.0614C87.9557 31.2461 87.866 31.2092 87.792 31.1352C87.7181 31.0613 87.6811 30.9662 87.6811 30.8501V30.0104C87.6811 29.8942 87.7181 29.7991 87.792 29.7252C87.866 29.6513 87.9557 29.6143 88.0614 29.6143H91.8478C91.964 29.6143 92.0538 29.6513 92.1171 29.7252C92.1911 29.7991 92.228 29.8942 92.228 30.0104V31.6739C92.228 32.5611 92.0326 33.3268 91.6418 33.9711C91.2616 34.6154 90.7124 35.1118 89.9942 35.4603C89.2865 35.8089 88.4469 35.9831 87.4752 35.9831ZM97.6177 35.9831C96.4453 35.9831 95.5159 35.6452 94.8293 34.9692C94.1428 34.2932 93.7732 33.3321 93.7203 32.0858C93.7098 31.9802 93.7045 31.8482 93.7045 31.6897C93.7045 31.5207 93.7098 31.3887 93.7203 31.2937C93.7626 30.5015 93.9421 29.815 94.259 29.2341C94.5864 28.6532 95.0353 28.2096 95.6056 27.9033C96.176 27.5864 96.8467 27.428 97.6177 27.428C98.4732 27.428 99.1914 27.6075 99.7723 27.9667C100.353 28.3152 100.792 28.8063 101.087 29.44C101.383 30.0632 101.531 30.7867 101.531 31.6105V31.9432C101.531 32.0488 101.494 32.1386 101.42 32.2125C101.346 32.2865 101.251 32.3234 101.135 32.3234H95.875C95.875 32.3234 95.875 32.3393 95.875 32.371C95.875 32.4027 95.875 32.4291 95.875 32.4502C95.8855 32.8198 95.9542 33.1631 96.0809 33.48C96.2182 33.7863 96.4136 34.0345 96.6671 34.2246C96.9312 34.4147 97.2427 34.5097 97.6018 34.5097C97.8976 34.5097 98.1458 34.4675 98.3465 34.383C98.5471 34.288 98.7108 34.1823 98.8376 34.0661C98.9643 33.95 99.0541 33.8549 99.1069 33.781C99.202 33.6542 99.2759 33.5803 99.3287 33.5592C99.3921 33.5275 99.4819 33.5116 99.598 33.5116H100.961C101.066 33.5116 101.151 33.5433 101.214 33.6067C101.288 33.6701 101.32 33.7493 101.309 33.8444C101.299 34.0133 101.209 34.2193 101.04 34.4622C100.881 34.7051 100.649 34.9428 100.343 35.1751C100.036 35.4075 99.6509 35.6029 99.1861 35.7613C98.732 35.9092 98.2092 35.9831 97.6177 35.9831ZM95.875 30.9926H99.3762V30.9451C99.3762 30.5332 99.3076 30.1741 99.1703 29.8678C99.033 29.5615 98.8323 29.3186 98.5683 29.139C98.3042 28.9595 97.9874 28.8697 97.6177 28.8697C97.248 28.8697 96.9312 28.9595 96.6671 29.139C96.4031 29.3186 96.2024 29.5615 96.0651 29.8678C95.9383 30.1741 95.875 30.5332 95.875 30.9451V30.9926ZM103.593 35.8247C103.487 35.8247 103.397 35.7877 103.323 35.7138C103.25 35.6399 103.213 35.5501 103.213 35.4445V27.9667C103.213 27.861 103.25 27.7713 103.323 27.6973C103.397 27.6234 103.487 27.5864 103.593 27.5864H104.892C104.998 27.5864 105.087 27.6234 105.161 27.6973C105.235 27.7713 105.272 27.861 105.272 27.9667V28.6162C105.547 28.2782 105.895 27.9983 106.318 27.7765C106.751 27.5442 107.284 27.428 107.918 27.428C108.562 27.428 109.122 27.5759 109.597 27.8716C110.073 28.1568 110.437 28.5634 110.69 29.0915C110.954 29.6196 111.086 30.2533 111.086 30.9926V35.4445C111.086 35.5501 111.05 35.6399 110.976 35.7138C110.902 35.7877 110.812 35.8247 110.706 35.8247H109.312C109.206 35.8247 109.117 35.7877 109.043 35.7138C108.969 35.6399 108.932 35.5501 108.932 35.4445V31.0877C108.932 30.4751 108.779 29.9945 108.472 29.646C108.177 29.2975 107.744 29.1232 107.173 29.1232C106.624 29.1232 106.186 29.2975 105.858 29.646C105.531 29.9945 105.367 30.4751 105.367 31.0877V35.4445C105.367 35.5501 105.33 35.6399 105.256 35.7138C105.182 35.7877 105.093 35.8247 104.987 35.8247H103.593Z" fill="black"/>
</svg>
