<svg width="21" height="21" viewBox="0 0 21 21" fill="none" xmlns="http://www.w3.org/2000/svg">
<path d="M17.0593 6.03183H15.5084L11.7034 9.84839C11.8345 10.1835 11.8465 10.5538 11.7375 10.8968C11.6286 11.2398 11.4052 11.5347 11.105 11.7319C10.8049 11.9291 10.4462 12.0166 10.0893 11.9796C9.73241 11.9426 9.39909 11.7835 9.14539 11.5289C8.89169 11.2743 8.73309 10.9399 8.69625 10.5817C8.6594 10.2236 8.74657 9.86366 8.94309 9.56244C9.13961 9.26122 9.43349 9.03709 9.77533 8.92774C10.1172 8.81838 10.4861 8.83048 10.8201 8.96198L14.6242 5.14458V3.58835C14.6243 3.38011 14.7067 3.18042 14.8534 3.0331L16.2951 1.58641C16.3217 1.55939 16.3552 1.5402 16.3919 1.53091C16.4287 1.52162 16.4672 1.5226 16.5034 1.53373C16.5776 1.55547 16.6326 1.61736 16.6476 1.69345L17.0309 3.61762L18.9476 4.00229C19.0226 4.01734 19.0843 4.07253 19.1059 4.14696C19.1169 4.18311 19.1178 4.22156 19.1087 4.25823C19.0996 4.29489 19.0808 4.3284 19.0542 4.35518L17.6117 5.80186C17.5392 5.87475 17.4531 5.93258 17.3583 5.97204C17.2635 6.0115 17.1619 6.03181 17.0593 6.03183Z" fill="#08A5E2"/>
<path d="M2.43677 10.4221C2.43677 12.5013 3.25987 14.4953 4.725 15.9656C6.19012 17.4358 8.17726 18.2617 10.2493 18.2617C11.2752 18.2617 12.2911 18.059 13.239 17.665C14.1868 17.271 15.0481 16.6935 15.7735 15.9656C16.499 15.2376 17.0745 14.3733 17.4671 13.4222C17.8597 12.471 18.0618 11.4516 18.0618 10.4221C18.0618 9.67113 17.9568 8.94528 17.7609 8.25873C17.722 8.1011 17.7455 7.93445 17.8266 7.79387C17.9076 7.65329 18.0398 7.54973 18.1954 7.50498C18.351 7.46024 18.5178 7.4778 18.6607 7.55396C18.8037 7.63013 18.9116 7.75897 18.9618 7.91337C19.1901 8.71113 19.3118 9.55238 19.3118 10.4221C19.3118 15.4445 15.2543 19.5161 10.2493 19.5161C5.24427 19.5161 1.18677 15.4445 1.18677 10.4221C1.18677 5.39965 5.24427 1.32804 10.2493 1.32804C11.0951 1.3272 11.9359 1.44511 12.7493 1.67842C12.8286 1.70074 12.9027 1.73857 12.9674 1.78974C13.0321 1.8409 13.086 1.90439 13.1262 1.97656C13.1663 2.04872 13.1919 2.12814 13.2013 2.21024C13.2108 2.29235 13.204 2.37551 13.1813 2.45497C13.1586 2.53442 13.1205 2.6086 13.0692 2.67323C13.0178 2.73785 12.9543 2.79166 12.8821 2.83156C12.81 2.87145 12.7307 2.89665 12.6489 2.90569C12.567 2.91474 12.4842 2.90746 12.4051 2.88427C11.704 2.68334 10.9784 2.58173 10.2493 2.58239C8.17726 2.58239 6.19012 3.40835 4.725 4.87858C3.25987 6.3488 2.43677 8.34285 2.43677 10.4221Z" fill="#183453"/>
<path d="M6.18671 10.4221C6.18904 10.9759 6.30383 11.5235 6.52409 12.0313C6.74434 12.5392 7.06543 12.9967 7.46776 13.3758C7.87008 13.755 8.34519 14.0479 8.86409 14.2367C9.38299 14.4254 9.93478 14.5061 10.4858 14.4737C11.0368 14.4413 11.5754 14.2966 12.0688 14.0484C12.5622 13.8001 13 13.4536 13.3555 13.0299C13.711 12.6062 13.9766 12.1142 14.1363 11.584C14.296 11.0539 14.3463 10.4966 14.2842 9.94624C14.2667 9.83478 14.2796 9.72064 14.3215 9.61593C14.3633 9.51121 14.4327 9.41982 14.5221 9.35142C14.6115 9.28302 14.7177 9.24017 14.8295 9.22741C14.9412 9.21465 15.0543 9.23245 15.1567 9.27893C15.3659 9.37258 15.5067 9.57244 15.525 9.80157C15.6544 10.9014 15.4392 12.0144 14.9091 12.9858C14.3791 13.9572 13.5606 14.7388 12.5675 15.2219C11.5744 15.705 10.456 15.8656 9.36771 15.6815C8.27942 15.4973 7.27535 14.9775 6.49505 14.1943C5.71496 13.4119 5.19682 12.4054 5.01249 11.3142C4.82815 10.223 4.98676 9.10136 5.46632 8.10472C5.94587 7.10808 6.72261 6.2859 7.68879 5.75219C8.65497 5.21848 9.76271 4.9997 10.8584 5.12619C10.9412 5.13391 11.0217 5.15813 11.0951 5.19745C11.1684 5.23678 11.2332 5.2904 11.2857 5.35518C11.3382 5.41997 11.3772 5.49461 11.4005 5.57473C11.4239 5.65485 11.431 5.73885 11.4216 5.82178C11.4122 5.90472 11.3863 5.98493 11.3456 6.05772C11.3049 6.13051 11.2501 6.1944 11.1845 6.24567C11.1188 6.29693 11.0436 6.33452 10.9633 6.35625C10.883 6.37797 10.7991 6.38339 10.7167 6.37218C10.1476 6.30615 9.57095 6.36165 9.02469 6.53503C8.47842 6.7084 7.97487 6.99575 7.54709 7.37819C7.1193 7.76064 6.77695 8.22954 6.5425 8.75413C6.30805 9.27872 6.1868 9.84713 6.18671 10.4221Z" fill="#183453"/>
</svg>
