<svg width="114" height="17" viewBox="0 0 114 17" fill="none" xmlns="http://www.w3.org/2000/svg">
<g clip-path="url(#clip0_658_851)">
<mask id="mask0_658_851" style="mask-type:luminance" maskUnits="userSpaceOnUse" x="0" y="0" width="114" height="16">
<path d="M113.24 0.504745H0.851303V15.8894H113.24V0.504745Z" fill="white"/>
</mask>
<g mask="url(#mask0_658_851)">
<path d="M0.851303 0.504745L11.0917 8.19748L0.851303 15.8894V12.0438L5.97138 8.19748L0.851303 4.35185V0.504745ZM8.66375 0.504745L18.9041 8.19748L8.66375 15.8894V12.0438L13.7838 8.19748L8.66375 4.35185V0.504745Z" fill="#183453"/>
<path d="M30.9787 1.76183C32.1152 1.76183 33.099 1.95376 33.93 2.33762C34.7731 2.72149 35.4208 3.26633 35.873 3.97215C36.3251 4.67796 36.5512 5.51379 36.5512 6.47965C36.5512 7.43313 36.3251 8.26895 35.873 8.98716C35.4208 9.69295 34.7731 10.2378 33.93 10.6217C33.099 10.9931 32.1152 11.1789 30.9787 11.1789H28.3941V14.7637H25.4245V1.76183H30.9787ZM30.8137 8.7271C31.7058 8.7271 32.3841 8.53516 32.8485 8.15135C33.3128 7.7551 33.545 7.19787 33.545 6.47965C33.545 5.74907 33.3128 5.19184 32.8485 4.80798C32.3841 4.41173 31.7058 4.21361 30.8137 4.21361H28.3941V8.7271H30.8137Z" fill="#183453"/>
<path d="M46.4775 11.9775H40.52L39.3836 14.7637H36.3407L42.0598 1.76181H44.9927L50.7302 14.7637H47.614L46.4775 11.9775ZM45.5426 9.69293L43.5079 4.7151L41.4733 9.69293H45.5426Z" fill="#183453"/>
<path d="M57.4328 10.1573V14.7637H54.4633V10.1202L49.4957 1.76181H52.6486L56.0764 7.53834L59.5042 1.76181H62.4185L57.4328 10.1573Z" fill="#183453"/>
<path d="M71.3242 11.9775H65.3663L64.2302 14.7637H61.1872L66.9062 1.76181H69.8393L75.5766 14.7637H72.4603L71.3242 11.9775ZM70.389 9.69293L68.3544 4.7151L66.3198 9.69293H70.389Z" fill="#183453"/>
<path d="M82.4623 1.76181C83.5984 1.76181 84.5824 1.95374 85.4131 2.33761C86.2566 2.72147 86.9041 3.26631 87.3561 3.97213C87.8087 4.67795 88.0347 5.51378 88.0347 6.47964C88.0347 7.43311 87.8087 8.26893 87.3561 8.98715C86.9041 9.69293 86.2566 10.2378 85.4131 10.6217C84.5824 10.9931 83.5984 11.1789 82.4623 11.1789H79.8773V14.7637H76.9082V1.76181H82.4623ZM82.2974 8.72708C83.1891 8.72708 83.8671 8.53515 84.332 8.15133C84.7962 7.75508 85.0283 7.19785 85.0283 6.47964C85.0283 5.74905 84.7962 5.19183 84.332 4.80796C83.8671 4.41172 83.1891 4.21359 82.2974 4.21359H79.8773V8.72708H82.2974Z" fill="#183453"/>
<path d="M95.709 1.76181C96.8451 1.76181 97.8291 1.95374 98.6598 2.33761C99.5033 2.72147 100.151 3.26631 100.603 3.97213C101.055 4.67795 101.281 5.51378 101.281 6.47964C101.281 7.43311 101.055 8.26893 100.603 8.98715C100.151 9.69293 99.5033 10.2378 98.6598 10.6217C97.8291 10.9931 96.8451 11.1789 95.709 11.1789H93.124V14.7637H90.1548V1.76181H95.709ZM95.544 8.72708C96.4358 8.72708 97.1138 8.53515 97.5786 8.15133C98.0429 7.75508 98.275 7.19785 98.275 6.47964C98.275 5.74905 98.0429 5.19183 97.5786 4.80796C97.1138 4.41172 96.4358 4.21359 95.544 4.21359H93.124V8.72708H95.544Z" fill="#183453"/>
<path d="M107.796 14.9866C106.782 14.9866 105.798 14.8503 104.845 14.578C103.904 14.2931 103.146 13.9278 102.572 13.4821L103.58 11.216C104.13 11.6247 104.784 11.9528 105.542 12.2004C106.299 12.4481 107.057 12.5719 107.815 12.5719C108.658 12.5719 109.281 12.4481 109.684 12.2004C110.087 11.9404 110.289 11.5999 110.289 11.1789C110.289 10.8693 110.167 10.6155 109.923 10.4174C109.69 10.2068 109.385 10.0397 109.006 9.91582C108.64 9.79201 108.138 9.65582 107.503 9.50721C106.525 9.27195 105.725 9.03668 105.102 8.80142C104.478 8.5661 103.941 8.18844 103.489 7.66838C103.048 7.14832 102.829 6.4549 102.829 5.58808C102.829 4.83273 103.03 4.15168 103.434 3.54493C103.837 2.92579 104.442 2.43667 105.249 2.07757C106.067 1.71848 107.063 1.53893 108.236 1.53893C109.055 1.53893 109.855 1.63798 110.638 1.83611C111.42 2.03424 112.104 2.31904 112.691 2.69052L111.774 4.97513C110.589 4.29408 109.403 3.95356 108.218 3.95356C107.387 3.95356 106.77 4.08977 106.366 4.36219C105.975 4.63461 105.78 4.99371 105.78 5.43949C105.78 5.88526 106.006 6.2196 106.458 6.44247C106.923 6.65299 107.625 6.86352 108.567 7.07398C109.544 7.3093 110.344 7.54456 110.968 7.77982C111.591 8.01509 112.122 8.38659 112.562 8.89429C113.014 9.40198 113.24 10.0892 113.24 10.956C113.24 11.699 113.033 12.38 112.617 12.9991C112.214 13.6059 111.603 14.0888 110.784 14.4479C109.965 14.807 108.97 14.9866 107.796 14.9866Z" fill="#183453"/>
</g>
</g>
<defs>
<clipPath id="clip0_658_851">
<rect width="113" height="16" fill="white" transform="translate(0.599579 0.197052)"/>
</clipPath>
</defs>
</svg>
