<svg width="71" height="72" viewBox="0 0 71 72" fill="none" xmlns="http://www.w3.org/2000/svg">
<circle cx="35.5675" cy="36.006" r="35.1666" fill="white"/>
<g clip-path="url(#clip0_660_947)">
<path d="M23.8516 32.8275L24.9375 32.7244L24.7406 31.6515C24.0909 28.1113 23.0646 25.432 22.1575 23.595C29.3093 28.0323 32.3894 34.2317 32.7741 39.1136L32.7742 39.1137C33.1053 43.3123 30.2258 47.5968 25.9957 48.3577L25.9933 48.3581C21.7225 49.137 17.6448 46.3087 16.8645 42.0339C16.0592 37.5634 19.2037 33.2689 23.8516 32.8275Z" stroke="#73BFB8" stroke-width="2"/>
<path d="M45.1218 32.8275L46.2074 32.7241L46.0105 31.6515C45.3622 28.119 44.3497 25.4406 43.4333 23.5986C50.5809 28.0357 53.6595 34.233 54.0441 39.1136L54.0443 39.1168C54.3883 43.3103 51.4982 47.5963 47.2656 48.3577L47.2632 48.3581C42.9924 49.137 38.9148 46.3087 38.1344 42.0339C37.3294 37.5647 40.487 33.2689 45.1218 32.8275Z" stroke="#73BFB8" stroke-width="2"/>
</g>
<defs>
<clipPath id="clip0_660_947">
<rect width="39.5323" height="27.6099" transform="matrix(1 1.74846e-07 1.74846e-07 -1 15.8013 49.811)" fill="white"/>
</clipPath>
</defs>
</svg>
