<svg width="24" height="24" viewBox="0 0 24 24" fill="none" xmlns="http://www.w3.org/2000/svg">
<path d="M10.5173 18.7805C15.1009 18.7805 18.8167 15.0518 18.8167 10.4523C18.8167 5.85277 15.1009 2.12411 10.5173 2.12411C5.93375 2.12411 2.21802 5.85277 2.21802 10.4523C2.21802 15.0518 5.93375 18.7805 10.5173 18.7805Z" stroke="#183453" stroke-width="1.5"/>
<path d="M10.4567 10.9887C12.042 10.9887 13.3271 9.69908 13.3271 8.10829C13.3271 6.5175 12.042 5.22791 10.4567 5.22791C8.87143 5.22791 7.5863 6.5175 7.5863 8.10829C7.5863 9.69908 8.87143 10.9887 10.4567 10.9887Z" fill="#08A5E2"/>
<path d="M5.979 16.4762C6.08296 16.4014 7.28632 13.3096 10.6094 13.1868C13.2682 13.0881 14.6822 15.3379 15.0566 16.4753M16.3051 16.4762L21.2804 21.4892" stroke="#183453" stroke-width="1.5" stroke-linecap="round"/>
</svg>
