<svg width="73" height="52" viewBox="0 0 73 52" fill="none" xmlns="http://www.w3.org/2000/svg">
<path d="M53.5253 44.5874H27.0413V7.22137H53.5253V44.5874Z" fill="#FFC000"/>
<path d="M48.8925 18.6279H31.6735V18.2346H48.8925V18.6279Z" fill="#141519"/>
<path d="M48.8925 23.6097H31.6735V23.2164H48.8925V23.6097Z" fill="#141519"/>
<path d="M48.8925 13.6458H31.6735V13.2525H48.8925V13.6458Z" fill="#141519"/>
<path d="M48.8925 28.5924H31.6735V28.199H48.8925V28.5924Z" fill="#141519"/>
<path d="M48.8925 33.5742H31.6735V33.1808H48.8925V33.5742Z" fill="#141519"/>
<path d="M48.8925 38.5565H31.6735V38.1632H48.8925V38.5565Z" fill="#141519"/>
<path d="M38.972 41.2223L9.86582 47.9525L0.382275 6.87174L29.4885 0.141479L38.972 41.2223Z" fill="#73BFB8"/>
<path d="M15.5472 18.1035L15.4598 17.7102L27.4781 14.9569L27.5655 15.3065L15.5472 18.1035Z" fill="white"/>
<path d="M10.0407 25.1395L9.95334 24.7462L28.7456 20.4196L28.7893 20.813L10.0407 25.1395Z" fill="white"/>
<path d="M11.3078 30.6025L11.2204 30.2529L29.969 25.8826L30.0564 26.2759L11.3078 30.6025Z" fill="white"/>
<path d="M12.5753 36.0651L12.4879 35.7155L31.2365 31.3889L31.3239 31.7386L12.5753 36.0651Z" fill="white"/>
<path d="M13.8426 41.5282L13.7552 41.1785L32.5038 36.8519L32.5912 37.2016L13.8426 41.5282Z" fill="white"/>
<path d="M14.4544 21.5563L9.29746 22.7363L7.68044 15.7001L12.8374 14.5201L14.4544 21.5563Z" fill="#E23129"/>
<path opacity="0.7" d="M51.8643 10.1492C55.9724 15.5684 54.9235 23.3038 49.4606 27.4556C44.0414 31.5637 36.2623 30.5148 32.1542 25.0519C28.0461 19.6328 29.095 11.8536 34.5579 7.74556C39.9771 3.63748 47.7125 4.68635 51.8643 10.1492Z" fill="#FEFEFE"/>
<path fill-rule="evenodd" clip-rule="evenodd" d="M49.2864 27.5928C44.1247 31.6844 36.5702 30.8224 32.4786 25.6607C28.3956 20.4695 29.2785 12.9531 34.4402 8.86145C39.6105 4.74036 47.1564 5.63186 51.248 10.7936C55.331 15.9848 54.4481 23.5012 49.2864 27.5928ZM35.5208 10.2007C31.1049 13.7103 30.3464 20.1433 33.8559 24.5592C37.3569 29.0045 43.7985 29.7336 48.2144 26.224C52.6217 22.7439 53.3802 16.311 49.8706 11.8951C46.3697 7.44968 39.9281 6.72065 35.5208 10.2007Z" fill="#F59121"/>
<path d="M53.4217 31.0714L51.7138 32.4283L47.9992 27.7286L49.7071 26.3717L53.4217 31.0714Z" fill="#F59121"/>
<path fill-rule="evenodd" clip-rule="evenodd" d="M67.0307 49.9855L66.9927 50.0064C65.2762 51.3928 62.4326 50.7225 60.7073 48.5232L52.2183 37.8225C52.1679 37.7758 49.4836 34.3687 49.3915 34.2458L48.9188 33.5639L55.1949 28.614L55.7229 29.216C55.7982 29.3233 55.8862 29.4237 55.987 29.5171L67.0387 43.4934C68.7935 45.7013 68.7767 48.6077 67.0307 49.9855ZM51.3214 33.8815C52.0963 34.8436 53.4237 36.5429 53.5576 36.7419L62.0466 47.4425C63.1689 48.858 64.9586 49.4125 65.9206 48.6377L65.9587 48.6168C66.9208 47.8419 66.8132 46.0189 65.67 44.5654L54.9362 31.0339L51.3214 33.8815Z" fill="#F59121"/>
<path d="M47.8631 13.4602L47.8643 13.4617C50.5001 16.7857 49.9594 21.6141 46.6389 24.247C43.318 26.8803 38.4682 26.3071 35.8327 22.9835C33.1991 19.6621 33.7645 14.8418 37.0876 12.2068C40.4096 9.57265 45.2581 10.1481 47.8631 13.4602Z" fill="#FEAA2C" stroke="#F59121"/>
<path d="M38.0106 23.9164C37.7267 24.1215 37.3558 24.0771 37.1126 23.8142C35.4192 21.9441 34.6004 19.8175 34.773 17.6924C34.9161 15.5586 36.0075 13.5738 37.9574 11.9357C38.2118 11.722 38.6208 11.7455 38.864 12.0084C39.0985 12.3008 39.0456 12.7013 38.7826 12.9445C37.1337 14.3186 36.196 15.9963 36.0591 17.7799C35.9309 19.5341 36.6502 21.3437 38.1005 22.9509C38.3351 23.2433 38.3116 23.6524 38.0486 23.8955C38.029 23.8898 38.0163 23.8968 38.0106 23.9164Z" fill="white"/>
</svg>
