<svg width="67" height="52" viewBox="0 0 67 52" fill="none" xmlns="http://www.w3.org/2000/svg">
<path fill-rule="evenodd" clip-rule="evenodd" d="M6.48672 50.6223H58.7382C59.0146 50.6223 59.2386 50.8625 59.2386 51.1584C59.2386 51.4522 59.0146 51.6923 58.7382 51.6923H6.48672C6.21227 51.6923 5.98828 51.4522 5.98828 51.1584C5.98828 50.8625 6.21227 50.6223 6.48672 50.6223ZM63.8154 51.1584C63.8154 51.4522 63.5914 51.6923 63.317 51.6923H63.3109C63.0365 51.6923 62.8125 51.4522 62.8125 51.1584C62.8125 50.8625 63.0365 50.6223 63.3109 50.6223H63.317C63.5914 50.6223 63.8154 50.8625 63.8154 51.1584ZM62.1223 51.1584C62.1223 51.4522 61.8983 51.6923 61.6239 51.6923H60.7905C60.516 51.6923 60.292 51.4522 60.292 51.1584C60.292 50.8625 60.516 50.6223 60.7905 50.6223H61.6239C61.8983 50.6223 62.1223 50.8625 62.1223 51.1584ZM4.35775 51.1584C4.35775 51.4522 4.13376 51.6923 3.85931 51.6923H1.00186C0.727414 51.6923 0.503418 51.4522 0.503418 51.1584C0.503418 50.8625 0.727414 50.6223 1.00186 50.6223H3.85931C4.13376 50.6223 4.35775 50.8625 4.35775 51.1584Z" fill="#183453"/>
<path d="M11.3399 11.0341H10.2323V9.85125C10.2323 9.50177 9.96807 9.20605 9.63075 9.20605C9.30467 9.20605 9.03762 9.50177 9.03762 9.85125V11.0341H7.93007C7.60118 11.0341 7.33694 11.3268 7.33694 11.6793C7.33694 12.0288 7.60118 12.3245 7.93007 12.3245H9.03762V13.5044C9.03762 13.8569 9.30467 14.1496 9.63075 14.1496C9.96807 14.1496 10.2323 13.8569 10.2323 13.5044V12.3245H11.3399C11.6688 12.3245 11.933 12.0288 11.933 11.6793C11.933 11.3268 11.6688 11.0341 11.3399 11.0341Z" fill="#FFC000"/>
<path d="M66.3213 44.2133H65.2138V43.0244C65.2138 42.672 64.9411 42.3882 64.6122 42.3882C64.2833 42.3882 64.0191 42.672 64.0191 43.0244V44.2133H62.9116C62.5827 44.2133 62.31 44.497 62.31 44.8495C62.31 45.2109 62.5827 45.4947 62.9116 45.4947H64.0191V46.6835C64.0191 47.036 64.2833 47.3228 64.6122 47.3228C64.9411 47.3228 65.2138 47.036 65.2138 46.6835V45.4947H66.3213C66.6502 45.4947 66.9145 45.2109 66.9145 44.8495C66.9145 44.497 66.6502 44.2133 66.3213 44.2133Z" fill="#FFC000"/>
<path d="M61.1996 6.23189C61.8096 6.23189 62.31 5.70318 62.31 5.04902C62.31 4.40382 61.8096 3.86914 61.1996 3.86914C60.6009 3.86914 60.1005 4.40382 60.1005 5.04902C60.1005 5.70318 60.6009 6.23189 61.1996 6.23189Z" fill="#FFC000"/>
<path d="M2.58621 44.1882C3.18496 44.1882 3.68532 43.6595 3.68532 43.0083C3.68532 42.3541 3.18496 41.8254 2.58621 41.8254C1.97621 41.8254 1.48428 42.3541 1.48428 43.0083C1.48428 43.6595 1.97621 44.1882 2.58621 44.1882Z" fill="#FFC000"/>
<path d="M12.0256 25.9585V50.494H8.01144V33.4261L12.0256 25.9585Z" fill="#707487"/>
<path d="M12.0256 26.4932C11.7501 26.4932 11.5253 26.2542 11.5253 25.9585V16.3582C11.5253 16.0624 11.7501 15.8235 12.0256 15.8235H15.0391C15.3145 15.8235 15.5394 16.0624 15.5394 16.3582C15.5394 16.6539 15.3145 16.8899 15.0391 16.8899H12.5288V25.9585C12.5288 26.2542 12.3039 26.4932 12.0256 26.4932Z" fill="black"/>
<path d="M2.83978 33.8532L6.00219 27.9718V25.9585L1.98804 33.4261V50.494H2.83978V33.8532Z" fill="#08A5E2"/>
<path d="M18.0502 12.0896V16.3581H9.01556V12.0896H18.0502Z" fill="#FFC000"/>
<path d="M9.88136 13.0783H18.0502V12.0896H9.01556V16.3581H9.88136V13.0783Z" fill="white"/>
<path d="M18.0503 50.4938H14.0333H10.0191H6.00217V25.9582V16.3579H9.0156H18.0503H22.0644V50.4938H18.0503Z" fill="white"/>
<path d="M6.98041 27.0246V17.4243H9.99384H19.0285H22.0644V16.3579H18.0503H9.0156H6.00217V25.9582V50.4938H6.98041V27.0246Z" fill="#183453"/>
<path d="M22.063 51.0285H6.00073C5.72525 51.0285 5.50037 50.7895 5.50037 50.4938C5.50037 50.201 5.72525 49.9621 6.00073 49.9621H21.5626V16.8896H18.0488C17.7705 16.8896 17.5457 16.6536 17.5457 16.3579C17.5457 16.0622 17.7705 15.8232 18.0488 15.8232H22.063C22.3413 15.8232 22.5662 16.0622 22.5662 16.3579V50.4938C22.5662 50.7895 22.3413 51.0285 22.063 51.0285Z" fill="#183453"/>
<path fill-rule="evenodd" clip-rule="evenodd" d="M6.00223 51.0286H1.98807C1.70978 51.0286 1.48489 50.7896 1.48489 50.4939V33.426C1.48489 33.3334 1.50738 33.2438 1.55236 33.1631L5.56651 25.6955C5.67896 25.4835 5.91227 25.3819 6.13154 25.4446C6.3508 25.5044 6.5054 25.7164 6.5054 25.9584V50.4939C6.5054 50.7896 6.28052 51.0286 6.00223 51.0286ZM2.48843 49.9622H5.50186V27.9687L2.48843 33.5694V49.9622Z" fill="#183453"/>
<path fill-rule="evenodd" clip-rule="evenodd" d="M18.0503 16.8897H9.01563C8.73733 16.8897 8.51245 16.6537 8.51245 16.358V12.0896C8.51245 11.7968 8.73733 11.5579 9.01563 11.5579H18.0503C18.3286 11.5579 18.5507 11.7968 18.5507 12.0896V16.358C18.5507 16.6537 18.3286 16.8897 18.0503 16.8897ZM9.51599 15.8234H17.5471V12.6242H9.51599V15.8234Z" fill="#183453"/>
<path d="M43.2358 9.85083L39.2189 14.1193V9.85083H43.2358Z" fill="#08A5E2"/>
<path d="M43.2358 9.85083V14.1193H39.2189L43.2358 9.85083Z" fill="#DFF9FB"/>
<path d="M50.2634 9.85083L46.2464 14.1193V9.85083H50.2634Z" fill="#08A5E2"/>
<path d="M50.2634 9.85083V14.1193H46.2464L50.2634 9.85083Z" fill="#DFF9FB"/>
<path d="M57.291 9.85083L53.274 14.1193V9.85083H57.291Z" fill="#08A5E2"/>
<path d="M57.291 9.85083V14.1193H53.274L57.291 9.85083Z" fill="#DFF9FB"/>
<path d="M43.2358 17.3179L39.2189 21.5863V17.3179H43.2358Z" fill="#08A5E2"/>
<path d="M43.2358 17.3179V21.5863H39.2189L43.2358 17.3179Z" fill="#DFF9FB"/>
<path d="M50.2634 17.3179L46.2464 21.5863V17.3179H50.2634Z" fill="#08A5E2"/>
<path d="M50.2634 17.3179V21.5863H46.2464L50.2634 17.3179Z" fill="#DFF9FB"/>
<path d="M57.291 17.3179L53.274 21.5863V17.3179H57.291Z" fill="#08A5E2"/>
<path d="M57.291 17.3179V21.5863H53.274L57.291 17.3179Z" fill="#DFF9FB"/>
<path d="M43.2358 24.7861L39.2189 29.0546V24.7861H43.2358Z" fill="#08A5E2"/>
<path d="M43.2358 24.7861V29.0546H39.2189L43.2358 24.7861Z" fill="#DFF9FB"/>
<path d="M50.2634 24.7861L46.2464 29.0546V24.7861H50.2634Z" fill="#08A5E2"/>
<path d="M50.2634 24.7861V29.0546H46.2464L50.2634 24.7861Z" fill="#DFF9FB"/>
<path d="M57.291 24.7861L53.274 29.0546V24.7861H57.291Z" fill="#08A5E2"/>
<path d="M57.291 24.7861V29.0546H53.274L57.291 24.7861Z" fill="#DFF9FB"/>
<path d="M43.2358 32.2534L39.2189 36.5219V32.2534H43.2358Z" fill="#08A5E2"/>
<path d="M43.2358 32.2534V36.5219H39.2189L43.2358 32.2534Z" fill="#DFF9FB"/>
<path d="M50.2634 32.2534L46.2464 36.5219V32.2534H50.2634Z" fill="#08A5E2"/>
<path d="M50.2634 32.2534V36.5219H46.2464L50.2634 32.2534Z" fill="#DFF9FB"/>
<path d="M57.291 32.2534L53.274 36.5219V32.2534H57.291Z" fill="#08A5E2"/>
<path d="M57.291 32.2534V36.5219H53.274L57.291 32.2534Z" fill="#DFF9FB"/>
<path d="M57.291 1.31689V5.58238H39.2189V1.31689H57.291Z" fill="#FFC000"/>
<path d="M40.1212 2.41911H57.291V1.31689H39.2189V5.58238H40.1212V2.41911Z" fill="white"/>
<path d="M52.2705 42.9202V50.3878H44.2393V42.9202H52.2705Z" fill="white"/>
<path d="M45.1586 43.9895H52.2705V42.9202H44.2393V50.3878H45.1586V43.9895Z" fill="#08A5E2"/>
<path fill-rule="evenodd" clip-rule="evenodd" d="M61.3051 5.58203V50.3876H52.2704V42.92H44.2393V50.3876H35.2018V5.58203H61.3051ZM57.291 36.5218V32.2533H53.274V36.5218H57.291ZM57.291 29.0542V24.7857H53.2768V29.0542H57.291ZM57.291 21.5866V17.3181H53.274V21.5866H57.291ZM57.291 14.119V9.85051H53.2768V14.119H57.291ZM50.2634 36.5218V32.2533H46.2464V36.5218H50.2634ZM50.2634 29.0542V24.7857H46.2464V29.0542H50.2634ZM50.2634 21.5866V17.3181H46.2492V21.5866H50.2634ZM50.2634 14.119V9.85051H46.2464V14.119H50.2634ZM43.2358 36.5218V32.2533H39.2216V36.5218H43.2358ZM43.2358 29.0542V24.7857H39.2188V29.0542H43.2358ZM43.2358 21.5866V17.3181H39.2188V21.5866H43.2358ZM43.2358 14.119V9.85051H39.2216V14.119H43.2358Z" fill="white"/>
<path d="M36.2307 17.3181V6.65139H40.2477H58.3198H61.3051V5.58203H57.291H39.2188H35.2018V16.2517V50.3876H36.2307V17.3181Z" fill="#5B6072"/>
<path d="M35.2018 51.1343C34.9264 51.1343 34.7015 50.8983 34.7015 50.6026V5.58198C34.7015 5.28925 34.9264 5.05029 35.2018 5.05029H39.2188C39.4971 5.05029 39.722 5.28925 39.722 5.58198C39.722 5.8777 39.4971 6.11666 39.2188 6.11666H35.705V50.6026C35.705 50.8983 35.4801 51.1343 35.2018 51.1343Z" fill="#183453"/>
<path d="M61.3051 50.9222H52.2705C51.9922 50.9222 51.7673 50.6833 51.7673 50.3875C51.7673 50.0948 51.9922 49.8558 52.2705 49.8558H60.8048V6.11666H57.291C57.0127 6.11666 56.7878 5.8777 56.7878 5.58198C56.7878 5.28925 57.0127 5.05029 57.291 5.05029H61.3051C61.5834 5.05029 61.8083 5.28925 61.8083 5.58198V50.3875C61.8083 50.6833 61.5834 50.9222 61.3051 50.9222Z" fill="#183453"/>
<path d="M44.2393 50.9221H35.2018C34.9264 50.9221 34.7015 50.6831 34.7015 50.3874C34.7015 50.0947 34.9264 49.8557 35.2018 49.8557H44.2393C44.5148 49.8557 44.7397 50.0947 44.7397 50.3874C44.7397 50.6831 44.5148 50.9221 44.2393 50.9221Z" fill="#183453"/>
<path fill-rule="evenodd" clip-rule="evenodd" d="M57.291 6.11707H39.2188C38.9406 6.11707 38.7157 5.87811 38.7157 5.58239V1.31691C38.7157 1.02119 38.9406 0.782227 39.2188 0.782227H57.291C57.5665 0.782227 57.7913 1.02119 57.7913 1.31691V5.58239C57.7913 5.87811 57.5665 6.11707 57.291 6.11707ZM39.722 5.0507H56.7878V1.8486H39.722V5.0507Z" fill="#183453"/>
<path fill-rule="evenodd" clip-rule="evenodd" d="M57.291 14.651H53.274C52.9957 14.651 52.7708 14.412 52.7708 14.1193V9.85084C52.7708 9.55513 52.9957 9.31616 53.274 9.31616H57.291C57.5664 9.31616 57.7913 9.55513 57.7913 9.85084V14.1193C57.7913 14.412 57.5664 14.651 57.291 14.651ZM53.7772 13.5846H56.7878V10.3855H53.7772V13.5846Z" fill="#183453"/>
<path fill-rule="evenodd" clip-rule="evenodd" d="M50.2634 14.651H46.2464C45.9681 14.651 45.7432 14.412 45.7432 14.1193V9.85084C45.7432 9.55513 45.9681 9.31616 46.2464 9.31616H50.2634C50.5388 9.31616 50.7637 9.55513 50.7637 9.85084V14.1193C50.7637 14.412 50.5388 14.651 50.2634 14.651ZM46.7496 13.5846H49.7602V10.3855H46.7496V13.5846Z" fill="#183453"/>
<path fill-rule="evenodd" clip-rule="evenodd" d="M43.2358 14.651H39.2188C38.9406 14.651 38.7157 14.412 38.7157 14.1193V9.85084C38.7157 9.55513 38.9406 9.31616 39.2188 9.31616H43.2358C43.5113 9.31616 43.7362 9.55513 43.7362 9.85084V14.1193C43.7362 14.412 43.5113 14.651 43.2358 14.651ZM39.722 13.5846H42.7326V10.3855H39.722V13.5846Z" fill="#183453"/>
<path fill-rule="evenodd" clip-rule="evenodd" d="M57.291 22.1185H53.274C52.9957 22.1185 52.7708 21.8796 52.7708 21.5868V17.3184C52.7708 17.0227 52.9957 16.7837 53.274 16.7837H57.291C57.5664 16.7837 57.7913 17.0227 57.7913 17.3184V21.5868C57.7913 21.8796 57.5664 22.1185 57.291 22.1185ZM53.7772 21.0522H56.7878V17.8531H53.7772V21.0522Z" fill="#183453"/>
<path fill-rule="evenodd" clip-rule="evenodd" d="M50.2634 22.1185H46.2464C45.9681 22.1185 45.7432 21.8796 45.7432 21.5868V17.3184C45.7432 17.0227 45.9681 16.7837 46.2464 16.7837H50.2634C50.5388 16.7837 50.7637 17.0227 50.7637 17.3184V21.5868C50.7637 21.8796 50.5388 22.1185 50.2634 22.1185ZM46.7496 21.0522H49.7602V17.8531H46.7496V21.0522Z" fill="#183453"/>
<path fill-rule="evenodd" clip-rule="evenodd" d="M43.2358 22.1185H39.2188C38.9406 22.1185 38.7157 21.8796 38.7157 21.5868V17.3184C38.7157 17.0227 38.9406 16.7837 39.2188 16.7837H43.2358C43.5113 16.7837 43.7362 17.0227 43.7362 17.3184V21.5868C43.7362 21.8796 43.5113 22.1185 43.2358 22.1185ZM39.722 21.0522H42.7326V17.8531H39.722V21.0522Z" fill="#183453"/>
<path fill-rule="evenodd" clip-rule="evenodd" d="M57.291 29.5863H53.274C52.9957 29.5863 52.7708 29.3473 52.7708 29.0546V24.7861C52.7708 24.4904 52.9957 24.2515 53.274 24.2515H57.291C57.5664 24.2515 57.7913 24.4904 57.7913 24.7861V29.0546C57.7913 29.3473 57.5664 29.5863 57.291 29.5863ZM53.7772 28.5199H56.7878V25.3208H53.7772V28.5199Z" fill="#183453"/>
<path fill-rule="evenodd" clip-rule="evenodd" d="M50.2634 29.5863H46.2464C45.9681 29.5863 45.7432 29.3473 45.7432 29.0546V24.7861C45.7432 24.4904 45.9681 24.2515 46.2464 24.2515H50.2634C50.5388 24.2515 50.7637 24.4904 50.7637 24.7861V29.0546C50.7637 29.3473 50.5388 29.5863 50.2634 29.5863ZM46.7496 28.5199H49.7602V25.3208H46.7496V28.5199Z" fill="#183453"/>
<path fill-rule="evenodd" clip-rule="evenodd" d="M43.2358 29.5863H39.2188C38.9406 29.5863 38.7157 29.3473 38.7157 29.0546V24.7861C38.7157 24.4904 38.9406 24.2515 39.2188 24.2515H43.2358C43.5113 24.2515 43.7362 24.4904 43.7362 24.7861V29.0546C43.7362 29.3473 43.5113 29.5863 43.2358 29.5863ZM39.722 28.5199H42.7326V25.3208H39.722V28.5199Z" fill="#183453"/>
<path fill-rule="evenodd" clip-rule="evenodd" d="M57.291 37.0536H53.274C52.9957 37.0536 52.7708 36.8146 52.7708 36.5219V32.2534C52.7708 31.9577 52.9957 31.7188 53.274 31.7188H57.291C57.5664 31.7188 57.7913 31.9577 57.7913 32.2534V36.5219C57.7913 36.8146 57.5664 37.0536 57.291 37.0536ZM53.7772 35.9872H56.7878V32.7881H53.7772V35.9872Z" fill="#183453"/>
<path fill-rule="evenodd" clip-rule="evenodd" d="M50.2634 37.0536H46.2464C45.9681 37.0536 45.7432 36.8146 45.7432 36.5219V32.2534C45.7432 31.9577 45.9681 31.7188 46.2464 31.7188H50.2634C50.5388 31.7188 50.7637 31.9577 50.7637 32.2534V36.5219C50.7637 36.8146 50.5388 37.0536 50.2634 37.0536ZM46.7496 35.9872H49.7602V32.7881H46.7496V35.9872Z" fill="#183453"/>
<path fill-rule="evenodd" clip-rule="evenodd" d="M52.2704 50.9221H44.2393C43.961 50.9221 43.7361 50.6832 43.7361 50.3875V42.9199C43.7361 42.6271 43.961 42.3882 44.2393 42.3882H52.2704C52.5459 42.3882 52.7708 42.6271 52.7708 42.9199V50.3875C52.7708 50.6832 52.5459 50.9221 52.2704 50.9221ZM44.7397 49.8558H51.7673V43.4546H44.7397V49.8558Z" fill="#183453"/>
<path fill-rule="evenodd" clip-rule="evenodd" d="M43.2358 37.0536H39.2188C38.9406 37.0536 38.7157 36.8146 38.7157 36.5219V32.2534C38.7157 31.9577 38.9406 31.7188 39.2188 31.7188H43.2358C43.5113 31.7188 43.7362 31.9577 43.7362 32.2534V36.5219C43.7362 36.8146 43.5113 37.0536 43.2358 37.0536ZM39.722 35.9872H42.7326V32.7881H39.722V35.9872Z" fill="#183453"/>
<path d="M63.3122 50.9221H61.3051C61.0268 50.9221 60.8047 50.6831 60.8047 50.3874C60.8047 50.0947 61.0268 49.8557 61.3051 49.8557H63.3122C63.5905 49.8557 63.8153 50.0947 63.8153 50.3874C63.8153 50.6831 63.5905 50.9221 63.3122 50.9221Z" fill="#183453"/>
<path d="M34.2704 35.7309L34.2704 37.9049L26.8844 37.9049L28.5211 39.6441L27.089 41.1658L22.9973 36.8179L27.089 32.47L28.5211 33.9917L26.8844 35.7309L34.2704 35.7309Z" fill="#183453"/>
<path d="M22.9973 25.57L22.9973 27.744L30.3833 27.744L28.7466 29.4832L30.1787 31.0049L34.2704 26.657L30.1787 22.3091L28.7466 23.8309L30.3833 25.57L22.9973 25.57Z" fill="#183453"/>
</svg>
