<svg width="55" height="53" viewBox="0 0 55 53" fill="none" xmlns="http://www.w3.org/2000/svg">
<path d="M44.9931 10.4039L48.8322 4.19214C49.1699 4.63647 49.5342 5.06303 49.9252 5.47181C50.334 5.86282 50.7517 6.22718 51.1782 6.56487L44.9931 10.4039Z" fill="#183453" stroke="#183453" stroke-width="0.125813"/>
<path d="M44.143 8.97685L42.4652 1.86987C43.0182 1.94527 43.5774 1.98926 44.143 2.00183C44.7085 1.98926 45.2615 1.95156 45.8019 1.88872L44.143 8.97685Z" fill="#183453" stroke="#183453" stroke-width="0.125813"/>
<path d="M42.9702 9.18034L36.4247 5.9429C36.8353 5.56489 37.2257 5.16202 37.5959 4.73428C37.9467 4.29051 38.2701 3.8404 38.5662 3.38396L42.9702 9.18034Z" fill="#183453" stroke="#183453" stroke-width="0.125813"/>
<path d="M23.143 28.61C23.0308 28.8997 22.8962 29.1803 22.7408 29.4491C22.5924 29.6939 22.4216 29.9241 22.2303 30.1371C21.8603 30.5384 21.4207 30.8697 20.9328 31.1147C20.7119 31.2212 20.4835 31.3108 20.2494 31.3827C20.1284 31.4216 20.0158 31.4475 19.8903 31.4777L19.4923 31.5685C19.4923 31.2743 19.4576 30.9931 19.4404 30.7035C19.4232 30.4135 19.1375 30.3314 18.8046 30.3444C18.4715 30.3574 18.2639 30.5131 18.2509 30.7035C18.0521 33.6578 17.9006 38.1047 17.8183 43.2959L17.7534 47.3187L17.7274 49.4124V50.1996H17.6454L17.0654 50.1999H11.1652C11.1652 44.278 11.1133 38.3606 11.0095 33.1867L10.9706 31.2746V30.3749C10.9637 30.3287 10.976 30.2816 11.0053 30.2451C11.0207 30.2258 11.0397 30.2098 11.0614 30.1974H11.0961C11.113 30.1944 11.1308 30.1944 11.148 30.1974L12.0131 30.1715L13.6699 30.0852L16.6418 29.9597L17.3122 29.925H17.8053C17.9932 29.9413 18.158 30.0568 18.2377 30.2279C18.429 30.3555 18.6574 30.415 18.8867 30.3966C19.0219 30.4062 19.1534 30.3519 19.2427 30.2499C19.3321 30.148 19.3683 30.0101 19.3408 29.8773C19.2617 29.5777 19.1036 29.3049 18.8828 29.0873C18.6622 28.8695 18.387 28.7153 18.0864 28.6401C18.0068 28.619 17.9259 28.603 17.8442 28.5928H17.3034L16.633 28.5581L13.6611 28.4325L12.0303 28.3547L11.1652 28.3287H10.9923C10.9259 28.3245 10.8595 28.3245 10.7932 28.3287C10.6604 28.3468 10.5301 28.3785 10.4039 28.4241C10.0056 28.5617 9.65863 28.817 9.40847 29.1561C9.15832 29.495 9.01681 29.902 9.00233 30.3229V31.2745L8.9634 33.1867C8.8596 38.3774 8.81194 44.3122 8.80771 50.2516V50.2513C8.80349 50.8276 9.0135 51.3852 9.3973 51.8152C9.78081 52.2451 10.311 52.5173 10.884 52.5786H17.5892H17.5889C17.7337 52.5783 17.8783 52.5668 18.0216 52.5439C18.2011 52.514 18.377 52.4633 18.5448 52.3924C19.2201 52.1036 19.7155 51.5083 19.8773 50.792C19.915 50.6215 19.934 50.4474 19.9334 50.273V49.8403L20.9369 50.4978C21.2743 50.7141 21.6116 50.9305 22.0356 51.1854V51.1857C22.9133 51.667 23.8726 51.9823 24.8647 52.1157C25.1242 52.1504 25.3924 52.1763 25.6649 52.1848H26.4174L29.5449 52.2539L32.9189 52.3145L34.6926 52.3447H35.6271V52.345C35.9813 52.3453 36.3349 52.3251 36.6868 52.2843C37.4034 52.1911 38.1038 51.9989 38.7676 51.7135C39.4791 51.4108 40.1333 50.9878 40.7011 50.463C41.3215 49.8665 41.7596 49.1061 41.9642 48.27C42.0707 47.846 42.1172 47.4091 42.1027 46.9722C42.0958 46.7987 42.0801 46.6252 42.055 46.4532C42.7958 45.8081 43.3501 44.9759 43.66 44.0438C43.8504 43.4078 43.9107 42.7397 43.8374 42.0798C43.8018 41.7503 43.7366 41.4244 43.6428 41.1067C43.6428 41.0418 43.5951 40.9769 43.5737 40.9078L43.6515 40.8128L43.6512 40.8125C43.8289 40.5614 43.9934 40.3016 44.1446 40.0337C44.4629 39.4417 44.6584 38.7915 44.7197 38.1219C44.7679 37.4216 44.6524 36.7194 44.3823 36.0716C44.2523 35.7566 44.0914 35.4551 43.9023 35.1718L43.8027 35.0379C43.8458 34.9211 43.8977 34.8043 43.9324 34.683C44.0586 34.2763 44.1283 33.8542 44.14 33.4284C44.1729 32.5111 43.8872 31.6111 43.331 30.8806C43.2019 30.7053 43.0571 30.5417 42.8986 30.3918C42.4319 29.9051 41.848 29.5463 41.2029 29.3493C41.0122 29.2956 40.8188 29.2524 40.6233 29.2195L40.1474 29.1115C39.8185 29.0466 39.4899 28.986 39.1568 28.9341C37.8304 28.7192 36.4903 28.5976 35.1471 28.5708H33.1876H32.6553V28.4582C32.6402 28.3333 32.6318 28.2078 32.6294 28.082C32.6215 27.8122 32.63 27.5419 32.6553 27.273C32.7093 26.7006 32.8032 26.1324 32.9365 25.573C33.0705 25.0021 33.2307 24.4309 33.4124 23.8429L33.6589 22.8737C33.741 22.5406 33.7974 22.199 33.8623 21.8659C33.9676 21.1595 33.9763 20.4419 33.8882 19.7335C33.798 18.9822 33.5473 18.2592 33.1529 17.6138C32.7458 16.9696 32.1934 16.4305 31.5395 16.0394C30.9173 15.6694 30.2276 15.428 29.5106 15.33H29.3938C28.8808 15.3242 28.3803 15.4884 27.9705 15.7971C27.5858 16.0907 27.3052 16.5001 27.1703 16.9651V16.9953C27.1604 17.0351 27.1531 17.0755 27.1489 17.1163L26.807 19.8328C26.7376 20.2296 26.6365 20.6203 26.5041 21.0008C26.3837 21.3816 26.2394 21.7543 26.0717 22.1169L24.0428 26.5724L23.143 28.61ZM25.5871 27.2821L27.75 22.9132C27.969 22.4932 28.1612 22.0596 28.3254 21.6154C28.495 21.145 28.6268 20.6619 28.7189 20.1704L29.1516 17.523V17.5233C29.1835 17.4729 29.2354 17.4382 29.2943 17.428C30.1213 17.5665 30.8509 18.0489 31.3014 18.7562C31.7272 19.6098 31.8494 20.5832 31.6475 21.5159C31.5869 21.7796 31.5437 22.0436 31.4746 22.3119L31.2281 23.1251C31.0205 23.7394 30.8343 24.3664 30.6786 25.0155C30.5115 25.6865 30.3929 26.369 30.3238 27.0571C30.287 27.4194 30.2725 27.7833 30.2806 28.1472C30.2806 28.3331 30.2806 28.528 30.3195 28.7226C30.3195 28.8177 30.3455 28.9215 30.3627 29.021L30.3929 29.1767C30.3929 29.2374 30.3929 29.2546 30.436 29.3626H30.4363C30.5558 29.8016 30.8141 30.1903 31.1729 30.4703C31.5316 30.7503 31.9713 30.9063 32.426 30.9157H33.1656C33.8013 30.9157 34.4374 30.9157 35.0601 30.9458H35.0604C36.2985 30.9763 37.5326 31.0919 38.7546 31.2919C39.0618 31.3438 39.3644 31.4 39.6716 31.4564L40.1302 31.5514V31.5517C40.2488 31.575 40.3656 31.6051 40.4805 31.6426C40.6676 31.6984 40.8444 31.7847 41.004 31.8975C41.1652 32.024 41.3103 32.1691 41.4364 32.3302C41.6739 32.6292 41.7955 33.0043 41.7783 33.3857C41.7735 33.6014 41.7385 33.8154 41.6745 34.0215C41.6413 34.1316 41.6024 34.2399 41.5577 34.3461C41.536 34.398 41.5101 34.4499 41.4886 34.4976L41.4325 34.6056H41.4322C41.3052 34.841 41.2542 35.1098 41.2859 35.3753C41.3176 35.6412 41.4307 35.8904 41.6096 36.0892L41.6356 36.1194C41.6356 36.1194 41.7352 36.219 41.7825 36.2839C41.8302 36.3487 41.8993 36.4308 41.9512 36.5087V36.509C42.0571 36.6653 42.1467 36.8321 42.2194 37.0062C42.354 37.317 42.4147 37.6544 42.3969 37.9926C42.291 38.7413 41.9394 39.4334 41.3975 39.9608C41.2348 40.1304 41.1286 40.3459 41.093 40.5782C41.0574 40.8105 41.0942 41.048 41.1986 41.2583L41.2463 41.3579C41.2463 41.3579 41.3154 41.4876 41.3459 41.5697C41.3761 41.6518 41.415 41.7514 41.4455 41.8422L41.4452 41.8425C41.5019 42.0259 41.5423 42.2142 41.5662 42.4049C41.612 42.7579 41.587 43.1167 41.4928 43.4604C41.2539 44.1595 40.7994 44.7654 40.195 45.1905L39.81 46.4623C39.81 46.4623 39.8318 46.536 39.8447 46.5833C39.8577 46.631 39.8665 46.7001 39.8794 46.7562L39.8791 46.7565C39.8996 46.8766 39.9126 46.9979 39.918 47.1198C39.9307 47.3549 39.9105 47.5908 39.8577 47.8205C39.759 48.2704 39.5321 48.6822 39.2044 49.0057C38.8321 49.3615 38.404 49.6538 37.9372 49.8708C37.4517 50.0838 36.9393 50.2292 36.4143 50.3035C36.1494 50.3442 35.882 50.3702 35.6141 50.3813H34.749L32.9754 50.4115L29.6014 50.4721L26.4739 50.5412H25.7428H25.0983V50.5415C24.6831 50.5086 24.2718 50.4377 23.8699 50.3294C23.4855 50.2262 23.1108 50.0901 22.7496 49.9227C22.4122 49.767 22.0489 49.5506 21.6941 49.356L19.964 48.4215V47.3748L19.8991 43.352C19.8212 39.2251 19.7087 35.5657 19.566 32.7587C19.6176 32.7668 19.6701 32.7668 19.7217 32.7587L20.1239 32.7068C20.2666 32.685 20.4268 32.6591 20.5825 32.6247H20.5822C20.9027 32.5544 21.2168 32.4572 21.5209 32.3347C22.1739 32.0541 22.7695 31.6552 23.2773 31.1583C23.5522 30.8943 23.8014 30.6046 24.0214 30.2932C24.2329 29.9637 24.4182 29.6179 24.5751 29.2592L25.5871 27.2821Z" fill="#183453"/>
<path d="M14.8685 45.434C15.5776 45.6862 15.9479 46.4656 15.6956 47.1747C15.4434 47.8835 14.664 48.2537 13.9549 48.0014C13.2461 47.7492 12.8759 46.9698 13.1281 46.2607C13.3804 45.5519 14.1597 45.1817 14.8685 45.434Z" fill="#08A5E2"/>
<path d="M37.6727 22.0847C38.5579 23.1161 39.5592 24.0426 40.6558 24.8463C41.7343 25.6485 42.8671 26.3748 44.046 27.0203C44.4665 27.2582 44.9808 27.2582 45.4012 27.0203C46.5837 26.3752 47.7197 25.6489 48.8015 24.8463C49.8984 24.0427 50.8993 23.1161 51.7849 22.0847C52.6985 21.0489 53.4144 19.8543 53.8974 18.5604C54.3844 17.2429 54.4969 15.816 54.222 14.4384C53.9431 13.1234 53.2429 11.9349 52.228 11.0533C51.2914 10.2543 50.1098 9.80005 48.8788 9.76518C47.8114 9.74937 46.7681 10.0865 45.9112 10.7237C45.8185 10.7959 45.7208 10.8577 45.6331 10.935L45.3908 11.1668C45.2331 11.3099 45.0882 11.4669 44.9581 11.6355L44.7213 11.9496L44.4945 11.656V11.6563C44.3644 11.4871 44.2196 11.3304 44.0614 11.1873C43.9058 11.0216 43.7333 10.8732 43.5464 10.7442C42.6943 10.0994 41.6524 9.75512 40.5836 9.76515C39.3545 9.79894 38.1741 10.2536 37.2397 11.0532C36.224 11.9327 35.5221 13.1194 35.2407 14.4333C34.964 15.8102 35.0746 17.237 35.5602 18.5549C36.0421 19.8509 36.7584 21.0474 37.6727 22.0845V22.0847ZM37.6727 14.9229C37.7967 14.1053 38.173 13.3466 38.7495 12.7536C39.2742 12.2289 39.9563 11.8903 40.692 11.79C41.3594 11.7131 42.0344 11.8501 42.6187 12.1818C42.7625 12.2497 42.8972 12.3342 43.0205 12.4341C43.1513 12.5185 43.2739 12.6152 43.3864 12.7227L43.7213 13.0318C43.9036 13.2593 44.1149 13.462 44.3499 13.6348C44.3916 13.678 44.4495 13.7028 44.5099 13.7028C44.5699 13.7028 44.6277 13.678 44.6694 13.6348C44.7435 13.4997 44.7722 13.3444 44.7517 13.1917C44.7391 13.008 44.7391 12.8237 44.7517 12.6404V12.7072V13.2945C44.7517 13.6399 44.9167 13.8099 45.169 13.6553H45.1694C45.4033 13.4817 45.6146 13.2794 45.7979 13.0526L46.1279 12.7435L46.1275 12.7432C46.24 12.6361 46.3625 12.5394 46.4934 12.4549L46.6839 12.3158L46.8952 12.2026V12.2023C47.4634 11.8878 48.1146 11.7566 48.7604 11.8263C49.4932 11.9263 50.1735 12.2627 50.6976 12.7845C51.2716 13.3664 51.6514 14.1114 51.7847 14.9176C51.9066 15.8369 51.7822 16.7724 51.4239 17.6278C51.012 18.6042 50.4313 19.5009 49.7085 20.2762C48.9354 21.1348 48.0718 21.9068 47.1323 22.5792C46.3657 23.1402 45.5675 23.6563 44.7416 24.1249C43.9136 23.6567 43.1136 23.1406 42.3455 22.5792C41.406 21.9067 40.5424 21.1348 39.7693 20.2762C39.0448 19.5013 38.4622 18.6046 38.0486 17.6278C37.682 16.7746 37.5486 15.8394 37.6622 14.9176L37.6727 14.9229Z" fill="#FFC000"/>
<path d="M13.7002 26.0194C13.8512 26.1863 13.9983 26.4327 13.9824 26.7507C13.9666 27.0686 13.8752 27.3031 13.6288 27.4502C13.3824 27.5973 13.2155 27.7484 12.8975 27.7325C12.3411 27.7048 11.8879 27.2041 11.9157 26.6476C11.9276 26.4092 12.0229 26.0952 12.2693 25.9481C12.5157 25.801 12.6826 25.6499 13.0006 25.6658C13.3185 25.6816 13.5491 25.8525 13.7002 26.0194Z" fill="#FFC000"/>
<path d="M20.7901 23.9161C20.9411 24.083 21.0882 24.3294 21.0724 24.6474C21.0565 24.9654 20.9651 25.1999 20.7187 25.347C20.4723 25.4941 20.3054 25.6451 19.9875 25.6293C19.431 25.6015 18.9778 25.1008 19.0056 24.5444C19.0175 24.3059 19.1128 23.9919 19.3592 23.8448C19.5261 23.6937 19.7725 23.5466 20.0905 23.5625C20.4084 23.5784 20.639 23.7492 20.7901 23.9161Z" fill="#FFC000"/>
<path fill-rule="evenodd" clip-rule="evenodd" d="M3.83526 41.4252C2.16593 41.342 0.881901 39.9233 0.965116 38.254C1.05229 36.5052 2.47106 35.2212 4.14038 35.3044C5.80971 35.3876 7.09369 36.8063 7.00651 38.5551C6.9233 40.2245 5.42509 41.5045 3.83526 41.4252ZM4.03339 37.4507C3.47695 37.4229 2.97618 37.8761 2.94845 38.4325C2.92071 38.989 3.37392 39.4897 3.93036 39.5174C4.4868 39.5452 4.98752 39.092 5.01526 38.5356C5.043 37.9791 4.51034 37.4744 4.03339 37.4507Z" fill="#FFC000"/>
</svg>
