<svg width="63" height="66" viewBox="0 0 63 66" fill="none" xmlns="http://www.w3.org/2000/svg">
<path d="M0.196609 30.7352C0.196609 13.4965 12.9121 3.49341 30.1508 3.49341C47.3895 3.49341 58.8157 11.0642 58.8157 28.3028C58.8157 45.5415 61.4605 62.8419 44.2218 62.8419C26.9832 62.8419 0.196609 47.9738 0.196609 30.7352Z" fill="#73BFB8" fill-opacity="0.24"/>
<path d="M42.9785 14.1663C42.7892 7.48546 38.988 2.13745 34.3476 2.13745C29.7072 2.13745 25.906 7.48546 25.7167 14.1663H24.1864C24.3839 6.638 28.8679 0.598877 34.3476 0.598877C39.8355 0.598877 44.3113 6.638 44.5088 14.1663H42.9785Z" fill="#2D2D2D"/>
<path d="M54.9087 25.1012L53.1397 43.9097H15.3335L13.5645 25.1012L13.5398 13.8292L54.8182 13.8457L54.9087 25.1012Z" fill="#FFC000"/>
<path d="M52.1935 54.7204H16.2467L13.5562 24.6564H54.8839L52.1935 54.7204Z" fill="#73BFB8"/>
<path d="M28.144 30.9836C28.144 32.5798 26.8522 33.8633 25.2643 33.8633C23.6763 33.8633 22.3846 32.5798 22.3846 30.9836C22.3846 29.3956 23.6763 28.1121 25.2643 28.1121C26.8522 28.1121 28.144 29.3956 28.144 30.9836Z" fill="#E23129"/>
<path d="M46.179 30.9836C46.179 32.5798 44.8955 33.8633 43.3076 33.8633C41.7114 33.8633 40.4279 32.5798 40.4279 30.9836C40.4279 29.3956 41.7114 28.1121 43.3076 28.1121C44.8955 28.1121 46.179 29.3956 46.179 30.9836Z" fill="#E23129"/>
<path d="M44.5088 31.1811C44.3113 38.7012 39.8355 44.7404 34.3476 44.7404C28.8679 44.7404 24.3839 38.7012 24.1864 31.1811H25.7167C25.906 37.8538 29.7072 43.2018 34.3476 43.2018C38.988 43.2018 42.7892 37.8538 42.9785 31.1811H44.5088Z" fill="#2D2D2D"/>
<path d="M13.5398 13.8292L19.7024 19.0291L13.5563 24.6569L13.5398 13.8292Z" fill="#F6901E"/>
<path d="M54.8182 13.8456L54.884 24.6568L49.1246 18.8974L54.8182 13.8456Z" fill="#F6901E"/>
<path d="M57.3687 64.4538C56.7927 65.6961 55.3282 66.2392 54.0858 65.6715L37.433 58.0032C36.1906 57.4355 35.6476 55.9628 36.2235 54.7204L40.8804 44.5921C41.4563 43.3497 42.9208 42.8067 44.1632 43.3826L60.8161 51.0426C62.0585 51.6103 62.6015 53.0831 62.0256 54.3255L57.3687 64.4538Z" fill="#F6901E"/>
<path d="M60.3801 57.8553L39.2513 48.1384L40.4361 45.5631L61.5649 55.28L60.3801 57.8553Z" fill="white"/>
<path d="M24.8693 62.3065C24.8693 64.1002 21.2656 65.5647 16.8226 65.5647C12.3797 65.5647 8.77595 64.1002 8.77595 62.3065C8.77595 61.5167 8.76771 61.2123 8.80885 60.0357C10.2898 59.3199 14.3378 59.0484 16.8226 59.0484C19.1757 59.0484 23.3225 59.2458 24.7953 59.8958C24.8693 61.3274 24.8693 61.4591 24.8693 62.3065Z" fill="#FFC000"/>
<path d="M24.8693 59.9783C24.8693 61.772 21.2656 63.2365 16.8226 63.2365C12.3797 63.2365 8.77595 61.772 8.77595 59.9783C8.77595 59.1885 8.76771 58.884 8.80885 57.7075C10.2898 56.9917 14.3378 56.7202 16.8226 56.7202C19.1757 56.7202 23.3225 56.9176 24.7953 57.5676C24.8693 58.9992 24.8693 59.1309 24.8693 59.9783Z" fill="#F9BC1C"/>
<path d="M24.8693 57.6496C24.8693 59.4433 21.2656 60.8996 16.8226 60.8996C12.3797 60.8996 8.77595 59.4433 8.77595 57.6496C8.77595 56.8598 8.76771 56.5554 8.80885 55.3788C10.2898 54.663 14.3378 54.3915 16.8226 54.3915C19.1757 54.3915 23.3225 54.5889 24.7953 55.2389C24.8693 56.6705 24.8693 56.8022 24.8693 57.6496Z" fill="#FFC000"/>
<path d="M24.8693 55.5268C24.8693 57.3287 21.2656 58.785 16.8226 58.785C12.3797 58.785 8.77595 57.3287 8.77595 55.5268C8.77595 54.7369 8.76771 54.4325 8.80885 53.2642C10.2898 52.5401 14.3378 52.2769 16.8226 52.2769C19.1757 52.2769 23.3225 52.4661 24.7953 53.1243C24.8693 54.5477 24.8693 54.6876 24.8693 55.5268Z" fill="#F9BC1C"/>
<path d="M24.8693 53.4122C24.8693 55.2141 21.2655 56.6704 16.8226 56.6704C12.3796 56.6704 8.77592 55.2141 8.77592 53.4122C8.77592 51.6104 12.3796 50.1541 16.8226 50.1541C21.2655 50.1541 24.8693 51.6104 24.8693 53.4122Z" fill="#FFC000"/>
<path d="M23.52 53.3218C23.52 54.7288 20.5251 55.8724 16.8227 55.8724C13.1284 55.8724 10.1253 54.7288 10.1253 53.3218C10.1253 51.9149 13.1284 50.7712 16.8227 50.7712C20.5251 50.7712 23.52 51.9149 23.52 53.3218Z" fill="#F9BC1C"/>
<path d="M54.2998 59.8465C54.2504 59.9452 54.1599 60.0028 54.0529 60.0028C54.0145 60.0028 53.9762 59.9918 53.9378 59.9699L41.3988 53.9637C41.2671 53.8979 41.2095 53.7333 41.2754 53.6017C41.333 53.47 41.4975 53.4124 41.6291 53.4782L54.1682 59.4927C54.308 59.5503 54.3656 59.7148 54.2998 59.8465Z" fill="white"/>
<path d="M53.2056 62.1174C53.1644 62.2161 53.0657 62.2655 52.967 62.2655C52.9286 62.2655 52.8902 62.2573 52.8518 62.2408L40.3127 56.2264C40.1729 56.1688 40.1235 56.0042 40.1811 55.8726C40.247 55.741 40.4115 55.6834 40.5431 55.7492L53.0821 61.7554C53.2138 61.8212 53.2714 61.9858 53.2056 62.1174Z" fill="white"/>
</svg>
