<svg width="68" height="31" viewBox="0 0 68 31" fill="none" xmlns="http://www.w3.org/2000/svg">
<path d="M50.7602 9.47925C55.3978 7.24105 58.6169 4.8104 63.4455 1.16442C65.055 -0.0509 66.2826 1.5493 66.0917 2.95707C65.7097 5.7726 66.9373 7.37281 66.5553 10.1883C66.1734 13.0039 67.401 14.6041 67.019 17.4196C66.828 18.8274 65.4095 18.6349 64.1819 17.0347C62.9543 15.4345 63.3362 12.619 63.7182 9.80346L63.9092 8.3957C63.7182 9.80347 63.5272 11.2112 61.9177 12.4266C60.1172 15.0497 58.1257 19.0805 56.3252 21.7036C51.3056 26.7573 45.0584 30.2109 37.7746 30.6564C30.4908 31.102 22.3614 27.1318 17.0691 23.5465C14.423 21.7539 10.5492 18.361 8.09407 15.1606C6.86648 13.5604 5.6389 11.9602 4.41131 10.36C3.18373 8.75974 1.95614 7.15953 0.728557 5.55932C0.919535 4.15156 1.11052 2.7438 2.3381 4.34401C3.56569 5.94422 4.79327 7.54442 6.21183 7.73686C7.43942 9.33707 8.66701 10.9373 9.89459 12.5375C12.3498 15.7379 14.9959 17.5306 17.642 19.3232C21.3248 24.1238 28.2266 26.4938 35.3194 27.456C42.6032 27.0104 48.6594 24.9647 52.2605 19.7185C54.061 17.0954 55.8615 14.4723 57.662 11.8492C57.853 10.4415 58.044 9.03369 59.4625 9.22613C57.853 10.4415 54.6339 12.8721 53.0244 14.0874C50.1872 13.7026 49.1506 10.6946 50.7602 9.47925Z" fill="white"/>
</svg>
