<svg width="51" height="51" viewBox="0 0 51 51" fill="none" xmlns="http://www.w3.org/2000/svg">
<path d="M15.235 32.0971L11.7351 33.0349C11.4956 33.0991 11.3557 33.3433 11.4203 33.5845C11.484 33.822 11.7273 33.9637 11.9667 33.8995L15.4666 32.9617C15.7024 32.8985 15.846 32.6532 15.7824 32.4157C15.7177 32.1746 15.4708 32.0339 15.235 32.0971Z" fill="#183453"/>
<path d="M14.8708 29.833H11.2474C10.9995 29.833 10.8011 30.0328 10.8011 30.2825C10.8011 30.5283 10.9995 30.7281 11.2474 30.7281H14.8708C15.1149 30.7281 15.317 30.5283 15.317 30.2825C15.317 30.0328 15.1149 29.833 14.8708 29.833Z" fill="#183453"/>
<path d="M15.4112 27.5797L12.2097 25.8828C11.9907 25.7667 11.7219 25.8503 11.6049 26.071C11.4898 26.2882 11.5715 26.5576 11.7905 26.6737L14.992 28.3706C15.2077 28.4849 15.4798 28.4031 15.595 28.1858C15.7119 27.9652 15.6269 27.694 15.4112 27.5797Z" fill="#183453"/>
<path d="M22.8777 22.6792C21.7647 22.7585 20.729 23.2766 19.998 24.1195C19.2672 24.9627 18.9012 26.0613 18.9805 27.1744C19.0598 28.2874 19.5779 29.323 20.4208 30.0541C21.2639 30.7848 22.3625 31.1509 23.4756 31.0716C24.5887 30.9923 25.6243 30.4742 26.3554 29.6313C27.0861 28.7882 27.4522 27.6895 27.3729 26.5765C27.2927 25.4638 26.7743 24.4287 25.9314 23.6981C25.0885 22.9674 23.9905 22.6009 22.8777 22.6792ZM23.376 29.6729C22.6341 29.7257 21.9016 29.4817 21.3394 28.9946C20.7775 28.5071 20.432 27.8165 20.3792 27.0747C20.3264 26.3329 20.5704 25.6003 21.0575 25.0381C21.545 24.4762 22.2356 24.1308 22.9774 24.0779C23.7192 24.0251 24.4518 24.2691 25.0139 24.7563C25.5759 25.2437 25.9213 25.9343 25.9741 26.6761C26.0273 27.4182 25.7833 28.1508 25.2958 28.7127C24.8087 29.2749 24.1181 29.6203 23.376 29.6729ZM22.8777 22.6792C21.7647 22.7585 20.729 23.2766 19.998 24.1195C19.2672 24.9627 18.9012 26.0613 18.9805 27.1744C19.0598 28.2874 19.5779 29.323 20.4208 30.0541C21.2639 30.7848 22.3625 31.1509 23.4756 31.0716C24.5887 30.9923 25.6243 30.4742 26.3554 29.6313C27.0861 28.7882 27.4522 27.6895 27.3729 26.5765C27.2927 25.4638 26.7743 24.4287 25.9314 23.6981C25.0885 22.9674 23.9905 22.6009 22.8777 22.6792ZM23.376 29.6729C22.6341 29.7257 21.9016 29.4817 21.3394 28.9946C20.7775 28.5071 20.432 27.8165 20.3792 27.0747C20.3264 26.3329 20.5704 25.6003 21.0575 25.0381C21.545 24.4762 22.2356 24.1308 22.9774 24.0779C23.7192 24.0251 24.4518 24.2691 25.0139 24.7563C25.5759 25.2437 25.9213 25.9343 25.9741 26.6761C26.0273 27.4182 25.7833 28.1508 25.2958 28.7127C24.8087 29.2749 24.1181 29.6203 23.376 29.6729ZM26.3028 32.276L20.8477 32.6647C19.3457 32.7726 17.9477 33.4722 16.9612 34.6101C15.9747 35.7479 15.4804 37.231 15.5864 38.7331L15.7309 40.7613C15.7721 41.3172 16.0317 41.8341 16.4528 42.1991C16.8739 42.5642 17.4223 42.748 17.9785 42.7099L30.5671 41.8131C31.123 41.7719 31.6399 41.5123 32.005 41.0912C32.37 40.6701 32.5538 40.1217 32.5157 39.5655L32.3712 37.5373C32.2633 36.0353 31.5637 34.6373 30.4258 33.6508C29.288 32.6643 27.8049 32.17 26.3028 32.276ZM31.117 39.6651C31.1432 40.0511 30.8533 40.3856 30.4675 40.4143L17.8788 41.3112C17.4929 41.3374 17.1584 41.0474 17.1297 40.6616L16.9852 38.6335C16.9068 37.5025 17.2798 36.3867 18.0224 35.5301C18.7651 34.6736 19.8166 34.1461 20.9474 34.0634L26.4024 33.6748C27.5334 33.5964 28.6492 33.9694 29.5058 34.712C30.3623 35.4547 30.8898 36.5062 30.9725 37.637L31.117 39.6651ZM33.8166 28.2262L32.4179 28.3258L32.3183 26.9271C32.2907 26.5409 31.9553 26.25 31.5691 26.2775C31.1829 26.305 30.892 26.6405 30.9195 27.0267L31.0192 28.4254L29.6204 28.5251C29.2342 28.5526 28.9434 28.8881 28.9709 29.2743C28.9984 29.6605 29.3339 29.9513 29.7201 29.9238L31.1188 29.8242L31.2185 31.2229C31.246 31.6091 31.5815 31.9 31.9677 31.8725C32.3539 31.8449 32.6447 31.5095 32.6172 31.1233L32.5176 29.7245L33.9163 29.6249C34.3025 29.5974 34.5934 29.2619 34.5658 28.8757C34.5383 28.4895 34.2029 28.1986 33.8166 28.2262ZM22.8777 22.6792C21.7647 22.7585 20.729 23.2766 19.998 24.1195C19.2672 24.9627 18.9012 26.0613 18.9805 27.1744C19.0598 28.2874 19.5779 29.323 20.4208 30.0541C21.2639 30.7848 22.3625 31.1509 23.4756 31.0716C24.5887 30.9923 25.6243 30.4742 26.3554 29.6313C27.0861 28.7882 27.4522 27.6895 27.3729 26.5765C27.2927 25.4638 26.7743 24.4287 25.9314 23.6981C25.0885 22.9674 23.9905 22.6009 22.8777 22.6792ZM23.376 29.6729C22.6341 29.7257 21.9016 29.4817 21.3394 28.9946C20.7775 28.5071 20.432 27.8165 20.3792 27.0747C20.3264 26.3329 20.5704 25.6003 21.0575 25.0381C21.545 24.4762 22.2356 24.1308 22.9774 24.0779C23.7192 24.0251 24.4518 24.2691 25.0139 24.7563C25.5759 25.2437 25.9213 25.9343 25.9741 26.6761C26.0273 27.4182 25.7833 28.1508 25.2958 28.7127C24.8087 29.2749 24.1181 29.6203 23.376 29.6729ZM26.3028 32.276L20.8477 32.6647C19.3457 32.7726 17.9477 33.4722 16.9612 34.6101C15.9747 35.7479 15.4804 37.231 15.5864 38.7331L15.7309 40.7613C15.7721 41.3172 16.0317 41.8341 16.4528 42.1991C16.8739 42.5642 17.4223 42.748 17.9785 42.7099L30.5671 41.8131C31.123 41.7719 31.6399 41.5123 32.005 41.0912C32.37 40.6701 32.5538 40.1217 32.5157 39.5655L32.3712 37.5373C32.2633 36.0353 31.5637 34.6373 30.4258 33.6508C29.288 32.6643 27.8049 32.17 26.3028 32.276ZM31.117 39.6651C31.1432 40.0511 30.8533 40.3856 30.4675 40.4143L17.8788 41.3112C17.4929 41.3374 17.1584 41.0474 17.1297 40.6616L16.9852 38.6335C16.9068 37.5025 17.2798 36.3867 18.0224 35.5301C18.7651 34.6736 19.8166 34.1461 20.9474 34.0634L26.4024 33.6748C27.5334 33.5964 28.6492 33.9694 29.5058 34.712C30.3623 35.4547 30.8898 36.5062 30.9725 37.637L31.117 39.6651ZM33.8166 28.2262L32.4179 28.3258L32.3183 26.9271C32.2907 26.5409 31.9553 26.25 31.5691 26.2775C31.1829 26.305 30.892 26.6405 30.9195 27.0267L31.0192 28.4254L29.6204 28.5251C29.2342 28.5526 28.9434 28.8881 28.9709 29.2743C28.9984 29.6605 29.3339 29.9513 29.7201 29.9238L31.1188 29.8242L31.2185 31.2229C31.246 31.6091 31.5815 31.9 31.9677 31.8725C32.3539 31.8449 32.6447 31.5095 32.6172 31.1233L32.5176 29.7245L33.9163 29.6249C34.3025 29.5974 34.5934 29.2619 34.5658 28.8757C34.5383 28.4895 34.2029 28.1986 33.8166 28.2262ZM26.3028 32.276L20.8477 32.6647C19.3457 32.7726 17.9477 33.4722 16.9612 34.6101C15.9747 35.7479 15.4804 37.231 15.5864 38.7331L15.7309 40.7613C15.7721 41.3172 16.0317 41.8341 16.4528 42.1991C16.8739 42.5642 17.4223 42.748 17.9785 42.7099L30.5671 41.8131C31.123 41.7719 31.6399 41.5123 32.005 41.0912C32.37 40.6701 32.5538 40.1217 32.5157 39.5655L32.3712 37.5373C32.2633 36.0353 31.5637 34.6373 30.4258 33.6508C29.288 32.6643 27.8049 32.17 26.3028 32.276ZM31.117 39.6651C31.1432 40.0511 30.8533 40.3856 30.4675 40.4143L17.8788 41.3112C17.4929 41.3374 17.1584 41.0474 17.1297 40.6616L16.9852 38.6335C16.9068 37.5025 17.2798 36.3867 18.0224 35.5301C18.7651 34.6736 19.8166 34.1461 20.9474 34.0634L26.4024 33.6748C27.5334 33.5964 28.6492 33.9694 29.5058 34.712C30.3623 35.4547 30.8898 36.5062 30.9725 37.637L31.117 39.6651ZM33.8166 28.2262L32.4179 28.3258L32.3183 26.9271C32.2907 26.5409 31.9553 26.25 31.5691 26.2775C31.1829 26.305 30.892 26.6405 30.9195 27.0267L31.0192 28.4254L29.6204 28.5251C29.2342 28.5526 28.9434 28.8881 28.9709 29.2743C28.9984 29.6605 29.3339 29.9513 29.7201 29.9238L31.1188 29.8242L31.2185 31.2229C31.246 31.6091 31.5815 31.9 31.9677 31.8725C32.3539 31.8449 32.6447 31.5095 32.6172 31.1233L32.5176 29.7245L33.9163 29.6249C34.3025 29.5974 34.5934 29.2619 34.5658 28.8757C34.5383 28.4895 34.2029 28.1986 33.8166 28.2262Z" fill="#FFC000"/>
<path d="M40.814 8.04602L3.04817 10.7365C2.49222 10.7777 1.97538 11.0373 1.61029 11.4584C1.24521 11.8795 1.06149 12.4279 1.09954 12.9841L3.4911 46.5537C3.53227 47.1096 3.7919 47.6265 4.21298 47.9916C4.63407 48.3566 5.1825 48.5404 5.73866 48.5023L43.5045 45.8118C44.0604 45.7706 44.5773 45.511 44.9423 45.0899C45.3074 44.6689 45.4912 44.1204 45.4531 43.5643L43.0615 9.99464C43.0204 9.43869 42.7607 8.92185 42.3397 8.55677C41.9186 8.19169 41.3701 8.00796 40.814 8.04602ZM34.719 11.2919C35.2753 11.2523 35.825 11.4353 36.2464 11.8006C36.6677 12.166 36.9269 12.6842 36.9665 13.2405C37.0061 13.7968 36.8231 14.3465 36.4578 14.7679C36.0924 15.1892 35.5742 15.4484 35.0179 15.488C34.4616 15.5277 33.9119 15.3446 33.4905 14.9793C33.0692 14.6139 32.81 14.0957 32.7704 13.5394C32.7323 12.9833 32.9161 12.4348 33.2811 12.0137C33.6462 11.5927 34.163 11.3331 34.719 11.2919ZM29.124 11.6905C29.6804 11.6509 30.2301 11.8339 30.6514 12.1992C31.0728 12.5646 31.3319 13.0828 31.3716 13.6391C31.4112 14.1954 31.2282 14.7451 30.8628 15.1665C30.4974 15.5878 29.9793 15.847 29.423 15.8866C28.8667 15.9262 28.3169 15.7432 27.8956 15.3779C27.4742 15.0125 27.2151 14.4943 27.1754 13.938C27.1374 13.3819 27.3211 12.8334 27.6862 12.4123C28.0513 11.9912 28.5681 11.7317 29.124 11.6905ZM23.5291 12.0891C24.0855 12.0494 24.6351 12.2325 25.0565 12.5978C25.4778 12.9632 25.737 13.4814 25.7766 14.0377C25.8163 14.594 25.6333 15.1437 25.2679 15.5651C24.9025 15.9864 24.3843 16.2456 23.828 16.2852C23.2717 16.3248 22.722 16.1418 22.3007 15.7765C21.8793 15.4111 21.6201 14.8929 21.5805 14.3366C21.5425 13.7804 21.7262 13.232 22.0913 12.8109C22.4563 12.3898 22.9732 12.1303 23.5291 12.0891ZM44.0544 43.6639C44.0806 44.0499 43.7906 44.3844 43.4048 44.4131L5.63902 47.1036C5.25303 47.1298 4.91856 46.8399 4.88982 46.4541L3.04634 20.5775L42.2109 17.7873L44.0544 43.6639Z" fill="#183453"/>
<path d="M2.37201 14.1949C2.29352 13.0931 3.12306 12.1363 4.22483 12.0578L39.8365 9.52079C40.9383 9.4423 41.8951 10.2718 41.9736 11.3736L42.5432 19.3693L2.94164 22.1906L2.37201 14.1949Z" fill="#08A5E2"/>
<circle cx="26.0785" cy="15.3057" r="1.39993" fill="white"/>
<circle cx="32.4565" cy="15.3057" r="1.39993" fill="white"/>
<circle cx="38.8344" cy="15.3057" r="1.39993" fill="white"/>
<path d="M44.3332 9.37846L49.4276 8.60778C49.3428 8.99231 49.2796 9.38306 49.2382 9.78004C49.2145 10.1785 49.2092 10.5695 49.2223 10.9532L44.3332 9.37846Z" fill="#183453"/>
<path d="M43.1274 7.30993L45.8362 2.927C46.0745 3.24052 46.3316 3.54149 46.6075 3.82992C46.8959 4.10581 47.1906 4.3629 47.4916 4.60117L43.1274 7.30993Z" fill="#183453"/>
<path d="M40.6272 6.49342L40.2836 1.35245C40.6597 1.46906 41.0439 1.56453 41.436 1.63886C41.8311 1.69569 42.2203 1.73358 42.6037 1.75251L40.6272 6.49342Z" fill="#183453"/>
</svg>
