<svg width="57" height="51" viewBox="0 0 57 51" fill="none" xmlns="http://www.w3.org/2000/svg">
<path d="M53.8227 26.7826H38.1247C38.1247 26.5923 38.1247 26.4211 38.1247 26.2688C38.1247 26.0786 38.1247 25.9073 38.1247 25.7551H53.8227V26.7826ZM15.0629 26.7826H7.5279V25.698H15.0629C15.0629 25.8883 15.0629 26.0595 15.0629 26.2117C15.0629 26.402 15.0629 26.5923 15.0629 26.7826Z" fill="#183453"/>
<path d="M26.0801 39.6268V37.8001C26.2703 37.8001 26.4416 37.8001 26.5938 37.8001C26.7841 37.8001 26.9553 37.8001 27.1076 37.8001V39.6268H26.0801ZM26.0801 14.7383V6.51831H27.1076V14.7383C26.9553 14.7003 26.7841 14.6813 26.5938 14.6813C26.4416 14.6813 26.2703 14.7003 26.0801 14.7383Z" fill="#183453"/>
<path d="M16.3187 43.0517L20.3716 35.9733C20.6761 36.1636 20.9805 36.3349 21.285 36.4871L17.2321 43.5654L16.3187 43.0517ZM31.9025 15.9941L38.8667 3.94946L39.78 4.46321L32.8159 16.5078C32.5114 16.3176 32.207 16.1463 31.9025 15.9941Z" fill="#183453"/>
<path d="M2.78995 39.3982L16.3758 31.5777C16.5281 31.8822 16.6993 32.1676 16.8896 32.434L3.3037 40.3115L2.78995 39.3982ZM36.3551 20.0469L40.0084 17.8777L40.5222 18.791L36.8688 20.9031C36.6786 20.5987 36.5073 20.3133 36.3551 20.0469Z" fill="#183453"/>
<path d="M4.67365 12.9685L16.8895 20.0469C16.6992 20.3133 16.528 20.6177 16.3758 20.9602L4.15989 13.8818L4.67365 12.9685ZM36.8117 31.5207L50.3976 39.3982L49.8838 40.3115L36.2979 32.434C36.4882 32.1676 36.6595 31.8632 36.8117 31.5207Z" fill="#183453"/>
<path d="M19.0016 12.0552L21.285 15.9939C20.9805 16.1462 20.6761 16.3174 20.3716 16.5077L18.1454 12.626L19.0016 12.0552ZM32.7588 35.9161L37.9534 44.9353L37.04 45.4491L31.9025 36.4299C32.207 36.2776 32.4924 36.1064 32.7588 35.9161Z" fill="#183453"/>
<path fill-rule="evenodd" clip-rule="evenodd" d="M41.8351 4.29184C41.3785 4.69142 40.8076 4.97684 40.1797 4.97684C39.5518 4.97684 38.981 4.69142 38.5814 4.29184C38.1818 3.89225 37.9535 3.32142 37.9535 2.6935C37.9535 2.06558 38.1818 1.49474 38.5814 1.09516C39.0381 0.638491 39.5518 0.410156 40.1797 0.410156C40.8076 0.410156 41.3785 0.638491 41.8351 1.09516C42.2347 1.49474 42.4631 2.06558 42.4631 2.6935C42.4631 3.32142 42.2347 3.89225 41.8351 4.29184ZM40.1797 3.89225C40.5222 3.89225 40.8647 3.77809 41.0931 3.54975C41.3214 3.32142 41.4356 3.036 41.4356 2.6935C41.4356 2.351 41.3214 2.0085 41.0931 1.83725C40.8647 1.60891 40.5222 1.43766 40.1797 1.43766C39.8372 1.43766 39.5518 1.60891 39.3235 1.78016V1.83725C39.0951 2.0085 38.981 2.351 38.981 2.6935C38.981 3.036 39.0951 3.32142 39.3235 3.54975C39.5518 3.77809 39.8372 3.89225 40.1797 3.89225Z" fill="#183453"/>
<path fill-rule="evenodd" clip-rule="evenodd" d="M28.8772 6.11849C28.3064 6.68933 27.5072 7.08891 26.5938 7.08891C25.7376 7.08891 24.9384 6.68933 24.3676 6.11849C23.7397 5.54766 23.3972 4.74849 23.3972 3.89224C23.3972 2.9789 23.7397 2.17973 24.3676 1.60889C24.9384 1.03806 25.7376 0.695557 26.5938 0.695557C27.5072 0.695557 28.3064 1.03806 28.8772 1.60889C29.448 2.17973 29.7905 2.9789 29.7905 3.89224C29.7905 4.74849 29.448 5.54766 28.8772 6.11849ZM26.5938 6.00433C27.2218 6.00433 27.7355 5.77599 28.1351 5.37641C28.5347 4.97682 28.763 4.46307 28.763 3.89224C28.763 3.26432 28.5347 2.75056 28.1351 2.35098C27.7355 1.95139 27.2218 1.72306 26.5938 1.72306C26.023 1.72306 25.4522 1.95139 25.0526 2.35098C24.7101 2.75056 24.4247 3.26432 24.4247 3.89224C24.4247 4.46307 24.7101 4.97682 25.0526 5.37641C25.4522 5.77599 26.023 6.00433 26.5938 6.00433Z" fill="#183453"/>
<path d="M18.545 13.2539C19.0588 13.2539 19.5154 12.8543 19.5154 12.3406C19.5154 11.8268 19.0588 11.4272 18.545 11.4272C18.0883 11.4272 17.6317 11.8268 17.6317 12.3406C17.6317 12.8543 18.0883 13.2539 18.545 13.2539Z" fill="#183453"/>
<path d="M50.1692 40.7681C50.683 40.7681 51.0826 40.3685 51.0826 39.8547C51.0826 39.341 50.683 38.9414 50.1692 38.9414C49.6555 38.9414 49.2559 39.341 49.2559 39.8547C49.2559 40.3685 49.6555 40.7681 50.1692 40.7681Z" fill="#183453"/>
<path d="M53.8226 28.7804C55.1926 28.7804 56.3913 27.6387 56.3913 26.2687C56.3913 24.8416 55.1926 23.7 53.8226 23.7C52.3955 23.7 51.2538 24.8416 51.2538 26.2687C51.2538 27.6387 52.3955 28.7804 53.8226 28.7804Z" fill="#FFC000"/>
<path d="M7.5279 27.9243C8.44124 27.9243 9.18332 27.1822 9.18332 26.2689C9.18332 25.2985 8.44124 24.5564 7.5279 24.5564C6.55748 24.5564 5.81539 25.2985 5.81539 26.2689C5.81539 27.1822 6.55748 27.9243 7.5279 27.9243Z" fill="#FFC000"/>
<path d="M3.01827 41.5676C3.98869 41.5676 4.73077 40.7684 4.73077 39.8551C4.73077 38.9417 3.98869 38.1426 3.01827 38.1426C2.10493 38.1426 1.36285 38.9417 1.36285 39.8551C1.36285 40.7684 2.10493 41.5676 3.01827 41.5676Z" fill="#FFC000"/>
<path fill-rule="evenodd" clip-rule="evenodd" d="M4.61661 14.2242C4.21703 14.6809 3.64619 14.9092 3.01827 14.9092C2.39035 14.9092 1.81952 14.6809 1.41994 14.2242C1.02035 13.8246 0.792015 13.2538 0.792015 12.6259C0.792015 11.998 1.02035 11.4271 1.41994 11.0275C1.81952 10.6279 2.39035 10.3425 3.01827 10.3425C3.64619 10.3425 4.21703 10.6279 4.61661 11.0275C5.07328 11.4271 5.30161 11.998 5.30161 12.6259C5.30161 13.2538 5.07328 13.8246 4.61661 14.2242ZM3.01827 13.8817C3.36077 13.8817 3.70328 13.7105 3.93161 13.5392C4.15994 13.3109 4.27412 12.9684 4.27412 12.6259C4.27412 12.2834 4.15994 11.998 3.93161 11.7696C3.70328 11.5413 3.36077 11.4271 3.01827 11.4271C2.67577 11.4271 2.39035 11.5413 2.16202 11.7696C1.93368 11.998 1.81952 12.2834 1.81952 12.6259C1.81952 12.9684 1.93368 13.3109 2.16202 13.5392C2.39035 13.7105 2.67577 13.8817 3.01827 13.8817Z" fill="#183453"/>
<path fill-rule="evenodd" clip-rule="evenodd" d="M17.6317 47.7323C17.0608 48.3602 16.2617 48.7027 15.3483 48.7027C14.4921 48.7027 13.6929 48.3602 13.1221 47.7323C12.5512 47.1614 12.2087 46.3623 12.2087 45.506C12.2087 44.6498 12.5512 43.8506 13.1221 43.2227C13.6929 42.6518 14.4921 42.3093 15.3483 42.3093C16.2617 42.3093 17.0608 42.6518 17.6317 43.2227C18.2025 43.8506 18.545 44.6498 18.545 45.506C18.545 46.3623 18.2025 47.1614 17.6317 47.7323ZM15.3483 47.6752C15.9762 47.6752 16.49 47.3898 16.8896 47.0473C17.2892 46.6477 17.5175 46.0768 17.5175 45.506C17.5175 44.9352 17.2892 44.3643 16.8896 43.9648C16.49 43.6222 15.9762 43.3368 15.3483 43.3368C14.7775 43.3368 14.2637 43.6222 13.8641 43.9648C13.4646 44.3643 13.2362 44.9352 13.2362 45.506C13.2362 46.0768 13.4646 46.6477 13.8641 47.0473C14.2637 47.3898 14.7775 47.6752 15.3483 47.6752Z" fill="#183453"/>
<path d="M40.2368 20.0469C41.2072 20.0469 41.9493 19.3048 41.9493 18.3915C41.9493 17.421 41.2072 16.679 40.2368 16.679C39.3235 16.679 38.5243 17.421 38.5243 18.3915C38.5243 19.3048 39.3235 20.0469 40.2368 20.0469Z" fill="#FFC000"/>
<path fill-rule="evenodd" clip-rule="evenodd" d="M41.1501 49.7874C40.5792 50.3583 39.7801 50.7008 38.8667 50.7008C38.0105 50.7008 37.2113 50.3583 36.6404 49.7874C36.0696 49.2166 35.7271 48.4174 35.7271 47.5612C35.7271 46.6478 36.0696 45.8487 36.6404 45.2778C37.2113 44.707 38.0105 44.3645 38.8667 44.3645C39.7801 44.3645 40.5792 44.707 41.1501 45.2778C41.7209 45.8487 42.0634 46.6478 42.0634 47.5612C42.0634 48.4174 41.7209 49.2166 41.1501 49.7874ZM38.8667 49.6733C39.4946 49.6733 40.0084 49.4449 40.408 49.0454C40.8075 48.6458 41.0359 48.132 41.0359 47.5612C41.0359 46.9333 40.8075 46.4195 40.408 46.0199C40.0084 45.6203 39.4946 45.392 38.8667 45.392C38.2959 45.392 37.7821 45.6203 37.3825 46.0199C36.983 46.4195 36.7546 46.9333 36.7546 47.5612C36.7546 48.132 36.983 48.6458 37.3825 49.0454C37.7821 49.4449 38.2959 49.6733 38.8667 49.6733Z" fill="#183453"/>
<path fill-rule="evenodd" clip-rule="evenodd" d="M28.1921 42.9942C27.7925 43.3938 27.2217 43.6221 26.5938 43.6221C25.9658 43.6221 25.395 43.3938 24.9954 42.9942C24.5958 42.5946 24.3104 42.0238 24.3104 41.3959C24.3104 40.768 24.5958 40.1971 24.9954 39.7975C25.395 39.3409 25.9658 39.1125 26.5938 39.1125C27.2217 39.1125 27.7925 39.3409 28.1921 39.7975C28.5917 40.1971 28.8771 40.768 28.8771 41.3959C28.8771 42.0238 28.5917 42.5946 28.1921 42.9942ZM26.5938 42.5946C26.9363 42.5946 27.2788 42.4805 27.45 42.2521C27.6783 42.0238 27.8496 41.7384 27.8496 41.3959C27.8496 41.0534 27.6783 40.7109 27.45 40.4826C27.2788 40.2542 26.9363 40.1401 26.5938 40.1401C26.2513 40.1401 25.9658 40.2542 25.7375 40.4826C25.5092 40.7109 25.395 41.0534 25.395 41.3959C25.395 41.7384 25.5092 42.0238 25.7375 42.2521C25.9658 42.4805 26.2513 42.5946 26.5938 42.5946Z" fill="#183453"/>
<circle cx="26.3328" cy="26.2403" r="10.9559" fill="#08A5E2"/>
<circle cx="26.3328" cy="26.6402" r="7.79571" fill="white"/>
</svg>
