<svg width="480" height="400" viewBox="0 0 480 400" fill="none" xmlns="http://www.w3.org/2000/svg">
<g clip-path="url(#clip0_130_580)" filter="url(#filter0_d_130_580)">
<g filter="url(#filter1_d_130_580)">
<path d="M421.799 114.227H42.3193C38.0334 114.227 34.559 117.7 34.559 121.985V325.261C34.559 329.546 38.0334 333.02 42.3193 333.02H421.799C426.085 333.02 429.559 329.546 429.559 325.261V121.985C429.559 117.7 426.085 114.227 421.799 114.227Z" fill="white"/>
</g>
<path d="M93.6375 258.925C80.4597 263.751 57.8399 252.33 57.8399 252.33V311.296H410.934V172.569C396.113 167.4 376.105 128.108 367.14 143.301C339.768 189.688 307.164 139.077 276.813 153.794C245.847 168.809 238.523 195.545 205.19 197.143C189.757 197.883 192.046 245.11 176.623 246.123C160.874 247.157 146.426 207.214 131.516 213.434C115.575 220.083 109.775 253.015 93.6375 258.925Z" fill="url(#paint0_linear_130_580)"/>
<path d="M53.5718 138.278V298.106" stroke="#E6E8EC" stroke-width="0.8611"/>
<path d="M410.934 298.494H53.1837" stroke="#E6E8EC" stroke-width="0.8611"/>
<path d="M55.5118 251.975C55.5118 251.975 78.4236 262.823 91.6304 258.139C107.804 252.404 113.374 218.498 129.349 212.045C144.293 206.008 158.829 246.548 174.612 245.544C190.069 244.561 187.718 196.951 203.187 196.234C236.592 194.683 243.932 168.732 274.967 154.159C305.384 139.874 338.059 188.998 365.491 143.975C374.476 129.229 394.528 167.365 409.382 172.382" stroke="#A5BF5C" stroke-width="3.4444" stroke-linecap="round" stroke-linejoin="round"/>
<path d="M390.369 294.615V301.597" stroke="#E6E8EC" stroke-width="0.8611" stroke-linecap="round" stroke-linejoin="round"/>
<path d="M309.662 294.615V301.597" stroke="#E6E8EC" stroke-width="0.8611" stroke-linecap="round" stroke-linejoin="round"/>
<path d="M156.784 294.615V301.597" stroke="#E6E8EC" stroke-width="0.8611" stroke-linecap="round" stroke-linejoin="round"/>
<path d="M73.7486 294.615V301.597" stroke="#E6E8EC" stroke-width="0.8611" stroke-linecap="round" stroke-linejoin="round"/>
<path d="M230.119 301.985V190.261" stroke="#E6E8EC" stroke-width="0.8611"/>
<path d="M230.335 193.022C232.598 193.022 234.432 191.188 234.432 188.926C234.432 186.664 232.598 184.83 230.335 184.83C228.073 184.83 226.239 186.664 226.239 188.926C226.239 191.188 228.073 193.022 230.335 193.022Z" fill="white" stroke="#A5BF5C" stroke-width="1.81832"/>
<path d="M230.119 300.026C231.405 300.026 232.447 298.983 232.447 297.698C232.447 296.412 231.405 295.37 230.119 295.37C228.833 295.37 227.791 296.412 227.791 297.698C227.791 298.983 228.833 300.026 230.119 300.026Z" fill="white" stroke="#FFC000" stroke-width="1.81832"/>
<path d="M54.8989 317.503V311.86L53.8466 312.093V311.553L55.1596 310.985H55.6904V317.503H54.8989ZM59.6087 317.614C59.0313 317.614 58.5315 317.475 58.1094 317.195C57.6934 316.91 57.3737 316.516 57.1502 316.013C56.9267 315.504 56.815 314.914 56.815 314.244C56.815 313.574 56.9267 312.987 57.1502 312.484C57.3737 311.975 57.6934 311.581 58.1094 311.302C58.5315 311.016 59.0313 310.874 59.6087 310.874C60.186 310.874 60.6827 311.016 61.0986 311.302C61.5146 311.581 61.8343 311.975 62.0578 312.484C62.2813 312.987 62.3931 313.574 62.3931 314.244C62.3931 314.914 62.2813 315.504 62.0578 316.013C61.8343 316.516 61.5146 316.91 61.0986 317.195C60.6827 317.475 60.186 317.614 59.6087 317.614ZM59.6087 316.925C59.9874 316.925 60.3257 316.82 60.6237 316.609C60.9279 316.391 61.1638 316.084 61.3315 315.687C61.5053 315.284 61.5922 314.802 61.5922 314.244C61.5922 313.685 61.5053 313.207 61.3315 312.81C61.1638 312.413 60.9279 312.109 60.6237 311.898C60.3257 311.68 59.9874 311.572 59.6087 311.572C59.2238 311.572 58.8823 311.68 58.5843 311.898C58.2863 312.109 58.0504 312.413 57.8766 312.81C57.7027 313.207 57.6158 313.685 57.6158 314.244C57.6158 314.802 57.7027 315.284 57.8766 315.687C58.0504 316.084 58.2863 316.391 58.5843 316.609C58.8823 316.82 59.2238 316.925 59.6087 316.925ZM63.7467 317.549C63.5915 317.549 63.4611 317.499 63.3556 317.4C63.2562 317.295 63.2066 317.167 63.2066 317.018C63.2066 316.869 63.2562 316.745 63.3556 316.646C63.4611 316.54 63.5915 316.488 63.7467 316.488C63.8957 316.488 64.0199 316.54 64.1192 316.646C64.2247 316.745 64.2775 316.869 64.2775 317.018C64.2775 317.167 64.2247 317.295 64.1192 317.4C64.0199 317.499 63.8957 317.549 63.7467 317.549ZM63.7467 313.834C63.5915 313.834 63.4611 313.785 63.3556 313.685C63.2562 313.58 63.2066 313.453 63.2066 313.304C63.2066 313.155 63.2562 313.03 63.3556 312.931C63.4611 312.826 63.5915 312.773 63.7467 312.773C63.8957 312.773 64.0199 312.826 64.1192 312.931C64.2247 313.03 64.2775 313.155 64.2775 313.304C64.2775 313.453 64.2247 313.58 64.1192 313.685C64.0199 313.785 63.8957 313.834 63.7467 313.834ZM67.4086 317.614C66.9926 317.614 66.617 317.54 66.2818 317.391C65.9465 317.236 65.6765 317.006 65.4716 316.702C65.2729 316.398 65.1674 316.019 65.155 315.566H65.9465C65.9527 315.938 66.0831 316.261 66.3376 316.534C66.5922 316.801 66.9492 316.935 67.4086 316.935C67.868 316.935 68.2125 316.807 68.4422 316.553C68.6781 316.298 68.7961 315.991 68.7961 315.631C68.7961 315.327 68.7216 315.079 68.5726 314.886C68.4298 314.694 68.2343 314.551 67.9859 314.458C67.7438 314.365 67.4769 314.318 67.1851 314.318H66.7008V313.657H67.1851C67.6072 313.657 67.9363 313.561 68.1722 313.369C68.4143 313.176 68.5354 312.906 68.5354 312.559C68.5354 312.267 68.4391 312.028 68.2467 311.842C68.0604 311.649 67.7811 311.553 67.4086 311.553C67.0485 311.553 66.7598 311.662 66.5425 311.879C66.3252 312.09 66.2042 312.357 66.1793 312.68H65.3878C65.4064 312.326 65.4995 312.012 65.6671 311.739C65.841 311.466 66.0769 311.255 66.3749 311.106C66.6729 310.951 67.0174 310.874 67.4086 310.874C67.8307 310.874 68.1815 310.948 68.4609 311.097C68.7464 311.246 68.9606 311.445 69.1034 311.693C69.2524 311.941 69.3269 312.214 69.3269 312.512C69.3269 312.841 69.2369 313.142 69.0569 313.415C68.8768 313.682 68.6068 313.862 68.2467 313.955C68.6316 314.036 68.9513 314.219 69.2058 314.505C69.4604 314.79 69.5877 315.166 69.5877 315.631C69.5877 315.991 69.5038 316.323 69.3362 316.627C69.1748 316.925 68.9327 317.164 68.6099 317.344C68.287 317.524 67.8866 317.614 67.4086 317.614ZM73.3954 317.614C72.818 317.614 72.3183 317.475 71.8961 317.195C71.4802 316.91 71.1604 316.516 70.9369 316.013C70.7134 315.504 70.6017 314.914 70.6017 314.244C70.6017 313.574 70.7134 312.987 70.9369 312.484C71.1604 311.975 71.4802 311.581 71.8961 311.302C72.3183 311.016 72.818 310.874 73.3954 310.874C73.9728 310.874 74.4694 311.016 74.8854 311.302C75.3013 311.581 75.6211 311.975 75.8446 312.484C76.0681 312.987 76.1798 313.574 76.1798 314.244C76.1798 314.914 76.0681 315.504 75.8446 316.013C75.6211 316.516 75.3013 316.91 74.8854 317.195C74.4694 317.475 73.9728 317.614 73.3954 317.614ZM73.3954 316.925C73.7741 316.925 74.1125 316.82 74.4105 316.609C74.7147 316.391 74.9506 316.084 75.1182 315.687C75.292 315.284 75.3789 314.802 75.3789 314.244C75.3789 313.685 75.292 313.207 75.1182 312.81C74.9506 312.413 74.7147 312.109 74.4105 311.898C74.1125 311.68 73.7741 311.572 73.3954 311.572C73.0105 311.572 72.669 311.68 72.371 311.898C72.0731 312.109 71.8371 312.413 71.6633 312.81C71.4895 313.207 71.4026 313.685 71.4026 314.244C71.4026 314.802 71.4895 315.284 71.6633 315.687C71.8371 316.084 72.0731 316.391 72.371 316.609C72.669 316.82 73.0105 316.925 73.3954 316.925ZM79.3647 317.503L81.7673 310.985H82.5961L84.9894 317.503H84.1606L83.5646 315.827H80.7895L80.1842 317.503H79.3647ZM81.0223 315.194H83.3318L82.1771 311.972L81.0223 315.194ZM85.9584 317.503V310.985H86.871L89.2178 315.529L91.5459 310.985H92.4678V317.503H91.6855V312.382L89.5064 316.571H88.9198L86.7407 312.391V317.503H85.9584Z" fill="#68718B"/>
<path d="M372.601 317.614C372.023 317.614 371.523 317.475 371.101 317.195C370.685 316.91 370.366 316.516 370.142 316.013C369.919 315.504 369.807 314.914 369.807 314.244C369.807 313.574 369.919 312.987 370.142 312.484C370.366 311.975 370.685 311.581 371.101 311.302C371.523 311.016 372.023 310.874 372.601 310.874C373.178 310.874 373.675 311.016 374.091 311.302C374.507 311.581 374.826 311.975 375.05 312.484C375.273 312.987 375.385 313.574 375.385 314.244C375.385 314.914 375.273 315.504 375.05 316.013C374.826 316.516 374.507 316.91 374.091 317.195C373.675 317.475 373.178 317.614 372.601 317.614ZM372.601 316.925C372.979 316.925 373.318 316.82 373.616 316.609C373.92 316.391 374.156 316.084 374.323 315.687C374.497 315.284 374.584 314.802 374.584 314.244C374.584 313.685 374.497 313.207 374.323 312.81C374.156 312.413 373.92 312.109 373.616 311.898C373.318 311.68 372.979 311.572 372.601 311.572C372.216 311.572 371.874 311.68 371.576 311.898C371.278 312.109 371.042 312.413 370.869 312.81C370.695 313.207 370.608 313.685 370.608 314.244C370.608 314.802 370.695 315.284 370.869 315.687C371.042 316.084 371.278 316.391 371.576 316.609C371.874 316.82 372.216 316.925 372.601 316.925ZM376.322 317.503V316.953C376.763 316.606 377.179 316.255 377.57 315.901C377.968 315.541 378.318 315.187 378.623 314.84C378.933 314.492 379.175 314.151 379.349 313.816C379.529 313.48 379.619 313.158 379.619 312.847C379.619 312.618 379.579 312.404 379.498 312.205C379.423 312.006 379.299 311.848 379.125 311.73C378.952 311.606 378.716 311.544 378.418 311.544C378.132 311.544 377.893 311.609 377.701 311.739C377.508 311.864 377.362 312.031 377.263 312.242C377.17 312.453 377.123 312.68 377.123 312.922H376.369C376.369 312.494 376.459 312.127 376.639 311.823C376.819 311.513 377.064 311.277 377.375 311.116C377.685 310.954 378.036 310.874 378.427 310.874C379.004 310.874 379.476 311.038 379.843 311.367C380.215 311.69 380.401 312.174 380.401 312.819C380.401 313.204 380.305 313.586 380.113 313.965C379.92 314.337 379.675 314.7 379.377 315.054C379.079 315.401 378.759 315.727 378.418 316.031C378.082 316.336 377.769 316.609 377.477 316.851H380.625V317.503H376.322ZM381.977 317.549C381.822 317.549 381.692 317.499 381.586 317.4C381.487 317.295 381.437 317.167 381.437 317.018C381.437 316.869 381.487 316.745 381.586 316.646C381.692 316.54 381.822 316.488 381.977 316.488C382.126 316.488 382.251 316.54 382.35 316.646C382.455 316.745 382.508 316.869 382.508 317.018C382.508 317.167 382.455 317.295 382.35 317.4C382.251 317.499 382.126 317.549 381.977 317.549ZM381.977 313.834C381.822 313.834 381.692 313.785 381.586 313.685C381.487 313.58 381.437 313.453 381.437 313.304C381.437 313.155 381.487 313.03 381.586 312.931C381.692 312.826 381.822 312.773 381.977 312.773C382.126 312.773 382.251 312.826 382.35 312.931C382.455 313.03 382.508 313.155 382.508 313.304C382.508 313.453 382.455 313.58 382.35 313.685C382.251 313.785 382.126 313.834 381.977 313.834ZM385.639 317.614C385.223 317.614 384.847 317.54 384.512 317.391C384.177 317.236 383.907 317.006 383.702 316.702C383.503 316.398 383.398 316.019 383.385 315.566H384.177C384.183 315.938 384.313 316.261 384.568 316.534C384.822 316.801 385.179 316.935 385.639 316.935C386.098 316.935 386.443 316.807 386.672 316.553C386.908 316.298 387.026 315.991 387.026 315.631C387.026 315.327 386.952 315.079 386.803 314.886C386.66 314.694 386.464 314.551 386.216 314.458C385.974 314.365 385.707 314.318 385.415 314.318H384.931V313.657H385.415C385.837 313.657 386.166 313.561 386.402 313.369C386.644 313.176 386.765 312.906 386.765 312.559C386.765 312.267 386.669 312.028 386.477 311.842C386.291 311.649 386.011 311.553 385.639 311.553C385.279 311.553 384.99 311.662 384.773 311.879C384.555 312.09 384.434 312.357 384.409 312.68H383.618C383.637 312.326 383.73 312.012 383.897 311.739C384.071 311.466 384.307 311.255 384.605 311.106C384.903 310.951 385.248 310.874 385.639 310.874C386.061 310.874 386.412 310.948 386.691 311.097C386.977 311.246 387.191 311.445 387.334 311.693C387.483 311.941 387.557 312.214 387.557 312.512C387.557 312.841 387.467 313.142 387.287 313.415C387.107 313.682 386.837 313.862 386.477 313.955C386.862 314.036 387.181 314.219 387.436 314.505C387.691 314.79 387.818 315.166 387.818 315.631C387.818 315.991 387.734 316.323 387.566 316.627C387.405 316.925 387.163 317.164 386.84 317.344C386.517 317.524 386.117 317.614 385.639 317.614ZM391.626 317.614C391.048 317.614 390.549 317.475 390.127 317.195C389.711 316.91 389.391 316.516 389.167 316.013C388.944 315.504 388.832 314.914 388.832 314.244C388.832 313.574 388.944 312.987 389.167 312.484C389.391 311.975 389.711 311.581 390.127 311.302C390.549 311.016 391.048 310.874 391.626 310.874C392.203 310.874 392.7 311.016 393.116 311.302C393.532 311.581 393.851 311.975 394.075 312.484C394.298 312.987 394.41 313.574 394.41 314.244C394.41 314.914 394.298 315.504 394.075 316.013C393.851 316.516 393.532 316.91 393.116 317.195C392.7 317.475 392.203 317.614 391.626 317.614ZM391.626 316.925C392.004 316.925 392.343 316.82 392.641 316.609C392.945 316.391 393.181 316.084 393.349 315.687C393.522 315.284 393.609 314.802 393.609 314.244C393.609 313.685 393.522 313.207 393.349 312.81C393.181 312.413 392.945 312.109 392.641 311.898C392.343 311.68 392.004 311.572 391.626 311.572C391.241 311.572 390.899 311.68 390.601 311.898C390.303 312.109 390.068 312.413 389.894 312.81C389.72 313.207 389.633 313.685 389.633 314.244C389.633 314.802 389.72 315.284 389.894 315.687C390.068 316.084 390.303 316.391 390.601 316.609C390.899 316.82 391.241 316.925 391.626 316.925ZM398.005 317.503V310.985H400.147C400.656 310.985 401.075 311.069 401.404 311.237C401.733 311.404 401.975 311.631 402.13 311.916C402.292 312.202 402.372 312.525 402.372 312.885C402.372 313.238 402.295 313.558 402.139 313.844C401.984 314.129 401.742 314.359 401.413 314.533C401.084 314.7 400.662 314.784 400.147 314.784H398.787V317.503H398.005ZM398.787 314.123H400.128C400.649 314.123 401.019 314.014 401.236 313.797C401.46 313.574 401.571 313.269 401.571 312.885C401.571 312.494 401.46 312.189 401.236 311.972C401.019 311.749 400.649 311.637 400.128 311.637H398.787V314.123ZM403.397 317.503V310.985H404.31L406.657 315.529L408.985 310.985H409.907V317.503H409.125V312.382L406.945 316.571H406.359L404.18 312.391V317.503H403.397Z" fill="#68718B"/>
<path d="M293.108 317.614C292.53 317.614 292.031 317.475 291.609 317.195C291.193 316.91 290.873 316.516 290.649 316.013C290.426 315.504 290.314 314.914 290.314 314.244C290.314 313.574 290.426 312.987 290.649 312.484C290.873 311.975 291.193 311.581 291.609 311.302C292.031 311.016 292.53 310.874 293.108 310.874C293.685 310.874 294.182 311.016 294.598 311.302C295.014 311.581 295.333 311.975 295.557 312.484C295.78 312.987 295.892 313.574 295.892 314.244C295.892 314.914 295.78 315.504 295.557 316.013C295.333 316.516 295.014 316.91 294.598 317.195C294.182 317.475 293.685 317.614 293.108 317.614ZM293.108 316.925C293.487 316.925 293.825 316.82 294.123 316.609C294.427 316.391 294.663 316.084 294.831 315.687C295.004 315.284 295.091 314.802 295.091 314.244C295.091 313.685 295.004 313.207 294.831 312.81C294.663 312.413 294.427 312.109 294.123 311.898C293.825 311.68 293.487 311.572 293.108 311.572C292.723 311.572 292.381 311.68 292.083 311.898C291.785 312.109 291.55 312.413 291.376 312.81C291.202 313.207 291.115 313.685 291.115 314.244C291.115 314.802 291.202 315.284 291.376 315.687C291.55 316.084 291.785 316.391 292.083 316.609C292.381 316.82 292.723 316.925 293.108 316.925ZM297.665 317.503V311.86L296.612 312.093V311.553L297.925 310.985H298.456V317.503H297.665ZM300.056 317.549C299.9 317.549 299.77 317.499 299.665 317.4C299.565 317.295 299.516 317.167 299.516 317.018C299.516 316.869 299.565 316.745 299.665 316.646C299.77 316.54 299.9 316.488 300.056 316.488C300.205 316.488 300.329 316.54 300.428 316.646C300.534 316.745 300.586 316.869 300.586 317.018C300.586 317.167 300.534 317.295 300.428 317.4C300.329 317.499 300.205 317.549 300.056 317.549ZM300.056 313.834C299.9 313.834 299.77 313.785 299.665 313.685C299.565 313.58 299.516 313.453 299.516 313.304C299.516 313.155 299.565 313.03 299.665 312.931C299.77 312.826 299.9 312.773 300.056 312.773C300.205 312.773 300.329 312.826 300.428 312.931C300.534 313.03 300.586 313.155 300.586 313.304C300.586 313.453 300.534 313.58 300.428 313.685C300.329 313.785 300.205 313.834 300.056 313.834ZM303.718 317.614C303.302 317.614 302.926 317.54 302.591 317.391C302.256 317.236 301.986 317.006 301.781 316.702C301.582 316.398 301.477 316.019 301.464 315.566H302.256C302.262 315.938 302.392 316.261 302.647 316.534C302.901 316.801 303.258 316.935 303.718 316.935C304.177 316.935 304.522 316.807 304.751 316.553C304.987 316.298 305.105 315.991 305.105 315.631C305.105 315.327 305.031 315.079 304.882 314.886C304.739 314.694 304.543 314.551 304.295 314.458C304.053 314.365 303.786 314.318 303.494 314.318H303.01V313.657H303.494C303.916 313.657 304.245 313.561 304.481 313.369C304.723 313.176 304.845 312.906 304.845 312.559C304.845 312.267 304.748 312.028 304.556 311.842C304.37 311.649 304.09 311.553 303.718 311.553C303.358 311.553 303.069 311.662 302.852 311.879C302.634 312.09 302.513 312.357 302.489 312.68H301.697C301.716 312.326 301.809 312.012 301.976 311.739C302.15 311.466 302.386 311.255 302.684 311.106C302.982 310.951 303.327 310.874 303.718 310.874C304.14 310.874 304.491 310.948 304.77 311.097C305.056 311.246 305.27 311.445 305.413 311.693C305.562 311.941 305.636 312.214 305.636 312.512C305.636 312.841 305.546 313.142 305.366 313.415C305.186 313.682 304.916 313.862 304.556 313.955C304.941 314.036 305.26 314.219 305.515 314.505C305.77 314.79 305.897 315.166 305.897 315.631C305.897 315.991 305.813 316.323 305.645 316.627C305.484 316.925 305.242 317.164 304.919 317.344C304.596 317.524 304.196 317.614 303.718 317.614ZM309.705 317.614C309.127 317.614 308.628 317.475 308.206 317.195C307.79 316.91 307.47 316.516 307.246 316.013C307.023 315.504 306.911 314.914 306.911 314.244C306.911 313.574 307.023 312.987 307.246 312.484C307.47 311.975 307.79 311.581 308.206 311.302C308.628 311.016 309.127 310.874 309.705 310.874C310.282 310.874 310.779 311.016 311.195 311.302C311.611 311.581 311.93 311.975 312.154 312.484C312.377 312.987 312.489 313.574 312.489 314.244C312.489 314.914 312.377 315.504 312.154 316.013C311.93 316.516 311.611 316.91 311.195 317.195C310.779 317.475 310.282 317.614 309.705 317.614ZM309.705 316.925C310.084 316.925 310.422 316.82 310.72 316.609C311.024 316.391 311.26 316.084 311.428 315.687C311.601 315.284 311.688 314.802 311.688 314.244C311.688 313.685 311.601 313.207 311.428 312.81C311.26 312.413 311.024 312.109 310.72 311.898C310.422 311.68 310.084 311.572 309.705 311.572C309.32 311.572 308.978 311.68 308.68 311.898C308.382 312.109 308.147 312.413 307.973 312.81C307.799 313.207 307.712 313.685 307.712 314.244C307.712 314.802 307.799 315.284 307.973 315.687C308.147 316.084 308.382 316.391 308.68 316.609C308.978 316.82 309.32 316.925 309.705 316.925ZM316.084 317.503V310.985H318.226C318.735 310.985 319.154 311.069 319.483 311.237C319.812 311.404 320.054 311.631 320.209 311.916C320.371 312.202 320.451 312.525 320.451 312.885C320.451 313.238 320.374 313.558 320.218 313.844C320.063 314.129 319.821 314.359 319.492 314.533C319.163 314.7 318.741 314.784 318.226 314.784H316.866V317.503H316.084ZM316.866 314.123H318.207C318.729 314.123 319.098 314.014 319.315 313.797C319.539 313.574 319.65 313.269 319.65 312.885C319.65 312.494 319.539 312.189 319.315 311.972C319.098 311.749 318.729 311.637 318.207 311.637H316.866V314.123ZM321.476 317.503V310.985H322.389L324.736 315.529L327.064 310.985H327.986V317.503H327.204V312.382L325.024 316.571H324.438L322.259 312.391V317.503H321.476Z" fill="#68718B"/>
<path d="M212.221 317.503V311.86L211.169 312.093V311.553L212.482 310.985H213.013V317.503H212.221ZM214.286 317.503V316.953C214.727 316.606 215.143 316.255 215.534 315.901C215.932 315.541 216.282 315.187 216.586 314.84C216.897 314.492 217.139 314.151 217.313 313.816C217.493 313.48 217.583 313.158 217.583 312.847C217.583 312.618 217.543 312.404 217.462 312.205C217.387 312.006 217.263 311.848 217.089 311.73C216.916 311.606 216.68 311.544 216.382 311.544C216.096 311.544 215.857 311.609 215.665 311.739C215.472 311.864 215.326 312.031 215.227 312.242C215.134 312.453 215.087 312.68 215.087 312.922H214.333C214.333 312.494 214.423 312.127 214.603 311.823C214.783 311.513 215.028 311.277 215.339 311.116C215.649 310.954 216 310.874 216.391 310.874C216.968 310.874 217.44 311.038 217.806 311.367C218.179 311.69 218.365 312.174 218.365 312.819C218.365 313.204 218.269 313.586 218.076 313.965C217.884 314.337 217.639 314.7 217.341 315.054C217.043 315.401 216.723 315.727 216.382 316.031C216.046 316.336 215.733 316.609 215.441 316.851H218.589V317.503H214.286ZM219.941 317.549C219.786 317.549 219.656 317.499 219.55 317.4C219.451 317.295 219.401 317.167 219.401 317.018C219.401 316.869 219.451 316.745 219.55 316.646C219.656 316.54 219.786 316.488 219.941 316.488C220.09 316.488 220.214 316.54 220.314 316.646C220.419 316.745 220.472 316.869 220.472 317.018C220.472 317.167 220.419 317.295 220.314 317.4C220.214 317.499 220.09 317.549 219.941 317.549ZM219.941 313.834C219.786 313.834 219.656 313.785 219.55 313.685C219.451 313.58 219.401 313.453 219.401 313.304C219.401 313.155 219.451 313.03 219.55 312.931C219.656 312.826 219.786 312.773 219.941 312.773C220.09 312.773 220.214 312.826 220.314 312.931C220.419 313.03 220.472 313.155 220.472 313.304C220.472 313.453 220.419 313.58 220.314 313.685C220.214 313.785 220.09 313.834 219.941 313.834ZM223.603 317.614C223.187 317.614 222.812 317.54 222.477 317.391C222.141 317.236 221.871 317.006 221.666 316.702C221.468 316.398 221.362 316.019 221.35 315.566H222.141C222.148 315.938 222.278 316.261 222.532 316.534C222.787 316.801 223.144 316.935 223.603 316.935C224.063 316.935 224.407 316.807 224.637 316.553C224.873 316.298 224.991 315.991 224.991 315.631C224.991 315.327 224.916 315.079 224.767 314.886C224.625 314.694 224.429 314.551 224.181 314.458C223.939 314.365 223.672 314.318 223.38 314.318H222.896V313.657H223.38C223.802 313.657 224.131 313.561 224.367 313.369C224.609 313.176 224.73 312.906 224.73 312.559C224.73 312.267 224.634 312.028 224.441 311.842C224.255 311.649 223.976 311.553 223.603 311.553C223.243 311.553 222.955 311.662 222.737 311.879C222.52 312.09 222.399 312.357 222.374 312.68H221.583C221.601 312.326 221.694 312.012 221.862 311.739C222.036 311.466 222.272 311.255 222.57 311.106C222.868 310.951 223.212 310.874 223.603 310.874C224.026 310.874 224.376 310.948 224.656 311.097C224.941 311.246 225.155 311.445 225.298 311.693C225.447 311.941 225.522 312.214 225.522 312.512C225.522 312.841 225.432 313.142 225.252 313.415C225.072 313.682 224.802 313.862 224.441 313.955C224.826 314.036 225.146 314.219 225.401 314.505C225.655 314.79 225.782 315.166 225.782 315.631C225.782 315.991 225.699 316.323 225.531 316.627C225.37 316.925 225.127 317.164 224.805 317.344C224.482 317.524 224.081 317.614 223.603 317.614ZM229.59 317.614C229.012 317.614 228.513 317.475 228.09 317.195C227.674 316.91 227.355 316.516 227.131 316.013C226.908 315.504 226.796 314.914 226.796 314.244C226.796 313.574 226.908 312.987 227.131 312.484C227.355 311.975 227.674 311.581 228.09 311.302C228.513 311.016 229.012 310.874 229.59 310.874C230.167 310.874 230.664 311.016 231.08 311.302C231.496 311.581 231.815 311.975 232.039 312.484C232.262 312.987 232.374 313.574 232.374 314.244C232.374 314.914 232.262 315.504 232.039 316.013C231.815 316.516 231.496 316.91 231.08 317.195C230.664 317.475 230.167 317.614 229.59 317.614ZM229.59 316.925C229.968 316.925 230.307 316.82 230.605 316.609C230.909 316.391 231.145 316.084 231.312 315.687C231.486 315.284 231.573 314.802 231.573 314.244C231.573 313.685 231.486 313.207 231.312 312.81C231.145 312.413 230.909 312.109 230.605 311.898C230.307 311.68 229.968 311.572 229.59 311.572C229.205 311.572 228.863 311.68 228.565 311.898C228.267 312.109 228.031 312.413 227.858 312.81C227.684 313.207 227.597 313.685 227.597 314.244C227.597 314.802 227.684 315.284 227.858 315.687C228.031 316.084 228.267 316.391 228.565 316.609C228.863 316.82 229.205 316.925 229.59 316.925ZM235.559 317.503L237.961 310.985H238.79L241.184 317.503H240.355L239.759 315.827H236.984L236.378 317.503H235.559ZM237.217 315.194H239.526L238.371 311.972L237.217 315.194ZM242.153 317.503V310.985H243.065L245.412 315.529L247.74 310.985H248.662V317.503H247.88V312.382L245.701 316.571H245.114L242.935 312.391V317.503H242.153Z" fill="#68718B"/>
<path d="M139.37 317.503V311.86L138.318 312.093V311.553L139.631 310.985H140.161V317.503H139.37ZM142.18 317.503V311.86L141.128 312.093V311.553L142.441 310.985H142.971V317.503H142.18ZM144.571 317.549C144.416 317.549 144.285 317.499 144.18 317.4C144.08 317.295 144.031 317.167 144.031 317.018C144.031 316.869 144.08 316.745 144.18 316.646C144.285 316.54 144.416 316.488 144.571 316.488C144.72 316.488 144.844 316.54 144.943 316.646C145.049 316.745 145.102 316.869 145.102 317.018C145.102 317.167 145.049 317.295 144.943 317.4C144.844 317.499 144.72 317.549 144.571 317.549ZM144.571 313.834C144.416 313.834 144.285 313.785 144.18 313.685C144.08 313.58 144.031 313.453 144.031 313.304C144.031 313.155 144.08 313.03 144.18 312.931C144.285 312.826 144.416 312.773 144.571 312.773C144.72 312.773 144.844 312.826 144.943 312.931C145.049 313.03 145.102 313.155 145.102 313.304C145.102 313.453 145.049 313.58 144.943 313.685C144.844 313.785 144.72 313.834 144.571 313.834ZM148.233 317.614C147.817 317.614 147.441 317.54 147.106 317.391C146.771 317.236 146.501 317.006 146.296 316.702C146.097 316.398 145.992 316.019 145.979 315.566H146.771C146.777 315.938 146.907 316.261 147.162 316.534C147.416 316.801 147.773 316.935 148.233 316.935C148.692 316.935 149.037 316.807 149.267 316.553C149.502 316.298 149.62 315.991 149.62 315.631C149.62 315.327 149.546 315.079 149.397 314.886C149.254 314.694 149.059 314.551 148.81 314.458C148.568 314.365 148.301 314.318 148.009 314.318H147.525V313.657H148.009C148.432 313.657 148.761 313.561 148.996 313.369C149.239 313.176 149.36 312.906 149.36 312.559C149.36 312.267 149.263 312.028 149.071 311.842C148.885 311.649 148.605 311.553 148.233 311.553C147.873 311.553 147.584 311.662 147.367 311.879C147.15 312.09 147.028 312.357 147.004 312.68H146.212C146.231 312.326 146.324 312.012 146.491 311.739C146.665 311.466 146.901 311.255 147.199 311.106C147.497 310.951 147.842 310.874 148.233 310.874C148.655 310.874 149.006 310.948 149.285 311.097C149.571 311.246 149.785 311.445 149.928 311.693C150.077 311.941 150.151 312.214 150.151 312.512C150.151 312.841 150.061 313.142 149.881 313.415C149.701 313.682 149.431 313.862 149.071 313.955C149.456 314.036 149.776 314.219 150.03 314.505C150.285 314.79 150.412 315.166 150.412 315.631C150.412 315.991 150.328 316.323 150.161 316.627C149.999 316.925 149.757 317.164 149.434 317.344C149.111 317.524 148.711 317.614 148.233 317.614ZM154.219 317.614C153.642 317.614 153.142 317.475 152.72 317.195C152.304 316.91 151.984 316.516 151.761 316.013C151.537 315.504 151.425 314.914 151.425 314.244C151.425 313.574 151.537 312.987 151.761 312.484C151.984 311.975 152.304 311.581 152.72 311.302C153.142 311.016 153.642 310.874 154.219 310.874C154.797 310.874 155.293 311.016 155.709 311.302C156.125 311.581 156.445 311.975 156.668 312.484C156.892 312.987 157.004 313.574 157.004 314.244C157.004 314.914 156.892 315.504 156.668 316.013C156.445 316.516 156.125 316.91 155.709 317.195C155.293 317.475 154.797 317.614 154.219 317.614ZM154.219 316.925C154.598 316.925 154.936 316.82 155.234 316.609C155.538 316.391 155.774 316.084 155.942 315.687C156.116 315.284 156.203 314.802 156.203 314.244C156.203 313.685 156.116 313.207 155.942 312.81C155.774 312.413 155.538 312.109 155.234 311.898C154.936 311.68 154.598 311.572 154.219 311.572C153.834 311.572 153.493 311.68 153.195 311.898C152.897 312.109 152.661 312.413 152.487 312.81C152.313 313.207 152.226 313.685 152.226 314.244C152.226 314.802 152.313 315.284 152.487 315.687C152.661 316.084 152.897 316.391 153.195 316.609C153.493 316.82 153.834 316.925 154.219 316.925ZM160.188 317.503L162.591 310.985H163.42L165.813 317.503H164.984L164.388 315.827H161.613L161.008 317.503H160.188ZM161.846 315.194H164.155L163.001 311.972L161.846 315.194ZM166.782 317.503V310.985H167.695L170.042 315.529L172.37 310.985H173.292V317.503H172.509V312.382L170.33 316.571H169.744L167.565 312.391V317.503H166.782Z" fill="#68718B"/>
<path d="M82.6729 48.2783H60.9441C56.6582 48.2783 53.1837 51.752 53.1837 56.0369V77.7611C53.1837 82.0461 56.6582 85.5197 60.9441 85.5197H82.6729C86.9588 85.5197 90.4333 82.0461 90.4333 77.7611V56.0369C90.4333 51.752 86.9588 48.2783 82.6729 48.2783Z" fill="#006EEA"/>
<path fill-rule="evenodd" clip-rule="evenodd" d="M76.9821 58.1059C76.9821 57.8204 76.7493 57.5886 76.4647 57.5886H73.8779C71.0201 57.5886 68.7044 59.6731 68.7044 62.2438V65.0369H66.1176C65.832 65.0369 65.6003 65.2687 65.6003 65.5542V68.2438C65.6003 68.5293 65.832 68.761 66.1176 68.761H68.7044V75.692C68.7044 75.9776 68.9362 76.2093 69.2218 76.2093H72.3259C72.6104 76.2093 72.8432 75.9776 72.8432 75.692V68.761H75.5531C75.7859 68.761 75.9898 68.6059 76.0528 68.3824L76.7989 65.6927C76.891 65.3638 76.6426 65.0369 76.3012 65.0369H72.8432V62.2438C72.8432 61.7296 73.3057 61.3128 73.8779 61.3128H76.4647C76.7493 61.3128 76.9821 61.081 76.9821 60.7955V58.1059Z" fill="#03133D"/>
<mask id="mask0_130_580" style="mask-type:alpha" maskUnits="userSpaceOnUse" x="65" y="57" width="12" height="20">
<path fill-rule="evenodd" clip-rule="evenodd" d="M76.9821 58.1059C76.9821 57.8204 76.7493 57.5886 76.4647 57.5886H73.8779C71.0201 57.5886 68.7044 59.6731 68.7044 62.2438V65.0369H66.1176C65.832 65.0369 65.6003 65.2687 65.6003 65.5542V68.2438C65.6003 68.5293 65.832 68.761 66.1176 68.761H68.7044V75.692C68.7044 75.9776 68.9362 76.2093 69.2218 76.2093H72.3259C72.6104 76.2093 72.8432 75.9776 72.8432 75.692V68.761H75.5531C75.7859 68.761 75.9898 68.6059 76.0528 68.3824L76.7989 65.6927C76.891 65.3638 76.6426 65.0369 76.3012 65.0369H72.8432V62.2438C72.8432 61.7296 73.3057 61.3128 73.8779 61.3128H76.4647C76.7493 61.3128 76.9821 61.081 76.9821 60.7955V58.1059Z" fill="white"/>
</mask>
<g mask="url(#mask0_130_580)">
<path d="M84.225 54.4851H59.392V79.3127H84.225V54.4851Z" fill="white"/>
</g>
<path d="M166.484 121.209H144.755C140.47 121.209 136.995 124.683 136.995 128.968V150.692C136.995 154.977 140.47 158.451 144.755 158.451H166.484C170.77 158.451 174.245 154.977 174.245 150.692V128.968C174.245 124.683 170.77 121.209 166.484 121.209Z" fill="#0298EB"/>
<path fill-rule="evenodd" clip-rule="evenodd" d="M151.56 148.106C159.058 148.106 163.396 142.286 163.396 136.763C163.396 136.611 164.461 135.696 164.918 133.79C165.011 133.403 164.634 133.098 164.28 133.26C163.369 133.678 162.445 133.347 162.043 132.871C160.5 131.189 157.918 131.108 156.276 132.691C155.217 133.712 154.769 135.232 155.096 136.683C151.629 136.931 149.248 135.288 147.291 133.036C147.038 132.743 146.569 132.897 146.516 133.284C146.227 135.438 146.136 140.674 151.326 143.681C150.424 144.977 148.66 145.741 146.696 146.07C146.262 146.143 146.159 146.745 146.556 146.939C148.112 147.705 149.822 148.105 151.56 148.103" fill="#03133D"/>
<mask id="mask1_130_580" style="mask-type:alpha" maskUnits="userSpaceOnUse" x="146" y="131" width="19" height="18">
<path fill-rule="evenodd" clip-rule="evenodd" d="M151.56 148.106C159.058 148.106 163.396 142.286 163.396 136.763C163.396 136.611 164.461 135.696 164.918 133.79C165.011 133.403 164.634 133.098 164.28 133.26C163.369 133.678 162.445 133.347 162.043 132.871C160.5 131.189 157.918 131.108 156.276 132.691C155.217 133.712 154.769 135.232 155.096 136.683C151.629 136.931 149.248 135.288 147.291 133.036C147.038 132.743 146.569 132.897 146.516 133.284C146.227 135.438 146.136 140.674 151.326 143.681C150.424 144.977 148.66 145.741 146.696 146.07C146.262 146.143 146.159 146.745 146.556 146.939C148.112 147.705 149.822 148.105 151.56 148.103" fill="white"/>
</mask>
<g mask="url(#mask1_130_580)">
<path d="M168.036 127.416H143.203V152.244H168.036V127.416Z" fill="white"/>
</g>
<path d="M384.549 18.0198H249.52C245.234 18.0198 241.759 21.4934 241.759 25.7784V169.313C241.759 173.598 245.234 177.072 249.52 177.072H384.549C388.835 177.072 392.309 173.598 392.309 169.313V25.7784C392.309 21.4934 388.835 18.0198 384.549 18.0198Z" fill="url(#paint1_linear_130_580)"/>
<path d="M285.102 83.5112C280.375 87.7665 276.571 92.9451 273.923 98.7272C271.275 104.51 269.84 110.773 269.707 117.131C269.574 123.489 270.745 129.807 273.148 135.695C275.552 141.583 279.136 146.916 283.681 151.366L290.196 144.714C286.56 141.154 283.693 136.888 281.77 132.177C279.848 127.467 278.91 122.413 279.017 117.326C279.124 112.24 280.271 107.229 282.39 102.603C284.508 97.9769 287.552 93.8344 291.334 90.4301L285.102 83.5112Z" fill="#A5BF5C"/>
<path d="M281.656 149.255C288.236 156.561 296.959 161.596 306.577 163.641C316.196 165.684 326.214 164.631 335.197 160.633C344.18 156.634 351.666 149.895 356.583 141.382C361.499 132.868 363.593 123.017 362.565 113.24L353.304 114.213C354.126 122.035 352.451 129.915 348.517 136.727C344.584 143.538 338.596 148.929 331.409 152.128C324.223 155.326 316.208 156.169 308.514 154.533C300.819 152.899 293.84 148.87 288.577 143.025L281.656 149.255Z" fill="#FFC000"/>
<path d="M365.924 118.106C365.924 108.153 362.932 98.4287 357.336 90.1958C351.74 81.9632 343.798 75.6022 334.542 71.9379C325.285 68.2737 315.14 67.4755 305.424 69.6468C295.708 71.8182 286.869 76.8588 280.053 84.1148L290.915 94.3122C295.686 89.233 301.873 85.7046 308.674 84.1846C315.475 82.6647 322.577 83.2234 329.057 85.7884C335.537 88.3534 341.095 92.8061 345.013 98.5691C348.93 104.331 351.025 111.138 351.025 118.106H365.924Z" fill="white"/>
<path d="M293.026 110.347V102.744H297.655V103.493H293.939V106.165H297.101V106.904H293.939V110.347H293.026ZM300.197 110.478C299.748 110.478 299.375 110.402 299.078 110.25C298.781 110.097 298.56 109.895 298.415 109.641C298.271 109.388 298.198 109.113 298.198 108.816C298.198 108.266 298.408 107.842 298.828 107.545C299.249 107.248 299.821 107.1 300.545 107.1H302V107.034C302 106.563 301.878 106.209 301.631 105.97C301.385 105.724 301.055 105.601 300.642 105.601C300.288 105.601 299.98 105.691 299.719 105.872C299.466 106.046 299.306 106.303 299.241 106.643H298.306C298.343 106.252 298.473 105.923 298.698 105.655C298.93 105.387 299.216 105.184 299.556 105.047C299.897 104.902 300.259 104.829 300.642 104.829C301.396 104.829 301.961 105.032 302.337 105.438C302.721 105.836 302.913 106.368 302.913 107.034V110.347H302.098L302.044 109.381C301.892 109.685 301.667 109.945 301.37 110.163C301.081 110.373 300.69 110.478 300.197 110.478ZM300.338 109.706C300.686 109.706 300.983 109.616 301.229 109.435C301.483 109.254 301.674 109.018 301.805 108.729C301.935 108.439 302 108.135 302 107.816V107.806H300.621C300.085 107.806 299.705 107.899 299.48 108.088C299.263 108.269 299.154 108.497 299.154 108.772C299.154 109.055 299.256 109.283 299.458 109.457C299.668 109.623 299.962 109.706 300.338 109.706ZM306.76 110.478C306.245 110.478 305.782 110.362 305.369 110.13C304.963 109.891 304.641 109.561 304.402 109.142C304.17 108.714 304.055 108.218 304.055 107.654C304.055 107.089 304.17 106.596 304.402 106.176C304.641 105.749 304.963 105.42 305.369 105.188C305.782 104.949 306.245 104.829 306.76 104.829C307.397 104.829 307.933 104.996 308.368 105.329C308.809 105.662 309.088 106.107 309.204 106.665H308.27C308.197 106.332 308.02 106.075 307.738 105.894C307.455 105.705 307.125 105.611 306.749 105.611C306.445 105.611 306.158 105.687 305.891 105.84C305.622 105.992 305.405 106.22 305.239 106.524C305.072 106.828 304.989 107.204 304.989 107.654C304.989 108.103 305.072 108.479 305.239 108.783C305.405 109.087 305.622 109.319 305.891 109.478C306.158 109.63 306.445 109.706 306.749 109.706C307.125 109.706 307.455 109.616 307.738 109.435C308.02 109.246 308.197 108.983 308.27 108.642H309.204C309.096 109.185 308.82 109.627 308.379 109.967C307.936 110.308 307.397 110.478 306.76 110.478ZM312.901 110.478C312.387 110.478 311.93 110.362 311.532 110.13C311.134 109.891 310.819 109.561 310.587 109.142C310.363 108.722 310.25 108.225 310.25 107.654C310.25 107.089 310.363 106.596 310.587 106.176C310.811 105.749 311.123 105.42 311.521 105.188C311.927 104.949 312.395 104.829 312.923 104.829C313.445 104.829 313.894 104.949 314.27 105.188C314.654 105.42 314.948 105.727 315.15 106.111C315.353 106.495 315.454 106.908 315.454 107.349C315.454 107.429 315.451 107.508 315.444 107.588C315.444 107.668 315.444 107.758 315.444 107.86H311.152C311.174 108.273 311.268 108.616 311.435 108.892C311.608 109.159 311.822 109.363 312.076 109.5C312.336 109.637 312.612 109.706 312.901 109.706C313.278 109.706 313.593 109.62 313.846 109.446C314.1 109.272 314.285 109.037 314.401 108.74H315.302C315.157 109.239 314.879 109.656 314.466 109.989C314.06 110.315 313.538 110.478 312.901 110.478ZM312.901 105.601C312.467 105.601 312.079 105.735 311.739 106.002C311.406 106.263 311.213 106.647 311.163 107.154H314.553C314.531 106.669 314.364 106.289 314.053 106.013C313.742 105.738 313.358 105.601 312.901 105.601ZM319.543 110.478C319.101 110.478 318.707 110.387 318.359 110.206C318.018 110.025 317.758 109.772 317.577 109.446L317.49 110.347H316.664V102.527H317.577V105.85C317.751 105.59 317.997 105.355 318.316 105.144C318.642 104.934 319.054 104.829 319.554 104.829C320.09 104.829 320.557 104.953 320.956 105.199C321.354 105.445 321.662 105.781 321.879 106.209C322.103 106.636 322.216 107.121 322.216 107.664C322.216 108.207 322.103 108.692 321.879 109.12C321.662 109.54 321.35 109.873 320.945 110.119C320.546 110.358 320.079 110.478 319.543 110.478ZM319.446 109.685C319.807 109.685 320.126 109.602 320.402 109.435C320.676 109.261 320.894 109.022 321.053 108.718C321.213 108.414 321.293 108.059 321.293 107.654C321.293 107.248 321.213 106.893 321.053 106.589C320.894 106.285 320.676 106.05 320.402 105.883C320.126 105.709 319.807 105.622 319.446 105.622C319.083 105.622 318.764 105.709 318.489 105.883C318.214 106.05 317.997 106.285 317.838 106.589C317.678 106.893 317.599 107.248 317.599 107.654C317.599 108.059 317.678 108.414 317.838 108.718C317.997 109.022 318.214 109.261 318.489 109.435C318.764 109.602 319.083 109.685 319.446 109.685ZM325.942 110.478C325.434 110.478 324.978 110.362 324.573 110.13C324.167 109.898 323.845 109.572 323.606 109.152C323.374 108.725 323.258 108.225 323.258 107.654C323.258 107.082 323.378 106.585 323.617 106.165C323.856 105.738 324.178 105.409 324.584 105.177C324.997 104.945 325.456 104.829 325.963 104.829C326.47 104.829 326.926 104.945 327.332 105.177C327.737 105.409 328.056 105.738 328.288 106.165C328.527 106.585 328.647 107.082 328.647 107.654C328.647 108.225 328.527 108.725 328.288 109.152C328.049 109.572 327.723 109.898 327.311 110.13C326.905 110.362 326.448 110.478 325.942 110.478ZM325.942 109.696C326.253 109.696 326.542 109.62 326.811 109.467C327.079 109.315 327.296 109.087 327.463 108.783C327.629 108.479 327.713 108.103 327.713 107.654C327.713 107.204 327.629 106.828 327.463 106.524C327.303 106.22 327.089 105.992 326.822 105.84C326.553 105.687 326.268 105.611 325.963 105.611C325.651 105.611 325.362 105.687 325.094 105.84C324.826 105.992 324.608 106.22 324.442 106.524C324.276 106.828 324.193 107.204 324.193 107.654C324.193 108.103 324.276 108.479 324.442 108.783C324.608 109.087 324.823 109.315 325.083 109.467C325.351 109.62 325.638 109.696 325.942 109.696ZM332.371 110.478C331.864 110.478 331.407 110.362 331.002 110.13C330.596 109.898 330.274 109.572 330.035 109.152C329.803 108.725 329.688 108.225 329.688 107.654C329.688 107.082 329.807 106.585 330.046 106.165C330.285 105.738 330.607 105.409 331.013 105.177C331.426 104.945 331.885 104.829 332.393 104.829C332.9 104.829 333.356 104.945 333.762 105.177C334.167 105.409 334.486 105.738 334.718 106.165C334.957 106.585 335.076 107.082 335.076 107.654C335.076 108.225 334.957 108.725 334.718 109.152C334.479 109.572 334.153 109.898 333.74 110.13C333.334 110.362 332.878 110.478 332.371 110.478ZM332.371 109.696C332.682 109.696 332.972 109.62 333.24 109.467C333.508 109.315 333.725 109.087 333.892 108.783C334.058 108.479 334.142 108.103 334.142 107.654C334.142 107.204 334.058 106.828 333.892 106.524C333.732 106.22 333.519 105.992 333.251 105.84C332.983 105.687 332.697 105.611 332.393 105.611C332.081 105.611 331.791 105.687 331.524 105.84C331.255 105.992 331.038 106.22 330.872 106.524C330.705 106.828 330.622 107.204 330.622 107.654C330.622 108.103 330.705 108.479 330.872 108.783C331.038 109.087 331.252 109.315 331.513 109.467C331.781 109.62 332.067 109.696 332.371 109.696ZM336.345 110.347V102.527H337.258V107.23L339.463 104.96H340.582L338.192 107.393L340.887 110.347H339.724L337.258 107.556V110.347H336.345Z" fill="white"/>
<path d="M303.248 133.847C302.391 133.847 301.615 133.698 300.92 133.4C300.225 133.089 299.666 132.618 299.244 131.985C298.822 131.351 298.598 130.557 298.573 129.601H300.92C300.933 130.234 301.137 130.768 301.535 131.202C301.945 131.625 302.516 131.836 303.248 131.836C303.944 131.836 304.477 131.643 304.85 131.258C305.222 130.874 305.409 130.389 305.409 129.806C305.409 129.123 305.16 128.608 304.664 128.26C304.179 127.9 303.552 127.72 302.783 127.72H301.814V125.765H302.801C303.434 125.765 303.962 125.616 304.384 125.318C304.807 125.02 305.018 124.58 305.018 123.996C305.018 123.512 304.856 123.127 304.533 122.842C304.223 122.544 303.788 122.395 303.23 122.395C302.621 122.395 302.143 122.575 301.796 122.935C301.46 123.295 301.274 123.736 301.237 124.257H298.909C298.958 123.053 299.374 122.103 300.157 121.408C300.951 120.713 301.976 120.365 303.23 120.365C304.124 120.365 304.875 120.527 305.483 120.849C306.104 121.16 306.57 121.576 306.88 122.097C307.203 122.618 307.364 123.196 307.364 123.829C307.364 124.561 307.159 125.182 306.75 125.691C306.352 126.187 305.856 126.522 305.26 126.696C305.992 126.845 306.588 127.205 307.048 127.776C307.507 128.335 307.737 129.042 307.737 129.899C307.737 130.619 307.563 131.277 307.215 131.873C306.868 132.469 306.359 132.947 305.688 133.307C305.03 133.667 304.217 133.847 303.248 133.847ZM314.418 133.847C313.437 133.847 312.611 133.667 311.941 133.307C311.27 132.947 310.73 132.462 310.32 131.854C309.91 131.246 309.612 130.569 309.426 129.825C309.252 129.08 309.165 128.316 309.165 127.534C309.165 126.082 309.37 124.822 309.78 123.754C310.19 122.674 310.78 121.842 311.549 121.259C312.319 120.663 313.251 120.365 314.343 120.365C315.237 120.365 315.995 120.545 316.615 120.905C317.249 121.253 317.739 121.712 318.087 122.283C318.434 122.854 318.639 123.469 318.701 124.127H316.485C316.373 123.556 316.131 123.115 315.759 122.805C315.386 122.494 314.908 122.339 314.325 122.339C313.493 122.339 312.822 122.724 312.313 123.494C311.804 124.251 311.531 125.411 311.494 126.976C311.792 126.467 312.239 126.045 312.835 125.709C313.431 125.374 314.095 125.207 314.827 125.207C315.548 125.207 316.224 125.38 316.858 125.728C317.491 126.076 318 126.566 318.385 127.199C318.782 127.832 318.981 128.577 318.981 129.434C318.981 130.216 318.788 130.942 318.403 131.612C318.031 132.282 317.497 132.822 316.802 133.232C316.119 133.642 315.324 133.847 314.418 133.847ZM314.287 131.798C314.983 131.798 315.554 131.587 316.001 131.165C316.46 130.731 316.69 130.185 316.69 129.527C316.69 128.831 316.46 128.273 316.001 127.851C315.541 127.429 314.958 127.218 314.25 127.218C313.791 127.218 313.375 127.323 313.002 127.534C312.642 127.733 312.357 128.006 312.145 128.354C311.934 128.689 311.829 129.067 311.829 129.489C311.829 130.16 312.059 130.712 312.518 131.147C312.99 131.581 313.58 131.798 314.287 131.798ZM323.283 126.994C322.687 126.994 322.147 126.864 321.663 126.603C321.178 126.33 320.794 125.945 320.508 125.449C320.222 124.952 320.08 124.362 320.08 123.68C320.08 122.997 320.222 122.407 320.508 121.911C320.794 121.414 321.178 121.036 321.663 120.775C322.147 120.502 322.693 120.365 323.302 120.365C323.898 120.365 324.432 120.502 324.903 120.775C325.388 121.036 325.773 121.414 326.058 121.911C326.344 122.407 326.486 122.997 326.486 123.68C326.486 124.362 326.344 124.952 326.058 125.449C325.773 125.945 325.388 126.33 324.903 126.603C324.419 126.864 323.879 126.994 323.283 126.994ZM322.575 133.623L329.932 120.589H332.26L324.903 133.623H322.575ZM323.283 125.337C323.643 125.337 323.954 125.2 324.214 124.927C324.475 124.642 324.605 124.226 324.605 123.68C324.605 123.134 324.475 122.718 324.214 122.432C323.966 122.147 323.656 122.004 323.283 122.004C322.911 122.004 322.594 122.147 322.333 122.432C322.085 122.718 321.961 123.134 321.961 123.68C321.961 124.226 322.085 124.642 322.333 124.927C322.594 125.2 322.911 125.337 323.283 125.337ZM331.627 133.847C331.031 133.847 330.491 133.716 330.007 133.456C329.522 133.182 329.137 132.798 328.852 132.301C328.566 131.805 328.423 131.215 328.423 130.532C328.423 129.849 328.566 129.266 328.852 128.782C329.137 128.285 329.522 127.907 330.007 127.646C330.491 127.373 331.037 127.236 331.646 127.236C332.242 127.236 332.775 127.373 333.247 127.646C333.732 127.907 334.116 128.285 334.402 128.782C334.688 129.266 334.83 129.849 334.83 130.532C334.83 131.215 334.688 131.805 334.402 132.301C334.116 132.798 333.732 133.182 333.247 133.456C332.775 133.716 332.235 133.847 331.627 133.847ZM331.627 132.189C331.999 132.189 332.31 132.053 332.558 131.78C332.819 131.494 332.949 131.078 332.949 130.532C332.949 129.986 332.819 129.57 332.558 129.285C332.31 128.999 331.999 128.856 331.627 128.856C331.254 128.856 330.938 128.999 330.677 129.285C330.429 129.57 330.305 129.986 330.305 130.532C330.305 131.078 330.429 131.494 330.677 131.78C330.938 132.053 331.254 132.189 331.627 132.189Z" fill="white"/>
<path d="M272.455 41.2956V32.9582H269.605V31.5198H277.106V32.9582H274.242V41.2956H272.455ZM277.707 41.2956V34.3688H279.299L279.467 35.6675C279.718 35.2207 280.058 34.8669 280.486 34.6062C280.924 34.3362 281.436 34.2012 282.023 34.2012V36.0865H281.52C281.129 36.0865 280.78 36.147 280.472 36.2681C280.165 36.3891 279.923 36.5986 279.746 36.8965C279.578 37.1944 279.495 37.6088 279.495 38.1394V41.2956H277.707ZM285.634 41.4632C285.038 41.4632 284.549 41.3701 284.167 41.1839C283.785 40.9884 283.501 40.7324 283.315 40.4158C283.129 40.0993 283.036 39.7501 283.036 39.3684C283.036 38.726 283.287 38.2046 283.79 37.8043C284.293 37.4039 285.047 37.2038 286.053 37.2038H287.813V37.0362C287.813 36.5613 287.678 36.2122 287.408 35.9888C287.138 35.7653 286.803 35.6536 286.402 35.6536C286.039 35.6536 285.722 35.742 285.452 35.9189C285.182 36.0865 285.015 36.3379 284.949 36.6731H283.203C283.25 36.1703 283.418 35.7327 283.706 35.3603C284.004 34.9879 284.386 34.7039 284.852 34.5084C285.317 34.3036 285.839 34.2012 286.416 34.2012C287.403 34.2012 288.181 34.4479 288.749 34.9413C289.317 35.4348 289.601 36.1331 289.601 37.0362V41.2956H288.078L287.911 40.1784C287.706 40.5508 287.417 40.8581 287.045 41.1001C286.682 41.3422 286.211 41.4632 285.634 41.4632ZM286.039 40.0667C286.551 40.0667 286.947 39.8991 287.226 39.5639C287.515 39.2288 287.697 38.8144 287.771 38.321H286.248C285.774 38.321 285.434 38.4094 285.229 38.5863C285.024 38.7539 284.921 38.9634 284.921 39.2148C284.921 39.4848 285.024 39.6943 285.229 39.8432C285.434 39.9922 285.704 40.0667 286.039 40.0667ZM291.629 41.2956V35.8631H290.679V34.3688H291.629V33.5588C291.629 32.7208 291.838 32.125 292.257 31.7712C292.686 31.4174 293.263 31.2405 293.989 31.2405H294.758V32.7627H294.269C293.961 32.7627 293.743 32.8232 293.612 32.9443C293.482 33.0653 293.417 33.2701 293.417 33.5588V34.3688H294.911V35.8631H293.417V41.2956H291.629ZM296.648 41.2956V35.8631H295.698V34.3688H296.648V33.5588C296.648 32.7208 296.858 32.125 297.277 31.7712C297.705 31.4174 298.282 31.2405 299.009 31.2405H299.777V32.7627H299.288C298.981 32.7627 298.762 32.8232 298.632 32.9443C298.501 33.0653 298.436 33.2701 298.436 33.5588V34.3688H302.906V41.2956H301.118V35.8631H298.436V41.2956H296.648ZM302.026 33.3772C301.7 33.3772 301.43 33.2794 301.216 33.0839C301.011 32.8884 300.908 32.6417 300.908 32.3438C300.908 32.0458 301.011 31.8038 301.216 31.6175C301.43 31.422 301.7 31.3243 302.026 31.3243C302.352 31.3243 302.617 31.422 302.822 31.6175C303.036 31.8038 303.143 32.0458 303.143 32.3438C303.143 32.6417 303.036 32.8884 302.822 33.0839C302.617 33.2794 302.352 33.3772 302.026 33.3772ZM308.193 41.4632C307.485 41.4632 306.861 41.3096 306.321 41.0024C305.781 40.6951 305.353 40.2669 305.036 39.7175C304.729 39.1682 304.575 38.5398 304.575 37.8322C304.575 37.1246 304.729 36.4962 305.036 35.9469C305.353 35.3975 305.781 34.9693 306.321 34.662C306.861 34.3548 307.485 34.2012 308.193 34.2012C309.078 34.2012 309.823 34.4339 310.428 34.8994C311.033 35.3557 311.42 35.9888 311.587 36.7988H309.702C309.609 36.4636 309.422 36.2029 309.143 36.0167C308.873 35.8212 308.552 35.7234 308.179 35.7234C307.686 35.7234 307.267 35.9096 306.922 36.282C306.577 36.6544 306.405 37.1712 306.405 37.8322C306.405 38.4932 306.577 39.01 306.922 39.3824C307.267 39.7548 307.686 39.941 308.179 39.941C308.552 39.941 308.873 39.8479 309.143 39.6617C309.422 39.4755 309.609 39.2101 309.702 38.8657H311.587C311.42 39.6477 311.033 40.2762 310.428 40.751C309.823 41.2258 309.078 41.4632 308.193 41.4632ZM320.819 41.4632C319.897 41.4632 319.092 41.2538 318.403 40.8348C317.713 40.4158 317.178 39.8339 316.796 39.0891C316.414 38.335 316.223 37.4598 316.223 36.4636C316.223 35.4581 316.419 34.5736 316.81 33.8101C317.211 33.0374 317.774 32.4369 318.5 32.0086C319.236 31.571 320.107 31.3522 321.112 31.3522C322.258 31.3522 323.208 31.6269 323.962 32.1762C324.716 32.7255 325.205 33.4843 325.429 34.4525H323.431C323.282 33.9963 323.012 33.6425 322.621 33.3912C322.23 33.1305 321.727 33.0001 321.112 33.0001C320.135 33.0001 319.38 33.312 318.85 33.9358C318.319 34.5503 318.053 35.3975 318.053 36.4775C318.053 37.5575 318.314 38.3955 318.836 38.9913C319.366 39.5779 320.083 39.8712 320.987 39.8712C321.871 39.8712 322.537 39.6338 322.984 39.1589C323.441 38.6748 323.715 38.0417 323.808 37.2596H321.336V35.9189H325.61V41.2956H323.962L323.822 40.0108C323.506 40.4763 323.11 40.8348 322.635 41.0862C322.16 41.3375 321.555 41.4632 320.819 41.4632ZM327.306 41.2956V34.3688H328.898L329.066 35.6675C329.317 35.2207 329.657 34.8669 330.086 34.6062C330.523 34.3362 331.036 34.2012 331.622 34.2012V36.0865H331.119C330.728 36.0865 330.379 36.147 330.072 36.2681C329.764 36.3891 329.522 36.5986 329.345 36.8965C329.178 37.1944 329.094 37.6088 329.094 38.1394V41.2956H327.306ZM336.046 41.4632C335.376 41.4632 334.771 41.3096 334.23 41.0024C333.7 40.6951 333.276 40.2715 332.959 39.7315C332.652 39.1822 332.498 38.5491 332.498 37.8322C332.498 37.1153 332.657 36.4869 332.973 35.9469C333.29 35.3975 333.714 34.9693 334.244 34.662C334.785 34.3548 335.39 34.2012 336.06 34.2012C336.722 34.2012 337.318 34.3548 337.848 34.662C338.388 34.9693 338.812 35.3975 339.12 35.9469C339.436 36.4869 339.594 37.1153 339.594 37.8322C339.594 38.5491 339.436 39.1822 339.12 39.7315C338.812 40.2715 338.388 40.6951 337.848 41.0024C337.308 41.3096 336.708 41.4632 336.046 41.4632ZM336.046 39.9131C336.512 39.9131 336.917 39.7408 337.262 39.3963C337.606 39.0425 337.779 38.5212 337.779 37.8322C337.779 37.1432 337.606 36.6265 337.262 36.282C336.917 35.9282 336.517 35.7513 336.06 35.7513C335.585 35.7513 335.176 35.9282 334.831 36.282C334.496 36.6265 334.328 37.1432 334.328 37.8322C334.328 38.5212 334.496 39.0425 334.831 39.3963C335.176 39.7408 335.581 39.9131 336.046 39.9131ZM342.303 41.2956L340.277 34.3688H342.051L343.253 39.3544L344.649 34.3688H346.633L348.03 39.3544L349.245 34.3688H351.019L348.98 41.2956H347.122L345.641 36.1144L344.161 41.2956H342.303ZM355.234 41.2956C354.507 41.2956 353.925 41.1188 353.488 40.765C353.05 40.4112 352.831 39.7827 352.831 38.8796V35.8631H351.644V34.3688H352.831L353.041 32.5113H354.619V34.3688H356.491V35.8631H354.619V38.8936C354.619 39.2288 354.689 39.4615 354.829 39.5919C354.978 39.7129 355.229 39.7734 355.583 39.7734H356.449V41.2956H355.234ZM358.026 41.2956V31.2405H359.814V35.4301C360.047 35.0484 360.359 34.7505 360.75 34.5363C361.15 34.3129 361.607 34.2012 362.119 34.2012C362.975 34.2012 363.637 34.4712 364.102 35.0112C364.577 35.5512 364.815 36.3425 364.815 37.3853V41.2956H363.041V37.5529C363.041 36.957 362.92 36.5008 362.677 36.1843C362.445 35.8677 362.072 35.7094 361.56 35.7094C361.057 35.7094 360.638 35.8863 360.303 36.2401C359.977 36.5939 359.814 37.0874 359.814 37.7205V41.2956H358.026Z" fill="white"/>
<path d="M262.863 59.1405V53.2656H260.917V52.6232H265.591V53.2656H263.645V59.1405H262.863ZM267.768 59.2522C267.334 59.2522 266.942 59.1529 266.595 58.9543C266.247 58.7556 265.971 58.4763 265.766 58.1163C265.567 57.7501 265.468 57.3218 265.468 56.8315C265.468 56.3411 265.57 55.916 265.775 55.556C265.98 55.1898 266.256 54.9074 266.604 54.7087C266.958 54.5101 267.352 54.4108 267.787 54.4108C268.221 54.4108 268.612 54.5101 268.96 54.7087C269.308 54.9074 269.581 55.1898 269.78 55.556C269.984 55.916 270.087 56.3411 270.087 56.8315C270.087 57.3218 269.984 57.7501 269.78 58.1163C269.575 58.4763 269.295 58.7556 268.941 58.9543C268.594 59.1529 268.203 59.2522 267.768 59.2522ZM267.768 58.5818C268.035 58.5818 268.283 58.5167 268.513 58.3863C268.743 58.256 268.929 58.0605 269.072 57.7998C269.215 57.5391 269.286 57.2163 269.286 56.8315C269.286 56.4467 269.215 56.1239 269.072 55.8632C268.935 55.6025 268.752 55.407 268.522 55.2767C268.293 55.1463 268.047 55.0812 267.787 55.0812C267.52 55.0812 267.271 55.1463 267.042 55.2767C266.812 55.407 266.626 55.6025 266.483 55.8632C266.34 56.1239 266.269 56.4467 266.269 56.8315C266.269 57.2163 266.34 57.5391 266.483 57.7998C266.626 58.0605 266.809 58.256 267.032 58.3863C267.262 58.5167 267.507 58.5818 267.768 58.5818ZM272.818 59.1405C272.396 59.1405 272.063 59.038 271.821 58.8332C271.579 58.6284 271.458 58.2591 271.458 57.7253V55.1836H270.657V54.5225H271.458L271.561 53.4146H272.24V54.5225H273.6V55.1836H272.24V57.7253C272.24 58.017 272.299 58.2156 272.417 58.3211C272.535 58.4205 272.743 58.4701 273.041 58.4701H273.525V59.1405H272.818ZM276.13 59.2522C275.745 59.2522 275.425 59.187 275.171 59.0567C274.916 58.9263 274.727 58.7525 274.603 58.5353C274.478 58.318 274.416 58.0822 274.416 57.8277C274.416 57.356 274.596 56.9929 274.956 56.7384C275.317 56.4839 275.807 56.3567 276.428 56.3567H277.676V56.3008C277.676 55.8974 277.57 55.5932 277.359 55.3884C277.148 55.1774 276.866 55.0718 276.512 55.0718C276.207 55.0718 275.944 55.1494 275.72 55.3046C275.503 55.4536 275.366 55.6739 275.31 55.9656H274.509C274.541 55.6305 274.652 55.348 274.845 55.1184C275.043 54.8887 275.289 54.7149 275.58 54.597C275.872 54.4729 276.183 54.4108 276.512 54.4108C277.157 54.4108 277.642 54.5846 277.964 54.9322C278.293 55.2736 278.458 55.7298 278.458 56.3008V59.1405H277.759L277.713 58.3118C277.583 58.5725 277.39 58.796 277.136 58.9822C276.887 59.1622 276.552 59.2522 276.13 59.2522ZM276.251 58.5911C276.549 58.5911 276.803 58.5136 277.014 58.3584C277.232 58.2032 277.396 58.0015 277.508 57.7532C277.62 57.5049 277.676 57.2443 277.676 56.9711V56.9618H276.493C276.034 56.9618 275.708 57.0425 275.515 57.2039C275.329 57.3591 275.236 57.5546 275.236 57.7905C275.236 58.0325 275.323 58.228 275.497 58.377C275.677 58.5198 275.928 58.5911 276.251 58.5911ZM279.632 59.1405V52.437H280.414V59.1405H279.632ZM285.986 59.1405C285.564 59.1405 285.232 59.038 284.99 58.8332C284.748 58.6284 284.627 58.2591 284.627 57.7253V55.1836H283.826V54.5225H284.627L284.729 53.4146H285.409V54.5225H286.768V55.1836H285.409V57.7253C285.409 58.017 285.468 58.2156 285.586 58.3211C285.704 58.4205 285.912 58.4701 286.21 58.4701H286.694V59.1405H285.986ZM287.762 59.1405V54.5225H288.47L288.535 55.407C288.677 55.1029 288.895 54.8608 289.187 54.6808C289.478 54.5008 289.838 54.4108 290.267 54.4108V55.2301H290.053C289.779 55.2301 289.528 55.2798 289.298 55.3791C289.069 55.4722 288.885 55.6336 288.749 55.8632C288.612 56.0929 288.544 56.4094 288.544 56.8129V59.1405H287.762ZM292.682 59.2522C292.297 59.2522 291.977 59.187 291.723 59.0567C291.468 58.9263 291.279 58.7525 291.155 58.5353C291.03 58.318 290.968 58.0822 290.968 57.8277C290.968 57.356 291.148 56.9929 291.508 56.7384C291.869 56.4839 292.359 56.3567 292.98 56.3567H294.228V56.3008C294.228 55.8974 294.122 55.5932 293.911 55.3884C293.7 55.1774 293.417 55.0718 293.064 55.0718C292.759 55.0718 292.496 55.1494 292.272 55.3046C292.055 55.4536 291.918 55.6739 291.862 55.9656H291.061C291.092 55.6305 291.204 55.348 291.397 55.1184C291.595 54.8887 291.841 54.7149 292.132 54.597C292.424 54.4729 292.735 54.4108 293.064 54.4108C293.709 54.4108 294.194 54.5846 294.516 54.9322C294.845 55.2736 295.01 55.7298 295.01 56.3008V59.1405H294.311L294.265 58.3118C294.135 58.5725 293.942 58.796 293.688 58.9822C293.439 59.1622 293.104 59.2522 292.682 59.2522ZM292.803 58.5911C293.101 58.5911 293.355 58.5136 293.566 58.3584C293.784 58.2032 293.948 58.0015 294.06 57.7532C294.172 57.5049 294.228 57.2443 294.228 56.9711V56.9618H293.045C292.586 56.9618 292.26 57.0425 292.067 57.2039C291.881 57.3591 291.788 57.5546 291.788 57.7905C291.788 58.0325 291.875 58.228 292.049 58.377C292.229 58.5198 292.48 58.5911 292.803 58.5911ZM296.435 59.1405V55.1836H295.736V54.5225H296.435V53.7218C296.435 53.2749 296.546 52.9491 296.77 52.7443C296.993 52.5394 297.319 52.437 297.748 52.437H298.213V53.1074H297.869C297.633 53.1074 297.465 53.157 297.366 53.2563C297.267 53.3494 297.217 53.5108 297.217 53.7405V54.5225H298.353V55.1836H297.217V59.1405H296.435ZM299.536 59.1405V55.1836H298.837V54.5225H299.536V53.7218C299.536 53.2749 299.647 52.9491 299.871 52.7443C300.094 52.5394 300.42 52.437 300.849 52.437H301.314V53.1074H300.97C300.734 53.1074 300.566 53.157 300.467 53.2563C300.368 53.3494 300.318 53.5108 300.318 53.7405V54.5225H303.186V59.1405H302.404V55.1836H300.318V59.1405H299.536ZM302.804 53.638C302.655 53.638 302.528 53.5884 302.423 53.4891C302.317 53.3836 302.264 53.2532 302.264 53.098C302.264 52.9491 302.317 52.8249 302.423 52.7256C302.528 52.6263 302.655 52.5767 302.804 52.5767C302.96 52.5767 303.087 52.6263 303.186 52.7256C303.292 52.8249 303.344 52.9491 303.344 53.098C303.344 53.2532 303.292 53.3836 303.186 53.4891C303.087 53.5884 302.96 53.638 302.804 53.638ZM306.691 59.2522C306.25 59.2522 305.853 59.1529 305.499 58.9543C305.151 58.7494 304.875 58.467 304.67 58.107C304.471 57.7408 304.372 57.3156 304.372 56.8315C304.372 56.3474 304.471 55.9253 304.67 55.5653C304.875 55.1991 305.151 54.9167 305.499 54.718C305.853 54.5132 306.25 54.4108 306.691 54.4108C307.237 54.4108 307.696 54.5536 308.069 54.8391C308.448 55.1246 308.687 55.5063 308.786 55.9843H307.985C307.923 55.6987 307.771 55.4784 307.529 55.3232C307.287 55.1618 307.004 55.0812 306.681 55.0812C306.421 55.0812 306.175 55.1463 305.946 55.2767C305.716 55.407 305.53 55.6025 305.387 55.8632C305.244 56.1239 305.173 56.4467 305.173 56.8315C305.173 57.2163 305.244 57.5391 305.387 57.7998C305.53 58.0605 305.716 58.2591 305.946 58.3956C306.175 58.526 306.421 58.5911 306.681 58.5911C307.004 58.5911 307.287 58.5136 307.529 58.3584C307.771 58.197 307.923 57.9705 307.985 57.6787H308.786C308.693 58.1443 308.457 58.5229 308.078 58.8146C307.7 59.1063 307.237 59.2522 306.691 59.2522ZM314.169 57.688C313.908 57.688 313.669 57.6539 313.451 57.5856L312.986 58.0232C313.054 58.0729 313.138 58.1163 313.237 58.1536C313.343 58.1846 313.492 58.2156 313.684 58.2467C313.877 58.2715 314.147 58.2994 314.494 58.3305C315.115 58.3739 315.559 58.5167 315.826 58.7587C316.093 59.0008 316.227 59.3174 316.227 59.7084C316.227 59.9753 316.152 60.2298 316.003 60.4718C315.86 60.7139 315.637 60.9125 315.333 61.0677C315.035 61.2229 314.65 61.3005 314.178 61.3005C313.762 61.3005 313.393 61.2446 313.07 61.1329C312.747 61.0274 312.495 60.8629 312.315 60.6394C312.135 60.4222 312.045 60.146 312.045 59.8108C312.045 59.637 312.092 59.4477 312.185 59.2429C312.278 59.0443 312.452 58.8549 312.707 58.6749C312.57 58.6191 312.452 58.5601 312.353 58.498C312.26 58.4298 312.173 58.3553 312.092 58.2746V58.0605L312.883 57.2784C312.517 56.968 312.334 56.5584 312.334 56.0494C312.334 55.7453 312.405 55.4691 312.548 55.2208C312.691 54.9725 312.899 54.777 313.172 54.6343C313.445 54.4853 313.777 54.4108 314.169 54.4108C314.436 54.4108 314.678 54.448 314.895 54.5225H316.599V55.1091L315.733 55.1463C315.913 55.407 316.003 55.708 316.003 56.0494C316.003 56.3536 315.929 56.6298 315.78 56.878C315.637 57.1263 315.429 57.3249 315.156 57.4739C314.889 57.6167 314.56 57.688 314.169 57.688ZM314.169 57.0456C314.498 57.0456 314.758 56.9618 314.951 56.7943C315.149 56.6205 315.249 56.3722 315.249 56.0494C315.249 55.7329 315.149 55.4908 314.951 55.3232C314.758 55.1494 314.498 55.0625 314.169 55.0625C313.833 55.0625 313.566 55.1494 313.368 55.3232C313.175 55.4908 313.079 55.7329 313.079 56.0494C313.079 56.3722 313.175 56.6205 313.368 56.7943C313.566 56.9618 313.833 57.0456 314.169 57.0456ZM312.809 59.7363C312.809 60.0467 312.939 60.2763 313.2 60.4253C313.461 60.5805 313.787 60.658 314.178 60.658C314.563 60.658 314.87 60.5743 315.1 60.4067C315.336 60.2391 315.454 60.0156 315.454 59.7363C315.454 59.5377 315.373 59.3639 315.212 59.2149C315.05 59.0722 314.752 58.9884 314.318 58.9636C313.976 58.9387 313.681 58.9077 313.433 58.8705C313.178 59.007 313.011 59.1529 312.93 59.308C312.849 59.4694 312.809 59.6122 312.809 59.7363ZM317.481 59.1405V54.5225H318.189L318.254 55.407C318.397 55.1029 318.614 54.8608 318.906 54.6808C319.198 54.5008 319.558 54.4108 319.986 54.4108V55.2301H319.772C319.499 55.2301 319.248 55.2798 319.018 55.3791C318.788 55.4722 318.605 55.6336 318.469 55.8632C318.332 56.0929 318.264 56.4094 318.264 56.8129V59.1405H317.481ZM322.796 59.2522C322.362 59.2522 321.971 59.1529 321.623 58.9543C321.275 58.7556 320.999 58.4763 320.794 58.1163C320.596 57.7501 320.496 57.3218 320.496 56.8315C320.496 56.3411 320.599 55.916 320.804 55.556C321.008 55.1898 321.285 54.9074 321.632 54.7087C321.986 54.5101 322.381 54.4108 322.815 54.4108C323.25 54.4108 323.641 54.5101 323.988 54.7087C324.336 54.9074 324.609 55.1898 324.808 55.556C325.013 55.916 325.115 56.3411 325.115 56.8315C325.115 57.3218 325.013 57.7501 324.808 58.1163C324.603 58.4763 324.324 58.7556 323.97 58.9543C323.622 59.1529 323.231 59.2522 322.796 59.2522ZM322.796 58.5818C323.063 58.5818 323.312 58.5167 323.541 58.3863C323.771 58.256 323.957 58.0605 324.1 57.7998C324.243 57.5391 324.314 57.2163 324.314 56.8315C324.314 56.4467 324.243 56.1239 324.1 55.8632C323.964 55.6025 323.78 55.407 323.551 55.2767C323.321 55.1463 323.076 55.0812 322.815 55.0812C322.548 55.0812 322.3 55.1463 322.07 55.2767C321.84 55.407 321.654 55.6025 321.511 55.8632C321.369 56.1239 321.297 56.4467 321.297 56.8315C321.297 57.2163 321.369 57.5391 321.511 57.7998C321.654 58.0605 321.837 58.256 322.061 58.3863C322.29 58.5167 322.536 58.5818 322.796 58.5818ZM326.961 59.1405L325.611 54.5225H326.393L327.371 58.1443L328.451 54.5225H329.336L330.426 58.1443L331.394 54.5225H332.186L330.835 59.1405H330.035L328.898 55.3325L327.762 59.1405H326.961ZM334.876 59.1405C334.454 59.1405 334.122 59.038 333.88 58.8332C333.638 58.6284 333.517 58.2591 333.517 57.7253V55.1836H332.716V54.5225H333.517L333.619 53.4146H334.299V54.5225H335.658V55.1836H334.299V57.7253C334.299 58.017 334.358 58.2156 334.476 58.3211C334.594 58.4205 334.802 58.4701 335.1 58.4701H335.584V59.1405H334.876ZM336.652 59.1405V52.437H337.434V55.3139C337.589 55.0284 337.81 54.808 338.095 54.6529C338.381 54.4915 338.691 54.4108 339.026 54.4108C339.56 54.4108 339.989 54.5784 340.311 54.9136C340.634 55.2425 340.796 55.7515 340.796 56.4405V59.1405H340.023V56.5243C340.023 55.5622 339.635 55.0812 338.859 55.0812C338.455 55.0812 338.117 55.227 337.844 55.5187C337.571 55.8043 337.434 56.2139 337.434 56.7477V59.1405H336.652ZM346.55 59.2522C346.115 59.2522 345.724 59.1529 345.377 58.9543C345.029 58.7556 344.753 58.4763 344.548 58.1163C344.349 57.7501 344.25 57.3218 344.25 56.8315C344.25 56.3411 344.352 55.916 344.557 55.556C344.762 55.1898 345.038 54.9074 345.386 54.7087C345.74 54.5101 346.134 54.4108 346.569 54.4108C347.003 54.4108 347.394 54.5101 347.742 54.7087C348.09 54.9074 348.363 55.1898 348.561 55.556C348.766 55.916 348.869 56.3411 348.869 56.8315C348.869 57.3218 348.766 57.7501 348.561 58.1163C348.357 58.4763 348.077 58.7556 347.723 58.9543C347.376 59.1529 346.985 59.2522 346.55 59.2522ZM346.55 58.5818C346.817 58.5818 347.065 58.5167 347.295 58.3863C347.525 58.256 347.711 58.0605 347.854 57.7998C347.997 57.5391 348.068 57.2163 348.068 56.8315C348.068 56.4467 347.997 56.1239 347.854 55.8632C347.717 55.6025 347.534 55.407 347.304 55.2767C347.075 55.1463 346.829 55.0812 346.569 55.0812C346.302 55.0812 346.053 55.1463 345.824 55.2767C345.594 55.407 345.408 55.6025 345.265 55.8632C345.122 56.1239 345.051 56.4467 345.051 56.8315C345.051 57.2163 345.122 57.5391 345.265 57.7998C345.408 58.0605 345.591 58.256 345.814 58.3863C346.044 58.5167 346.289 58.5818 346.55 58.5818ZM350.208 59.1405V55.1836H349.51V54.5225H350.208V53.7218C350.208 53.2749 350.32 52.9491 350.543 52.7443C350.767 52.5394 351.093 52.437 351.521 52.437H351.987V53.1074H351.642C351.406 53.1074 351.239 53.157 351.139 53.2563C351.04 53.3494 350.99 53.5108 350.99 53.7405V54.5225H352.127V55.1836H350.99V59.1405H350.208ZM358.521 59.1405V57.7439H355.215V57.1387L358.381 52.6232H359.294V57.0549H360.262V57.7439H359.294V59.1405H358.521ZM356.081 57.0549H358.558V53.4891L356.081 57.0549ZM363.423 59.2522C362.976 59.2522 362.588 59.1715 362.259 59.0101C361.93 58.8487 361.666 58.6284 361.468 58.3491C361.275 58.0636 361.157 57.7408 361.114 57.3808H361.877C361.952 57.7408 362.126 58.0325 362.399 58.256C362.672 58.4732 363.017 58.5818 363.433 58.5818C363.743 58.5818 364.01 58.5105 364.233 58.3677C364.457 58.2187 364.628 58.0201 364.746 57.7718C364.87 57.5236 364.932 57.2474 364.932 56.9432C364.932 56.4591 364.795 56.068 364.522 55.7701C364.249 55.4722 363.895 55.3232 363.461 55.3232C363.1 55.3232 362.793 55.4039 362.539 55.5653C362.284 55.7267 362.098 55.9377 361.98 56.1984H361.235L361.794 52.6232H365.211V53.3029H362.399L362.017 55.286C362.166 55.106 362.371 54.957 362.632 54.8391C362.899 54.7212 363.203 54.6622 363.544 54.6622C363.973 54.6622 364.345 54.7615 364.662 54.9601C364.985 55.1587 365.236 55.4287 365.416 55.7701C365.596 56.1115 365.686 56.4994 365.686 56.9339C365.686 57.3498 365.596 57.7346 365.416 58.0884C365.242 58.4422 364.985 58.7246 364.643 58.9356C364.308 59.1467 363.901 59.2522 363.423 59.2522ZM368.083 55.6491C367.803 55.6491 367.549 55.587 367.319 55.4629C367.095 55.3325 366.919 55.1525 366.788 54.9229C366.658 54.687 366.593 54.4077 366.593 54.0849C366.593 53.7622 366.658 53.486 366.788 53.2563C366.925 53.0205 367.105 52.8405 367.328 52.7163C367.558 52.586 367.812 52.5208 368.092 52.5208C368.371 52.5208 368.623 52.586 368.846 52.7163C369.07 52.8405 369.247 53.0205 369.377 53.2563C369.507 53.486 369.573 53.7622 369.573 54.0849C369.573 54.4077 369.504 54.687 369.368 54.9229C369.237 55.1525 369.06 55.3325 368.837 55.4629C368.613 55.587 368.362 55.6491 368.083 55.6491ZM367.505 59.1405L371.295 52.6232H372.078L368.287 59.1405H367.505ZM368.083 55.0439C368.3 55.0439 368.489 54.9632 368.651 54.8018C368.818 54.6405 368.902 54.4015 368.902 54.0849C368.902 53.7622 368.821 53.5201 368.66 53.3587C368.499 53.1911 368.309 53.1074 368.092 53.1074C367.875 53.1074 367.679 53.1911 367.505 53.3587C367.338 53.5201 367.254 53.7622 367.254 54.0849C367.254 54.4015 367.338 54.6405 367.505 54.8018C367.673 54.9632 367.865 55.0439 368.083 55.0439ZM371.565 59.2522C371.286 59.2522 371.031 59.1901 370.802 59.066C370.578 58.9356 370.401 58.7556 370.271 58.526C370.141 58.2901 370.075 58.0108 370.075 57.688C370.075 57.3653 370.141 57.0891 370.271 56.8594C370.408 56.6236 370.588 56.4436 370.811 56.3194C371.035 56.1891 371.286 56.1239 371.565 56.1239C371.845 56.1239 372.096 56.1891 372.32 56.3194C372.543 56.4436 372.72 56.6236 372.85 56.8594C372.981 57.0891 373.046 57.3653 373.046 57.688C373.046 58.0108 372.981 58.2901 372.85 58.526C372.72 58.7556 372.543 58.9356 372.32 59.066C372.096 59.1901 371.845 59.2522 371.565 59.2522ZM371.556 58.647C371.78 58.647 371.972 58.5663 372.133 58.4049C372.301 58.2436 372.385 58.0046 372.385 57.688C372.385 57.3653 372.304 57.1232 372.143 56.9618C371.981 56.8005 371.789 56.7198 371.565 56.7198C371.348 56.7198 371.156 56.8005 370.988 56.9618C370.82 57.1232 370.737 57.3653 370.737 57.688C370.737 58.0046 370.817 58.2436 370.979 58.4049C371.146 58.5663 371.339 58.647 371.556 58.647Z" fill="white"/>
</g>
<defs>
<filter id="filter0_d_130_580" x="0.55899" y="0.0197754" width="479" height="399" filterUnits="userSpaceOnUse" color-interpolation-filters="sRGB">
<feFlood flood-opacity="0" result="BackgroundImageFix"/>
<feColorMatrix in="SourceAlpha" type="matrix" values="0 0 0 0 0 0 0 0 0 0 0 0 0 0 0 0 0 0 127 0" result="hardAlpha"/>
<feOffset dx="8" dy="24"/>
<feGaussianBlur stdDeviation="21"/>
<feComposite in2="hardAlpha" operator="out"/>
<feColorMatrix type="matrix" values="0 0 0 0 0.635294 0 0 0 0 0.647059 0 0 0 0 0.737255 0 0 0 0.42 0"/>
<feBlend mode="normal" in2="BackgroundImageFix" result="effect1_dropShadow_130_580"/>
<feBlend mode="normal" in="SourceGraphic" in2="effect1_dropShadow_130_580" result="shape"/>
</filter>
<filter id="filter1_d_130_580" x="-2.24251" y="87.5772" width="488.907" height="312.7" filterUnits="userSpaceOnUse" color-interpolation-filters="sRGB">
<feFlood flood-opacity="0" result="BackgroundImageFix"/>
<feColorMatrix in="SourceAlpha" type="matrix" values="0 0 0 0 0 0 0 0 0 0 0 0 0 0 0 0 0 0 127 0" result="hardAlpha"/>
<feOffset dx="10.1521" dy="20.3043"/>
<feGaussianBlur stdDeviation="23.4768"/>
<feComposite in2="hardAlpha" operator="out"/>
<feColorMatrix type="matrix" values="0 0 0 0 0.635294 0 0 0 0 0.647059 0 0 0 0 0.737255 0 0 0 0.42 0"/>
<feBlend mode="normal" in2="BackgroundImageFix" result="effect1_dropShadow_130_580"/>
<feBlend mode="normal" in="SourceGraphic" in2="effect1_dropShadow_130_580" result="shape"/>
</filter>
<linearGradient id="paint0_linear_130_580" x1="251.722" y1="116.636" x2="251.722" y2="307.982" gradientUnits="userSpaceOnUse">
<stop stop-color="#F3F0FF"/>
<stop offset="1" stop-color="#F1EDFF" stop-opacity="0"/>
</linearGradient>
<linearGradient id="paint1_linear_130_580" x1="243.519" y1="89.4761" x2="381.457" y2="86.8041" gradientUnits="userSpaceOnUse">
<stop stop-color="#4345E7"/>
<stop offset="1" stop-color="#1983CA"/>
</linearGradient>
<clipPath id="clip0_130_580">
<rect width="395" height="315" fill="white" transform="translate(34.559 18.0198)"/>
</clipPath>
</defs>
</svg>
