<svg width="34" height="34" viewBox="0 0 34 34" fill="none" xmlns="http://www.w3.org/2000/svg">
<path d="M24.6372 12.5445C24.1468 12.7556 23.6311 12.9026 23.103 12.9818C23.3499 12.9395 23.7132 12.4951 23.8578 12.3152C24.0775 12.0439 24.2449 11.7342 24.3516 11.4018C24.3516 11.3771 24.3763 11.3418 24.3516 11.3242C24.3391 11.3174 24.3252 11.3138 24.311 11.3138C24.2968 11.3138 24.2829 11.3174 24.2704 11.3242C23.697 11.6347 23.0868 11.8717 22.4541 12.0296C22.432 12.0363 22.4085 12.0369 22.3862 12.0313C22.3638 12.0257 22.3434 12.0141 22.3271 11.9978C22.2778 11.9392 22.2248 11.8838 22.1684 11.8321C21.9103 11.6008 21.6175 11.4116 21.3007 11.2713C20.8731 11.0958 20.4112 11.0199 19.9499 11.0491C19.5023 11.0773 19.0653 11.1974 18.6661 11.4018C18.273 11.6172 17.9275 11.91 17.6503 12.2623C17.3588 12.625 17.1484 13.046 17.0331 13.4968C16.9381 13.9256 16.9273 14.3688 17.0014 14.8018C17.0014 14.8758 17.0014 14.8864 16.9379 14.8758C14.4232 14.5055 12.3599 13.6132 10.674 11.698C10.5999 11.6134 10.5611 11.6134 10.5012 11.698C9.76758 12.8126 10.1238 14.576 11.0408 15.4472C11.1643 15.5636 11.2912 15.6764 11.4253 15.7823C11.0048 15.7524 10.5946 15.6385 10.219 15.4472C10.1485 15.4013 10.1097 15.426 10.1062 15.5107C10.0962 15.628 10.0962 15.746 10.1062 15.8634C10.1798 16.4258 10.4014 16.9586 10.7484 17.4072C11.0955 17.8559 11.5554 18.2043 12.0813 18.4169C12.2095 18.4718 12.343 18.5132 12.4798 18.5403C12.0906 18.617 11.6914 18.6289 11.2983 18.5756C11.2136 18.558 11.1819 18.6038 11.2136 18.6849C11.7321 20.0957 12.8572 20.526 13.6825 20.7658C13.7954 20.7835 13.9082 20.7835 14.0352 20.8117C14.0352 20.8117 14.0352 20.8117 14.014 20.8329C13.7707 21.2773 12.7867 21.577 12.3352 21.7322C11.5112 22.0282 10.6326 22.1413 9.76053 22.0638C9.62298 22.0426 9.59123 22.0461 9.55596 22.0638C9.5207 22.0814 9.55596 22.1202 9.59476 22.1555C9.77111 22.2719 9.94746 22.3741 10.1309 22.4729C10.6768 22.7707 11.2541 23.0073 11.852 23.1783C14.9487 24.0318 18.4333 23.404 20.7576 21.0939C22.5846 19.281 23.2265 16.7804 23.2265 14.2762C23.2265 14.181 23.3429 14.1246 23.4099 14.0752C23.8721 13.7151 24.2796 13.2897 24.6196 12.8126C24.6785 12.7414 24.7087 12.6509 24.7043 12.5586C24.7043 12.5057 24.7043 12.5163 24.6372 12.5445Z" fill="#FFC000"/>
</svg>
