<svg width="53" height="51" viewBox="0 0 53 51" fill="none" xmlns="http://www.w3.org/2000/svg">
<path d="M27.8524 29.179H19.8009L18.701 50.4443H29.319L27.8524 29.179Z" fill="#183453"/>
<path fill-rule="evenodd" clip-rule="evenodd" d="M29.319 50.679C29.1503 50.6057 18.6496 50.8184 18.5323 50.6057C18.3197 50.4737 19.6322 29.3403 19.5662 29.1643C19.5736 29.0397 19.6762 28.9443 19.8009 28.9443H27.8524C27.9771 28.9443 28.0797 29.0397 28.0871 29.1643C27.8671 29.4136 30.0449 50.7157 29.319 50.679ZM18.9503 50.2024H29.0623L27.6324 29.421H20.0282L18.9503 50.2024Z" fill="#183453"/>
<path d="M45.0627 42.0478H2.95724C1.9453 42.0478 1.12402 41.2265 1.12402 40.2146L1.12402 12.5329C1.12402 11.521 1.9453 10.6997 2.95724 10.6997H45.0627C46.0747 10.6997 46.8959 11.521 46.8959 12.5329V40.2146C46.8959 41.2265 46.0747 42.0478 45.0627 42.0478Z" fill="#08A5E2"/>
<path d="M45.0627 42.0478H2.95724C1.9453 42.0478 1.12402 41.2265 1.12402 40.2146L1.12402 12.5329C1.12402 11.521 1.9453 10.6997 2.95724 10.6997H45.0627C46.0747 10.6997 46.8959 11.521 46.8959 12.5329V40.2146C46.8959 41.2265 46.0747 42.0478 45.0627 42.0478Z" fill="#08A5E2"/>
<path d="M45.1067 42.048H3.65385C2.66391 42.048 1.85729 41.2487 1.85729 40.2587L1.85729 13.4057C1.85729 12.4231 2.66391 11.6165 3.65385 11.6165H45.1067C46.0966 11.6165 46.8959 12.4231 46.8959 13.4057V40.2587C46.8959 41.2487 46.0966 42.048 45.1067 42.048Z" fill="#08A5E2"/>
<path d="M2.92794 11.2134C3.08193 11.4407 1.99666 12.0713 1.872 11.822C1.71801 11.5947 2.80328 10.964 2.92794 11.2134Z" fill="white"/>
<path fill-rule="evenodd" clip-rule="evenodd" d="M45.0628 42.2898H2.9573C1.81337 42.2898 0.88942 41.3586 0.88942 40.2146L0.88942 12.533C0.88942 11.3964 1.81337 10.4651 2.9573 10.4651H45.0628C46.2067 10.4651 47.1307 11.3964 47.1307 12.533V40.2146C47.1307 41.3586 46.2067 42.2898 45.0628 42.2898ZM2.9573 10.9417C2.07735 10.9417 1.36606 11.653 1.36606 12.533L1.36606 40.2146C1.36606 41.0946 2.07735 41.8132 2.9573 41.8132H45.0628C45.9427 41.8132 46.654 41.0946 46.654 40.2146V12.533C46.654 11.653 45.9427 10.9417 45.0628 10.9417H2.9573Z" fill="#183453"/>
<path d="M2.54314 39.917L2.54314 12.8287C2.54314 12.3873 2.88789 12.0261 3.30926 12.0261H44.2357C44.657 12.0261 45.0018 12.3873 45.0018 12.8287V39.917C45.0018 40.3584 44.657 40.7196 44.2357 40.7196H3.30926C2.88789 40.7196 2.54314 40.3584 2.54314 39.917Z" fill="white"/>
<path d="M44.0875 50.4445H3.93989C3.92523 49.5279 3.77124 48.3033 5.03983 48.2373H42.9802C44.2415 48.296 44.1022 49.5206 44.0875 50.4445Z" fill="#08A5E2"/>
<path d="M44.0874 50.4443H3.93984C3.88118 49.777 4.00583 49.095 4.81245 49.0583H43.2148C43.9994 49.0877 44.1461 49.7623 44.0874 50.4443Z" fill="#183453"/>
<path fill-rule="evenodd" clip-rule="evenodd" d="M44.0874 50.6789C43.8308 50.4443 3.66118 51.1336 3.69785 50.4443V49.337C3.69785 48.6037 4.29915 48.0024 5.03977 48.0024H42.9802C44.4027 48.0758 44.3734 49.3444 44.3221 50.4443C44.3221 50.5763 44.2194 50.6789 44.0874 50.6789ZM4.17449 50.2023H43.8454C43.8601 49.491 43.9701 48.5157 42.9802 48.4791H5.03977C4.05716 48.5231 4.15982 49.4764 4.17449 50.2023Z" fill="#183453"/>
<path d="M29.1466 25.8108C30.3199 25.9354 32.923 25.2388 32.9597 27.1234V39.3546H27.834V27.1234C27.834 26.3974 28.428 25.8108 29.1466 25.8108Z" fill="#183453"/>
<path d="M29.7772 26.6176C30.8038 26.7056 32.923 26.163 32.9597 27.7909V39.3549H28.604V27.7909C28.604 27.1456 29.1319 26.6176 29.7772 26.6176Z" fill="white"/>
<path d="M30.2356 16.8891C30.2576 17.2337 28.5857 17.2337 28.6004 16.8891C28.5857 16.5445 30.2576 16.5445 30.2356 16.8891Z" fill="#FFC000"/>
<path fill-rule="evenodd" clip-rule="evenodd" d="M32.9597 39.5971H27.8341C27.7094 39.5971 27.5994 39.4871 27.5994 39.3551V27.1238C27.6507 25.0193 30.2979 25.6646 31.6472 25.5766C32.4978 25.5766 33.1944 26.2732 33.1944 27.1238V39.3551C33.1944 39.4871 33.0917 39.5971 32.9597 39.5971ZM28.076 39.1204H32.7178V27.1238C32.7178 26.5299 32.2338 26.0532 31.6472 26.0532H29.1466C28.56 26.0532 28.076 26.5299 28.076 27.1238V39.1204Z" fill="#183453"/>
<path d="M21.2711 28.7517C22.437 28.8691 25.0402 28.1724 25.0769 30.057V39.3551H19.9585V30.057C19.9585 29.3384 20.5452 28.7517 21.2711 28.7517Z" fill="#183453"/>
<path d="M21.7991 29.4776C22.8403 29.5656 25.0476 29.001 25.0769 30.6582V39.3551H20.6185V30.6582C20.6185 30.0056 21.1465 29.4776 21.7991 29.4776Z" fill="white"/>
<path d="M22.0228 19.7928C22.0301 20.2988 20.5416 20.2988 20.5489 19.7928C20.5416 19.2868 22.0301 19.2868 22.0228 19.7928Z" fill="#FFC000"/>
<path fill-rule="evenodd" clip-rule="evenodd" d="M25.0769 39.5969H19.9585C19.8265 39.5969 19.7165 39.4869 19.7165 39.355V30.0568C19.7679 27.9523 22.4224 28.6049 23.7643 28.5096C24.6223 28.5096 25.3115 29.2062 25.3115 30.0568V39.355C25.3115 39.4869 25.2089 39.5969 25.0769 39.5969ZM20.1932 39.1203H24.8349V30.0568C24.8349 29.4702 24.3583 28.9862 23.7643 28.9862H21.2711C20.6772 28.9862 20.1932 29.4702 20.1932 30.0568V39.1203Z" fill="#183453"/>
<path d="M13.3883 31.3179C14.5615 31.4426 17.1574 30.7386 17.194 32.6305V39.3548H12.0757V32.6305C12.0757 31.9046 12.6623 31.3179 13.3883 31.3179Z" fill="#183453"/>
<path d="M13.8282 32.2494C14.8621 32.3594 17.1647 31.7361 17.194 33.408V39.355H12.6696V33.408C12.6696 32.77 13.1902 32.2494 13.8282 32.2494Z" fill="white"/>
<path d="M15.0088 32.4769C15.0162 32.9608 13.5936 32.9608 13.6009 32.4769C13.5936 32.0002 15.0162 32.0002 15.0088 32.4769Z" fill="#FFC000"/>
<path fill-rule="evenodd" clip-rule="evenodd" d="M17.194 39.5965H12.0757C11.9437 39.5965 11.841 39.4865 11.841 39.3545V32.6303C11.8923 30.5184 14.5395 31.171 15.8814 31.0757C16.7394 31.0757 17.436 31.7723 17.436 32.6303C17.2967 32.7696 17.7367 39.8092 17.194 39.5965ZM12.3176 39.1199H16.9594V32.6303C16.9594 32.0363 16.4754 31.5523 15.8814 31.5523H13.3882C12.7943 31.5523 12.3176 32.0363 12.3176 32.6303V39.1199Z" fill="#183453"/>
<path d="M27.4711 8.5074L23.9954 9.16736C23.2034 9.44601 23.7827 10.1573 24.164 10.5606L15.5405 17.2629L10.4295 11.9245C10.0262 11.6679 9.49823 11.7192 9.14625 12.0492L3.14061 17.6882C2.7153 18.0842 2.69329 18.7515 3.08927 19.1694C3.49258 19.5947 4.15255 19.6167 4.57052 19.2208L9.98953 14.1317L15.0346 19.4261C15.4085 19.6681 15.8925 19.6461 16.2445 19.3747L25.5059 12.1665C25.8506 12.6065 26.5105 13.5524 26.9725 12.7165L28.1824 9.33601C28.3364 8.91071 27.9185 8.4194 27.4711 8.5074Z" fill="#FFC000"/>
<path d="M26.4519 9.44608C26.4445 10.172 25.3299 10.172 25.3299 9.44608C25.3299 8.72012 26.4445 8.72012 26.4519 9.44608Z" fill="#E2F0C2"/>
<path d="M7.59169 14.5938C5.71447 16.3023 5.48715 16.053 7.3717 14.3518C9.24892 12.6432 9.47624 12.8925 7.59169 14.5938Z" fill="#E2F0C2"/>
<path d="M21.1501 13.853C18.2243 16.1189 18.019 15.8476 20.9448 13.5964C23.8706 11.3305 24.076 11.5945 21.1501 13.853Z" fill="#E2F0C2"/>
<path d="M3.03789 17.7983C2.48059 18.4362 3.00856 19.5362 3.85917 19.4995C4.4458 19.7048 7.32763 16.493 7.78227 16.207C6.34502 17.0943 4.73912 17.6663 3.03789 17.7983Z" fill="#87BF02"/>
<path d="M26.3198 12.0052C26.0998 12.1372 25.8725 12.2472 25.6525 12.3498L26.0192 12.7971C26.3125 13.1491 26.8331 13.1051 26.9724 12.7165L27.6104 10.9346C27.2438 11.3452 26.8258 11.7045 26.3198 12.0052Z" fill="white"/>
<path d="M13.8246 18.1574L15.0345 19.426C15.4085 19.668 15.8925 19.646 16.2445 19.3746L19.8302 16.5808C17.7037 17.3361 16.3031 19.074 13.8246 18.1574Z" fill="white"/>
<path fill-rule="evenodd" clip-rule="evenodd" d="M15.5992 19.8295C15.3425 19.8295 15.0712 19.7561 14.8659 19.5948L9.98219 14.4691L4.73917 19.3895C4.24053 19.8735 3.38259 19.8441 2.92061 19.3382C2.43664 18.8175 2.45864 18.0036 2.97927 17.5196L8.98491 11.8733C9.41022 11.47 10.0555 11.4113 10.5542 11.7266C10.6202 11.756 15.5039 16.9036 15.5625 16.9476L23.8194 10.524C23.2767 10.0401 23.1154 9.16011 23.9513 8.93279L27.4271 8.27283C28.0284 8.1335 28.6371 8.8448 28.4024 9.41676L27.1925 12.7972C26.9945 13.3765 26.2025 13.4205 25.8432 12.9512L25.4693 12.4966C25.1173 12.6359 15.9072 20.2914 15.5992 19.8295ZM15.1885 19.2428C15.4745 19.4115 15.8338 19.3895 16.0978 19.1842L25.3593 11.9833C25.4546 11.9026 25.6013 11.9173 25.6892 12.0199C25.8946 12.2179 26.4372 13.1932 26.7452 12.6359L27.9551 9.25544C28.0358 8.97679 27.8011 8.70547 27.5151 8.7348C27.3832 8.83013 23.79 9.29943 23.856 9.56342C23.702 9.9154 24.4133 10.2674 24.3987 10.59C24.4133 10.8173 15.7752 17.2996 15.6798 17.4609C15.5699 17.5636 15.3499 17.4463 15.3645 17.4316C15.2545 17.3143 10.2828 12.1153 10.2682 12.1079C9.96752 11.8879 9.41756 12.0639 9.30756 12.2253C9.1829 12.3426 3.30192 17.8643 3.29459 17.8716C2.97928 18.1649 2.96461 18.7075 3.27259 19.0155C3.55857 19.3822 4.24053 19.2722 4.40919 19.0449C4.53385 18.9349 9.82086 13.9632 9.8282 13.9558C9.93819 13.8238 10.1728 13.9485 10.1655 13.9705C10.2608 14.0731 15.1885 19.2428 15.1885 19.2428Z" fill="#183453"/>
<path d="M6.15441 18.7664C6.08841 22.4255 0.647402 22.4255 0.581406 18.7664C0.647402 15.0999 6.08841 15.1073 6.15441 18.7664Z" fill="white"/>
<path d="M5.57512 18.5462C5.51646 21.736 0.779411 21.7286 0.728081 18.5462C0.779411 15.3564 5.52379 15.3564 5.57512 18.5462Z" fill="#08A5E2"/>
<path d="M1.86462 17.6299C1.38798 18.3192 1.00668 18.0552 1.48331 17.3659C1.95995 16.6766 2.33393 16.9406 1.86462 17.6299Z" fill="#E0F8F0"/>
<path fill-rule="evenodd" clip-rule="evenodd" d="M3.36788 21.7877C-0.606553 21.7143 -0.606553 15.8114 3.36788 15.738C7.3423 15.8114 7.3423 21.7143 3.36788 21.7877ZM3.36788 16.2147C0.0240764 16.2807 0.0240764 21.2524 3.36788 21.311C6.71168 21.2524 6.71168 16.2807 3.36788 16.2147Z" fill="#183453"/>
<path d="M3.36791 20.0788C1.63735 20.0495 1.63735 17.4756 3.36791 17.4463C5.09848 17.4756 5.09848 20.0495 3.36791 20.0788Z" fill="white"/>
<path fill-rule="evenodd" clip-rule="evenodd" d="M3.36794 20.3206C1.32206 20.2839 1.32206 17.2408 3.36794 17.2041C5.41382 17.2408 5.41382 20.2839 3.36794 20.3206ZM3.36794 17.6807C1.94536 17.7101 1.95269 19.8219 3.36794 19.8439C4.79052 19.8219 4.79052 17.7101 3.36794 17.6807Z" fill="#183453"/>
<path d="M3.36791 18.3995C3.36791 18.9495 2.53196 18.9495 2.52463 18.3995C2.53196 17.8496 3.36791 17.8496 3.36791 18.3995Z" fill="#FEFCE8"/>
<path d="M50.7017 49.55C51.4937 49.1247 52.4543 48.6407 51.9116 47.5774L44.8647 35.3682L42.1516 36.9374L49.1985 49.1467C49.5064 49.6746 50.1737 49.8506 50.7017 49.55Z" fill="#EFE3FD"/>
<path fill-rule="evenodd" clip-rule="evenodd" d="M50.1517 49.9311C49.6898 49.9311 49.2425 49.6965 48.9931 49.2638L41.9462 37.0546C41.8802 36.9372 41.9169 36.7906 42.0269 36.7319L44.7474 35.1627C45.2754 34.796 51.831 47.3499 52.1243 47.4599C52.4909 48.0979 52.2709 48.9192 51.633 49.2858C51.237 49.4691 50.6137 49.9898 50.1517 49.9311ZM50.5844 49.3445C51.2077 48.9778 52.1756 48.6039 51.7063 47.6946L44.7767 35.6906L42.4742 37.0252L49.4038 49.0218C49.6458 49.4398 50.1737 49.5791 50.5844 49.3445Z" fill="#183453"/>
<path d="M50.7017 49.5495C51.4937 49.1242 52.4543 48.6402 51.9116 47.577L48.3185 41.344L45.598 42.9132L49.1985 49.1462C49.5065 49.6742 50.1737 49.8501 50.7017 49.5495Z" fill="#FFC000"/>
<path d="M50.3937 49.1098C51.017 48.8531 51.391 48.1492 51.0244 47.5259L47.7465 41.8576C47.7026 41.7769 47.6072 41.7549 47.5339 41.7989L45.7373 42.8328C45.664 42.8768 45.6347 42.9722 45.6787 43.0455L48.9565 48.7211C49.2425 49.2271 49.8878 49.3958 50.3937 49.1098Z" fill="#FFC000"/>
<path fill-rule="evenodd" clip-rule="evenodd" d="M50.1518 49.9308C49.6898 49.9308 49.2425 49.6962 48.9932 49.2635L45.3927 43.0306C45.3267 42.9206 45.3707 42.7739 45.4807 42.7079L48.1939 41.1387C48.3039 41.0727 48.4579 41.1167 48.5239 41.2267L52.1243 47.4596C52.4909 48.0976 52.271 48.9189 51.633 49.2855C51.2443 49.4762 50.6137 49.9821 50.1518 49.9308ZM45.928 43.0012L49.4038 49.0215C49.9538 49.8868 50.7677 49.2342 51.391 48.8749C51.8017 48.6329 51.9483 48.1049 51.7063 47.6943L48.2305 41.6666L45.928 43.0012Z" fill="#183453"/>
<path fill-rule="evenodd" clip-rule="evenodd" d="M50.1518 49.9308C49.6898 49.9308 49.2425 49.6962 48.9932 49.2635L45.3927 43.0306C45.3267 42.9206 45.3707 42.7739 45.4807 42.7079L48.1939 41.1387C48.3039 41.0727 48.4579 41.1167 48.5239 41.2267L52.1243 47.4596C52.4909 48.0976 52.271 48.9189 51.633 49.2855C51.2443 49.4762 50.6137 49.9821 50.1518 49.9308ZM45.928 43.0012L49.4038 49.0215C49.9538 49.8868 50.7677 49.2342 51.391 48.8749C51.8017 48.6329 51.9483 48.1049 51.7063 47.6943L48.2305 41.6666L45.928 43.0012Z" fill="#183453"/>
<path d="M35.6253 36.7174C40.4357 44.7322 52.4689 37.7807 47.9372 29.6118C43.1268 21.597 31.0936 28.5485 35.6253 36.7174Z" fill="#FFC000"/>
<path d="M37.3192 29.4649C36.2926 30.7262 35.6766 30.2349 36.6959 28.9589C37.7225 27.6977 38.3385 28.189 37.3192 29.4649Z" fill="#FEF4E0"/>
<path d="M47.9372 29.6116C47.1746 28.2843 46.0527 27.3017 44.7694 26.7078C44.0728 31.9581 42.2322 36.3285 37.1212 38.5284C42.9289 43.7421 51.985 36.4238 47.9372 29.6116Z" fill="#FFC000"/>
<path d="M41.7923 40.5082C30.8589 40.0609 32.9195 23.7086 43.6842 26.0624C51.875 28.2843 50.2544 40.4789 41.7923 40.5082ZM35.8306 36.5998C40.487 44.336 52.1097 37.6264 47.7319 29.7289C43.0095 22 31.5042 28.6289 35.8306 36.5998Z" fill="#183453"/>
<path d="M44.3221 37.5606C50.0344 34.1215 45.0774 25.5346 39.2478 28.7684C33.5281 32.2076 38.4851 40.7871 44.3221 37.5606Z" fill="#C6EAF8"/>
<path d="M39.6877 31.7163C39.6657 33.0875 37.7885 33.0875 37.7665 31.7163C37.7885 30.3524 39.6657 30.3524 39.6877 31.7163Z" fill="white"/>
<path d="M46.1773 30.6234C45.6713 29.7508 44.9381 29.0762 44.1021 28.6509C43.9848 31.5547 41.4769 35.5585 39.1817 37.5163C43.4861 40.2149 48.8318 35.0452 46.1773 30.6234Z" fill="white"/>
<path fill-rule="evenodd" clip-rule="evenodd" d="M41.7923 38.4769C36.5126 38.6015 34.43 31.1586 39.1231 28.5628C47.2186 24.6104 50.6504 37.8756 41.7923 38.4769ZM41.7702 28.3281C35.398 28.4528 35.4566 37.9122 41.7923 38.0002C48.2012 37.7876 48.1425 28.5041 41.7702 28.3281Z" fill="#183453"/>
<path d="M45.53 9.24475L51.1326 6.61958C51.166 7.09125 51.2266 7.56268 51.3144 8.03387C51.423 8.5007 51.5502 8.95274 51.6962 9.38999L45.53 9.24475Z" fill="#183453" stroke="#183453" stroke-width="0.125813"/>
<path d="M45.5888 7.83919L47.6941 2.02128C48.0513 2.33114 48.4275 2.62163 48.8227 2.89276C49.2296 3.14606 49.6393 3.37572 50.0516 3.58171L45.5888 7.83919Z" fill="#183453" stroke="#183453" stroke-width="0.125813"/>
<path d="M44.6627 7.43934L41.522 2.10865C41.9884 2.03094 42.452 1.92624 42.9129 1.79453C43.3674 1.64248 43.8055 1.47324 44.227 1.28681L44.6627 7.43934Z" fill="#183453" stroke="#183453" stroke-width="0.125813"/>
</svg>
