<svg width="16" height="12" viewBox="0 0 16 12" fill="none" xmlns="http://www.w3.org/2000/svg">
<path d="M9.14174 11.2019C8.95275 11.0129 8.86203 10.7845 8.86959 10.5168C8.87778 10.2491 8.97637 10.0207 9.16536 9.83169L11.8349 7.16219H1.2986C1.03086 7.16219 0.806272 7.07147 0.624841 6.89004C0.444039 6.70924 0.353638 6.48497 0.353638 6.21723C0.353638 5.9495 0.444039 5.72491 0.624841 5.54348C0.806272 5.36268 1.03086 5.27228 1.2986 5.27228H11.8349L9.14174 2.57915C8.95275 2.39016 8.85825 2.16557 8.85825 1.90539C8.85825 1.64584 8.95275 1.42158 9.14174 1.23258C9.33073 1.04359 9.55532 0.949097 9.81549 0.949097C10.075 0.949097 10.2993 1.04359 10.4883 1.23258L14.8115 5.55576C14.906 5.65026 14.9731 5.75263 15.0128 5.86287C15.0518 5.97312 15.0713 6.09124 15.0713 6.21723C15.0713 6.34323 15.0518 6.46135 15.0128 6.57159C14.9731 6.68184 14.906 6.78421 14.8115 6.8787L10.4647 11.2255C10.2914 11.3987 10.075 11.4854 9.81549 11.4854C9.55532 11.4854 9.33073 11.3909 9.14174 11.2019Z" fill="white"/>
</svg>
